<svg xmlns="http://www.w3.org/2000/svg" viewBox="0 0 421.75 403.81"><defs><style>.cls-1{fill:#ffe4d2;}.cls-2{fill:#a38986;}.cls-3{fill:#ffafd8;}.cls-4{fill:#ff82c1;}.cls-5{fill:#372849;}.cls-6{fill:#f2559d;}.cls-7{fill:#ffce1f;}.cls-8{fill:#87391e;}.cls-9{fill:#ffdf7b;}.cls-10{fill:#ff64b2;}.cls-11{fill:#a64a23;}.cls-12{fill:#9b4223;}.cls-13{fill:#4e3666;}.cls-14{fill:#35100d;}.cls-15{fill:#4d160f;}.cls-16{fill:#d13e3b;}.cls-17{fill:#752e2d;}.cls-18{fill:#b73737;}.cls-19{fill:#212444;}.cls-20{fill:#2a2e59;}.cls-21{fill:#fff5ee;}.cls-22{fill:#31346d;}.cls-23{fill:#eb6923;}.cls-24{fill:#cc5728;}.cls-25{fill:#ead1c1;}.cls-26{fill:#d6bfb2;}</style></defs><title>Asset 2</title><g id="Layer_2" data-name="Layer 2"><g id="artwork"><g id="Son_Daughter" data-name="Son + Daughter"><path class="cls-1" d="M420.09,345.78c2.11,5.06-3.92,10-7.27,10.14C414.54,352.42,418.56,344.54,420.09,345.78Z"/><path class="cls-2" d="M420.09,345.78c-1.53-1.24-5.55,6.64-7.27,10.14a56.58,56.58,0,0,1-5.63,9.65c-4.54,3.46-18.09,8.2-24.64,2.83-1.65-1.15-2.79-3.37-2.08-4.29,5.73-7.61,9.08-13,9.08-13,.89-.84,5.41.8,10.38,3s5.93-.48,3.25-4.39c3.35.37,4.77-2,4.1-4.88,2.2,0,3.93-2.59,1.92-6a3.06,3.06,0,0,1,1.55.3c1.29.53,2.59,1.82,5.71,3.28,4.3,2,1-5.94,1.43-7.47C420.09,337.47,420.76,343.68,420.09,345.78Z"/><path class="cls-3" d="M416.17,150.23a11.64,11.64,0,0,1-.79,2l-1.15-1a1,1,0,0,1-.1-1.4,1,1,0,0,1,1.41-.11Z"/><path class="cls-1" d="M411.28,330.53c2.59.53,3.74,5.22,3.85,9.51a19.84,19.84,0,0,0-4-2c-.27-.12-.53-.21-.82-.31,1.13-2,2.54-3-.4-4.5C411.45,332.94,411.73,332,411.28,330.53Z"/><path class="cls-3" d="M411.42,144.22a10.8,10.8,0,0,0-.84-1.53,1,1,0,0,1,.92,1.69A.48.48,0,0,0,411.42,144.22Z"/><path class="cls-4" d="M411.42,144.22a.48.48,0,0,1,.08.16h0A.67.67,0,0,0,411.42,144.22Z"/><path class="cls-5" d="M416.94,144.74c10.87,11.57.95,44.32-6.55,59-.09-.36-.19-.75-.33-1.16A78.61,78.61,0,0,1,406,183c-1-11.09-4.58-20.46-7.17-23.9.69,1.14,2.85,1.6,5.44,1.19a9.4,9.4,0,0,0,1-.19,15.21,15.21,0,0,0,4.64-1.91.16.16,0,0,0,.08,0,6.3,6.3,0,0,0,.76-.51,14,14,0,0,0,5.37-7.35A17.22,17.22,0,0,0,416.94,144.74Z"/><path class="cls-6" d="M415.13,340c-.11-4.29-1.26-9-3.85-9.51a9.15,9.15,0,0,0-.65-1.56,10.51,10.51,0,0,1-.62-1.56h0c6.07.75,8.63,3.95,7.86,7.57-.48,1.53,2.87,9.46-1.43,7.47-3.12-1.46-4.42-2.75-5.71-3.28l.41-1.12A19.84,19.84,0,0,1,415.13,340Z"/><path class="cls-7" d="M410,158.09l.76-.51A6.3,6.3,0,0,1,410,158.09Z"/><path class="cls-3" d="M410.59,138a1,1,0,0,1-.58,1.28l-1.68.64a.68.68,0,0,0-.12-.12c-.23-.22-.47-.43-.72-.64s-.6-.49-.93-.72l2.76-1A1,1,0,0,1,410.59,138Z"/><path class="cls-6" d="M410.34,337.74c.29.1.55.19.82.31l-.41,1.12a3.06,3.06,0,0,0-1.55-.3c2,3.37.28,6-1.92,6,.67,2.87-.75,5.25-4.1,4.88,2.68,3.91,1.71,6.59-3.25,4.39s-9.49-3.84-10.38-3a46.54,46.54,0,0,0,3.88-6.85c.89-1.86,1.51-3.9,2.47-5.24a3,3,0,0,1,2.3-1.44,5.74,5.74,0,0,1,3.07.86C402.56,335.92,406.77,336.49,410.34,337.74Z"/><path class="cls-4" d="M408.77,149.92l2.85,7c-.25.22-.53.43-.82.64l-.76.51a.16.16,0,0,1-.08,0l-3-7.46a1,1,0,1,1,1.83-.76Z"/><path class="cls-3" d="M408.21,139.76c-.23-.21-.47-.43-.72-.64C407.74,139.33,408,139.54,408.21,139.76Z"/><path class="cls-3" d="M407.49,139.12q-.47-.37-.93-.72C406.89,138.63,407.19,138.87,407.49,139.12Z"/><path class="cls-8" d="M393.36,236.36c.31-1.11-1.3-3.1-2.52-5,1.09-9.11,2-19.45,3.45-28.65,6,.71,11.12.52,13-1.4,1.82,5.06,1.58,6.95,0,9.83-2.52,4.64-8.43,15.52-12.2,25.87Z"/><path class="cls-7" d="M404.31,160.24c.33-.05.67-.12,1-.19A9.4,9.4,0,0,1,404.31,160.24Z"/><path class="cls-5" d="M399.44,199.63c.18-.38,2.45-5.08,1.95-9.17l3.28-.66c.65,3.29,1.24,6.26,1.79,8.49A14.91,14.91,0,0,1,399.44,199.63Z"/><path class="cls-4" d="M404.36,154.35l1,5.7c-.34.07-.68.14-1,.19s-.65.08-1,.1l-1-5.66a1,1,0,1,1,2-.33Z"/><path class="cls-2" d="M410.34,337.74c-3.57-1.25-7.78-1.82-9.07.69a5.74,5.74,0,0,0-3.07-.86,17.36,17.36,0,0,1,.38-4.33c.72-2.59,2.69-2.93,7.84-1.32a28.77,28.77,0,0,1,3.52,1.32C412.88,334.7,411.47,335.72,410.34,337.74Z"/><path class="cls-4" d="M410.58,142.69a10.8,10.8,0,0,1,.84,1.53.67.67,0,0,1,.07.17.6.6,0,0,1-.14.11l-9.2,4.77a1,1,0,0,1-.53.1,1,1,0,0,1-.81-.53,1,1,0,0,1,.41-1.36l9.2-4.75Z"/><path class="cls-9" d="M413.92,154.59a31.77,31.77,0,0,0-2.43-10.2h0a1,1,0,0,0-.92-1.69,14.24,14.24,0,0,0-2.25-2.81l1.68-.64a1,1,0,0,0-.69-1.87l-2.76,1a9.91,9.91,0,0,0-1-.68l.36-.57a.79.79,0,0,0,.44.14,1,1,0,0,0,.91-1.53l-7.64-12.22a1,1,0,0,0-.84-.47l.48-1.09c7.75.94,13.48,11,13.75,15,0,0,3.27-.1,3.83,6.11.05.57.09,1.11.1,1.65a17.22,17.22,0,0,1-.77,5.49l-.63-.57a1,1,0,0,0-1.41.11,1,1,0,0,0,.1,1.4l1.15,1a11.64,11.64,0,0,0,.79-2A13.64,13.64,0,0,1,413.92,154.59Z"/><path class="cls-3" d="M399.62,123.54l7.64,12.22a1,1,0,0,1-.91,1.53.79.79,0,0,1-.44-.14,1,1,0,0,1-.33-.33l-7.65-12.22a1,1,0,0,1,.32-1.37,1.05,1.05,0,0,1,.53-.16A1,1,0,0,1,399.62,123.54Z"/><path class="cls-4" d="M396.24,142.27l10.32-3.87q.46.34.93.72c.25.21.49.43.72.64a.68.68,0,0,1,.12.12L397,144.14a1.35,1.35,0,0,1-.43.06,1,1,0,0,1-.86-.65.86.86,0,0,1,0-.63A1,1,0,0,1,396.24,142.27Z"/><path class="cls-1" d="M394.87,330.94a4,4,0,0,0,2,1.79,11.07,11.07,0,0,0,1.67.51,17.36,17.36,0,0,0-.38,4.33,3,3,0,0,0-2.3,1.44C396.11,335.94,393.05,332.92,394.87,330.94Z"/><path class="cls-10" d="M375,195.17c13,3,19.86,4.39,24.45,4.46a14.91,14.91,0,0,0,7-1.34,28.27,28.27,0,0,0,.82,3c-1.87,1.92-7,2.11-13,1.4a118.74,118.74,0,0,1-18.94-4C375.23,197.67,375.11,196.51,375,195.17Z"/><path class="cls-4" d="M393.82,146.13a1,1,0,0,1,1.12.87l1.2,10.1h-.22a7.4,7.4,0,0,0-1.75.25L393,147.24a1,1,0,0,1,.25-.77A.92.92,0,0,1,393.82,146.13Z"/><path class="cls-7" d="M411.49,144.39a31.77,31.77,0,0,1,2.43,10.2,13.55,13.55,0,0,1-3.12,3c.29-.21.57-.42.82-.64l-2.85-7a1,1,0,1,0-1.83.76l3,7.46a15.21,15.21,0,0,1-4.64,1.91l-1-5.7a1,1,0,1,0-2,.33l1,5.66c.31,0,.63-.05,1-.1-2.59.41-4.75-.05-5.44-1.19s-1.48-2-2.95-2h.22l-1.2-10.1a1,1,0,0,0-1.12-.87.92.92,0,0,0-.61.34l-1.93,0a1,1,0,0,0,.38-.44l1.22-2.9a.59.59,0,0,0,.05-.19h2.71a.86.86,0,0,0,0,.63,1,1,0,0,0,.86.65,1.35,1.35,0,0,0,.43-.06l11.38-4.26a14.24,14.24,0,0,1,2.25,2.81l-.16,0-9.2,4.75a1,1,0,0,0-.41,1.36,1,1,0,0,0,.81.53,1,1,0,0,0,.53-.1l9.2-4.77A.6.6,0,0,0,411.49,144.39Z"/><path class="cls-4" d="M392.4,131.31c.26.18.51.36.79.54A8.47,8.47,0,0,1,392.4,131.31Z"/><path class="cls-8" d="M410.63,329a9.15,9.15,0,0,1,.65,1.56c.45,1.43.17,2.41-1.34,2.71a28.77,28.77,0,0,0-3.52-1.32s-2-26.05-5-42-19.34-29.12-15-38.06c1.66-3.45,2.8-8.87,3.71-15.26,1.37.79,2.57.81,3.07.07a1.18,1.18,0,0,0,.12-.28l1.72.64c-2.39,6.52-3.95,12.84-3.28,17.23.87,5.07,13.95,12.62,15.29,42.92.65,18.72,1.79,26.65,2.92,30.26A10.51,10.51,0,0,0,410.63,329Z"/><path class="cls-3" d="M392.4,131.31h0l.53-.79a1,1,0,0,1,1.65,1.13l-.51.76c-.31-.18-.59-.37-.86-.55S392.66,131.49,392.4,131.31Z"/><path class="cls-7" d="M392.93,142.92a1,1,0,0,0-1.75-.84l-2.54-1.74,5.41-7.94a48.71,48.71,0,0,0,7.41,3.33,21.62,21.62,0,0,1,4.09,2,9.91,9.91,0,0,1,1,.68l-10.32,3.87a1,1,0,0,0-.6.65Z"/><path class="cls-11" d="M390.56,230.91c-1.34-2.2-4.5-8.28-5.82-10,0,0,0,0,0,0-.26-1.06-.49-2-.67-2.92-.76-3.45-3.61-5.68-4.47-7.51h0a9.09,9.09,0,0,0-.86-1.86c-1.56-2.52-2.63-4.12-3.37-9.94a118.74,118.74,0,0,0,18.94,4c-1.46,9.2-2.36,19.54-3.45,28.65C390.73,231.2,390.65,231.06,390.56,230.91Z"/><path class="cls-4" d="M391.66,146a1,1,0,0,1-.38.44.84.84,0,0,1-.62.17,1.59,1.59,0,0,1-.3-.06,1,1,0,0,1-.55-1.31l1.22-2.92a2.75,2.75,0,0,1,.15-.25,1,1,0,0,1,1.75.84.59.59,0,0,1-.05.19Z"/><path class="cls-3" d="M389.6,117.44a6.28,6.28,0,0,0-.39-1.71,5.62,5.62,0,0,1,.41,1.73Z"/><path class="cls-3" d="M389.21,115.73c-.07-.19-.16-.36-.23-.52A2,2,0,0,1,389.21,115.73Z"/><path class="cls-4" d="M388.93,127.06a2.75,2.75,0,0,0,.21.51A2.2,2.2,0,0,1,388.93,127.06Z"/><path class="cls-3" d="M389,115.21a4.82,4.82,0,0,0-.27-.5A2.22,2.22,0,0,1,389,115.21Z"/><path class="cls-4" d="M388.86,126.89a.87.87,0,0,0,.07.17A.41.41,0,0,1,388.86,126.89Z"/><path class="cls-3" d="M388.85,126a1,1,0,0,1,.73,1.2l-.2.86a1.9,1.9,0,0,1-.24-.5,2.75,2.75,0,0,1-.21-.51.87.87,0,0,1-.07-.17,1.69,1.69,0,0,1-.1-.35c0-.14-.07-.27-.09-.41a.14.14,0,0,1,0-.14A.75.75,0,0,1,388.85,126Z"/><path class="cls-4" d="M388.67,126.13c0,.14.06.27.09.41A1.21,1.21,0,0,1,388.67,126.13Z"/><path class="cls-8" d="M387.13,230.34c-.79-2.64-1.68-6.28-2.39-9.39,1.32,1.68,4.48,7.76,5.82,10,.09.15.17.29.28.44,1.22,1.91,2.83,3.9,2.52,5a1.18,1.18,0,0,1-.12.28c-.5.74-1.7.72-3.07-.07a8.47,8.47,0,0,1-2.3-2A11.44,11.44,0,0,0,387.13,230.34Z"/><path class="cls-11" d="M378.24,228.33c1.27,1,2.38.76,2.9-.74h0c1.76,4.38,2.71,7.25,5,7.81,1.08.28,1.59-.05,1.7-.84a8.47,8.47,0,0,0,2.3,2c-.91,6.39-2.05,11.81-3.71,15.26-4.34,8.94,12.08,22.07,15,38.06s5,42,5,42c-5.15-1.61-7.12-1.27-7.84,1.32a11.07,11.07,0,0,1-1.67-.51,4,4,0,0,1-2-1.79,3.8,3.8,0,0,1-.33-.77c-4.41-14.59-12-31.14-17.16-43.36-5.36-12.7-20.74-36.11-12.05-75.75h0s0,0,0,0c2.38,1.16,1.39,2.21,3.76,4.43a45.35,45.35,0,0,0,6.3,4.87,2,2,0,0,1,.61,1.19C376.57,223.52,376.45,227,378.24,228.33Z"/><path class="cls-4" d="M386.92,129.68l.72-3a1,1,0,0,1,1-.74.14.14,0,0,0,0,.14,1.21,1.21,0,0,0,.09.41,1.69,1.69,0,0,0,.1.35.41.41,0,0,0,.07.17,2.2,2.2,0,0,0,.21.51,1.9,1.9,0,0,0,.24.5l-.52,2.09a1,1,0,0,1-1,.76.43.43,0,0,1-.17,0A1,1,0,0,1,386.92,129.68Z"/><path class="cls-6" d="M410.39,203.78c.75,2.89.29,4.55-3.11,7.35,1.58-2.88,1.82-4.77,0-9.83a28.27,28.27,0,0,1-.82-3c-.55-2.23-1.14-5.2-1.79-8.49-1.49-7.64-3.24-17-5.13-23-3.12-10-8-8.54-13-6.24.67-.33,1.31-.64,1.91-.91a33.82,33.82,0,0,1,5.75-2.29,7.4,7.4,0,0,1,1.75-.25c1.47,0,2.21.73,2.95,2,2.59,3.44,6.13,12.81,7.17,23.9a78.61,78.61,0,0,0,4,19.67C410.2,203,410.3,203.42,410.39,203.78Z"/><path class="cls-4" d="M386.48,140l5.9-8.68h0a8.47,8.47,0,0,0,.79.54c.27.18.55.37.86.55l-5.41,7.94-.52.76a1,1,0,0,1-.89.43,1,1,0,0,1-.48-.17A1,1,0,0,1,386.48,140Z"/><path class="cls-1" d="M400.53,371.61c-10.17,5.18-25.79.08-20.06-7.5-.71.92.43,3.14,2.08,4.29,6.55,5.37,20.1.63,24.64-2.83C405.27,368.14,403,370.53,400.53,371.61Z"/><path class="cls-4" d="M383.46,110.84a10.55,10.55,0,0,1,5.25,3.87,4.82,4.82,0,0,1,.27.5c.07.16.16.33.23.52a6.28,6.28,0,0,1,.39,1.71l-5.87-6A1,1,0,0,1,383.46,110.84Z"/><path class="cls-4" d="M385,148.19a1,1,0,0,1,.88-1.12A1,1,0,0,1,387,148l1.39,11.69c-.6.27-1.24.58-1.91.91L385,148.24Z"/><path class="cls-5" d="M386.51,160.55s0,0-.05,0Z"/><path class="cls-9" d="M392.47,117.51l-7.32-7.43A.79.79,0,0,0,385,110l.69-1.39c5.4,2.71,11,6.45,13.57,13.41l-.48,1.09a1.05,1.05,0,0,0-.53.16,1,1,0,0,0-.32,1.37l7.65,12.22a1,1,0,0,0,.33.33l-.36.57a21.62,21.62,0,0,0-4.09-2,48.71,48.71,0,0,1-7.41-3.33l.51-.76a1,1,0,0,0-1.65-1.13l-.53.79a9.79,9.79,0,0,1-3-3.23l.2-.86a1,1,0,0,0-.73-1.2.75.75,0,0,0-.21,0,8.89,8.89,0,0,1,.43-4.6,9.68,9.68,0,0,0,.55-3.93l1.44,1.44a.92.92,0,0,0,.63.3,1,1,0,0,0,.78-1.69Z"/><path class="cls-3" d="M385,110a.79.79,0,0,1,.15.12l7.32,7.43a1,1,0,0,1-.78,1.69.92.92,0,0,1-.63-.3l-1.44-1.44a5.62,5.62,0,0,0-.41-1.73,2,2,0,0,0-.23-.52,2.22,2.22,0,0,0-.27-.5,10.55,10.55,0,0,0-5.25-3.87,1,1,0,0,1,.29-.76A1,1,0,0,1,385,110Z"/><path class="cls-4" d="M381.79,160.53a1,1,0,0,1,1.24-.71,1,1,0,0,1,.68,1.22l-.27,1.07c-.43.2-.86.43-1.31.67s-.72.38-1.09.56Z"/><path class="cls-4" d="M382.13,162.78l-1.09.58v0C381.41,163.16,381.77,163,382.13,162.78Z"/><path class="cls-12" d="M381.1,221.64c-.94-5.26-.53-8.31-1.52-11.14h0c.86,1.83,3.71,4.06,4.47,7.51.18.88.41,1.86.67,2.92,0,0,0,0,0,0,.71,3.11,1.6,6.75,2.39,9.39a11.44,11.44,0,0,1,.74,4.22c-.11.79-.62,1.12-1.7.84-2.3-.56-3.25-3.43-5-7.81h0A12.47,12.47,0,0,0,381.1,221.64Z"/><path class="cls-4" d="M380.86,156.74l-1.42-1.12a1,1,0,1,1,1.23-1.56l1.41,1.1a1,1,0,0,1,.17,1.4,1,1,0,0,1-.85.38A1.08,1.08,0,0,1,380.86,156.74Z"/><path class="cls-4" d="M380.18,127.64l-10.41,6.92c.06-.81.09-1.63.12-2.47l9.19-6.11a1,1,0,0,1,1.37.27A1,1,0,0,1,380.18,127.64Z"/><path class="cls-4" d="M386.67,123.54l-8.06-9.12a1,1,0,0,1,1.5-1.32l8.05,9.13a1,1,0,0,1-.09,1.41,1,1,0,0,1-.72.24A1,1,0,0,1,386.67,123.54Z"/><path class="cls-4" d="M379.59,140.58a1,1,0,0,1-.8.33,1,1,0,0,1-.6-.26,1,1,0,0,1-.07-1.41l7.4-8.12a1,1,0,0,1,1.4-.06,1,1,0,0,1,.07,1.4Z"/><path class="cls-4" d="M378.31,154.4a1,1,0,0,1,.3,1.37,1.05,1.05,0,0,1-.9.47,1.14,1.14,0,0,1-.47-.16l-8.48-5.34c0-.7,0-1.47.09-2.3Z"/><path class="cls-4" d="M376,116.36a.87.87,0,0,1-.56.14,1,1,0,0,1-.79-.5l-6.94-12h0c0-.18-.09-.37-.14-.55a1,1,0,0,1,.48-.85,1,1,0,0,1,1.37.37l7,12.1A1,1,0,0,1,376,116.36Z"/><path class="cls-4" d="M376,119.61a1,1,0,0,1-.27,1.39l-5.72,3.79c0-.79,0-1.58,0-2.37l4.63-3.09A1,1,0,0,1,376,119.61Z"/><path class="cls-4" d="M374.91,159.48a1,1,0,0,1,.68,1.22l-1.76,6.47-.93.5s0-.09,0-.12c-.12-.74-.26-1.48-.41-2.2a3.43,3.43,0,0,0-.09-.44l1.29-4.74A1,1,0,0,1,374.91,159.48Z"/><path class="cls-5" d="M395.54,167.09c1.8-3.33-6.69-6-21.89,2.76l-.43.05c-.1-.75-.2-1.49-.32-2.23l.93-.5c2.71-1.46,5.09-2.73,7.21-3.83v0l1.09-.58c.45-.24.88-.47,1.31-.67,1.08-.57,2.09-1.08,3-1.53,0,0,0,0,.05,0,5-2.3,9.91-3.76,13,6.24,1.89,6,3.64,15.37,5.13,23l-3.28.66a6.55,6.55,0,0,0-1.37-3.41C390.94,177.3,393.72,170.42,395.54,167.09Z"/><path class="cls-13" d="M373.65,169.85c15.2-8.79,23.69-6.09,21.89-2.76s-4.6,10.21,4.48,20a6.55,6.55,0,0,1,1.37,3.41c.5,4.09-1.77,8.79-1.95,9.17-4.59-.07-11.45-1.48-24.45-4.46-.1-1.36-.2-2.87-.29-4.59-.36-7.07-.57-14.07-1.48-20.68Z"/><path class="cls-7" d="M379.44,155.62l1.42,1.12a1.08,1.08,0,0,0,.54.2,1,1,0,0,0,.85-.38,1,1,0,0,0-.17-1.4l-1.41-1.1a1,1,0,1,0-1.23,1.56Zm-10.68-4.88,8.48,5.34a1.14,1.14,0,0,0,.47.16,1.05,1.05,0,0,0,.9-.47,1,1,0,0,0-.3-1.37l-9.46-6c.1-2,.29-4.36.48-7a1,1,0,0,0,.34.41l11.83,7.45a.9.9,0,0,0,.44.13,1,1,0,0,0,.93-.46,1,1,0,0,0,.16-.53l2-.24,1.48,12.31-.05,0c-.93.45-1.94,1-3,1.53l.27-1.07a1,1,0,0,0-.68-1.22,1,1,0,0,0-1.24.71l-.75,2.81c-2.12,1.1-4.5,2.37-7.21,3.83l1.76-6.47a1,1,0,0,0-.68-1.22,1,1,0,0,0-1.24.69l-1.29,4.74a45.87,45.87,0,0,0-3.33-10.35A13.62,13.62,0,0,1,368.76,150.74Z"/><path class="cls-4" d="M372.47,165.35c.15.72.29,1.46.41,2.2C372.76,166.81,372.62,166.07,372.47,165.35Z"/><path class="cls-9" d="M372.42,88.31c-.16-.3-.31-.63-.48-.94C372.11,87.68,372.26,88,372.42,88.31Z"/><path class="cls-9" d="M371.63,86.77c.1.21.2.39.31.6C371.83,87.16,371.73,87,371.63,86.77Z"/><path class="cls-3" d="M371.94,87.37c.17.31.32.64.48.94l-.57.28a1.13,1.13,0,0,1-.5.09,1,1,0,0,1-.84-.57,1,1,0,0,1,.48-1.32l.52-.24c0,.07.07.13.12.22S371.83,87.16,371.94,87.37Z"/><path class="cls-12" d="M365.4,211.1c3.4,1.22,10,6.37,10.67,10.49a2,2,0,0,0-.61-1.19,45.35,45.35,0,0,1-6.3-4.87C366.79,213.31,367.78,212.26,365.4,211.1Z"/><path class="cls-4" d="M370.74,140.21l11.82,7.43a1,1,0,0,1,.31,1.37,1,1,0,0,1-.93.46.9.9,0,0,1-.44-.13l-11.83-7.45a1,1,0,0,1-.34-.41c0-.33,0-.66.07-1A1,1,0,0,1,370.74,140.21Z"/><path class="cls-9" d="M371.85,88.59l.57-.28c4.17,8.23,6.68,17.17,10.11,18.75,1,.48,2.09,1,3.16,1.51L385,110a1,1,0,0,0-1.25.12,1,1,0,0,0-.29.76,35.82,35.82,0,0,0-3.87-1.29c-6.23-1.72-5.27-7.45-5.94-12a31.47,31.47,0,0,0-3.45-9.22l.31-.17a1,1,0,0,0,.84.57A1.13,1.13,0,0,0,371.85,88.59Z"/><path class="cls-11" d="M369.83,205c1.52,2.2-.48,5.72-4.48,6h0a18.07,18.07,0,0,0-2.47-.89c-5.65-1.61-6.61-5.82-1.93-12.22-2.57,4,1.82,4.39,3.54,6.3C366.19,203.1,368.3,202.82,369.83,205Z"/><path class="cls-4" d="M371.08,96.47a1,1,0,0,1-.1,1.41l-1.6,1.37a1,1,0,0,1-.74.24.9.9,0,0,1-.67-.34,1,1,0,0,1,.11-1.39l1.59-1.39A1,1,0,0,1,371.08,96.47Z"/><path class="cls-7" d="M368.85,148.44c-.05.83-.07,1.6-.09,2.3C368.76,150,368.8,149.29,368.85,148.44Z"/><path class="cls-8" d="M369.77,134.56c-.1,2.07-.24,4.05-.37,5.92,0,.34,0,.67-.07,1-.19,2.6-.38,5-.48,7-.05.85-.09,1.6-.09,2.3a13.62,13.62,0,0,0,.29,3.82c-1.47-3.64-6-2.05-4.63-10.56s-8.76-33.92-1.7-44.48c2.51-3.76,3-6.28,2.35-8l1.86-.68c1.47,3.67,1.45,7.48-.35,9.61.35,1,.65,1.94.93,2.92v0c.05.17.1.32.14.5h0A78,78,0,0,1,370,122.42c0,.79,0,1.58,0,2.37,0,2.49-.05,4.94-.16,7.3C369.86,132.93,369.83,133.75,369.77,134.56Z"/><path class="cls-3" d="M367.7,80.71c.19.24.38.46.55.7a1.17,1.17,0,0,1-.26,0,1,1,0,0,1-.86-.64,1,1,0,0,1,0-.77C367.34,80.26,367.53,80.49,367.7,80.71Z"/><path class="cls-9" d="M367.7,80.71c-.17-.22-.36-.45-.55-.67C367.34,80.26,367.53,80.49,367.7,80.71Z"/><path class="cls-4" d="M367.51,103.39c.05.18.1.37.14.55,0-.18-.09-.33-.14-.5Z"/><path class="cls-9" d="M371,86.79a1,1,0,0,0-.48,1.32l-.31.17c-3-5.49-7.93-11.11-14.81-11.23a9.19,9.19,0,0,1-1.37-.12l1.4-3.46c.78.17,1.57.36,2.39.53a17,17,0,0,1,9.34,6,1,1,0,0,0,0,.77,1,1,0,0,0,.86.64,1.17,1.17,0,0,0,.26,0,42.33,42.33,0,0,1,3.26,5.14Z"/><path class="cls-8" d="M365.07,91.54c-1.15-3.09-6-3.53-9-3.86-4.75-.53-9.51-2.92-5.23-6.15h0l.68-.11c.24,0,.48,0,.74-.06a16.1,16.1,0,0,1,4.69.39,12.93,12.93,0,0,1,5.9,3.14s0,0,0,0A12,12,0,0,1,363.92,86a14.3,14.3,0,0,1,.93,1.13.31.31,0,0,1,.07.09,16.49,16.49,0,0,1,2,3.64Z"/><path class="cls-4" d="M364.85,87.13a14.3,14.3,0,0,0-.93-1.13A10.93,10.93,0,0,1,364.85,87.13Z"/><path class="cls-4" d="M364.81,84.61l.11,2.61a.31.31,0,0,0-.07-.09,10.93,10.93,0,0,0-.93-1.13,9.84,9.84,0,0,0-1.06-1.08s0,0,0,0v-.2a1,1,0,0,1,1-1A1,1,0,0,1,364.81,84.61Z"/><path class="cls-4" d="M362.86,84.92A9.84,9.84,0,0,1,363.92,86,12,12,0,0,0,362.86,84.92Z"/><path class="cls-3" d="M355.42,73.47,354,76.93a5.77,5.77,0,0,1-1.17-.27c-.26-.1-.5-.21-.7-.31,0,0,0,0,0,0L353.45,73Z"/><path class="cls-9" d="M352.11,76.33c-2.35-1.3-1.22-3.88,1-3.43l.34.09Z"/><path class="cls-7" d="M380.11,113.1a1,1,0,0,0-1.5,1.32l8.06,9.12a1,1,0,0,0,.68.34,1,1,0,0,0,.72-.24,1,1,0,0,0,.09-1.41Zm-.52,27.48,7.4-8.12a1,1,0,0,0-.07-1.4,1,1,0,0,0-1.4.06l-7.4,8.12a1,1,0,0,0,.07,1.41,1,1,0,0,0,.6.26A1,1,0,0,0,379.59,140.58ZM371,97.88a1,1,0,1,0-1.31-1.51l-1.59,1.39a1,1,0,0,0-.11,1.39.9.9,0,0,0,.67.34,1,1,0,0,0,.74-.24ZM376.33,115l-7-12.1a1,1,0,0,0-1.37-.37,1,1,0,0,0-.48.85c-.28-1-.58-2-.93-2.92,1.8-2.13,1.82-5.94.35-9.61a16.49,16.49,0,0,0-2-3.64l-.11-2.61a1,1,0,0,0-1-1,1,1,0,0,0-1,1v.2a12.93,12.93,0,0,0-5.9-3.14,16.1,16.1,0,0,0-4.69-.39L354,76.93a9.19,9.19,0,0,0,1.37.12c6.88.12,11.81,5.74,14.81,11.23a31.47,31.47,0,0,1,3.45,9.22c.67,4.6-.29,10.33,5.94,12a35.82,35.82,0,0,1,3.87,1.29,1,1,0,0,0,.27.65l5.87,6,0,0a9.68,9.68,0,0,1-.55,3.93,8.89,8.89,0,0,0-.43,4.6,1,1,0,0,0-1,.74l-.72,3a1,1,0,0,0,.74,1.2.43.43,0,0,0,.17,0,1,1,0,0,0,1-.76l.52-2.09a9.79,9.79,0,0,0,3,3.23l-5.9,8.68a1,1,0,0,0,.27,1.38,1,1,0,0,0,.48.17,1,1,0,0,0,.89-.43l.52-.76,2.54,1.74a2.75,2.75,0,0,0-.15.25l-1.22,2.92a1,1,0,0,0,.55,1.31,1.59,1.59,0,0,0,.3.06.84.84,0,0,0,.62-.17l1.93,0a1,1,0,0,0-.25.77l1.21,10.11a33.82,33.82,0,0,0-5.75,2.29L387,148a1,1,0,0,0-1.12-.88,1,1,0,0,0-.88,1.12v.05l-2,.24a1,1,0,0,0-.47-.84l-11.82-7.43a1,1,0,0,0-1.34.27c.13-1.87.27-3.85.37-5.92l10.41-6.92a1,1,0,0,0,.27-1.39,1,1,0,0,0-1.37-.27l-9.19,6.11c.11-2.36.18-4.81.16-7.3l5.72-3.79a1,1,0,0,0-1.12-1.67L370,122.42A78,78,0,0,0,367.66,104l6.94,12a1,1,0,0,0,.79.5.87.87,0,0,0,.56-.14A1,1,0,0,0,376.33,115Z"/><path class="cls-4" d="M353.23,168.06h0Z"/><path class="cls-4" d="M353,166.49c.09.54.17,1.06.28,1.57h-.09l-.05,0s-.1,0-.17-.05l-.83-.22Z"/><path class="cls-7" d="M352.92,168c.07,0,.14,0,.17.05Z"/><path class="cls-4" d="M352.15,76.35c.2.1.44.21.7.31A3.78,3.78,0,0,1,352.15,76.35Z"/><path class="cls-4" d="M351.49,81.41l-.68.11A4.83,4.83,0,0,1,351.49,81.41Z"/><path class="cls-7" d="M350.88,160a34.18,34.18,0,0,0,1.78,4.4c.09.7.19,1.41.29,2.08l-.86,1.27c-.53-.16-1.25-.38-2.07-.67-.67-.23-1.43-.5-2.22-.83l.72.28,2-5.79a.94.94,0,0,0,0-.62Z"/><path class="cls-12" d="M378.24,228.33c-1.79-1.34-1.67-4.81-2.17-6.74-.7-4.12-7.27-9.27-10.67-10.49,0,0,0,0,0,0,4-.32,6-3.84,4.48-6s-3.64-1.92-5.36-.77c-1.72-1.91-6.11-2.28-3.54-6.3A6.48,6.48,0,0,0,362,195.7c1.21-5.3-5.87-11.43-8.79-27.64-.11-.51-.19-1-.28-1.57s-.2-1.38-.29-2.08a34.18,34.18,0,0,1-1.78-4.4c-.47-1.35-.9-2.78-1.27-4.27l-.42-1.73c-.87-3.8-1.54-7.88-2.11-12-.1-.68-.19-1.37-.27-2.06-.24-1.75-.45-3.48-.67-5.2-.67-5.59-1.29-10.83-2.11-14.9l0-.25s0,0,0,0c-.12-.57-.24-1.12-.38-1.65a1.43,1.43,0,0,0-.07-.28c-2-7.94-5.18-11.7-6-16a.78.78,0,0,1,0-.21c-.05-.25-.06-.49-.1-.75a.82.82,0,0,1,0-.23,10,10,0,0,1,0-2.11,23,23,0,0,1,3.93-10.9v0a6.82,6.82,0,0,1,.51-.69,0,0,0,0,1,0,0c.17-.21.36-.41.53-.6h0A14.21,14.21,0,0,1,350,81.67l.14,0,.26,0a1.69,1.69,0,0,1,.38-.07h0c-4.28,3.23.48,5.62,5.23,6.15,3.06.33,7.88.77,9,3.86.64,1.7.16,4.22-2.35,8-7.06,10.56,3,36,1.7,44.48s3.16,6.92,4.63,10.56a45.87,45.87,0,0,1,3.33,10.35,3.43,3.43,0,0,1,.09.44c.15.72.29,1.46.41,2.2,0,0,0,.09,0,.12.12.74.22,1.48.32,2.23.91,6.61,1.12,13.61,1.48,20.68.09,1.72.19,3.23.29,4.59s.24,2.5.36,3.53c.74,5.82,1.81,7.42,3.37,9.94a9.09,9.09,0,0,1,.86,1.86c1,2.83.58,5.88,1.52,11.14a12.47,12.47,0,0,1,0,6C380.62,229.09,379.51,229.29,378.24,228.33Z"/><path class="cls-4" d="M350.53,160.13a.94.94,0,0,1,0,.62l-2,5.79-.72-.28c-.36-.15-.75-.31-1.13-.5l2-5.66a1,1,0,0,1,1.89,0Z"/><path class="cls-4" d="M350.17,81.64l.26,0Z"/><path class="cls-4" d="M350.1,81.33l2-5s0,0,0,0a3.78,3.78,0,0,0,.7.31,5.77,5.77,0,0,0,1.17.27l-1.79,4.42c-.26,0-.5.05-.74.06a4.83,4.83,0,0,0-.68.11,1.69,1.69,0,0,0-.38.07l-.26,0H350A.68.68,0,0,1,350.1,81.33Z"/><path class="cls-4" d="M350.17,81.64l-.14,0v0Z"/><path class="cls-4" d="M349.19,154l.42,1.73a1,1,0,0,1-.81-.94A1,1,0,0,1,349.19,154Z"/><path class="cls-7" d="M343.58,117.91c.14.53.26,1.08.38,1.65C343.84,119,343.7,118.44,343.58,117.91Z"/><path class="cls-4" d="M343.58,117.91c.12.53.26,1.08.38,1.65,0,0,0,0,0,0a.73.73,0,0,1-.33,0l-2.47-.17a1,1,0,0,1-.93-1.08,1,1,0,0,1,1.06-.91l2.2.15A1.43,1.43,0,0,1,343.58,117.91Z"/><path class="cls-4" d="M342.41,86.19c-.17.19-.36.39-.53.6.17-.21.34-.4.52-.6Z"/><path class="cls-4" d="M342.4,86.19c-.18.2-.35.39-.52.6a0,0,0,0,0,0,0l-.51.65,0-.25a1,1,0,0,1,.93-1C342.33,86.15,342.36,86.19,342.4,86.19Z"/><path class="cls-4" d="M342,79.51a1,1,0,0,1-1.41.14,1,1,0,0,1-.15-1.41L346.31,71l2.08.6Z"/><path class="cls-4" d="M343.25,154.92a1,1,0,0,1-.82,1.64,1.06,1.06,0,0,1-.69-.34l-1.37-1.61a1,1,0,0,1,.1-1.41,1,1,0,0,1,1.41.1Z"/><path class="cls-4" d="M341.86,86.82a6.82,6.82,0,0,0-.51.69v0Z"/><path class="cls-5" d="M342,187.53c8,.09,10.61-8,8-20.44.82.29,1.54.51,2.07.67l.83.22.17.05.05,0h.09c2.92,16.21,10,22.34,8.79,27.64h0c-5.84-1.3-14.37-3.57-21.82-4.58C340.18,191.12,334,187.43,342,187.53Z"/><path class="cls-4" d="M339.29,68.8l0,0a2.21,2.21,0,0,0-.41-.14Z"/><path class="cls-7" d="M338.67,68.61l-1.39-.41C337.73,68.32,338.19,68.47,338.67,68.61Z"/><path class="cls-4" d="M337.28,68.2l1.39.41.19.07a2.21,2.21,0,0,1,.41.14,1.21,1.21,0,0,1-.2.24,1,1,0,0,1-.69.2,1,1,0,0,1-.72-.39l-.55-.72A.28.28,0,0,1,337.28,68.2Z"/><path class="cls-7" d="M337.5,101.46c-.05-.25-.06-.49-.1-.75C337.44,101,337.45,101.21,337.5,101.46Z"/><path class="cls-4" d="M335.65,156.19l-.5-.24s-.07,0-.08-.06l2.09-.65a1,1,0,0,1,1.24.65,1,1,0,0,1-.64,1.26l-.17,0c0-.12,0-.22-.07-.34a7.76,7.76,0,0,1-.77-.23l-.5-.19A4.47,4.47,0,0,1,335.65,156.19Z"/><path class="cls-7" d="M336.25,156.44l.5.19A4.29,4.29,0,0,1,336.25,156.44Z"/><path class="cls-7" d="M335.15,156l.5.24C335.48,156.12,335.31,156,335.15,156Z"/><path class="cls-4" d="M335.56,101.77l-2.11-13.23a1,1,0,0,1,.83-1.15,1,1,0,0,1,1.15.82l1.95,12.27a.82.82,0,0,0,0,.23c0,.26.05.5.1.75a.78.78,0,0,0,0,.21,1,1,0,0,1-.83.94,1,1,0,0,1-.24,0,1,1,0,0,1-.79-.51A1.18,1.18,0,0,1,335.56,101.77Z"/><path class="cls-14" d="M342.22,27.81A22.25,22.25,0,0,1,346.45,44a1.29,1.29,0,0,1-1.27,1,1,1,0,0,1-.24,0,1.3,1.3,0,0,1-1-1.49,18.61,18.61,0,0,0-1.79-10.85,10.2,10.2,0,0,1-2.44,6c-.32,5.75-1,11.05-1.85,13.76a1.27,1.27,0,0,1-1.22.9,1,1,0,0,1-.39-.07,1.28,1.28,0,0,1-.83-1.62A55,55,0,0,0,337,40.24a7.14,7.14,0,0,1-2,.29c-.35,0-.69,0-1-.07h0c.07-.81.12-1.67.14-2.58h0a4.53,4.53,0,0,0,3-.46s0,0,.05,0c0-1,.09-1.89.1-2.84a5.42,5.42,0,0,0,1.19-4.15,21.33,21.33,0,0,0,3.72-2.66Z"/><path class="cls-4" d="M334,146.5,346.64,140a.43.43,0,0,1,.17-.06c.08.69.17,1.38.27,2.06l-12.2,6.25a1,1,0,0,1-.53.11,1,1,0,0,1-.81-.54A1,1,0,0,1,334,146.5Z"/><path class="cls-14" d="M334.14,31.53a3.33,3.33,0,0,1,0,.48A4,4,0,0,0,334.14,31.53Z"/><path class="cls-14" d="M334.12,31.45a11.36,11.36,0,0,0-1.46-4.62c4.52,0,9.19-6.3,3-6.7,5.24-3.72,1.4-16.54-16.85-13A14.51,14.51,0,0,1,331.31,0c8,0,17.09,8,17.09,16,0,4.17-2.67,8.56-6.23,11.72a21.33,21.33,0,0,1-3.72,2.66,5.42,5.42,0,0,1-1.19,4.15,3.06,3.06,0,0,1-3.1,1.48h0c0-1.24.05-2.56,0-4v0a3.33,3.33,0,0,0,0-.48A.45.45,0,0,0,334.12,31.45Z"/><path class="cls-14" d="M334.17,32.05c0,1.42,0,2.74,0,4,0,.65,0,1.25-.05,1.85,0,.91-.07,1.77-.14,2.58-1.13,18-6.68,14.54-7.86,26.14-.07.65-.12,1.37-.16,2.13-1.33-1.43-5.51-3.14-6.95-9.36,0,0,3.54-3.53,3.45-7.74s-5.27-6.88-8.41-3.53c-1.39,1-1.73,6.78-3.83,6.21-1.68,0-2.31-3.21-2.07-5.68s-.24-5.08-3.57-4.1h-.07c-2.37.54-3.52.4-3.52-.29S302,42.42,304,40.84c2-1.81,2-3.35.62-3.35a2.06,2.06,0,0,0-.7.12c-8.55,2.64-8.33.41-.78-4.79,10.51-7.72,21.72-11.45,23.73-5,1.88,6,6.69.94,7.22,3.64a.45.45,0,0,1,0,.08,4,4,0,0,1,0,.48Z"/><path class="cls-4" d="M333.56,78.39l-6.8-1.63c0-.25,0-.53-.07-.8a182.89,182.89,0,0,1-.09-1.27L334,76.45a1,1,0,0,1-.31,2Z"/><path class="cls-4" d="M332.15,70,328.9,66.6c.61,0,1.17.07,1.74.14.36,0,.72.08,1.08.14l.26.05,1.63,1.73a1,1,0,0,1-.05,1.43,1,1,0,0,1-.76.25A1,1,0,0,1,332.15,70Z"/><path class="cls-4" d="M331.94,140.86a1.25,1.25,0,0,1-.43.07,1.14,1.14,0,0,1-.72-.4.9.9,0,0,1-.13-.26,1,1,0,0,1,.58-1.28l13-5a1,1,0,0,1,1.29.59.53.53,0,0,1,.05.19,1,1,0,0,1-.63,1.08Z"/><path class="cls-7" d="M331.72,66.88c-.36-.06-.72-.11-1.08-.14C331,66.77,331.36,66.82,331.72,66.88Z"/><path class="cls-4" d="M331.69,85a1,1,0,0,1-.95.67h-.07a.85.85,0,0,1-.26,0l-3.6-1.27c0-.4,0-.79.05-1.2s0-.59,0-.9l4.19,1.48A1,1,0,0,1,331.69,85Z"/><path class="cls-4" d="M331.62,152.86c-.14-.18-.28-.36-.42-.57l.23.24A1.23,1.23,0,0,1,331.62,152.86Z"/><path class="cls-7" d="M331.2,152.29c.14.21.28.39.42.57A5.19,5.19,0,0,1,331.2,152.29Z"/><path class="cls-7" d="M329.57,143.71a.7.7,0,0,1,0,.12A1,1,0,0,0,329.57,143.71Z"/><path class="cls-4" d="M329.42,144.34a4.7,4.7,0,0,1,.12-.51.7.7,0,0,0,0-.12s0,0,0-.05c-.38.05-.74.12-1.11.15l-1.12.1a1,1,0,0,1,1.06-.89l2.17.17.32,0a1,1,0,0,1,.93,1.06,1,1,0,0,1-1.06.93l-1.46-.12C329.35,144.84,329.39,144.58,329.42,144.34Z"/><path class="cls-4" d="M329.52,91.13a1,1,0,0,1,.71,1.22,1,1,0,0,1-1.05.74l-.19,0-2.45-.68a1,1,0,0,1,.53-1.93Z"/><path class="cls-7" d="M329.42,144.34a3.19,3.19,0,0,1,.12-.51A4.7,4.7,0,0,0,329.42,144.34Z"/><path class="cls-4" d="M340.23,126l-10.84,8.79a1.09,1.09,0,0,1-.71.2,1,1,0,0,1-.7-.36,1,1,0,0,1,.15-1.4L339,124.45a1,1,0,0,1,1.41.15A1,1,0,0,1,340.23,126Z"/><path class="cls-7" d="M342.43,156.56a1,1,0,0,0,.82-1.64l-1.37-1.62a1,1,0,0,0-1.41-.1,1,1,0,0,0-.1,1.41l1.37,1.61A1.06,1.06,0,0,0,342.43,156.56Zm-13-12.22c0,.24-.07.5-.1.74l1.46.12a1,1,0,0,0,1.06-.93,1,1,0,0,0-.93-1.06l-.32,0,.2-2.66a1.14,1.14,0,0,0,.72.4,1.25,1.25,0,0,0,.43-.07l13.05-5a1,1,0,0,0,.63-1.08l.52-.06c.22,1.72.43,3.45.67,5.2a.43.43,0,0,0-.17.06L334,146.5a1,1,0,0,0-.43,1.34,1,1,0,0,0,.81.54,1,1,0,0,0,.53-.11l12.2-6.25c.57,4.11,1.24,8.19,2.11,12a1,1,0,0,0-.39.79,1,1,0,0,0,.81.94c.37,1.49.8,2.92,1.27,4.27l-.35.12a1,1,0,0,0-1.89,0l-2,5.66c-4.1-1.82-8.69-4.77-9.15-8.9,0,.12.05.22.07.34l.17,0a1,1,0,0,0,.64-1.26,1,1,0,0,0-1.24-.65l-2.09.65a10,10,0,0,1-3.45-3,1.23,1.23,0,0,0-.19-.33l-.23-.24A11.19,11.19,0,0,1,329.42,144.34Z"/><path class="cls-13" d="M329.54,143.83a3.19,3.19,0,0,0-.12.51,11.19,11.19,0,0,0,1.78,7.95,5.19,5.19,0,0,0,.42.57,10,10,0,0,0,3.45,3s.05,0,.08.06.33.17.5.24a4.47,4.47,0,0,0,.6.25,4.29,4.29,0,0,0,.5.19,7.76,7.76,0,0,0,.77.23c.46,4.13,5.05,7.08,9.15,8.9.38.19.77.35,1.13.5.79.33,1.55.6,2.22.83,2.61,12.41,0,20.53-8,20.44s-1.84,3.59-1.84,3.59a41.59,41.59,0,0,0-8.68-.43c-8.31.67-25.41-5.41-21.87-12.65,1.1-2.25,1.89-3.64,2.47-4.67a0,0,0,0,0,0,0c1.3-2.23,1.68-2.75,2.47-6.95,1.15-6.11,8.6-12.6,8.6-12.6-1.43-3.93,2.3-9.8,2.3-9.8.62,0,1.23,0,1.87-.09a10.59,10.59,0,0,0,1.12-.1c.37,0,.73-.1,1.11-.15,0,0,0,0,0,.05A1,1,0,0,1,329.54,143.83Z"/><path class="cls-7" d="M328.9,66.6,332.15,70a1,1,0,0,0,.65.31,1,1,0,0,0,.76-.25,1,1,0,0,0,.05-1.43L332,66.93a39.09,39.09,0,0,1,5.13,1.22l.55.72a1,1,0,0,0,.72.39,1,1,0,0,0,.69-.2,1.21,1.21,0,0,0,.2-.24c2.06.63,4.34,1.39,7,2.21l-5.87,7.21a1,1,0,0,0,.15,1.41,1,1,0,0,0,1.41-.14l6.39-7.88c1.46.41,3,.84,4.72,1.27-2.22-.45-3.35,2.13-1,3.43l-2,5a.68.68,0,0,0-.07.32v0a14.21,14.21,0,0,0-7.63,4.52s-.07,0-.14,0a1,1,0,0,0-.93,1l0,.25a23,23,0,0,0-3.93,10.9,10,10,0,0,0,0,2.11l-1.95-12.27a1,1,0,0,0-1.15-.82,1,1,0,0,0-.6.34l-2.94-2a1,1,0,0,0,.95-.67,1,1,0,0,0-.62-1.27l-4.19-1.48c.05-1.92,0-4-.19-6.31,0,.27.05.55.07.8l6.8,1.63.15,0a1,1,0,0,0,.31-2l-7.42-1.76a5.46,5.46,0,0,1,0,.58c-.16-2-.38-4.21-.71-6.54,0-.76.09-1.48.16-2.13A26.32,26.32,0,0,1,328.9,66.6Z"/><path class="cls-7" d="M327.36,143.91l1.12-.1A10.59,10.59,0,0,1,327.36,143.91Z"/><path class="cls-4" d="M328.06,98.73a1,1,0,0,1,.4,1.36,1.06,1.06,0,0,1-.95.52,1.18,1.18,0,0,1-.41-.14l-5-2.77a4.76,4.76,0,0,0,.68-.67,8.7,8.7,0,0,0,.71-.84Z"/><path class="cls-4" d="M328,118.17a1,1,0,0,1-.75.27,1,1,0,0,1-.65-.33,1,1,0,0,1,.05-1.4l8.05-7.4a1,1,0,0,1,1.36,1.46Z"/><path class="cls-7" d="M327.22,130l8.14-10.35a1,1,0,0,0-.16-1.39,1,1,0,0,0-1.4.16l-8.14,10.35a1,1,0,0,0,.15,1.4,1.25,1.25,0,0,0,.55.21A1,1,0,0,0,327.22,130Zm.77-11.82,8.06-7.4a1,1,0,0,0-1.36-1.46l-8.05,7.4a1,1,0,0,0-.05,1.4,1,1,0,0,0,.65.33A1,1,0,0,0,328,118.17Zm2.6,25-2.17-.17a1,1,0,0,0-1.06.89c-.64.05-1.25.09-1.87.09h-.34l-6.72-10a1,1,0,0,0-.82-.42l.19-1.31a1,1,0,0,0,1-1l0-13a1,1,0,0,0-.88-1l.09-1a1,1,0,0,0,.67-.24,1,1,0,0,0,.1-1.41l3.71-2.91a1,1,0,0,0,.76.46,1,1,0,0,0,.61-.15l10-6.27a1,1,0,0,0-.53-1.84l2.43-1.78a1,1,0,0,0,.79.51,1,1,0,0,0,.24,0,1,1,0,0,0,.83-.94c.79,4.26,4,8,6,16l-2.2-.15a1,1,0,0,0-1.06.91,1,1,0,0,0,.93,1.08l2.47.17a.73.73,0,0,0,.33,0l0,.25c.82,4.07,1.44,9.31,2.11,14.9l-.52.06a.53.53,0,0,0-.05-.19,1,1,0,0,0-1.29-.59l-13,5a1,1,0,0,0-.58,1.28.9.9,0,0,0,.13.26ZM339,124.45l-10.85,8.79a1,1,0,0,0-.15,1.4,1,1,0,0,0,.7.36,1.09,1.09,0,0,0,.71-.2L340.23,126a1,1,0,0,0,.16-1.41A1,1,0,0,0,339,124.45Z"/><path class="cls-4" d="M335.36,119.64,327.22,130a1,1,0,0,1-.86.38,1.25,1.25,0,0,1-.55-.21,1,1,0,0,1-.15-1.4l8.14-10.35a1,1,0,0,1,1.4-.16A1,1,0,0,1,335.36,119.64Z"/><path class="cls-7" d="M322.66,143.84a21.16,21.16,0,0,0,2.12.14A16.53,16.53,0,0,1,322.66,143.84Z"/><path class="cls-4" d="M333.78,105.72l-10,6.27a1,1,0,0,1-.61.15,1,1,0,0,1-.76-.46,1,1,0,0,1,.31-1.38l10-6.26a1.08,1.08,0,0,1,.53-.16,1,1,0,0,1,.53,1.84Z"/><path class="cls-4" d="M322.11,97.7a6.13,6.13,0,0,0,.68-.67A4.76,4.76,0,0,1,322.11,97.7Z"/><path class="cls-4" d="M316.77,118.23a1,1,0,0,1,1-1h.12a1,1,0,0,1,.88,1l0,13a1,1,0,0,1-1,1,.1.1,0,0,1-.07,0,1,1,0,0,1-.93-1Z"/><path class="cls-4" d="M322.66,143.84l-5.89-8.75a1,1,0,0,1,.27-1.39,1.16,1.16,0,0,1,.57-.15,1,1,0,0,1,.82.42l6.72,10a2.3,2.3,0,0,1-.37,0A21.16,21.16,0,0,1,322.66,143.84Z"/><path class="cls-7" d="M326.81,84.37l3.6,1.27a.85.85,0,0,0,.26,0h.07l2.94,2a1,1,0,0,0-.23.81l2.11,13.23a1.18,1.18,0,0,0,.12.33l-2.43,1.78a1.08,1.08,0,0,0-.53.16l-10,6.26a1,1,0,0,0-.31,1.38l-3.71,2.91-1.85-2.12a1,1,0,0,0-1.39-.11,1,1,0,0,0-.12,1.41l0,0-2.21,1.93a1,1,0,0,0-.52-.36,1,1,0,0,0-1.1.38l-3.21-2.18.67-1a1,1,0,1,0-1.64-1.12l-2.25,3.33-3.23-2,5.82-9.34,3.59.37a1,1,0,0,0,.74,1l2.43.69.21,0a1,1,0,0,0,1-.73,1,1,0,0,0-.38-1.09l1.49-2,4.36,3.14a1,1,0,0,0,.5.19,1,1,0,0,0,.89-.42,1,1,0,0,0-.22-1.39l-5.08-3.67a4.33,4.33,0,0,0,.72,0,5.31,5.31,0,0,0,1.74-.38,7.77,7.77,0,0,0,2.35-1.43l5,2.77a1.18,1.18,0,0,0,.41.14,1.06,1.06,0,0,0,.95-.52,1,1,0,0,0-.4-1.36l-4.56-2.54c1.94-2.62,3.16-6.85,3.36-13C326.84,83.58,326.83,84,326.81,84.37Zm2.37,8.72a1,1,0,0,0,1.05-.74,1,1,0,0,0-.71-1.22l-2.45-.69a1,1,0,0,0-.53,1.93l2.45.68Z"/><path class="cls-4" d="M316.89,112.47l1.85,2.12a1,1,0,0,1-.1,1.41,1,1,0,0,1-.67.24h-.07a.93.93,0,0,1-.67-.34l-1.82-2.09,0,0a1,1,0,0,1,.12-1.41A1,1,0,0,1,316.89,112.47Z"/><path class="cls-14" d="M332.66,26.83c-3.48-6.15-12.27-10.57-20.13-11.88-.72-2.16,1.75-4,4.29-1.89a14.3,14.3,0,0,1,2-6c18.25-3.5,22.09,9.32,16.85,13C341.85,20.53,337.18,26.85,332.66,26.83Z"/><path class="cls-4" d="M315.21,98.68a4.5,4.5,0,0,0,2.06.79l0,0A4.36,4.36,0,0,1,315.21,98.68Z"/><path class="cls-4" d="M314.76,98.36c.15.1.29.22.45.32A4.6,4.6,0,0,1,314.76,98.36Z"/><path class="cls-4" d="M312.07,104.79a1,1,0,0,1-.74-1,1.09,1.09,0,0,1,0-.26,1,1,0,0,1,1.24-.69l2.45.69a1.44,1.44,0,0,1,.31.13,1,1,0,0,1,.38,1.09,1,1,0,0,1-1,.73l-.21,0Z"/><path class="cls-4" d="M311.74,138.33l2.88,3.37a34.45,34.45,0,0,1-4.6-2.47,1,1,0,0,1,.31-1A1,1,0,0,1,311.74,138.33Z"/><path class="cls-4" d="M314.43,98.06a.87.87,0,0,1,.11.09A.44.44,0,0,1,314.43,98.06Z"/><path class="cls-4" d="M313.4,96.93h0l.19.24Z"/><path class="cls-4" d="M313.61,97.17a6.41,6.41,0,0,0,.82.89.44.44,0,0,0,.11.09,1.07,1.07,0,0,0,.22.21,4.6,4.6,0,0,0,.45.32,4.36,4.36,0,0,0,2.09.81l5.08,3.67a1,1,0,0,1,.22,1.39,1,1,0,0,1-.89.42,1,1,0,0,1-.5-.19l-4.36-3.14-4.05-2.92a1,1,0,0,1-.22-1.39.93.93,0,0,1,.82-.4Z"/><path class="cls-12" d="M309,88.07c-.44-1.11-.87-2.28-1.32-3.48a15.25,15.25,0,0,0,6.39,3.64c2.86,1.15-2.58,8.41,3.91,11.28a4.33,4.33,0,0,1-.72,0l0,0a4.5,4.5,0,0,1-2.06-.79c-.16-.1-.3-.22-.45-.32a1.07,1.07,0,0,1-.22-.21.87.87,0,0,0-.11-.09,6.41,6.41,0,0,1-.82-.89l-.19-.24h0a30.76,30.76,0,0,1-3.62-7l-.08-.19c-.09-.24-.19-.47-.28-.71h0C309.28,88.73,309.16,88.4,309,88.07Z"/><path class="cls-4" d="M312,135.31a1,1,0,0,1-.91-.87l-.31-2.53a1,1,0,0,1,.86-1.11,1,1,0,0,1,1.11.87l.31,2.53a1,1,0,0,1-.86,1.1Z"/><path class="cls-4" d="M309.7,89.76l.08.19h0A1.46,1.46,0,0,1,309.7,89.76Z"/><path class="cls-7" d="M309.4,89h0Z"/><path class="cls-4" d="M307.47,129.25l4-13.2a1.51,1.51,0,0,1,.13-.29,1,1,0,0,1,1.1-.38,1,1,0,0,1,.52.36.93.93,0,0,1,.15.88l-4,13.22a1,1,0,0,1-1,.7,1.89,1.89,0,0,1-.23,0A1,1,0,0,1,307.47,129.25Z"/><path class="cls-10" d="M331.41,192.89c-7.36.75-23.07-1.5-24.12-9.27a11.13,11.13,0,0,1,.23-4.52,8.7,8.7,0,0,1,4.58-5.73c-.58,1-1.37,2.42-2.47,4.67-3.54,7.24,13.56,13.32,21.87,12.65a41.59,41.59,0,0,1,8.68.43c7.45,1,16,3.28,21.82,4.58h0a6.48,6.48,0,0,1-1.09,2.25c-4.15-.46-10.24-2.11-16.11-3.42a65.24,65.24,0,0,0-10.63-1.7A18,18,0,0,0,331.41,192.89Z"/><path class="cls-4" d="M309.77,90,302,92a.87.87,0,0,1-.32,0,1,1,0,0,1-.89-.74,1,1,0,0,1,.7-1.22l7.53-2c.12.33.24.66.36,1h0c.09.24.19.47.28.71A1.46,1.46,0,0,0,309.77,90Z"/><path class="cls-8" d="M307.89,79.73c-1.33.57-4.42.19-5.09-.56h0a16.39,16.39,0,0,0-2.61-2.51,5.43,5.43,0,0,0-1.63-.82c5-1.17,8.19-4.21,9.8-5.48,1.94-1.53,3.86,1,1.67,2.78S313.13,77.48,307.89,79.73Z"/><path class="cls-4" d="M306.14,93a1,1,0,1,1,2-.18l.29,3A1,1,0,0,1,307.5,97h-.17a1,1,0,0,1-.91-.91Z"/><path class="cls-11" d="M307.29,183.62c1,7.77,16.76,10,24.12,9.27a18,18,0,0,1,2.78-.06c-3.45,8.57-21.52,27.5-34.09,34.3s-5.89,8.43-15.22,18.47-18.71,26.06-22.37,26.19h0a5.69,5.69,0,0,1-3.21-2c-2-2.33-1.93-3.67-.28-7.48.82-1.92,2.06-4.52,3.61-8.19,4.6-10.88,14.24-31.82,19.31-35.45s11.72-27.36,25.59-39.58h0A11.13,11.13,0,0,0,307.29,183.62Z"/><path class="cls-4" d="M306.8,115.92a1,1,0,0,1-.9.44.93.93,0,0,1-.48-.17,1,1,0,0,1-.27-1.39l2.25-3.33a1,1,0,1,1,1.64,1.12l-.67,1Z"/><path class="cls-4" d="M306.5,83.39h0c-.36-.38-.71-.76-1.05-1.15C305.78,82.62,306.14,83,306.5,83.39Z"/><path class="cls-15" d="M334.12,31.45c-.53-2.7-5.34,2.4-7.22-3.64-2-6.44-13.22-2.71-23.73,5,1.24-.86.81-2.88-1-2.09a20.25,20.25,0,0,1-3.66,1.52c-8.61,2.77-9.11,1-2.73-3.65,1.39-1.05,1.38-2.8-1.66-1.38s-7.85,4.06-10.7,7.69c-3.72-12.53,14.15-20.46,24.76-20.35a26.4,26.4,0,0,1,4.34.39c7.86,1.31,16.65,5.73,20.13,11.88A11.36,11.36,0,0,1,334.12,31.45Z"/><path class="cls-4" d="M304.82,120.6a1,1,0,0,1-.17,1.41L298,127.16c-.37-.57-.73-1.13-1.08-1.7l6.49-5A1,1,0,0,1,304.82,120.6Z"/><path class="cls-11" d="M283.43,34.91c2.85-3.63,7.66-6.26,10.7-7.69s3.05.33,1.66,1.38c-6.38,4.63-5.88,6.42,2.73,3.65a20.25,20.25,0,0,0,3.66-1.52c1.8-.79,2.23,1.23,1,2.09-7.55,5.2-7.77,7.43.78,4.79a2.06,2.06,0,0,1,.7-.12c1.34,0,1.39,1.54-.62,3.35-2,1.58-3.07,2.74-3.07,3.41s1.15.83,3.52.29h.07c3.33-1,3.81,1.63,3.57,4.1s.39,5.65,2.07,5.68c2.1.57,2.44-5.17,3.83-6.21,3.14-3.35,8.31-.67,8.41,3.53S319,59.37,319,59.37c1.44,6.22,5.62,7.93,6.95,9.36.33,2.33.55,4.5.71,6.54a5.47,5.47,0,0,1,.05.69c.17,2.3.24,4.39.19,6.31,0,.31,0,.6,0,.9-.2,6.17-1.42,10.4-3.36,13a8.7,8.7,0,0,1-.71.84,6.13,6.13,0,0,1-.68.67,7.77,7.77,0,0,1-2.35,1.43,5.31,5.31,0,0,1-1.74.38c-6.49-2.87-1-10.13-3.91-11.28a15.25,15.25,0,0,1-6.39-3.64c-.43-.39-.82-.79-1.23-1.2h0c-.36-.38-.72-.77-1.06-1.15a3.26,3.26,0,0,1-.34-.4c-.83-.92-1.58-1.83-2.32-2.67h0c.67.75,3.76,1.13,5.09.56,5.24-2.25-.08-4.77,2.12-6.59s.27-4.31-1.67-2.78c-1.61,1.27-4.79,4.31-9.8,5.48-.28.06-.55.12-.82.15a16.86,16.86,0,0,1-2.53.29c-3,.12-4.68-.6-5.78-1.54-1.46-1.24-1.87-2.85-2.92-3.23-4.1-1.05.1-4.69-2-5.84s-.19-4.29-1.46-5.15c-4.41-2.11-2.35-4.2-1-6.59s2.95-4.79,1.42-6.5S282.76,40.94,283.43,34.91Zm9.77,16.35A1.74,1.74,0,1,0,291.47,53,1.73,1.73,0,0,0,293.2,51.26Z"/><path class="cls-4" d="M301.92,112.79l-.43.71a1,1,0,0,1-.91.46,1.16,1.16,0,0,1-.46-.14,1,1,0,0,1-.31-1.39l6.23-10a1,1,0,0,1,1.7,1Z"/><path class="cls-4" d="M299.79,129.65c-.29-.38-.56-.76-.84-1.13a1.05,1.05,0,0,1,.76-.11l2.45.69a1,1,0,0,1,.69,1.22,1,1,0,0,1-1,.74.53.53,0,0,1-.19,0l-1-.27C300.36,130.39,300.07,130,299.79,129.65Z"/><path class="cls-4" d="M298.5,76.92l-.78-.93c.27,0,.54-.09.82-.15a5.43,5.43,0,0,1,1.63.82.83.83,0,0,1-.26.36,1,1,0,0,1-.72.24A1.06,1.06,0,0,1,298.5,76.92Z"/><path class="cls-7" d="M299.79,129.65c-.29-.38-.56-.76-.84-1.13C299.23,128.89,299.5,129.27,299.79,129.65Z"/><path class="cls-4" d="M298.56,87.18a1.13,1.13,0,0,1-.5.09,1,1,0,0,1-.84-.55,1,1,0,0,1,.48-1.34l7.4-3.54a3.26,3.26,0,0,0,.34.4c.34.39.69.77,1.05,1.15Z"/><path class="cls-7" d="M296.94,125.46c.35.57.71,1.13,1.08,1.7C297.65,126.59,297.29,126,296.94,125.46Z"/><path class="cls-4" d="M293.8,119.06l1.89-1.26a1,1,0,0,1,1.1,1.67l-2.22,1.46C294.3,120.29,294,119.68,293.8,119.06Z"/><path class="cls-4" d="M294.61,112a1,1,0,0,1-.91.46.81.81,0,0,1-.46-.14,1,1,0,0,1-.33-1.37l6.87-11.07a1,1,0,0,1,1.37-.33,1,1,0,0,1,.32,1.37Z"/><path class="cls-7" d="M293.8,119.06c.24.62.5,1.23.77,1.87C294.3,120.31,294,119.68,293.8,119.06Z"/><path class="cls-4" d="M292.46,82.14,287,75.8l1.05-.53c.27-.12.55-.24.82-.34l5.08,5.9a1,1,0,0,1-.1,1.41,1,1,0,0,1-1.25,0A.91.91,0,0,1,292.46,82.14Z"/><path class="cls-4" d="M294.54,98.61l-.07-.22-4.24-13.06a1,1,0,0,1,.65-1.25.78.78,0,0,1,.3,0,1,1,0,0,1,1,.69L296.43,98a1,1,0,0,1-.64,1.27.93.93,0,0,1-.37,0A1,1,0,0,1,294.54,98.61Z"/><path class="cls-11" d="M291.47,49.52a1.74,1.74,0,1,1-1.74,1.74A1.73,1.73,0,0,1,291.47,49.52Z"/><path class="cls-7" d="M288.89,74.93c-.27.1-.55.22-.82.34Z"/><path class="cls-4" d="M285.2,110.25a28.06,28.06,0,0,1-1.85-4.1,1,1,0,0,1,.46-.36,1,1,0,0,1,1.25.65l.81,2.56a1,1,0,0,1-.65,1.25Z"/><path class="cls-4" d="M288.62,100.55,282.7,87.9a1,1,0,0,1-.11-.43,1,1,0,0,1,.59-.89,1,1,0,0,1,1.32.48l5.94,12.64a1,1,0,0,1-1,1.42A1,1,0,0,1,288.62,100.55Z"/><path class="cls-4" d="M281.39,98.84a9.61,9.61,0,0,1-.17-1,7.81,7.81,0,0,1-.15-1l1-.22a1,1,0,1,1,.45,1.94Z"/><path class="cls-7" d="M280.31,87.41a18.43,18.43,0,0,1,.19-1.91A14.07,14.07,0,0,1,281.94,81a1,1,0,0,0,.64-1.06A12.37,12.37,0,0,1,287,75.8l5.44,6.34a.91.91,0,0,0,.16.13L291.18,84a.78.78,0,0,0-.3,0,1,1,0,0,0-.65,1.25l4.24,13.06-4,1.31L284.5,87.06a1,1,0,0,0-1.32-.48,1,1,0,0,0-.59.89Z"/><path class="cls-4" d="M282.58,79.89a1,1,0,0,1-.64,1.06A9.32,9.32,0,0,1,282.58,79.89Z"/><path class="cls-7" d="M311.09,134.44a1,1,0,0,0,.91.87h.2a1,1,0,0,0,.86-1.1l-.31-2.53a1,1,0,0,0-1.11-.87,1,1,0,0,0-.86,1.11ZM307,92a1,1,0,0,0-.9,1.09l.28,3a1,1,0,0,0,.91.91h.17a1,1,0,0,0,.91-1.09l-.29-3A1,1,0,0,0,307,92Zm-12.43,20,6.86-11.08a1,1,0,0,0-.32-1.37,1,1,0,0,0-1.37.33l-6.87,11.07a1,1,0,0,0,.33,1.37.81.81,0,0,0,.46.14A1,1,0,0,0,294.61,112ZM283.26,97.4a1,1,0,0,0-1.2-.76l-1,.22c-.37-2.26-.59-4.51-.73-6.62a24.61,24.61,0,0,1,0-2.83l2.28.06a1,1,0,0,0,.11.43l5.92,12.65a1,1,0,0,0,.84.57,1,1,0,0,0,1-1.42l4-1.31.07.22a1,1,0,0,0,.88.69.93.93,0,0,0,.37,0,1,1,0,0,0,.64-1.27l-4.29-13.27a1,1,0,0,0-1-.69l1.44-1.77a1,1,0,0,0,1.25,0,1,1,0,0,0,.1-1.41l-5.08-5.9a5.44,5.44,0,0,1,.52-.19c1.1.94,2.8,1.66,5.78,1.54a16.86,16.86,0,0,0,2.53-.29l.78.93a1.06,1.06,0,0,0,.69.34,1,1,0,0,0,.72-.24.83.83,0,0,0,.26-.36,16.39,16.39,0,0,1,2.61,2.51c.74.84,1.49,1.75,2.32,2.67l-7.4,3.54a1,1,0,0,0-.48,1.34,1,1,0,0,0,.84.55,1.13,1.13,0,0,0,.5-.09l7.93-3.79c.41.41.8.81,1.23,1.2.45,1.2.88,2.37,1.32,3.48l-7.53,2a1,1,0,0,0-.7,1.22,1,1,0,0,0,.89.74.87.87,0,0,0,.32,0L309.77,90h0a30.76,30.76,0,0,0,3.62,7,.93.93,0,0,0-.82.4,1,1,0,0,0,.22,1.39l4.05,2.92-1.49,2a1.44,1.44,0,0,0-.31-.13l-2.45-.69a1,1,0,0,0-1.24.69,1.09,1.09,0,0,0,0,.26l-3.59-.37a1,1,0,0,0-1.7-1l-6.23,10a1,1,0,0,0,.31,1.39,1.16,1.16,0,0,0,.46.14,1,1,0,0,0,.91-.46l.43-.71,3.23,2a1,1,0,0,0,.27,1.39.93.93,0,0,0,.48.17,1,1,0,0,0,.9-.44l1.57-2.34,3.21,2.18a1.51,1.51,0,0,0-.13.29l-4,13.2a1,1,0,0,0,.66,1.24,1.89,1.89,0,0,0,.23,0,1,1,0,0,0,1-.7l4-13.22a.93.93,0,0,0-.15-.88l2.21-1.93,1.82,2.09a.93.93,0,0,0,.67.34H318l-.09,1h-.12a1,1,0,0,0-1,1l0,13a1,1,0,0,0,.93,1,.1.1,0,0,0,.07,0l-.19,1.31a1.16,1.16,0,0,0-.57.15,1,1,0,0,0-.27,1.39l5.89,8.75a27.15,27.15,0,0,1-8-2.14l-2.88-3.37a1,1,0,0,0-1.41-.1,1,1,0,0,0-.31,1,40.49,40.49,0,0,1-9.35-8.48l1,.27a.53.53,0,0,0,.19,0,1,1,0,0,0,1-.74,1,1,0,0,0-.69-1.22l-2.45-.69a1.05,1.05,0,0,0-.76.11c-.32-.45-.63-.9-.93-1.36l6.63-5.15a1,1,0,0,0-1.22-1.58l-6.49,5a39.29,39.29,0,0,1-2.37-4.53l2.22-1.46a1,1,0,0,0-1.1-1.67l-1.89,1.26c-.05-.12-.1-.23-.14-.35a16.82,16.82,0,0,1-3.12-2,20,20,0,0,1-4.36-4.82l-.07-.11a28,28,0,0,1-2.76-5.66,28.06,28.06,0,0,0,1.85,4.1h0a1,1,0,0,0,.65-1.25l-.81-2.56a1,1,0,0,0-1.25-.65,1,1,0,0,0-.46.36,42.36,42.36,0,0,1-2-7.31l1.12-.26A1,1,0,0,0,283.26,97.4Z"/><path class="cls-4" d="M281.22,97.81c-.07-.31-.12-.62-.17-1h0A7.81,7.81,0,0,0,281.22,97.81Z"/><path class="cls-11" d="M280.5,85.5a18.43,18.43,0,0,0-.19,1.91,24.61,24.61,0,0,0,0,2.83c.14,2.11.36,4.36.73,6.62h0c.05.33.1.64.17,1a9.61,9.61,0,0,0,.17,1,42.36,42.36,0,0,0,2,7.31,28,28,0,0,0,2.76,5.66l.07.11c.55.92,4.36,8.36-11,16.66-16.48,8.9-17.2,13.19-25.66,20.72S218.31,160.63,204.34,161s-13.41,1.2-14.06,3.07-4,2.24-5.94,1.34A10.82,10.82,0,0,1,180,161c-.43-.87-2.08-.44-2.93-.65,0-1.7-.09-3.33-.23-4.91,2.77-.87,1.27-1.63-.38-3.19a72.61,72.61,0,0,0-1.45-7.19c2.71.85,5.33,3.88,8.68,6.31.21.16.41.31.62.45,3.67,2.5,5.51,5.3,10.93,3.43s36.94-16.41,44.89-19.77,18-14.4,24.38-25.3S271.78,96.19,280.5,85.5Z"/><path class="cls-8" d="M282.87,254.32a50,50,0,0,0-7.23,6.54c-.38.39-.72.79-1.05,1.17-1.56,1.8-2.83,3.45-3.84,4.8a30.32,30.32,0,0,1-2.42,3,6.85,6.85,0,0,1-5.82,2c3.66-.13,13.08-16.2,22.37-26.19s2.67-11.66,15.22-18.47,30.64-25.73,34.09-34.3a65.24,65.24,0,0,1,10.63,1.7c-15.42,15.37-31.76,35.19-43.23,38C297.2,242.85,291.18,248.21,282.87,254.32Z"/><path class="cls-1" d="M254.18,271.24c2.49-2.86,1.15-3.72.67-6.83-.22-1.47.71-2,1.74-2.18a7.26,7.26,0,0,1,2.4.09c-1.65,3.81-1.77,5.15.28,7.48a5.69,5.69,0,0,0,3.21,2h0a6.85,6.85,0,0,0,5.82-2,30.32,30.32,0,0,0,2.42-3,8.14,8.14,0,0,1-4.14,6.13C262.6,275.45,257.45,273.15,254.18,271.24Z"/><path class="cls-2" d="M254.18,271.24c-1.8-1.25-2.66-4.49-2.09-7.45a4,4,0,0,1,.29-.94c.89-2.21,3.19-2.8,4.21-.62-1,.16-2,.71-1.74,2.18C255.33,267.52,256.67,268.38,254.18,271.24Z"/><path class="cls-2" d="M262.48,281.18c-7.71.48-11.73,6.78-22.71,7.16-9.79.34-15.8.52-17.12-3.88a7,7,0,0,1-.27-1.82c-.28-3.38,9.23-7.53,13.56-9.66-.57,8.39,3.91,6.38,6.21,3.19,0,0,6,2.82,6.78-1.58,3.64,1.61,1.63-4.31,5.25-1.15,6.32,5.55,14.15,1.34,16.57-1.15s4.75-6.21,3.84-10.26c.33-.38.67-.78,1.05-1.17a33.87,33.87,0,0,1,3.95,10.38c.27,1.75.2,3.23-.45,4C277.13,277.65,270.17,280.7,262.48,281.18Z"/><path class="cls-6" d="M252.09,263.79c-.57,3,.29,6.2,2.09,7.45,3.27,1.91,8.42,4.21,12.43,1.72a8.14,8.14,0,0,0,4.14-6.13c1-1.35,2.28-3,3.84-4.8.91,4.05-1.44,7.77-3.84,10.26s-10.25,6.7-16.57,1.15c-3.62-3.16-1.61,2.76-5.25,1.15-.75,4.4-6.78,1.58-6.78,1.58-2.3,3.19-6.78,5.2-6.21-3.19l1-.5c3.62-1.91,10.21-5.18,11.95-5.65s.84-3.38,3.51-4h0A4,4,0,0,0,252.09,263.79Z"/><path class="cls-1" d="M262.48,284.43c-3.51-.48-4.47-.19-8.86,2s-13.67,6.31-23.31,4.2c-5.36-1.05-6.8-1.85-7.66-6.18,1.32,4.4,7.33,4.22,17.12,3.88,11-.38,15-6.68,22.71-7.16s14.65-3.53,16.66-5.92c.65-.79.72-2.27.45-4,1.75,1.05,3,5.82-1.51,9.27S266,284.91,262.48,284.43Z"/><path class="cls-16" d="M221.45,359.59a10.85,10.85,0,0,1-1.18,6.54c-2.49,4.79-23.23,40.53-44.72,31.35-3-1.36-4.55-3.21-5-5.31-1.77-7.88,11.16-19.05,11.31-19.34-5.42,10.54,12.67,10.85,12.94,8.85s-1.28-3.31,2.44-3.89,4.74-4,4.31-6.64,1-4.11,5.63-4.4,5-5,0-8.63c3.35-3.35,4-4.45,8.14-2.9.44-4.19-.06-6.58-1.38-8a22.1,22.1,0,0,0-.32-3.95c4.46.38,6.84,6.11,7,10.41C220.75,355.8,221.24,357.67,221.45,359.59Z"/><path class="cls-11" d="M210.16,334.09a37.16,37.16,0,0,0,1.61,6.43c-1.63.86-11.09,3.73-16.63,1.15-2.2-21.11-9.65-40.18-14.25-54s-20.68-43-19.5-51.29c.39-1.91.7-3.76.87-5.41s.31-3.25.54-5.17c2,2.77,12.58,3.19,20.18,5.37,7.66,12.31,5.38,23.59,12.16,33.34s10.71,14.4,10,39.6S210.16,334.09,210.16,334.09Z"/><path class="cls-17" d="M196.68,354.56c5.8.69,9.24,2.63,10.49,3.56,5,3.6,4.63,8.36,0,8.63s-6.06,1.75-5.63,4.4-.58,6.07-4.31,6.64-2.15,1.92-2.44,3.89-18.36,1.69-12.94-8.85c.15-.31,5.8-10.49,10.13-15.78.36-.44.7-.84,1-1.2a4.06,4.06,0,0,1,2.06-1.18A4.32,4.32,0,0,1,196.68,354.56Z"/><path class="cls-18" d="M195.08,354.67c-.1-.86-.22-1.74-.27-2.58-.22-3.64.58-6.92,7.21-6.78,5.73.12,9.84-.24,11.91,1.94,1.32,1.39,1.82,3.78,1.38,8-4.11-1.55-4.79-.45-8.14,2.9-1.25-.93-4.69-2.87-10.49-3.56A4.32,4.32,0,0,0,195.08,354.67Z"/><path class="cls-16" d="M192,357.05c-.64-2.71.29-4.27,1.8-4.77a3.54,3.54,0,0,1,1-.19c.05.84.17,1.72.27,2.58a4.06,4.06,0,0,0-2.06,1.18C192.68,356.21,192.34,356.61,192,357.05Z"/><path class="cls-1" d="M213.61,343.3a22.1,22.1,0,0,1,.32,3.95c-2.07-2.18-6.18-1.82-11.91-1.94-6.63-.14-7.43,3.14-7.21,6.78a3.54,3.54,0,0,0-1,.19l0-.1c-.78-3-.18-7-.54-8.34-.46-1.76.21-2.84,1.93-2.17,5.54,2.58,15-.29,16.63-1.15C212.7,340,213.28,341.5,213.61,343.3Z"/><path class="cls-19" d="M193.16,200.59c2.23,9.56,4.67,21.22-3.95,24.55-2.16-4-8.89-3.3-8.89-3.3s-6.16-3.74,5-13.33c3.28-2.82,3.94-5,3.34-6.91Z"/><path class="cls-19" d="M193.16,200.59l-4.49,1c-1.46-4.51-10.27-7.07-7.28-11.38,3.64-5.25,5.54-9.38-.93-18.43l4.45-1.94c6.16,7.69,9.32,19.58,6.45,21.3A66.8,66.8,0,0,0,193.16,200.59Z"/><path class="cls-8" d="M206.89,286.59c.31,14.86,1.1,35.51,3.27,47.5,0,0-5.75-4.74-5-29.94s-3.21-29.85-10-39.6-4.5-21-12.16-33.34c3,.86,5.56,2,6.94,3.66,2.44,10.76,5.3,13.63,9.9,22.8S206.5,268.5,206.89,286.59Z"/><path class="cls-20" d="M189.21,225.14c2.87,4.43.71,9.73.71,9.73-1.38-1.66-3.93-2.8-6.94-3.66-7.6-2.18-18.14-2.6-20.18-5.37.77-6.26,2.47-15.52,9.06-36.7a114.51,114.51,0,0,0,4.88-22c1.47,1.71,2.71,3.26,3.72,4.7,6.47,9.05,4.57,13.18.93,18.43-3,4.31,5.82,6.87,7.28,11.38.6,1.88-.06,4.09-3.34,6.91-11.17,9.59-5,13.33-5,13.33S187.05,221.12,189.21,225.14Z"/><path class="cls-8" d="M290.54,116.74c-17,19.38-28.65,36.08-58,42.14s-38.27,6.47-41.86,7.62a7.5,7.5,0,0,1-5.15-.51,7.81,7.81,0,0,1-1.15-.59c2,.9,5.3.54,5.94-1.34s.07-2.69,14.06-3.07,36.7-4.17,45.14-11.69,9.18-11.82,25.66-20.72c15.4-8.3,11.59-15.74,11-16.66A20,20,0,0,0,290.54,116.74Z"/><path class="cls-1" d="M180.61,403.31c-11.44-4-10.23-7.31-10.07-11.14.46,2.1,2,3.95,5,5.31,21.49,9.18,42.23-26.56,44.72-31.35a10.85,10.85,0,0,0,1.18-6.54c3.88,3.32,3.86,8.19-3.28,17.34S192.08,407.33,180.61,403.31Z"/><path class="cls-19" d="M184.34,165.4a7.81,7.81,0,0,0,1.15.59,16,16,0,0,1-.58,3.86l-4.45,1.94c-1-1.44-2.25-3-3.72-4.7a64.58,64.58,0,0,0,.36-6.75c.85.21,2.5-.22,2.93.65A10.82,10.82,0,0,0,184.34,165.4Z"/><path class="cls-8" d="M176.49,152.24c1.65,1.56,3.15,2.32.38,3.19C176.77,154.35,176.65,153.29,176.49,152.24Z"/><path class="cls-19" d="M173.29,132.67c6.6,10.32,11.6,17,10.43,18.69-3.35-2.43-6-5.46-8.68-6.31-.88-3.47-2-7-3.18-10.8l0,0c.52-.51,1-1,1.43-1.58Z"/><path class="cls-1" d="M162.8,127.47c-6,12.55-4.41,14.74,1.52,12.55a26,26,0,0,1-16.39,2.54c-2.59-.57-2.3-3.73-3.59-7.74s-6.74-8-6.31-17.63-1.19-6.9-2.89,4.87c-.84,5.89.78,9.92,2,10.9,4.94,3.83,13.63,22.51,3,31.1s3.55,6.75,1.13,14c-1.92,4.8-9.16,8.75-18.19,2.73-2.77-1.65-5.43-.76-9.18-3,2.64-.6,2.79-.51-2.8-5.95S99.05,164.13,93.24,154a14.86,14.86,0,0,0-7.6-6.78c-2.82-1.2-5.77-1.83-8.63-3.64a16.78,16.78,0,0,1-4.78-4.48c-6.88-9.32-9.16-10.47-10.11-11.46s-1.75,2.14,1,3.72,7.37,4.74,5,11.61,6.59,9.11,3.72,12.25,1.43,3.81,1.43,3.81l0,0a22.72,22.72,0,0,1-2.51,1.63c-2,1.12-5.89,2.32-9,1.7v0c-2.49-.5-4.47-2.16-4.64-6-7.74-6.16-7.59-13-8.67-16.91-6.74-6.38-14.76-25-15-31.32-1.79-1.94-1.51-3.81,1.54-7.71,1.12,3.19,4.48,2.7,6.34-2.32,0,0,2.73,3.44,8.48-.87S54.9,83.94,64.49,84c.33.77.71,1.62,1.15,2.54a33.63,33.63,0,0,0,9.12,11.55c6.28,5,13.42,6.58,18.69,5.94,8.17-1,12.75-8.46,13.9-20.06.72-7.23.48-12.12-1.2-15.11h0c2.4-3.07,9.35-1.23,16.8,5.92s18.35,9.48,23.83,10c3.42.34,6,1.17,7.57,5.37.93,2.51,1.48,6.25,1.58,11.85C156.24,116.91,168.86,114.9,162.8,127.47Z"/><path class="cls-21" d="M164.32,140c-5.93,2.19-7.55,0-1.52-12.55S156.24,116.91,156,102c-.1-5.6-.65-9.34-1.58-11.85l4.94-1c4.71,9.63,10.28,18.67,14.85,22.29,4.88,3.88,9.17,6.17,6.3,10.47-1.22,1.82-3.43,6.36-7.19,10.73-.45.53-.91,1.07-1.43,1.58a29.37,29.37,0,0,1-7.48,5.77S164.34,140,164.32,140Z"/><path class="cls-12" d="M154.45,231.37c2.51-1.29,1.5,5.44,3.3,4.08-.79,2.37-2.16,10-4.74,12.55-.63.6-1.37,1.26-2.18,1.94l-.08.07a34.7,34.7,0,0,1-8.12,5.22c-3.16,1.22-3.16,1.58-3.59-1s2.37-4.08,5.37-5.37a12,12,0,0,1,1.58-2.27c.48-.58,1-1.25,1.62-2s1.09-1.44,1.68-2.28c-.36-1.51-.67-3.47,2.14-8.6v0A16.74,16.74,0,0,1,154.45,231.37Z"/><path class="cls-22" d="M154.8,157.77c2.44,6.16-1.13,9.71-.55,26s-1.1,24.94-2.82,26.66c-6.3.43-7.24-.26-9.75.53a31.81,31.81,0,0,1-6.6.81,32.57,32.57,0,0,0-3.51-1.72l0,0c1.92-7.95,1.22-7.52,4.15-11s-1.44-3.52-3.65-4.52a57.87,57.87,0,0,1-11.23-4.31c-2.59-1.45-4.12-3.12-3.69-5,1-4-6.66-6.66-3.22-7.45,3.75,2.25,6.41,1.36,9.18,3,9,6,16.27,2.07,18.19-2.73s4.38-3.44,8-12.89c0,0,4.43-.16,4.72-9.26C154.28,156.49,154.54,157.11,154.8,157.77Z"/><path class="cls-23" d="M151.43,233.67c-2.81,5.13-2.5,7.09-2.14,8.6-.59.84-1.15,1.61-1.68,2.28-1.53-.89-3.61-2-5.43-3a19,19,0,0,0,2.37-1.58c2-1.53,4.64-4.27,6.88-6.32Z"/><path class="cls-8" d="M161.39,236.42c-1.27,6-3.47,12.54-5.44,15-1.74,2.13-5.2,7-7.86,9.47-1.29,1.19-2.41,1.82-3,1.27a.64.64,0,0,1-.14-.15c-2.53-2.59,3.26-8.81,5.9-12,.81-.68,1.55-1.34,2.18-1.94,2.58-2.52,4-10.18,4.74-12.55C159.54,234.1,161.39,236.42,161.39,236.42Z"/><path class="cls-23" d="M150.75,250l.08-.07c-2.64,3.21-8.43,9.43-5.9,12h0c-11.19,2.46-26.57-.41-39.29-7.46-10.85-6-18.11-14.25-20.43-23.17a.92.92,0,0,0-.08-.25c.43-.87.89-1.81,1.35-2.81,9.53.84,29.94,4.86,47.86,12.55a2.62,2.62,0,0,0-.09.65c-.06,3.3,1.72,2.08,3.59,1.65l1.24-.29c1.9,1,5,2.6,6.93,3.75a12,12,0,0,0-1.58,2.27c-3,1.29-5.8,2.8-5.37,5.37s.43,2.22,3.59,1A34.7,34.7,0,0,0,150.75,250Z"/><path class="cls-23" d="M148.21,225.34c-2.8,5.53-4,7.88-6.44,10.11-1.55,1.4-4.12,2.12-5.82,3.28-16-7-36.11-11.7-48.32-12.92a34.5,34.5,0,0,0,2.22-5.68,3.62,3.62,0,0,0,3-.42c11.38-6.4,26.28-6.71,35.21-5.2h0a6.35,6.35,0,0,0,.52.52c2.44,2.14,9.89,2.93,12.62,2.93S145.84,225.05,148.21,225.34Z"/><path class="cls-24" d="M142.18,241.55c1.82,1,3.9,2.11,5.43,3-.6.79-1.14,1.46-1.62,2-2-1.15-5-2.79-6.93-3.75a13.43,13.43,0,0,0,3.1-1.29Z"/><path class="cls-12" d="M162.26,231c-.17,1.65-.48,3.5-.87,5.41,0,0-1.85-2.32-3.64-1s-.79-5.37-3.3-4.08a16.74,16.74,0,0,0-3,2.28c-2.24,2-4.87,4.79-6.88,6.32a19,19,0,0,1-2.37,1.58h0a13.43,13.43,0,0,1-3.1,1.29l-1.24.29c-1.87.43-3.65,1.65-3.59-1.65a2.62,2.62,0,0,1,.09-.65,3.71,3.71,0,0,1,1.63-2.1c1.7-1.16,4.27-1.88,5.82-3.28,2.44-2.23,3.64-4.58,6.44-10.11-2.37-.29-4.29-7.38-7-7.38S131,217.17,128.57,215a6.35,6.35,0,0,1-.52-.52h0c-1.29-1.42-.35-2.09,1.35-2.37a9.39,9.39,0,0,1,1.26-.13l4.43-.19a31.81,31.81,0,0,0,6.6-.81c2.51-.79,3.45-.1,9.75-.53,1.72-1.72,3.39-10.32,2.82-26.66s3-19.89.55-26c-.26-.66-.52-1.28-.79-1.88-2.18-5-4.41-8.22-6.08-13.33A26,26,0,0,0,164.32,140s0,0,0,0a29.37,29.37,0,0,0,7.48-5.77l0,0c1.2,3.81,2.3,7.33,3.18,10.8a72.61,72.61,0,0,1,1.45,7.19c.16,1,.28,2.11.38,3.19.14,1.58.23,3.21.23,4.91a64.58,64.58,0,0,1-.36,6.75,114.51,114.51,0,0,1-4.88,22c-6.59,21.18-8.29,30.44-9.06,36.7C162.57,227.76,162.42,229.4,162.26,231Z"/><path class="cls-25" d="M135.14,122.06c1.7-11.77,3.32-14.47,2.89-4.87s5,13.63,6.31,17.63,1,7.17,3.59,7.74c1.67,5.11,3.9,8.3,6.08,13.33-.29,9.1-4.72,9.26-4.72,9.26-3.59,9.45-6,8.1-8,12.89,2.42-7.23-11.74-5.38-1.13-14s1.92-27.27-3-31.1C135.92,132,134.3,128,135.14,122.06Z"/><path class="cls-20" d="M114,177.76c-3.44.79,4.17,3.44,3.22,7.45-.43,1.89,1.1,3.56,3.69,5-5.34,11.11-27.26,20.95-27.26,20.95,1.26-6.54.47-20.62-1.15-30.11-1.2-7-3.34-9.48-4.73-11.4,5.8-2,14.78-3.84,21.08,3.5A21.15,21.15,0,0,0,114,177.76Z"/><path class="cls-26" d="M111.15,171.81c5.59,5.44,5.44,5.35,2.8,5.95a21.15,21.15,0,0,1-5.15-4.6c-6.3-7.34-15.28-5.51-21.08-3.5a5.21,5.21,0,0,1-1.36-3.36c0-3.16-1.51-8.71-5.37-15.28-.21-3.16,4.65-3.78,4.65-3.78a14.86,14.86,0,0,1,7.6,6.78C99.05,164.13,105.57,166.36,111.15,171.81Z"/><path class="cls-21" d="M158.39,87.23c.3.66.61,1.29.92,1.93l-4.94,1c-1.55-4.2-4.15-5-7.57-5.37-5.48-.55-16.36-2.85-23.83-10s-14.4-9-16.8-5.92h0a6.75,6.75,0,0,0-4.72-3.43c0-.67,0-1.29,0-1.82a6.34,6.34,0,0,0,1.63-.79c13.27,1.08,27.76,1.51,36.5,9C145.49,76.33,153.51,76.92,158.39,87.23Z"/><path class="cls-12" d="M80,97.55c7,4,12,.15,10.88-4.24,8.94-4.7,10.26-20.32,10.52-27.91a6.75,6.75,0,0,1,4.72,3.43c1.68,3,1.92,7.88,1.2,15.11C106.2,95.54,101.62,103,93.45,104c-5.27.64-12.41-.92-18.69-5.94C74.76,98.06,79.41,99.13,80,97.55Z"/><path class="cls-15" d="M103.11,46h0a7.5,7.5,0,0,0-1.63,2.66c-7,.59-10.18-4.85-11.76-9.45s-9.45.42-17.33,3.45A23.8,23.8,0,0,1,63.05,44h0c-1.57,0-2.53-2.5.32-3.52,0,0-9.16-3.14,2.16-8s11.18-16.21,2.72-14.77C95.15,9.82,101.48,37.13,103.11,46Z"/><path class="cls-24" d="M95.29,215.77c11.82-5.94,25.28-5.26,34.1-3.64h0c-1.7.28-2.64,1-1.35,2.37-8.93-1.51-23.83-1.2-35.21,5.2a7.45,7.45,0,0,0,1.84-1.45A2.26,2.26,0,0,0,95.29,215.77Z"/><path class="cls-19" d="M117.45,207.15a35.42,35.42,0,0,0-22.51,8,6.07,6.07,0,0,0-2-1.65,10,10,0,0,0,.7-2.35s21.92-9.84,27.26-20.95a57.87,57.87,0,0,0,11.23,4.31c-5.22,3.14-10.9,12.28-11.23,12.77C119.73,207.2,118.6,207.15,117.45,207.15Z"/><path class="cls-23" d="M120.86,207.3a34.61,34.61,0,0,1,10.71,2.8,32.57,32.57,0,0,1,3.51,1.72l-4.43.19a9.39,9.39,0,0,0-1.26.13h0c-8.82-1.62-22.28-2.3-34.1,3.64a2.77,2.77,0,0,0-.35-.6,35.42,35.42,0,0,1,22.51-8C118.6,207.15,119.73,207.2,120.86,207.3Z"/><path class="cls-24" d="M134.32,240.83C116.4,233.14,96,229.12,86.46,228.28c.4-.82.79-1.65,1.17-2.47,12.21,1.22,32.31,5.95,48.32,12.92A3.71,3.71,0,0,0,134.32,240.83Z"/><path class="cls-23" d="M82.79,250.78c1.75-.8.6-5.06-.31-7.65a8.81,8.81,0,0,1-.15-4.33,19.41,19.41,0,0,1,1.22-4.15C86.67,243.23,94,251,104.37,256.76a68.4,68.4,0,0,0,32,8.63,43,43,0,0,0,9.23-.94,35.58,35.58,0,0,1-62.84-13.67Z"/><path class="cls-11" d="M86.72,59.86A2.15,2.15,0,1,1,84.56,62,2.14,2.14,0,0,1,86.72,59.86Z"/><path class="cls-8" d="M82.79,250.78a35.18,35.18,0,0,0,5.1,11.76c-1.68.79-3.73,1.44-5.1-2.37-.74-1.06-5.48-7.53-4.86-15,1.12,3,2.68,6.14,4.62,5.68A.85.85,0,0,0,82.79,250.78Z"/><path class="cls-24" d="M85.19,231.34c2.32,8.92,9.58,17.14,20.43,23.17,12.72,7.05,28.1,9.92,39.29,7.46h0a.64.64,0,0,0,.14.15c.61.55,1.73-.08,3-1.27a33.25,33.25,0,0,1-2.46,3.61,43,43,0,0,1-9.23.94,68.4,68.4,0,0,1-32-8.63C94,251,86.67,243.23,83.55,234.65c.13-.4.29-.77.44-1.13.28-.66.67-1.5,1.12-2.43A.92.92,0,0,1,85.19,231.34Z"/><path class="cls-8" d="M87.63,225.81c-.38.82-.77,1.65-1.17,2.47-.46,1-.92,1.94-1.35,2.81s-.84,1.77-1.12,2.43c-.15.36-.31.73-.44,1.13a19.41,19.41,0,0,0-1.22,4.15c.15-2.61,2.38-10.3,3.94-13.52s.52-5,2.17-7a2.27,2.27,0,0,0,1.41,1.87A34.5,34.5,0,0,1,87.63,225.81Z"/><path class="cls-11" d="M89.85,220.13a2.27,2.27,0,0,1-1.41-1.87c-1.65,2-.62,3.79-2.17,7s-3.79,10.91-3.94,13.52a8.81,8.81,0,0,0,.15,4.33c.91,2.59,2.06,6.85.31,7.65a.85.85,0,0,1-.24.09c-1.94.46-3.5-2.71-4.62-5.68-.08-.23-.15-.43-.24-.65a10.53,10.53,0,0,1-.31-4.91,46.33,46.33,0,0,1,1.74-7,21.56,21.56,0,0,0,.46-13.53c-.26-1.05-.6-2.18-1-3.4-3-8.67-9.82-24.35-11.19-30.38a85.25,85.25,0,0,1-1.65-13c-1.94-2.08-4.29-6.06-4-9.84,3.1.62,7-.58,9-1.7a22.72,22.72,0,0,0,2.51-1.63,14.41,14.41,0,0,0,3.84-4.48c5.91,7.17,6.76,13.63,5.32,15.86s3.3,6,5.17,18.06-4.67,14.9-4.67,14.9c5.46,3.09,8.46,7.6,7.67,9.18a11.47,11.47,0,0,1,2.32.93,6.07,6.07,0,0,1,2,1.65,2.77,2.77,0,0,1,.35.6,2.26,2.26,0,0,1-.62,2.49,7.45,7.45,0,0,1-1.84,1.45A3.62,3.62,0,0,1,89.85,220.13Z"/><path class="cls-8" d="M86.36,166.3a5.21,5.21,0,0,0,1.36,3.36c1.39,1.92,3.53,4.43,4.73,11.4,1.62,9.49,2.41,23.57,1.15,30.11a10,10,0,0,1-.7,2.35,11.47,11.47,0,0,0-2.32-.93c.79-1.58-2.21-6.09-7.67-9.18,0,0,6.52-2.87,4.67-14.9S81,172.66,82.41,170.45s.59-8.69-5.32-15.86a11.44,11.44,0,0,0,.84-8.27c1.15,1.61,2.17,3.17,3.06,4.7C84.85,157.59,86.36,163.14,86.36,166.3Z"/><path class="cls-20" d="M78.55,215.66c.43,1.22.77,2.35,1,3.4-12.94,5.65-15.36,10.51-11.21,12.52s3.59,3.29-1.87,3.87-1.15,5.14-1.15,5.14c-1.51.1-2.93.15-4.29.2-1.63.05-3.16.09-4.58.07-19.11-.07-19.95-5-21.51-6.26-2-1.58-2-4.16,1.42-7.47-1.28-2.71,9.62-21.06,18.92-36.25-3.88-6.59,3.74-13.48,10.4-18.64a85.25,85.25,0,0,0,1.65,13C68.73,191.31,75.53,207,78.55,215.66Z"/><path class="cls-8" d="M64.18,76.21c4.5,8.55,11.9,20,23,18.34a11.56,11.56,0,0,0,3.76-1.24C92,97.7,87.08,101.57,80,97.55c-.62,1.58-5.27.51-5.27.51a33.63,33.63,0,0,1-9.12-11.55c-.44-.92-.82-1.77-1.15-2.54C61.51,76.66,64.18,76.21,64.18,76.21Z"/><path class="cls-11" d="M68.46,63.25a2.15,2.15,0,1,1-2.17,2.15A2.14,2.14,0,0,1,68.46,63.25Z"/><path class="cls-19" d="M77.09,239.59c-4.38.48-8.27.81-11.74,1,0,0-4.29-4.57,1.15-5.14s6-1.87,1.87-3.87-1.73-6.87,11.21-12.52a21.56,21.56,0,0,1-.46,13.53,46.33,46.33,0,0,0-1.74,7Z"/><path class="cls-25" d="M71.8,155.24c2.87-3.14-6.09-5.37-3.72-12.25s-2.3-10-5-11.61-1.88-4.74-1-3.72,3.23,2.14,10.11,11.46A16.78,16.78,0,0,0,77,143.6a16.16,16.16,0,0,1,.92,2.72,11.44,11.44,0,0,1-.84,8.27,14.41,14.41,0,0,1-3.84,4.48l0,0S68.94,158.4,71.8,155.24Z"/><path class="cls-8" d="M61.06,240.79c-.5,10.35-2,13.37-5.72,20.1a81.13,81.13,0,0,0-4.17,9l-3.69-.79c2.85-8.6-4.86-18,.19-19.09,5.54-1.15,8.81-5,8.81-9.15C57.9,240.88,59.43,240.84,61.06,240.79Z"/><path class="cls-11" d="M56.48,240.86c0,4.19-3.27,8-8.81,9.15-5.05,1.07,2.66,10.49-.19,19.09a11.06,11.06,0,0,1-1.18,2.52c-5.7,9.19-1.81,13.3-1.81,13.3-3.79,1.1-8.54.42-10.6-2.38,0-.58,0-1.15,0-1.72a235,235,0,0,0-2.13-27.24c-.57-5.23,0-11.72,2.15-14a5.58,5.58,0,0,1,1.08-5C36.53,235.83,37.37,240.79,56.48,240.86Z"/><path class="cls-11" d="M54.3,56.73a4.9,4.9,0,0,1,2,.26c-2.71-5.46-4.87-10.47-2-12.48,1.67-1.17,4.81-.6,8.71-.5h0a23.8,23.8,0,0,0,9.34-1.35c7.88-3,15.76-8,17.33-3.45s4.74,10,11.76,9.45A7.5,7.5,0,0,1,103.11,46h0c2.06-2,4.5-.11,4.83,5.69.34,6-2.44,9.55-4.83,11.11a6.34,6.34,0,0,1-1.63.79c0,.53,0,1.15,0,1.82-.26,7.59-1.58,23.21-10.52,27.91a11.56,11.56,0,0,1-3.76,1.24c-11.07,1.66-18.47-9.79-23-18.34-.56-1.06-1.08-2.07-1.54-3-.31-.62-.59-1.2-.86-1.73-4.31-1.49-8.6-8-9.48-10.88C51.65,58.38,52.43,56.85,54.3,56.73ZM88.87,62a2.16,2.16,0,1,0-2.15,2.15A2.14,2.14,0,0,0,88.87,62ZM70.6,65.4a2.16,2.16,0,1,0-2.14,2.15A2.14,2.14,0,0,0,70.6,65.4Z"/><path class="cls-14" d="M54.3,56.71c-3.61-3.43-13-31.12,13.92-39,8.46-1.44,8.6,9.89-2.72,14.77s-2.16,8-2.16,8C60.49,41.51,61.45,44,63,44c-3.9-.1-7-.67-8.71.5-2.86,2-.7,7,2,12.48a4.9,4.9,0,0,0-2-.26Z"/><path class="cls-16" d="M50,283c.72-2.36.43-2.94-1.53-3.3.07-.65.18-1.34.31-2.06.36.07,4.36,1.12,3.8,3.57-.81,3,1.85,4.52,1.13,8.4a11.5,11.5,0,0,1-1.13,3.14c-2.82,5.44-11.93,9.83-19,12.7-1.22.5-2.37.94-3.42,1.35-7.09,2.72-2.51.3-12.26,5.74S1.7,313.73.41,310.86c-2.11-4.62,4.26-9.1,9.69-12.41-1.88,1.46-1.1,4,2.36,5.1,3.63,1.13,4.64.43,5.36-.29a3.17,3.17,0,0,1,3.24-1c4.71.76,1.65-4.29,6.17-4.06s1.78-2.6,5.95-5.1c1.08-.67,2-1.19,2.78-1.58,4.26-2.11,4.59-.41,8,1.29C48.08,294.79,49.3,285.41,50,283Z"/><path class="cls-1" d="M33.65,305.49c7-2.87,16.13-7.26,19-12.7a11.5,11.5,0,0,0,1.13-3.14h0c1.42,2.35,3.16,5.21-1.15,9.3S40.29,306.36,33.65,305.49Z"/><path class="cls-8" d="M51.17,269.89a46,46,0,0,0-2.37,7.77v0c-.13.72-.24,1.41-.31,2.06a10.93,10.93,0,0,0,0,2.06,1.74,1.74,0,0,1-.69,1.48,9.91,9.91,0,0,1-3.3,1.64s-3.89-4.11,1.81-13.3a11.06,11.06,0,0,0,1.18-2.52Z"/><path class="cls-21" d="M34.93,100.45c1.34-1.7,3.23-3.81,5.7-6.49,8.1-8.73,13.39-19.34,22-20.77.46,1,1,2,1.54,3,0,0-2.67.45.31,7.76-9.59,0-9,9-14.74,13.29s-8.48.87-8.48.87C39.41,103.15,36.05,103.64,34.93,100.45Z"/><path class="cls-18" d="M36,291.5c-.77.39-1.7.91-2.78,1.58-2.42-2.25-4.31-3.88-6.14-4.21-1-9,2.3-7.67,5.11-5.82.69.45,1.32.93,1.89,1.29C36.91,286.19,36.48,287.91,36,291.5Z"/><path class="cls-1" d="M48.49,279.74c2,.36,2.25.94,1.53,3.3s-1.94,11.75-6,9.75c-3.45-1.7-3.78-3.4-8-1.29.52-3.59.95-5.31-1.92-7.16-.57-.36-1.2-.84-1.89-1.29-.39-1.08.74-2,1.72-2.23,0,.57,0,1.14,0,1.72,2.06,2.8,6.81,3.48,10.6,2.38a9.91,9.91,0,0,0,3.3-1.64,1.74,1.74,0,0,0,.69-1.48A10.93,10.93,0,0,1,48.49,279.74Z"/><path class="cls-17" d="M27,288.87c1.83.33,3.72,2,6.14,4.21-4.17,2.5-1.44,5.34-5.95,5.1s-1.46,4.82-6.17,4.06a3.17,3.17,0,0,0-3.24,1c-.72.72-1.73,1.42-5.36.29-3.46-1.1-4.24-3.64-2.36-5.1l.3-.21c2.37-1.45,4.52-2.67,5.65-3.58a34.72,34.72,0,0,1,9-5.6A3.57,3.57,0,0,1,27,288.87Z"/><path class="cls-1" d="M23,315.15c-4.51,2.15-12.34,3.81-18.14,1.44-4.58-1.94-5.15-3.43-4.45-5.73C1.7,313.73,8.22,318,18,312.58s5.17-3,12.26-5.74c-1.84.73-2.28,2.29-2.71,3.87S27.52,313,23,315.15Z"/></g></g></g></svg>