<svg xmlns="http://www.w3.org/2000/svg" viewBox="0 0 272.12 346.18"><defs><style>.cls-1{fill:#ffad91;}.cls-2{fill:#ca8871;}.cls-3{fill:#e8927b;}.cls-4{fill:#fff;}.cls-5{fill:#c07e66;}.cls-6{fill:#e6f4ff;}.cls-7{fill:#638cc8;}.cls-8{fill:#4f739e;}.cls-9{fill:#fff5ee;}.cls-10{fill:#c1372d;}.cls-11{fill:#c1d4e0;}.cls-12{fill:#e24b37;}</style></defs><title>Asset 4</title><g id="Layer_2" data-name="Layer 2"><g id="artwork"><path class="cls-1" d="M199.54,64.05a214.59,214.59,0,0,1,18.33-14.54q2.37-1.74,4.65-3.34c7.61-5.36,14.29-9.59,20.13-12.27h0v0c11.21-5.15,19.29-4.59,24.77,4.69,3.9,6.61,5.36,12,4.39,17.34h-.07c-17.55,13.56-44.46,33.28-63.13,39h0a30.1,30.1,0,0,1-10,1.56,11.74,11.74,0,0,1-6.07-1.77,9.24,9.24,0,0,1-2.06-1.85A15.28,15.28,0,0,1,187.34,87a12.39,12.39,0,0,1,0-6.08c.76-3.17,2.65-6.46,5.54-9.94A72.53,72.53,0,0,1,199.54,64.05Z"/><path class="cls-2" d="M271.76,55.91h.07c-1.23,6.8-6.43,13.39-15.53,22-.55,5.4-1.1,9.65-1.13,9.94h0C244.05,90.31,229,99.15,215.7,104.17c-2.52,1-5,1.88-7.29,2.79.15-3,.22-6,.22-9V94.88h0C227.3,89.19,254.21,69.47,271.76,55.91Z"/><path class="cls-1" d="M259.76,123.42a77.21,77.21,0,0,1-10.71,4.18c-3.35,1.08-7.09,2.16-11.23,3.32-13,3.66-24.87,7.1-34,8.62-9.47,1.56-16.12,1.06-18.38-3.36a19.69,19.69,0,0,1-2.36-7.79c-.33-5.69,3.08-9.95,9-13.69,4.3-2.73,9.93-5.19,16.4-7.74,2.33-.91,4.77-1.83,7.29-2.79,13.28-5,28.35-13.86,39.47-16.27h0c8.22-1.79,14.27-.06,15.81,9.34C273.33,111.62,269.82,118.39,259.76,123.42Z"/><path class="cls-2" d="M240.23,224.89c18.27-9.28,27.83,4.37,22.23,9.91-6,6-11.15,13.62-22.52,25,5.13-6.89,4.95-16.18-6.82-15.85-13.42.38-29.17,9.91-34.4,19.61s-15.95,6.78-26.69,10.3c5-7.41,5.85-11.19,2-14.49l.17-.19c9.32.29,15.08.05,19.1-3.74,5.28-5,12.58-9.26,22.67-15.38,5.69-3.45,12.26-7.49,19.87-12.57A45,45,0,0,1,240.23,224.89Z"/><path class="cls-2" d="M259.76,123.42c9.24,29.84,2.26,39.19-8.62,57.83,2.06-3.68,7.16-13.6,5.41-21.82,7.61-10.22-1-19.68-9.15-18.05,0,0-3-9.95,1.65-13.78A77.21,77.21,0,0,0,259.76,123.42Z"/><path class="cls-3" d="M247.4,141.38c8.11-1.63,16.76,7.83,9.15,18.05,1.75,8.22-3.35,18.14-5.41,21.82-.06.11-.12.2-.17.31-2.3,3.94-4.77,8.3-7.29,13.37a37.74,37.74,0,0,1-12.12,13.92v0c-27.42.11-.61-30.93,5.63-38.75-19.26,6.27-38,9.86-47.21,4.39h0a11.14,11.14,0,0,1-5-6.1c-1.79-5.13,4.08-9.39,14.21-13.53,5.86-2.41,13.15-4.77,21.19-7.26A243.12,243.12,0,0,1,247.4,141.38Z"/><path class="cls-2" d="M249.05,127.6c-4.6,3.83-1.65,13.78-1.65,13.78a243.12,243.12,0,0,0-27.05,6.19c-8,2.49-15.33,4.85-21.19,7.26v0a143.44,143.44,0,0,0,4.61-15.27c9.18-1.52,21-5,34-8.62C242,129.76,245.7,128.68,249.05,127.6Z"/><path class="cls-3" d="M229.37.23c12.24,2,18.4,16,13.3,33.66h0c-.44-.48-10.27-11-20.13,12.27q-2.28,1.61-4.65,3.34a214.59,214.59,0,0,0-18.33,14.54,14.72,14.72,0,0,1-6.66-4.4c-2.09-2.42-3.81-6.14-3.81-11.78a43.51,43.51,0,0,1,2.61-13.77c.38-1.13.78-2.23,1.21-3.31a64.65,64.65,0,0,1,7.61-14.31,49.24,49.24,0,0,1,6.4-7.42C214.34,2.05,222.61-.87,229.37.23Z"/><path class="cls-4" d="M242.67,33.89v0h0Z"/><path class="cls-3" d="M197.21,303.46c-13.6,8.82-32.31,11.77-51.52,7.4,6-8.19,13.47-19.64,21.44-30.22,1.93-2.56,3.56-4.81,4.9-6.78,10.74-3.52,21.46-.61,26.69-10.3s21-19.23,34.4-19.61c11.77-.33,11.95,9,6.82,15.85a20.2,20.2,0,0,1-2.45,2.71c-7.41,6.8-19.21,21.84-32.88,35.08A47,47,0,0,1,197.21,303.46Z"/><path class="cls-2" d="M222.52,46.17c9.86-23.28,19.69-12.75,20.13-12.27C236.81,36.58,230.13,40.81,222.52,46.17Z"/><path class="cls-5" d="M240.23,224.89a45,45,0,0,0-4.41,2.6c-7.61,5.08-14.18,9.12-19.87,12.57h0C221.41,213.05,239.12,216.12,240.23,224.89Z"/><path class="cls-2" d="M231.55,208.83v0c-23.16,16.5-64.53,12.29-77.92-5a41,41,0,0,0,15.75-6.54c7.74-5.17,14.72-13,20.58-22.84,9.17,5.47,27.95,1.88,47.21-4.39C230.94,177.9,204.13,208.94,231.55,208.83Z"/><path class="cls-6" d="M208.63,94.88v3.06c0,3-.07,6-.22,9-6.47,2.55-12.1,5-16.4,7.74a83.13,83.13,0,0,0,6.59-18.23v0A30.1,30.1,0,0,0,208.63,94.88Z"/><path class="cls-6" d="M196.63,3.28A12,12,0,0,1,206.9,9.06a49.24,49.24,0,0,0-6.4,7.42l0,0c-1.47-3.09-5.35-5.3-9.89-5.3H104.19c-5.83,0-10.54,3.61-10.54,8.07v55.6c0,39.55,24,71.61,53.73,71.61,13.68,0,26.17-6.82,35.65-18.05a19.69,19.69,0,0,0,2.36,7.79c2.26,4.42,8.91,4.92,18.38,3.36a143.44,143.44,0,0,1-4.61,15.27v0c-10.13,4.14-16,8.4-14.21,13.53a11.14,11.14,0,0,0,5,6.1h0c-5.86,9.85-12.84,17.67-20.58,22.84a41.08,41.08,0,0,0-16.13-6.59,35.65,35.65,0,0,0-11.78,0,40.88,40.88,0,0,0-16.11,6.59c-21.18-14.18-36.7-48.21-39-89-.2-3.42-.29-6.88-.29-10.39V15.28a12,12,0,0,1,12-12Z"/><path class="cls-7" d="M200.46,16.46l0,0a64.65,64.65,0,0,0-7.61,14.31h0V28.27a8.91,8.91,0,0,0-8.9-8.9H110.77a8.92,8.92,0,0,0-8.9,8.9V92.21a8.9,8.9,0,0,0,8.9,8.89H184a8.9,8.9,0,0,0,8.55-6.43,11.74,11.74,0,0,0,6.07,1.77v0A83.13,83.13,0,0,1,192,114.7c-5.9,3.74-9.31,8-9,13.69-9.48,11.23-22,18.05-35.65,18.05-29.68,0-53.73-32.06-53.73-71.61V19.23c0-4.46,4.71-8.07,10.54-8.07h86.38C195.11,11.16,199,13.37,200.46,16.46Zm-35,107.34a18.11,18.11,0,1,0-18.1,18.1A18.11,18.11,0,0,0,165.48,123.8Z"/><path class="cls-7" d="M199.54,64.05a72.53,72.53,0,0,0-6.66,6.89V59.65A14.72,14.72,0,0,0,199.54,64.05Z"/><path class="cls-8" d="M192.88,30.79h0c-.43,1.08-.83,2.18-1.21,3.31a43.51,43.51,0,0,0-2.61,13.77h-1.73V28.27A3.35,3.35,0,0,0,184,24.91H110.77a3.35,3.35,0,0,0-3.35,3.36V92.21a3.36,3.36,0,0,0,3.35,3.36H184a3.36,3.36,0,0,0,3.36-3.36V87a15.28,15.28,0,0,0,3.13,5.86,9.24,9.24,0,0,0,2.06,1.85A8.9,8.9,0,0,1,184,101.1H110.77a8.9,8.9,0,0,1-8.9-8.89V28.27a8.92,8.92,0,0,1,8.9-8.9H184a8.91,8.91,0,0,1,8.9,8.9Z"/><path class="cls-8" d="M192.88,59.65V70.94c-2.89,3.48-4.78,6.77-5.54,9.94v-33h1.73C189.07,53.51,190.79,57.23,192.88,59.65Z"/><path class="cls-9" d="M187.34,87v5.25A3.36,3.36,0,0,1,184,95.57H110.77a3.36,3.36,0,0,1-3.35-3.36V28.27a3.35,3.35,0,0,1,3.35-3.36H184a3.35,3.35,0,0,1,3.36,3.36V80.88A12.39,12.39,0,0,0,187.34,87Zm-40,1.51c49.13-28.17,23.25-74,0-49.47C124.11,14.44,98.25,60.3,147.38,88.47Z"/><path class="cls-1" d="M142.92,261.94a67.4,67.4,0,0,1,11.58-4.85c6.06-1.86,11.6-2.3,15.19-.46a21.17,21.17,0,0,1,4.32,2.74c3.87,3.3,3,7.08-2,14.49-1.34,2-3,4.22-4.9,6.78-8,10.58-15.45,22-21.44,30.22a86.2,86.2,0,0,1-6.44,8,22.56,22.56,0,0,1-9.81,5.53c-7.94,2.4-18.25,2.21-26.37-2.52-12.33-7.17-17.82,5.41-35.13,7.44,0,0-3,16.85-21.71,15.12-9-1.66-17.56-4.68-24.72-9.57C-4.31,317.23-3.69,298,6.75,289.58S24.68,274.73,20.36,262c-8.17-24.21-1.12-21.81-3-35.9-1.16-8.46-11.61-20.23,1.16-25.2s26.42,1.39,31.78,25.2l0,0c5.34,23.79,12.22,31.42,27.73,32.42s40.91,7.84,46.73,17.15C128.87,270.79,135.66,265.78,142.92,261.94Z"/><path class="cls-2" d="M145.69,310.86c19.21,4.37,37.92,1.42,51.52-7.4-21.34,17.07-38.26,21.3-53.47,21.26a41.66,41.66,0,0,0-13.44,2.22l-.86-2.53a22.56,22.56,0,0,0,9.81-5.53A86.2,86.2,0,0,0,145.69,310.86Z"/><path class="cls-10" d="M147.38,39c23.25-24.56,49.13,21.3,0,49.47C98.25,60.3,124.11,14.44,147.38,39Zm0,35.94a9.44,9.44,0,0,0,9.45-9.45c0-5.22-9.45-20-9.45-20s-9.46,14.74-9.46,20A9.45,9.45,0,0,0,147.38,74.94Z"/><path class="cls-8" d="M147.38,105.68a18.11,18.11,0,1,1-18.12,18.12A18.11,18.11,0,0,1,147.38,105.68Zm9.84,18.12a9.85,9.85,0,1,0-9.84,9.85A9.85,9.85,0,0,0,157.22,123.8Z"/><path class="cls-11" d="M153.26,190.72a41.08,41.08,0,0,1,16.13,6.59,41,41,0,0,1-15.75,6.54h-.38Z"/><path class="cls-7" d="M147.38,113.94a9.86,9.86,0,1,1-9.86,9.86A9.85,9.85,0,0,1,147.38,113.94Z"/><path class="cls-10" d="M154.54,256.34c0,.25,0,.49,0,.73v0a67.4,67.4,0,0,0-11.58,4.85,7.14,7.14,0,0,1-2.09-2.7,7,7,0,0,1-.61-2.9,7.16,7.16,0,0,1,14.32,0Z"/><path class="cls-12" d="M156.83,65.49a9.46,9.46,0,0,1-18.91,0c0-5.22,9.46-20,9.46-20S156.83,60.27,156.83,65.49Z"/><rect class="cls-12" x="141.48" y="218.82" width="11.77" height="18.78"/><path class="cls-8" d="M153.26,203.85v15H141.48v-28.1a35.65,35.65,0,0,1,11.78,0Z"/><path class="cls-11" d="M141.48,190.72v13.19a40.75,40.75,0,0,1-16.11-6.6A40.88,40.88,0,0,1,141.48,190.72Z"/><path class="cls-2" d="M140.83,259.24a7.14,7.14,0,0,0,2.09,2.7c-7.26,3.84-14,8.85-18.17,13.7-5.82-9.31-31.23-16.16-46.73-17.15s-22.39-8.63-27.73-32.42c.21.4,3.92,6.94,25,17.88,18.4,9.57,24.39,19.1,55.62,16.15C134.38,259.76,137.7,259.44,140.83,259.24Z"/><path class="cls-2" d="M129.44,324.41l.86,2.53c-8.9,2.94-16.69,8.26-25.49,12.56-9.33,4.55-35.21,9.33-58.58,4.95,18.72,1.73,21.71-15.12,21.71-15.12,17.31-2,22.8-14.61,35.13-7.44C111.19,326.62,121.5,326.81,129.44,324.41Z"/><path class="cls-1" d="M86.12,97.94c0,3.51.09,7,.29,10.39C56.91,86.4,56.55,64.17,86.12,71.7Z"/></g></g></svg>