<svg xmlns="http://www.w3.org/2000/svg" viewBox="0 0 353.97 451.49"><defs><style>.cls-1{fill:#635959;}.cls-2{fill:#ff9d8c;}.cls-3{fill:#e88574;}.cls-4{fill:#ef476c;}.cls-5{fill:#b03c59;}.cls-6{fill:#61787f;}.cls-7{fill:#1f313f;}.cls-8{fill:#738f96;}.cls-9{fill:#753861;}.cls-10{fill:#9579a5;}.cls-11{fill:#51656d;}.cls-12{fill:#264656;}.cls-13{fill:#d39368;}.cls-14{fill:#ba835d;}.cls-15{fill:#d4e7ed;}.cls-16{fill:#895f43;}.cls-17{fill:#bccace;}.cls-18{fill:#a9b6b9;}.cls-19{fill:#ab8cbf;}.cls-20{fill:#685775;}.cls-21{fill:#e7a26d;}.cls-22{fill:#f59787;}.cls-23{fill:#f2c23b;}.cls-24{fill:#f5e042;}.cls-25{fill:#7b7070;}.cls-26{fill:#a6b8bc;}.cls-27{fill:#4d6875;}.cls-28{fill:#7a4835;}.cls-29{fill:#fff;}.cls-30{fill:#572b4a;}.cls-31{fill:#cbd7dd;}.cls-32{fill:#638cc8;}.cls-33{fill:#964173;}.cls-34{fill:#db7e6e;}.cls-35{fill:#597eb4;}.cls-36{fill:#915443;}.cls-37{fill:#e9530e;}.cls-38{fill:#312f4e;}</style></defs><title>Asset 2</title><g id="Layer_2" data-name="Layer 2"><g id="artwork"><g id="F_40yo_60yo_wheelchair" data-name="F_40yo+60yo_wheelchair"><path class="cls-1" d="M127.86,164a14.06,14.06,0,0,0,5.83,16.67c-3.67,1.35,3.8,5.68,3.8,5.68l1.69-.16c-.39-4.73-.26-9.27-.42-11.52a23.86,23.86,0,0,1,.2-5.12c-.81,4.24-8,6.43-8.36,0C129,172.11,127.55,166.41,127.86,164Z"/><path class="cls-2" d="M142.06,157.23c4.2,9.75,19.95,4.16,19.95,4.16,2.81,3.39,11.31,5,13.48,4.75a47.48,47.48,0,0,1,1.24,12.09,3,3,0,0,0,3.71,3.18l.08,0c-1.37,4.4-3.72,4.19-5.82,3,0,0,.61,7,.82,10,.11,1.5.17,2.95.19,4.3,0,7-1.25,12-4.39,14.59-10.64,9-19.93,16.84-25.29,14.89s-6.6-9.93-6.6-9.93c-2.07-7.84,3.5-16.91,3.5-16.91.82-.05,1.67-.08,2.54-.12a8,8,0,0,1-3.5-3.51,17.38,17.38,0,0,1-1.34-3.21,39.1,39.1,0,0,1-1.45-8.3c-.39-4.73-.26-9.27-.42-11.52a23.86,23.86,0,0,1,.2-5.12A84.45,84.45,0,0,1,142.06,157.23Z"/><path class="cls-1" d="M175.49,166.14a47.48,47.48,0,0,1,1.24,12.09,3,3,0,0,0,3.71,3.18l.08,0c-1.37,4.4-3.72,4.19-5.82,3,0,0,.61,7,.82,10a6.69,6.69,0,0,1,2,.12c6.43-1.85,11.36-10.63,7.86-13.08,8.4-2.44,10.16-13.82,3.85-15.74,1.68-3.06,1.59-5.64.37-7.78-1.77-3.17-6-5.42-10.45-7,5.1,2.26,4.21,10-1.49,10C181.22,163.87,177.34,166.18,175.49,166.14Z"/><path class="cls-2" d="M215.5,88.48a5.6,5.6,0,0,0,1.66.7c-.62-13.43,4.08-12.27,4.77-16.43s1.75-6.71,8.25-9.65,11.5-.15,15.38-.84c-.84,9.18,6.54,22.27,15.06,22.38h.07c-.14,1.46-.3,2.77-.52,3.93a.42.42,0,0,1,0,.12c-.85,4.58-2.34,6.7-4.53,6.79a5.11,5.11,0,0,1-1.92-.33c-.82,6.92-8,12.42-15,14.35a16.61,16.61,0,0,1-7.83.49,12,12,0,0,1-3.71-1.42c-4.3-2.43-7.14-7.23-8.74-13-1.88.08-3-.91-3.11-3.76a20.61,20.61,0,0,1,.14-3.18Z"/><path class="cls-2" d="M110,417.89s-6.88-10.41-25-13.44h0A30.79,30.79,0,0,1,82,407c3.12,1.39,7.17,4,12.76,8.53C99.49,419.4,105,418.32,110,417.89Z"/><path class="cls-3" d="M131.22,289.09c.17,2.82-2,2.06-4.75.7a6.25,6.25,0,0,1-.24,1.94s1.38,0,3.71.15h0c3.7-.41,8.41-2,11.8-2.79,11.28-2.57,23.42-1.58,30-7.08l-1,.05h-.12a3.16,3.16,0,0,1-2.07-.79c-27.46,8.19-23.29,3.58-29.32,3.83a9.76,9.76,0,0,1-6.79-3.09,5.27,5.27,0,0,1-.73.51,28.65,28.65,0,0,0,.47,3.44,17.86,17.86,0,0,0-2.34.5A3.41,3.41,0,0,1,131.22,289.09Z"/><path class="cls-3" d="M228.32,203.41c-2.1,1.31-1.17-1.46-3.86-.73a6.47,6.47,0,0,0-2.33,2.3c-.61,1-2.42,1.63-2.61,3.26,3.12-1.38,6.85-.45,10.54.83a23.81,23.81,0,0,1-4.35,5.41,4.23,4.23,0,0,0-2-.23c-.1,3.45-.61,5.28,3.83,5.28.09,2.54,1.48,3.76,3.58,3.32a2.69,2.69,0,0,0,2.53,2.1c1.09,2.1,4.43,2.57,7.05-.1-1.1.91-.69-1.48.62-3.4s2-4.26,0-5.31-1.66-4.1-4.19-5.23-3.85-2.61-4.11-4.79S230.41,202.1,228.32,203.41Z"/><path class="cls-4" d="M220.24,218.39v25.52a22.06,22.06,0,0,0,6.45,6.77,19.79,19.79,0,0,0,4.59,2.25s-2.27,20.66,18.1,14.94a52,52,0,0,0,6-2.06h0c13.81-5.8,13-13.6,35.75-9.74,1.75.3,3.39.53,4.94.73a63.71,63.71,0,0,0,13.51.48,39.37,39.37,0,0,0,7.38-1.32c1.58-6.41-11.71-23.25-5.08-26.54s14.78-4.28-14.65-50.24c-3.84,11.16-5.4,18.32-17.45,20.75s-14.51,9.7-29.21,12c-.51,1.49-1.74,2.85-4.1,3.87h0c-.46,2.9-3,4.85-4.25,7.06a9.06,9.06,0,0,1-1.49,2c-2.62,2.67-6,2.2-7.05.1a2.69,2.69,0,0,1-2.53-2.1c-2.1.44-3.49-.78-3.58-3.32-4.44,0-3.93-1.83-3.83-5.28A4.06,4.06,0,0,0,220.24,218.39Z"/><path class="cls-5" d="M224.91,416.4a10.5,10.5,0,0,0,.51,2.47c.24-1.4,9,1.95,20.29,4.64h0a27.48,27.48,0,0,0,3.65-1.41A53.1,53.1,0,0,0,262.78,405c-1.49-2.83-3-4.82-5.51-4.87a8.84,8.84,0,0,0-4.28,1.33,8.17,8.17,0,0,1-3.58,1c2.66.31,4.9,1.8,5,3.24.09,1.75-7.57,2.07-10.72,5.79s-8.37-1.87-10.12-.9C231.11,413.1,224.65,413.1,224.91,416.4Z"/><path class="cls-5" d="M323,396.38c-.53,3.21-4.61,3.49-4.46,8.34a7.51,7.51,0,0,0,.18,1.25c13.16,3.15,20.57-1.06,21.18-4.38s1.48-10.64,4.89-14.48,6.62-8.1,5.55-15.8c-1.49-.84-3.06-1.31-4-2.18-2-1.89-3.64-6-6.41-4.4a15.18,15.18,0,0,0,1.87,2.07c4.09,3.49.43,8.63-4.45,9.41s-1.66,4.11-6.15,4c-.06.45-.12.94-.21,1.47,2.69.45,1.57,4.3,0,6.73s-.24,5.48-.08,6.89S327.06,394.74,323,396.38Z"/><path class="cls-4" d="M213.77,215.22h.33c1.34-3.91,3.23-6,5.42-7,.19-1.63,2-2.3,2.61-3.26a6.47,6.47,0,0,1,2.33-2.3,16.52,16.52,0,0,1,5.6-1.45,22.54,22.54,0,0,1,5.4-.36c2.36-3.23,4.6-3.52,6.54-2.74,7.24-6.4,19.48-15.12,25.31-17.91-1-7.85-.94-24.24,0-30.69a18.19,18.19,0,0,1-1.76-4.87,3.68,3.68,0,0,1,3.3-4.46,137.94,137.94,0,0,1,16.49.32c-.7-20.12-7.25-28.14-13.4-23.6s-14.2-2.12-14.2-2.12-.08.15-.14.23c-5.13,10-13.78,25.41-23.17,24.91-13-.7-10.41-11.86-5.21-23.72A9.45,9.45,0,0,1,227,112c-3.68,1.77-11.25,1.34-17.68,5.49-5.31,3.42-10,10.61-12.59,18s-1,9.07-2.19,14.33a16,16,0,0,1,2-2.7c1.22-.91,4.1-1,9.42,0-2.17,7.63-5.55,26.8.17,37.36a14.72,14.72,0,0,0,1.57,2.39c7.86,9.76,6.76,2.88,6.36,14-.12,3.26-.44,8.48-.33,14.39Z"/><path class="cls-6" d="M34.79,389.44l6.86-34.82a7,7,0,0,1,6.4-5.63h.17v7.27c1.4-4.59,2.93-9.74,4.44-14.93l-5.1.33a14.39,14.39,0,0,0-13.11,11.53L23.28,409.93a38,38,0,0,0,8-2.8L34,393.49h0v0c-.35-.45-.67-.94-1-1.44,0,0,.72-1,1.78-2.59Z"/><path class="cls-7" d="M71.11,443.79c-6.28-.43-11.7-.78-16.59-1.19A13.48,13.48,0,0,0,64.28,447a12.9,12.9,0,0,0,7.81-2.7Z"/><path class="cls-7" d="M13.76,432.75a.21.21,0,0,0,0,.14c0,.46,1.2,1.13,3.83,2.12,13.11,4.84,22.73,6.42,36.94,7.59,4.89.41,10.31.76,16.59,1.19L48.63,435S14.81,430.48,13.76,432.75Z"/><path class="cls-8" d="M108.41,425.92l1.59-8,1-5.28,11.73-59.42a14.33,14.33,0,0,1,13.1-11.53l21.82-1.44v-17.5A11.75,11.75,0,0,1,168.92,311l2.81-.14V282l-1,.05h-.12a3.16,3.16,0,0,1-2.07-.79,3.15,3.15,0,0,1,2-5.5l9.39-.35v1.69a.84.84,0,0,0,.84.84h10.9l.12,3.32-12.67.47v57.05l4-.26h0q-1,3.64-1.6,7.46h0l-12.4.82-10.39.7-14.82,1v45.1l1.74-.19v7.39l-5,.51a2.3,2.3,0,0,1-.38,0,3.67,3.67,0,0,1-3.67-3.67V349h-.15a7,7,0,0,0-6.1,4.59,6.44,6.44,0,0,0-.29,1l-6.31,32-1.49,7.53-5,25.32-1,5.16-.17.92h0l-.49,2.49c-.44-.15-1-.32-1.49-.48C112.49,427.06,110.65,426.5,108.41,425.92Zm63.32-86.65V317.12l-2.51.11a5.5,5.5,0,0,0-5.24,5.49v17.07Z"/><path class="cls-9" d="M300.76,285.27a108.94,108.94,0,0,1-8.11,12c7,6.93,14.83,14.58,14.92,21.74s12.39,1.42,14.1,27.8a17,17,0,0,0,4.62-5.86,6.14,6.14,0,0,0,.55-3.17c-.87-6.7-4.18-23.64-19.53-32.31A28.54,28.54,0,0,0,300.76,285.27Z"/><path class="cls-10" d="M75.71,416.16c4.65,1.75,10.32,4.09,17.18,7.09h0a96.17,96.17,0,0,1,15.51,2.67l1.59-8c-5,.43-10.51,1.51-15.27-2.37C89.14,411,85.09,408.38,82,407c-3.56-1.58-5.92-1.53-8-.88a28.12,28.12,0,0,0-3.88,1.81C81.57,411.68,78.79,417.27,75.71,416.16Z"/><path class="cls-11" d="M267.25,413.71c-7.81,10.09-18,16.21-29.23,16.21a29.87,29.87,0,0,1-5.92-.59h0c-.67.05-1.33.08-2,.08-15.72,0-29.45-13.55-36.6-33.56-.82-2.3-1.55-4.69-2.19-7.15a96.73,96.73,0,0,1-3-24.33,98.54,98.54,0,0,1,1.82-19c.49-2.56,1.1-5.06,1.8-7.48,5-17.35,14.74-30.7,26.64-36.05a29.38,29.38,0,0,1,7.34-2.19,25.87,25.87,0,0,1,4.23-.34c.67,0,1.33,0,2,.08v0a29.14,29.14,0,0,1,5.92-.6c11.24,0,21.5,6.18,29.34,16.34-6.11-9.87-14-17.31-22.94-21.19a36.07,36.07,0,0,0-5.91-2h0a35,35,0,0,0-8.39-1,37.36,37.36,0,0,0-4.23.25,36.43,36.43,0,0,0-7.34,1.66,42.42,42.42,0,0,0-14.47,8.59,60.3,60.3,0,0,0-10,11.65,82.62,82.62,0,0,0-11,25.41q-1,3.64-1.6,7.46a107.34,107.34,0,0,0,1.43,43.59c.6,2.45,1.28,4.82,2.07,7.15a79.15,79.15,0,0,0,9.11,18.93c9.48,14.28,22.29,22.15,36,22.15,10.75,0,20.73-5,28.89-13.4a59.55,59.55,0,0,0,5.48-6.52c1-1.34,1.9-2.72,2.8-4.17Z"/><path class="cls-12" d="M220.24,218.39a4.06,4.06,0,0,1,3.46-4.14,4.23,4.23,0,0,1,2,.23,23.81,23.81,0,0,0,4.35-5.41c-3.69-1.28-7.42-2.21-10.54-.83-2.19.95-4.08,3.06-5.42,7l2.77-.08A3.26,3.26,0,0,1,220.24,218.39Z"/><path class="cls-11" d="M114,432.59c3.1.94,4.55,1.75,4.72,2.4v-5.07c-.14-.53-1.15-1.17-3.23-1.92-.44-.15-1-.32-1.49-.48-1.5-.46-3.34-1-5.58-1.6a96.17,96.17,0,0,0-15.51-2.67h0a144.75,144.75,0,0,0-27.41.32c-2.16.22-4.4.47-6.71.78v5.07C90.16,425.25,106.44,430.29,114,432.59Z"/><path class="cls-7" d="M58.77,429.42,64.92,432l5,2,7.8,3.2,1.55.64c17,.44,40.13.06,39.48-2.8v0c-.17-.65-1.62-1.46-4.72-2.4C106.44,430.29,90.16,425.25,58.77,429.42Z"/><path class="cls-7" d="M325,374.66c3-.57,6.85-1,6.22,5.57,4.49.09,1.27-3.23,6.15-4s8.54-5.92,4.45-9.41a15.18,15.18,0,0,1-1.87-2.07h0q-.66-.87-1.41-1.92c-1.5,5.65-11.24,10.35-15.17,10.4.32.58.63,1.13.88,1.64A6.66,6.66,0,0,1,325,374.66Z"/><path class="cls-13" d="M69.67,293.74C63.87,298.56,62,305,59.92,314.2c-1.49,6.82-4.34,17.07-7.26,27.13-1.51,5.19-3,10.34-4.44,14.93v0c-3,9.85-5.3,17.2-5.3,17.2-1.77,5.83-5.79,12.41-8.12,16C33.74,391,33,392,33,392a116.78,116.78,0,0,1,13.64,4c2.82,1,5.77,2,8.64,3.05,3.63-5.21,8.31-20.33,9.53-44.73,1-19.28,18.2-26.25,20.37-32.49.56-1.66.07-3.28-2.1-5-5.82-4.75,4.79-11.76,16.15-11.35C89.38,295,83.11,285.61,69.88,294Z"/><path class="cls-14" d="M141.77,289.09c-3.39.78-8.1,2.38-11.8,2.79,8.59.5,29.9,2.63,41.76,11.8V282C165.19,287.51,153.05,286.52,141.77,289.09Z"/><path class="cls-9" d="M279.8,290.55c-.66,11.82-11.21,9.46-9.32,29.1h0a75.83,75.83,0,0,1,9.67,23.79,74.25,74.25,0,0,0,.3-15c-.12-2.44-.42-4.54-.65-6.46-.69-5.77-.82-9.89,5.71-16.52a98.44,98.44,0,0,0,7.14-8.2,108.94,108.94,0,0,0,8.11-12c5-8.66,8.89-18.59,8.79-28a63.71,63.71,0,0,1-13.51-.48h0C297.67,288.91,280.45,278.74,279.8,290.55Z"/><path class="cls-2" d="M230.06,201.23a16.52,16.52,0,0,0-5.6,1.45c2.69-.73,1.76,2,3.86.73s4.45.52,4.69,2.71,1.59,3.65,4.11,4.79,2.18,4.18,4.19,5.23,1.31,3.39,0,5.31-1.72,4.31-.62,3.4a9.06,9.06,0,0,0,1.49-2c1.25-2.21,3.79-4.16,4.25-7.06h0a6.7,6.7,0,0,0,0-1.74,17.4,17.4,0,0,0-1.37-4.35c-1.59-3.55-4.18-7.31-6.22-8a13.52,13.52,0,0,0-3.41-.79A22.54,22.54,0,0,0,230.06,201.23Z"/><path class="cls-15" d="M22.38,410a3.4,3.4,0,0,0,.9-.06,38,38,0,0,0,8-2.8c16.2-2.27,31.41,11.71,18.8,22.79,0,0-21.43-3.39-31-3v0C11.69,423.82,9,419.4,11,413.13,12.73,409.29,19.59,409.64,22.38,410Zm-3.14,8.95c5.7,2.67,14.45-.73,9.66-5.81-2-2.1-5.12-1.75-8.51,0a3.56,3.56,0,0,0-4.21.39,1.44,1.44,0,0,0-2.43.19c-.61-.7-1.4.19-1.72.91-1.24,2.85-.09,3.88,1.72,4.43C13.75,419.05,17.14,420.21,19.24,418.94Z"/><path class="cls-3" d="M12,414.62c-1.24,2.85-.09,3.88,1.72,4.43,0,0,3.39,1.16,5.49-.11-2.11-.7-2.1-4.3,1.15-5.81a3.56,3.56,0,0,0-4.21.39,1.44,1.44,0,0,0-2.43.19C13.14,413,12.35,413.9,12,414.62Z"/><path class="cls-11" d="M14.54,428.19l-.78,4.56c1.05-2.27,34.87,2.26,34.87,2.26l22.48,8.78,1-5.07L67.73,437l-3.38-1.36L50.1,429.92s-21.43-3.39-31-3C16.46,427,14.74,427.38,14.54,428.19Z"/><path class="cls-2" d="M20.39,413.13c-3.25,1.51-3.26,5.11-1.15,5.81,5.7,2.67,14.45-.73,9.66-5.81C26.92,411,23.78,411.38,20.39,413.13Z"/><path class="cls-16" d="M33,392c.32.5.64,1,1,1.44v0a45.34,45.34,0,0,0,7.26,7.9h0a23.06,23.06,0,0,0,5.34-5.27l0-.09A116.78,116.78,0,0,0,33,392Z"/><path class="cls-17" d="M31.3,407.13c16.2-2.27,31.41,11.71,18.8,22.79l14.25,5.71c.22-1.19.4-2.42.57-3.68l-6.15-2.53v-5.07c2.31-.31,4.55-.56,6.71-.78a15.49,15.49,0,0,1-7-8.95c-.79-3-.17-5.69,1.76-6.73-1.4-2.54-11-7.6-19-6.5h0A54.57,54.57,0,0,1,31.3,407.13Z"/><path class="cls-18" d="M41.29,401.39c8-1.1,17.58,4,19,6.5a9,9,0,0,1,6.34-.76v0c0-2.39,0-3.83,0-3.83-3.21-1.22-7.2-2.71-11.34-4.2-2.87-1-5.82-2.09-8.64-3.05l0,.09A23.06,23.06,0,0,1,41.29,401.39Z"/><path class="cls-14" d="M55.3,399.08c4.14,1.49,8.13,3,11.34,4.2,4.4,1.66,7.38,2.83,7.38,2.83l-9.91-10.79s5.69-10.3,7.48-16.68c6.15-22,11.08-41.18,17.57-55.93l-4-.85C83,328.1,65.79,335.07,64.83,354.35,63.61,378.75,58.93,393.87,55.3,399.08Z"/><path class="cls-19" d="M60.27,407.89c-1.93,1-2.55,3.72-1.76,6.73.14-3.38,5.14-3,17.2,1.54,3.08,1.11,5.86-4.48-5.57-8.24-1.32-.35-2.48-.62-3.53-.79A9,9,0,0,0,60.27,407.89Z"/><path class="cls-20" d="M75.71,416.16c-12.06-4.52-17.06-4.92-17.2-1.54a15.49,15.49,0,0,0,7,8.95,144.75,144.75,0,0,1,27.41-.32C86,420.25,80.36,417.91,75.71,416.16Z"/><path class="cls-16" d="M64.11,395.32,74,406.11c2-.65,4.39-.7,8,.88A30.79,30.79,0,0,0,85,404.45h0a24.15,24.15,0,0,0,2.81-3.14C75.91,397.61,64.11,395.32,64.11,395.32Z"/><path class="cls-16" d="M66.61,407.11v0c1,.17,2.21.44,3.53.79A28.12,28.12,0,0,1,74,406.11s-3-1.17-7.38-2.83C66.64,403.28,66.65,404.72,66.61,407.11Z"/><path class="cls-21" d="M87.85,401.31a110.49,110.49,0,0,1,15,5.68c4.9-5.66,7.17-18.28,3.23-42.61s39.75-31.47,21.84-39.75c-11.81-5.45-7.12-13.28,9.44-17.66,8.53-2.27,20.19-3.63,34.36-3.29-11.86-9.17-33.17-11.3-41.76-11.8h0a9.44,9.44,0,0,1-3.71-.15c-.51,1.52-1.72,1.35-2.83.41a7.82,7.82,0,0,1-2.12-.12c-9.23,1.76-16.28,6.42-22,13.45a74.1,74.1,0,0,0-10.09,17.24c-6.49,14.75-11.42,34-17.57,55.93-1.79,6.38-7.48,16.68-7.48,16.68S75.91,397.61,87.85,401.31Z"/><path class="cls-7" d="M67.73,437l4.34,1.73-1,5.07,1,.53a18.46,18.46,0,0,0,5.59-7.15l-7.8-3.2A10.71,10.71,0,0,1,67.73,437Z"/><path class="cls-14" d="M69.67,293.74l.21.26c13.23-8.39,19.5,1,29.37,11.47,5.75-7,12.8-11.69,22-13.45-1.48-.35-.84-1.28.08-1.47h0c-1.27-.72-2.53-1.29-2.82-3.06a4.13,4.13,0,0,1-2.3-2.48c-.09,4.23.43,6.86-1.49,7s-2.09-.32-3.06-2.93-1.11-6.89-1.21-8.67-1.44-1.12-1.23,1.91.21,4.77.35,6.76-.26,2.52-1.58,2.61-2-.55-2.35-2.61-.71-8.16-.88-9.86-1.06.42-1,3.65-.21,5.76-1.44,5.79-1.88-1.31-2.09-5.15c-3.47.55-6.62,1.13-9.49,1.75q-4,.87-7.33,1.84C77.23,288.94,72.86,291.09,69.67,293.74Z"/><path class="cls-6" d="M82.2,275.77a3.15,3.15,0,0,0,.1,6.29h.13l1-.05v5.1q3.3-1,7.33-1.84v-3.53l9.46-.35c0-1.33.15-2.47.26-3.44H93.08a1.49,1.49,0,0,1-1.49-1.49v-1h0Z"/><path class="cls-14" d="M99.25,305.47c-11.36-.41-22,6.6-16.15,11.35,2.17,1.76,2.66,3.38,2.1,5l4,.85A74.1,74.1,0,0,1,99.25,305.47Z"/><path class="cls-3" d="M87.85,401.31A24.15,24.15,0,0,1,85,404.45c18.08,3,25,13.44,25,13.44l1-5.28c-1.64-2-4.56-3.87-8.17-5.62A110.49,110.49,0,0,0,87.85,401.31Z"/><path class="cls-3" d="M89.89,257.59c-1.71,7.92.85,11.42,3.45,11.42a10.87,10.87,0,0,0,.69,1.77,11.88,11.88,0,0,0,6.59,5.9,7.14,7.14,0,0,0,0-1.29c-.12-1.66-.15-5-.41-7.32-5.44-.61-6.84-4.68-6.94-8.39s-2.82-4.2-2.82-4.2h0A20.68,20.68,0,0,0,89.89,257.59Z"/><path class="cls-22" d="M100.24,281.39c0,.65,0,1.37,0,2.13.21,3.84.85,5.19,2.09,5.15s1.53-2.55,1.44-5.79.81-5.36,1-3.65.5,7.82.88,9.86,1,2.7,2.35,2.61,1.7-.6,1.58-2.61-.14-3.74-.35-6.76,1.16-3.7,1.23-1.91.22,6.08,1.21,8.67,1.14,3.08,3.06,2.93,1.4-2.79,1.49-7c-1-2.65-.32-6.44-.26-8.09s2.74-2.11,5.92-2.62c-.42-1.3-2.27-2.52-3.62-3.8s-2.56-1.57-4-5.27a4.93,4.93,0,0,0-1.43-2.05c-.46-.87-1-1.76-1.48-2.67-2.31-4.14-4.79-8.62-3.71-12.21h-.08c-1.12-1.74-7.35-2.44-10.58-.69,0,0-4.46,1.71-6.58,7.89h0s2.69.47,2.82,4.2,1.5,7.78,6.94,8.39c.26,2.3.29,5.66.41,7.32a7.14,7.14,0,0,1,0,1.29c0,.39-.06.81-.12,1.27C100.39,278.92,100.27,280.06,100.24,281.39Z"/><path class="cls-12" d="M91.59,275.54v.92A1.49,1.49,0,0,0,93.08,278h7.42c.06-.46.1-.88.12-1.27a11.88,11.88,0,0,1-6.59-5.9,5.88,5.88,0,0,0-2.44,4.64Z"/><path class="cls-23" d="M100.36,242.14s-4-.64-3.32,5.45c3.23-1.75,9.46-1.05,10.58.69h.08a4.52,4.52,0,0,1,.41-1c4.46-8.5,10-19.63,13.79-28,2-4.48-2.93-1.69-.89-4.81s3.45-6.63.91-6.53h0c-4.56,4.67-5.92,11.76-9.19,16.06-3.63,4.73-6.61,7.24-9.15,15.07C103.56,239.08,100,239.6,100.36,242.14Z"/><path class="cls-14" d="M127.93,324.63c17.91,8.28-25.8,15.42-21.84,39.75s1.67,36.95-3.23,42.61c3.61,1.75,6.53,3.64,8.17,5.62l11.73-59.42a14.33,14.33,0,0,1,13.1-11.53l21.82-1.44v-17.5A11.75,11.75,0,0,1,168.92,311l2.81-.14v-7.14c-14.17-.34-25.83,1-34.36,3.29C120.81,311.35,116.12,319.18,127.93,324.63Z"/><path class="cls-24" d="M190,243.89c2.22-.93,2.39-4.51-.67-2.63s-7-5.62-5.48-9.88,3.68-15.58,0-12a15.37,15.37,0,0,0-3,17.23c3.13,6.52,4.08,14.44,1.69,16.9C189.79,252.66,182,247.26,190,243.89ZM164.79,263c-1.93,1-3.7,1.86-5.3,2.68-22,4.91-24.26-1.64-33.26,0s-13.69-3.16-14.82-5.19c-2.31-4.14-4.79-8.62-3.71-12.21a4.52,4.52,0,0,1,.41-1c4.46-8.5,10-19.63,13.79-28,2-4.48-2.93-1.69-.89-4.81s3.45-6.63.91-6.53a11.66,11.66,0,0,1,1.46-1.34,21,21,0,0,1,7.35-3.72,44.51,44.51,0,0,1,8.94-1.38c-1-2.32,2.3-3.83,2.3-3.83a8,8,0,0,0,3.5,3.51c-.87,0-1.72.07-2.54.12,0,0-5.57,9.07-3.5,16.91,0,0,1.25,8,6.6,9.93s14.65-5.88,25.29-14.89c3.14-2.63,4.43-7.6,4.39-14.59,6.13-.19,3,3.58,9.06,2.23s13.71.51,14.22,9.71-1.24,21.19,6,22.3,9.94,10.89,7.55,13,.64,3.29,1,4.34c2.76,7,2.24,13.66-.56,17.89l-6,.33c1.39-6.85-17.38-12.13-29.68-9.77l-.17,0A50,50,0,0,0,164.79,263Z"/><path class="cls-23" d="M111.41,260.5c.52.91,1,1.8,1.48,2.67a4.93,4.93,0,0,1,1.43,2.05c1.4,3.7,2.59,4,4,5.27s3.2,2.5,3.62,3.8c1.45-.24,3-.45,4.46-.77,4.69-1,6-.69,10.91.33,6.72.79,9.82-1.73,22.22-8.16-22,4.91-24.26-1.64-33.26,0S112.54,262.53,111.41,260.5Z"/><path class="cls-7" d="M116,425.51l-.49,2.49c2.08.75,3.09,1.39,3.23,1.92v4c12.13-.37,23.21-7.05,31.79-17.88l-3.34-9.45a49.4,49.4,0,0,1-10.23,11.64,26.72,26.72,0,0,1-11.36,2.58,26.33,26.33,0,0,1-8.4-1.39l-1,5.16h0a31.89,31.89,0,0,0,3.49.9c-.65.05-1.32.06-2,.06s-1.12,0-1.68,0Z"/><path class="cls-2" d="M131.68,282.52a5.27,5.27,0,0,0,.73-.51,9.76,9.76,0,0,0,6.79,3.09c6-.25,1.86,4.36,29.32-3.83a3.15,3.15,0,0,1,2-5.5l9.39-.35v-2.48a3.26,3.26,0,0,1,3.26-3.27h2.6L207,268.49c1.39-6.85-17.38-12.13-29.68-9.77l-.17,0A50,50,0,0,0,164.79,263c-1.93,1-3.7,1.86-5.3,2.68-12.4,6.43-15.5,8.95-22.22,8.16-4.86-1-6.22-1.35-10.91-.33-1.46.32-3,.53-4.46.77-3.18.51-5.86,1-5.92,2.62s-.76,5.44.26,8.09a4.13,4.13,0,0,0,2.3,2.48c.29,1.77,1.55,2.34,2.82,3.06a6.78,6.78,0,0,1,1.61,1.19,5.42,5.42,0,0,0,.43.41c1.11.94,2.32,1.11,2.83-.41a6.25,6.25,0,0,0,.24-1.94c2.79,1.36,4.92,2.12,4.75-.7a3.41,3.41,0,0,0-1.41-2.63,4,4,0,0,0-1.48-.69,3.84,3.84,0,0,0,.59-2.54A5.8,5.8,0,0,0,131.68,282.52Z"/><path class="cls-3" d="M121.28,292a7.82,7.82,0,0,0,2.12.12,5.42,5.42,0,0,1-.43-.41,6.78,6.78,0,0,0-1.61-1.19h0C120.44,290.74,119.8,291.67,121.28,292Z"/><path class="cls-7" d="M123.65,386.58l-1.49,7.53,14.34-1.47V349h-.15a7,7,0,0,0-6.1,4.59v32.31Z"/><path class="cls-3" d="M126.23,291.73a9.44,9.44,0,0,0,3.71.15C127.61,291.74,126.23,291.73,126.23,291.73Z"/><path class="cls-25" d="M127.86,164c-.31,2.43,1.09,8.13,2.74,5.55.38,6.43,7.55,4.24,8.36,0a84.45,84.45,0,0,1,3.1-12.3c4.2,9.75,19.95,4.16,19.95,4.16,2.81,3.39,11.31,5,13.48,4.75l1.33-5.51,2.33-9.75-1.92-.62c2.79-9.18-12.06-16.79-20.49-7.7-7.2-5.93-12,1.88-12,1.88-4.07-2.07-11.33,3.51-8.38,8.67A20.19,20.19,0,0,0,127.86,164Z"/><path class="cls-14" d="M128.92,283.23a3.84,3.84,0,0,1-.59,2.54,4,4,0,0,1,1.48.69,17.86,17.86,0,0,1,2.34-.5,28.65,28.65,0,0,1-.47-3.44A5.8,5.8,0,0,1,128.92,283.23Z"/><path class="cls-1" d="M137.49,186.33c-4,1.23-1,6.1,3.14,8.14a39.1,39.1,0,0,1-1.45-8.3Z"/><path class="cls-11" d="M145.58,400.8v1.28H159V387.81a3.88,3.88,0,0,0-2.32-3.88,10.36,10.36,0,0,0-4.4-.75,10,10,0,0,0-4.75.91,3.93,3.93,0,0,0-2,3.72v13Z"/><path class="cls-26" d="M145.58,402.08l1.58,4.52,3.34,9.45.65,1.84a18,18,0,0,1,1.42-2.17l-4.08-11.59h4.93l2.8,8,3.06,8.7,2.22,6.28,2.56,7.27,1.22,3.47h2.18l-12.58-35.73Z"/><path class="cls-7" d="M148.49,404.13l4.08,11.59a16.31,16.31,0,0,1,3.65-3.63l-2.8-8Z"/><path class="cls-11" d="M151.15,417.89A26,26,0,0,0,148,430.56c0,11.74,6.9,20.93,15.71,20.93,7.16,0,13-6.07,15-14.64l-3.46-.31a1.56,1.56,0,0,1-1.54,1.27h-4.11c-1.43,3.3-3.73,5.3-5.89,5.3-3,0-6.27-3.84-7.11-9.64a19.34,19.34,0,0,1-.21-2.91,19,19,0,0,1,.26-3.18,14.94,14.94,0,0,1,2.6-6.59l-3.06-8.7a16.31,16.31,0,0,0-3.65,3.63A18,18,0,0,0,151.15,417.89Z"/><path class="cls-8" d="M167.46,437.81l-12.58-35.73h7.38a1.58,1.58,0,0,1,1.48,1.05l2.36,6.72h0l9.1,25.87a1.66,1.66,0,0,1,.06.82,1.56,1.56,0,0,1-1.54,1.27h-6.28Zm2.57-3.47c1,0,2.21-1.56,2.21-3.78s-1.18-3.78-2.21-3.78-2.21,1.56-2.21,3.78S169,434.34,170,434.34Z"/><path class="cls-26" d="M156.42,430.56a19.34,19.34,0,0,0,.21,2.91l1.52,4.34h2.2l-3.67-10.43A19,19,0,0,0,156.42,430.56Z"/><path class="cls-7" d="M156.68,427.38l3.67,10.43h4.93l-1.22-3.47h-1.77c-1,0-2.2-1.56-2.2-3.78a4.37,4.37,0,0,1,1.4-3.49h0l-2.22-6.28A14.94,14.94,0,0,0,156.68,427.38Z"/><path class="cls-7" d="M156.69,383.93a3.88,3.88,0,0,1,2.32,3.88V392l5.75-.6a90.29,90.29,0,0,0,5.27-30.9,95.91,95.91,0,0,0-1-13.72l-10.39.7a102.23,102.23,0,0,1,.83,13A97,97,0,0,1,156.69,383.93Z"/><path class="cls-7" d="M159,399.41v2.67h.92c.54-.95,1-1.94,1.54-2.93Z"/><path class="cls-8" d="M159,392v7.38l2.46-.26L185,396.73h0c-.79-2.33-1.47-4.7-2.07-7.15h0l-18.12,1.85Z"/><path class="cls-11" d="M160.09,430.56c0,2.22,1.15,3.78,2.2,3.78h1.77l-2.56-7.27h0A4.37,4.37,0,0,0,160.09,430.56Z"/><path class="cls-14" d="M164,322.72v17.07l7.75-.52V317.12l-2.51.11A5.5,5.5,0,0,0,164,322.72Z"/><path class="cls-11" d="M166.12,409.85l9.1,25.87a1.66,1.66,0,0,1,.06.82l3.46.31a28.32,28.32,0,0,0,.7-6.29C179.44,419.9,173.74,411.35,166.12,409.85Z"/><ellipse class="cls-11" cx="170.03" cy="430.56" rx="2.21" ry="3.78"/><path class="cls-25" d="M176.82,160.63l-1.33,5.51c1.85,0,5.73-2.27,2.18-5.3Z"/><path class="cls-23" d="M177.53,194.49a6.69,6.69,0,0,0-2-.12c.11,1.5.17,2.95.19,4.3,6.13-.19,3,3.58,9.06,2.23s13.71.51,14.22,9.71-1.24,21.19,6,22.3,9.94,10.89,7.55,13,.64,3.29,1,4.34c5.71-7.73.35-19.23-3.14-23.49-2.69-3.27-3.76-6-5.52-11.31-.52-1.59-1.1-3.41-1.8-5.55-3.07-9.28-8.43-12.17-16.52-12.34a11,11,0,0,0-7.41-2A2.2,2.2,0,0,0,177.53,194.49Z"/><path class="cls-25" d="M179.15,150.88l-2.33,9.75.85.21c5.7,0,6.59-7.7,1.49-10Z"/><path class="cls-3" d="M177.53,194.49a2.2,2.2,0,0,1,1.62,1.12,11,11,0,0,1,7.41,2c9.9-1.3,16-6.58,19.61-13.19-5.72-10.56-2.34-29.73-.17-37.36-5.32-1-8.2-.91-9.42,0a16,16,0,0,0-2,2.7c-2.1,3.22-5,8.16-5,8.16,1.22,2.14,1.31,4.72-.37,7.78,6.31,1.92,4.55,13.3-3.85,15.74C188.89,183.86,184,192.64,177.53,194.49Z"/><path class="cls-12" d="M179.07,302.89v35.9l4-.26h0a82.62,82.62,0,0,1,11-25.41,60.3,60.3,0,0,1,10-11.65Z"/><path class="cls-7" d="M179.07,281.74v21.15l25-1.42a42.42,42.42,0,0,1,14.47-8.59h0V280.28l-26.79,1Z"/><path class="cls-27" d="M179.88,275.42v1.69a.84.84,0,0,0,.84.84h10.9v-5a3.27,3.27,0,0,0-3.28-3.27h-5.2a3.26,3.26,0,0,0-3.26,3.27Z"/><path class="cls-23" d="M183.81,219.38a15.37,15.37,0,0,0-3,17.23c3.13,6.52,4.08,14.44,1.69,16.9,7.32-.85-.47-6.25,7.49-9.62,2.22-.93,2.39-4.51-.67-2.63s-7-5.62-5.48-9.88S187.49,215.8,183.81,219.38Z"/><path class="cls-12" d="M185.74,269.67h2.6a3.27,3.27,0,0,1,3.28,3.27v5l31-1.72a1.5,1.5,0,0,0,1.42-1.51v-1a5.86,5.86,0,0,0-3.76-5.48,6,6,0,0,0-2.1-.38l-5.16.29-6,.33Z"/><path class="cls-8" d="M190.09,345.41l5.44-.37c.53-2.55,1.17-5.05,1.93-7.47h0l-5.56.36C191.19,340.35,190.58,342.85,190.09,345.41Z"/><path class="cls-8" d="M196.58,388.16l-5.27.55c.64,2.46,1.37,4.85,2.19,7.15h.05l5.27-.53h0a72,72,0,0,1-2.23-7.16Z"/><path class="cls-8" d="M191.62,278l.12,3.32,26.79-1v12.59h0a36.43,36.43,0,0,1,7.34-1.66h0V280l5.53-.21h.18a3.15,3.15,0,0,0-.41-6.28l-1.23.05-5.94.23v.94a1.5,1.5,0,0,1-1.42,1.51Z"/><path class="cls-12" d="M191.89,337.93l5.56-.36h0c4.25-14,11.76-25.37,21.07-32.08v-3.61C206.63,307.23,196.88,320.58,191.89,337.93Z"/><path class="cls-7" d="M201,344.69a90.5,90.5,0,0,0,.86,42.92,72.75,72.75,0,0,0,2.33,7.14c5.24,13.8,14,24.12,24.27,28.11a26.26,26.26,0,0,0,9.59,1.82,25.51,25.51,0,0,0,7.69-1.17h0a27.48,27.48,0,0,0,3.65-1.41c16.11-7.51,27.86-30.54,27.86-57.72s-11.75-50.18-27.85-57.7v0a27.33,27.33,0,0,0-6.82-2.16,25.39,25.39,0,0,0-4.54-.41,26.92,26.92,0,0,0-12.15,3,35.24,35.24,0,0,0-7.34,5c-6.62,5.84-12,14.6-15.49,25.12A69.9,69.9,0,0,0,201,344.69Zm-3.51-7.12c4.25-14,11.76-25.37,21.07-32.08a37,37,0,0,1,7.34-4.16,32.83,32.83,0,0,1,6.23-1.88,29.14,29.14,0,0,1,5.92-.6c11.24,0,21.5,6.18,29.34,16.34,1.08,1.41,2.13,2.89,3.12,4.46h0a75.83,75.83,0,0,1,9.67,23.79,93.6,93.6,0,0,1,2.33,20.93c0,18.47-5.21,35.17-13.57,47.09-.53.78-1.08,1.52-1.66,2.24-7.81,10.09-18,16.21-29.23,16.21a29.87,29.87,0,0,1-5.92-.59c-14.42-2.83-26.66-15.88-33.27-34a72,72,0,0,1-2.23-7.16,92.29,92.29,0,0,1-3-23.78,93.86,93.86,0,0,1,2-19.34C196.06,342.49,196.7,340,197.46,337.57Z"/><path class="cls-8" d="M201,344.69l17.56-1.17v20.86h1.09c0-5.48,2.77-10,6.25-10.25h0V307a35.24,35.24,0,0,0-7.34,5v24.1l-15.49,1A69.9,69.9,0,0,0,201,344.69Z"/><path class="cls-8" d="M218.53,385.89l-16.7,1.72a72.75,72.75,0,0,0,2.33,7.14L240.38,391a3.66,3.66,0,1,0-.76-7.29l-13.75,1.42V374.64c-3.48-.27-6.25-4.76-6.25-10.26h-1.09Z"/><path class="cls-12" d="M203,337.19l15.49-1v-24.1C211.91,317.91,206.49,326.67,203,337.19Z"/><path class="cls-7" d="M220.24,243.91V218.39a3.26,3.26,0,0,0-3.37-3.26l-2.77.08h-.33l-8.88.25h0c1.76,5.31,2.83,8,5.52,11.31,3.49,4.26,8.85,15.76,3.14,23.49,2.76,7,2.24,13.66-.56,17.89l5.16-.29a6,6,0,0,1,2.1.38Z"/><path class="cls-28" d="M218.53,53.8C214.9,63.92,210,68,210,68c.59,3.27,5.16,7.26,5.16,7.26-4.14,4.59-3.84,8.22-.91,11.06a2.4,2.4,0,0,0,1.24,2.16,5.6,5.6,0,0,0,1.66.7c-.62-13.43,4.08-12.27,4.77-16.43s1.75-6.71,8.25-9.65,11.5-.15,15.38-.84c-.84,9.18,6.54,22.27,15.06,22.38h.07c-.14,1.46-.3,2.77-.52,3.93a.42.42,0,0,1,0,.12l3.06.61,0-.18c5.39-4.05,5.3-14.56.5-18.71h0C260,67,257.19,66.08,257,60.31s-4.57-6.56-8.27-6-3.51-4.1.17-3.88C237.75,42.82,222.17,43.69,218.53,53.8Z"/><path class="cls-8" d="M218.53,305.47v0a37,37,0,0,1,7.34-4.16v-1.64a29.38,29.38,0,0,0-7.34,2.19Z"/><path class="cls-12" d="M226.22,354.1h8.09c3.64,0,6.6,4.62,6.6,10.28s-3,10.29-6.6,10.29h-8.09a1.34,1.34,0,0,1-.35,0c-3.48-.27-6.25-4.76-6.25-10.26s2.77-10,6.25-10.25A1.34,1.34,0,0,1,226.22,354.1Zm8.09,16.06c2,0,3.71-2.58,3.71-5.78s-1.67-5.77-3.71-5.77-3.73,2.59-3.73,5.77S232.25,370.16,234.31,370.16Z"/><path class="cls-29" d="M225.42,418.87a1,1,0,0,0,.24.67C225.58,419.32,225.49,419.1,225.42,418.87Z"/><path class="cls-15" d="M225.42,418.87c.07.23.16.45.24.67a5.94,5.94,0,0,0,2.77,3.32,26.26,26.26,0,0,0,9.59,1.82,25.51,25.51,0,0,0,7.69-1.17C234.46,420.82,225.66,417.47,225.42,418.87Z"/><path class="cls-2" d="M227,112a9.45,9.45,0,0,0,2.19,4.27c-5.2,11.86-7.82,23,5.21,23.72,9.39.5,18-14.94,23.17-24.91-4.23,7.52-9.58,3.44-8.81-4.17-8.09,5-10.11-1.36-10.11-1.36a16.61,16.61,0,0,1-7.83.49,12,12,0,0,1-3.71-1.42A6.76,6.76,0,0,0,227,112Z"/><path class="cls-30" d="M226.69,250.68a183.37,183.37,0,0,0,3.25,22.87l1.23-.05a3.15,3.15,0,0,1,.41,6.28h0c1.71,5.44,3.93,10,6.91,12.2h0a36.07,36.07,0,0,1,5.91,2s4.88-18.73,10.93-28.19a52,52,0,0,1-6,2.06c-20.37,5.72-18.1-14.94-18.1-14.94A19.79,19.79,0,0,1,226.69,250.68Z"/><path class="cls-8" d="M234.31,358.61c-2.06,0-3.73,2.59-3.73,5.77s1.67,5.78,3.73,5.78,3.71-2.58,3.71-5.78S236.35,358.61,234.31,358.61Z"/><path class="cls-31" d="M247.92,402.39a12.31,12.31,0,0,1-5.74-2.31c-3.14,1-6.18,8-8.63,10.49,1.75-1,7,4.61,10.12.9s10.81-4,10.72-5.79c-.08-1.44-2.32-2.93-5-3.24h0A7.21,7.21,0,0,1,247.92,402.39Z"/><path class="cls-32" d="M235.46,200.87a13.52,13.52,0,0,1,3.41.79c2,.73,4.63,4.49,6.22,8,0,0,4,2,5.13-2.47a19.07,19.07,0,0,0-4.46-6.41,13.11,13.11,0,0,0-3.76-2.69C240.06,197.35,237.82,197.64,235.46,200.87Z"/><path class="cls-33" d="M242.56,304.5c-3.15,9.68,4.28,37,5.69,51.22a1.91,1.91,0,0,0,1.14,1.58,1.17,1.17,0,0,0,.31.12A64.08,64.08,0,0,0,263,359.64a16.3,16.3,0,0,0,8.71-1.67c-1.4-22.32-10.09-41.37-22.34-51.29v0A27.33,27.33,0,0,0,242.56,304.5Z"/><path class="cls-34" d="M238.68,109.5s2,6.37,10.11,1.36c-.77,7.61,4.58,11.69,8.81,4.17.06-.08.09-.15.14-.23a76.74,76.74,0,0,1,4.11-7.64c-3.88-1-6.7-1.62-6.58-4.78s.34-6.9.34-6.9a5.11,5.11,0,0,1-1.92-.33C252.87,102.07,245.7,107.57,238.68,109.5Z"/><path class="cls-2" d="M242,198.13a13.11,13.11,0,0,1,3.76,2.69,19.07,19.07,0,0,1,4.46,6.41v0c26.5-7,37-15.52,33-23.52,13.58-6.95,3.62-26.78,2.13-43.17a137.94,137.94,0,0,0-16.49-.32,3.68,3.68,0,0,0-3.3,4.46,18.19,18.19,0,0,0,1.76,4.87c-.94,6.45-1,22.84,0,30.69C261.48,183,249.24,191.73,242,198.13Z"/><path class="cls-35" d="M245.09,209.7a17.4,17.4,0,0,1,1.37,4.35,6.7,6.7,0,0,1,0,1.74c2.36-1,3.59-2.38,4.1-3.87a7,7,0,0,0-.32-4.69C249.11,211.66,245.09,209.7,245.09,209.7Z"/><path class="cls-4" d="M248.79,392.51c-3.93-.79-6,.28-6.61,7.57a12.31,12.31,0,0,0,5.74,2.31,8,8,0,0,1,1.47.05h0a8.17,8.17,0,0,0,3.58-1,8.84,8.84,0,0,1,4.28-1.33c.44-1.28,2.26-4.51-4.45-6.48C251.3,393.14,250,392.74,248.79,392.51Z"/><path class="cls-33" d="M255.35,265.81c-6,9.46-10.93,28.19-10.93,28.19,8.93,3.88,16.83,11.32,22.94,21.19,1.08,1.41,2.13,2.89,3.12,4.46-1.89-19.64,8.66-17.28,9.32-29.1s17.87-1.64,16.24-33.75h0c-1.55-.2-3.19-.43-4.94-.73-22.78-3.86-21.94,3.94-35.75,9.74Z"/><path class="cls-36" d="M248.89,50.45c-3.68-.22-3.85,4.44-.17,3.88s8.07.23,8.27,6,3,6.66,6.65,10.1h0C264.35,62.63,262.53,51.71,248.89,50.45Z"/><path class="cls-29" d="M249.39,402.44a8,8,0,0,0-1.47-.05A7.21,7.21,0,0,0,249.39,402.44Z"/><path class="cls-7" d="M249.17,390.81c-.13.59-.25,1.16-.38,1.7,1.17.23,2.51.63,4,1.09,6.71,2,4.89,5.2,4.45,6.48,2.51.05,4,2,5.51,4.87a72.81,72.81,0,0,0,4.31-10.2c-4.22,1.36-11-2.4-17.91-3.94Z"/><path class="cls-2" d="M249.17,390.81h0c6.93,1.54,13.69,5.3,17.91,3.94a94.38,94.38,0,0,0,4.85-30.37c0-2.16-.06-4.31-.21-6.41a16.3,16.3,0,0,1-8.71,1.67,64.08,64.08,0,0,1-13.32-2.22,1.17,1.17,0,0,1-.31-.12v0C250.76,361.64,251.36,380,249.17,390.81Z"/><path class="cls-3" d="M250.22,207.21v0a7,7,0,0,1,.32,4.69c14.7-2.3,17.19-9.56,29.21-12s13.61-9.59,17.45-20.75c2.79-8.11-.75-20.58-.59-30.75.06-4.65.94-7.08-4.3-7.43-1.46-.09-4-.29-7-.47,1.49,16.39,11.45,36.22-2.13,43.17C287.17,191.69,276.72,200.18,250.22,207.21Z"/><path class="cls-28" d="M255.61,95.48s-.25,3.7-.34,6.9c3.7,2.11,12.56.21,12-8.5-2.78-.41-3.85-3.74-4.08-4.58l-3.06-.61C259.29,93.27,257.8,95.39,255.61,95.48Z"/><path class="cls-5" d="M261.85,107.16a76.74,76.74,0,0,0-4.11,7.64s8.07,6.65,14.2,2.12,12.7,3.48,13.4,23.6c3,.18,5.51.38,7,.47,5.24.35,4.36,2.78,4.3,7.43,3.89-5.35,3.48-9.82.24-17.91s-5.59-15.33-11.05-17.78C274.06,107.48,264.65,103.66,261.85,107.16Z"/><path class="cls-11" d="M267.09,394.75a72.81,72.81,0,0,1-4.31,10.2,53.1,53.1,0,0,1-13.4,17.15c16.11-7.51,27.86-30.54,27.86-57.72s-11.75-50.18-27.85-57.7c12.25,9.92,20.94,29,22.34,51.29.15,2.1.21,4.25.21,6.41A94.38,94.38,0,0,1,267.09,394.75Z"/><path class="cls-15" d="M264.47,417.89a59.55,59.55,0,0,1-5.48,6.52c5.86-1.2,11.26-1.4,10.65-4.87-.19-1.11-.33-2.33-.44-3.49C268,416.93,265.15,418,264.47,417.89Z"/><path class="cls-5" d="M264.47,417.89c.68.14,3.51-1,4.73-1.84-.23-2.45-.29-4.58-.29-4.58-.53.78-1.08,1.52-1.66,2.24h0C266.37,415.17,265.44,416.55,264.47,417.89Z"/><path class="cls-30" d="M285.51,305.47c-6.53,6.63-6.4,10.75-5.71,16.52,0,0,5.19,1.22,6.06,3.47s9.07,23.91,18.31,26.8a11.19,11.19,0,0,0,3.4.49c4.81,0,10.23-2.61,14.1-5.94-1.71-26.38-14-20.64-14.1-27.8s-7.93-14.81-14.92-21.74A98.44,98.44,0,0,1,285.51,305.47Z"/><path class="cls-5" d="M296.61,148.42c-.16,10.17,3.38,22.64.59,30.75,29.43,46,21.27,47,14.65,50.24s6.66,20.13,5.08,26.54c5.15-1.46,8.89-3.55,15-4.37,0-11.48-6.63-18-5.59-38.59S310.45,175.5,296.61,148.42Z"/><path class="cls-2" d="M307.57,352.75s11,12.16,15.8,20.46c3.93,0,13.67-4.75,15.17-10.4-4.71-6.7-11.16-18.76-12.25-21.86a17,17,0,0,1-4.62,5.86C317.8,350.14,312.38,352.75,307.57,352.75Z"/><path class="cls-15" d="M318.74,406c.46,2.23,2.06,3.11,9.06,3.11,8.19,0,13.69-1.23,15.26-12.35S354.31,388.6,354,377a6.62,6.62,0,0,0-3.6-5.69c1.07,7.7-2.16,12-5.55,15.8s-4.28,11.16-4.89,14.48S331.9,409.12,318.74,406Z"/><path class="cls-31" d="M322.85,381.86c-1.59,2.46-1.44,6.47,0,12.15a5.43,5.43,0,0,1,.17,2.37c4-1.64,8.09.32,7.93-1.06s-1.49-4.47.08-6.89,2.69-6.28,0-6.73a13.86,13.86,0,0,0-7.25,1.06A10.11,10.11,0,0,1,322.85,381.86Z"/><path class="cls-4" d="M331.24,380.23c.63-6.56-3.23-6.14-6.22-5.57a6.66,6.66,0,0,0-.77.19c-2.6.89-4.4,3.75-1.4,7a10.11,10.11,0,0,0,.93.9A13.86,13.86,0,0,1,331,381.7C331.12,381.17,331.18,380.68,331.24,380.23Z"/></g></g><g id="roundel_v3.0" data-name="roundel v3.0"><path class="cls-37" d="M67.25,134.49A67.25,67.25,0,1,0,0,67.25a67.23,67.23,0,0,0,67.25,67.24"/><path class="cls-29" d="M46.23,58.48a9.07,9.07,0,0,1,3.27,7.33,9.91,9.91,0,0,1-6,9.3A17.1,17.1,0,0,1,36,76.57a25.65,25.65,0,0,1-6.75-.9,17.47,17.47,0,0,1-5.64-2.58l3-5.75a14.18,14.18,0,0,0,4.27,2.16,16.32,16.32,0,0,0,5,.76,7.79,7.79,0,0,0,4.45-1.11A3.56,3.56,0,0,0,41.89,66a3.48,3.48,0,0,0-1.69-3.15q-1.7-1.06-5.87-1.07H26L27.7,43.54H47.5v6H34l-.51,6.17h2.64Q43,55.74,46.23,58.48Z"/><path class="cls-29" d="M58.87,74.58a13.42,13.42,0,0,1-4.94-5.78,21,21,0,0,1-1.78-9,20.94,20.94,0,0,1,1.78-9A13.36,13.36,0,0,1,58.87,45a13.92,13.92,0,0,1,14.38,0,13.29,13.29,0,0,1,4.94,5.78,20.94,20.94,0,0,1,1.79,9,21,21,0,0,1-1.79,9,13.35,13.35,0,0,1-4.94,5.78,14,14,0,0,1-14.38,0Zm11.86-6.91c1.12-1.7,1.69-4.33,1.69-7.89s-.57-6.19-1.69-7.89a5.34,5.34,0,0,0-4.67-2.55,5.25,5.25,0,0,0-4.61,2.55q-1.7,2.55-1.7,7.89t1.7,7.89a5.25,5.25,0,0,0,4.61,2.55A5.34,5.34,0,0,0,70.73,67.67Z"/><path class="cls-29" d="M86.66,53.28A6.15,6.15,0,0,1,85.17,49a6.15,6.15,0,0,1,1.49-4.32,5.41,5.41,0,0,1,7.7,0A6.18,6.18,0,0,1,95.83,49a6.18,6.18,0,0,1-1.47,4.32,5.41,5.41,0,0,1-7.7,0Zm5.5-1.77a4.45,4.45,0,0,0,.6-2.55,4.45,4.45,0,0,0-.6-2.55,2,2,0,0,0-3.27,0A4.41,4.41,0,0,0,88.27,49a4.41,4.41,0,0,0,.62,2.54,2,2,0,0,0,3.27,0Zm11.17-8.24H107L92.3,64.79H88.64Zm-1,21a4.87,4.87,0,0,1-1.89-2.07,7.57,7.57,0,0,1,0-6.27,4.9,4.9,0,0,1,1.89-2.08,5.25,5.25,0,0,1,2.75-.72A5,5,0,0,1,109,54.78a6.11,6.11,0,0,1,1.5,4.32,6.09,6.09,0,0,1-1.5,4.32A5,5,0,0,1,105.12,65,5.25,5.25,0,0,1,102.37,64.31Zm4.39-2.67a5.66,5.66,0,0,0,0-5.07,1.88,1.88,0,0,0-1.64-.88,1.91,1.91,0,0,0-1.63.86,5.55,5.55,0,0,0,0,5.1,2,2,0,0,0,3.27,0Z"/><path class="cls-38" d="M21.61,94.15a2.6,2.6,0,0,1-1.06-1,2.89,2.89,0,0,1,0-2.9,2.67,2.67,0,0,1,1.06-1,3.28,3.28,0,0,1,1.55-.36,3.2,3.2,0,0,1,1.53.36,2.69,2.69,0,0,1,1.07,1,3,3,0,0,1,0,2.9,2.62,2.62,0,0,1-1.07,1,3.2,3.2,0,0,1-1.53.36A3.28,3.28,0,0,1,21.61,94.15Zm2.54-1.34a1.52,1.52,0,0,0,.39-1.1,1.54,1.54,0,0,0-.39-1.1,1.32,1.32,0,0,0-1-.41,1.36,1.36,0,0,0-1,.41,1.54,1.54,0,0,0-.39,1.1,1.52,1.52,0,0,0,.39,1.1,1.36,1.36,0,0,0,1,.41A1.32,1.32,0,0,0,24.15,92.81Z"/><path class="cls-38" d="M28.93,89.11h1.39v1.21H29v4.11H27.39V90.32h-.84V89.11h.84v-.24a2,2,0,0,1,.55-1.48,2.08,2.08,0,0,1,1.55-.55,3,3,0,0,1,.68.08,1.51,1.51,0,0,1,.53.22l-.42,1.14a1,1,0,0,0-.63-.19c-.48,0-.72.26-.72.79Z"/><path class="cls-38" d="M37.49,94.17a1.87,1.87,0,0,1-.57.26,3.38,3.38,0,0,1-.72.08A2.12,2.12,0,0,1,34.7,94a1.92,1.92,0,0,1-.53-1.46V90.32h-.84V89.11h.84V87.78h1.58v1.33H37.1v1.21H35.75v2.22a.72.72,0,0,0,.18.53.62.62,0,0,0,.5.19,1,1,0,0,0,.63-.2Z"/><path class="cls-38" d="M43.78,89l-2.46,5.78a2.74,2.74,0,0,1-.92,1.32,2.25,2.25,0,0,1-1.33.39,3,3,0,0,1-.84-.13,1.84,1.84,0,0,1-.68-.37l.58-1.12a1.27,1.27,0,0,0,.42.25,1.31,1.31,0,0,0,.47.09.84.84,0,0,0,.52-.15,1.33,1.33,0,0,0,.37-.53l0,0L37.57,89H39.2l1.53,3.69L42.27,89Z"/><path class="cls-38" d="M49,89.26a2.5,2.5,0,0,1,1,1,3.26,3.26,0,0,1,0,2.94,2.5,2.5,0,0,1-1,1,2.67,2.67,0,0,1-1.38.35A2.14,2.14,0,0,1,46,93.86V96.4H44.43V89h1.51v.62a2.09,2.09,0,0,1,1.71-.7A2.67,2.67,0,0,1,49,89.26Zm-.66,3.55a1.52,1.52,0,0,0,.39-1.1,1.54,1.54,0,0,0-.39-1.1,1.41,1.41,0,0,0-2,0,1.54,1.54,0,0,0-.39,1.1,1.52,1.52,0,0,0,.39,1.1,1.41,1.41,0,0,0,2,0Z"/><path class="cls-38" d="M56.72,92.16H52.6a1.33,1.33,0,0,0,.53.8,1.76,1.76,0,0,0,1,.29,2,2,0,0,0,.75-.13,1.83,1.83,0,0,0,.62-.4l.84.91a2.84,2.84,0,0,1-2.25.88,3.56,3.56,0,0,1-1.63-.36,2.56,2.56,0,0,1-1.09-1A2.74,2.74,0,0,1,51,91.71a2.82,2.82,0,0,1,.38-1.44,2.63,2.63,0,0,1,1-1,3.1,3.1,0,0,1,1.49-.36,3,3,0,0,1,1.44.34,2.43,2.43,0,0,1,1,1,2.89,2.89,0,0,1,.37,1.49S56.74,91.89,56.72,92.16ZM53,90.4a1.27,1.27,0,0,0-.45.83h2.68a1.3,1.3,0,0,0-.44-.82,1.32,1.32,0,0,0-.89-.31A1.36,1.36,0,0,0,53,90.4Z"/><path class="cls-38" d="M65.63,93.1v1.33H60.27V93.37L63,90.79a3,3,0,0,0,.58-.71,1.33,1.33,0,0,0,.15-.6.78.78,0,0,0-.28-.65,1.39,1.39,0,0,0-.85-.23,1.92,1.92,0,0,0-.84.18,1.69,1.69,0,0,0-.63.53L60,88.54a2.83,2.83,0,0,1,1.14-1,3.76,3.76,0,0,1,1.67-.35,3.52,3.52,0,0,1,1.39.25,2.25,2.25,0,0,1,.92.73,2,2,0,0,1,.33,1.11,2.45,2.45,0,0,1-.25,1.08,4,4,0,0,1-.94,1.16L62.58,93.1Z"/><path class="cls-38" d="M75.05,86.92v7.51H73.54V93.8a2.06,2.06,0,0,1-1.7.71,2.81,2.81,0,0,1-1.39-.34,2.5,2.5,0,0,1-1-1,3.3,3.3,0,0,1,0-3,2.5,2.5,0,0,1,1-1,2.81,2.81,0,0,1,1.39-.34,2.09,2.09,0,0,1,1.63.65V86.92Zm-1.94,5.89a1.52,1.52,0,0,0,.39-1.1,1.54,1.54,0,0,0-.39-1.1,1.42,1.42,0,0,0-2,0,1.54,1.54,0,0,0-.39,1.1,1.52,1.52,0,0,0,.39,1.1,1.42,1.42,0,0,0,2,0Z"/><path class="cls-38" d="M76.59,88a.8.8,0,0,1-.27-.62.83.83,0,0,1,.27-.63,1,1,0,0,1,.71-.25,1.05,1.05,0,0,1,.71.24.78.78,0,0,1,.27.61A.86.86,0,0,1,78,88a1,1,0,0,1-.71.26A1,1,0,0,1,76.59,88Zm-.08,1h1.58v5.44H76.51Z"/><path class="cls-38" d="M83.69,89.51a2.28,2.28,0,0,1,.68,1.82v3.1H82.9v-.67a1.78,1.78,0,0,1-1.66.75,2.58,2.58,0,0,1-1.09-.21,1.66,1.66,0,0,1-.71-.59,1.51,1.51,0,0,1-.24-.85,1.42,1.42,0,0,1,.57-1.19,2.92,2.92,0,0,1,1.77-.44h1.25a1,1,0,0,0-.31-.79,1.35,1.35,0,0,0-.94-.28,2.82,2.82,0,0,0-.86.14,2.17,2.17,0,0,0-.71.37l-.57-1.11a3.39,3.39,0,0,1,1.07-.48,4.59,4.59,0,0,1,1.28-.17A2.83,2.83,0,0,1,83.69,89.51Zm-1.34,3.75a.94.94,0,0,0,.44-.55v-.55H81.71c-.65,0-1,.21-1,.63a.55.55,0,0,0,.24.48,1,1,0,0,0,.65.18A1.34,1.34,0,0,0,82.35,93.26Z"/><path class="cls-38" d="M90.4,89.26a2.5,2.5,0,0,1,1,1,3.26,3.26,0,0,1,0,2.94,2.5,2.5,0,0,1-1,1,2.67,2.67,0,0,1-1.38.35,2.07,2.07,0,0,1-1.71-.71v.63H85.8V86.92h1.58v2.64A2.12,2.12,0,0,1,89,88.91,2.67,2.67,0,0,1,90.4,89.26Zm-.66,3.55a1.52,1.52,0,0,0,.39-1.1,1.54,1.54,0,0,0-.39-1.1,1.41,1.41,0,0,0-2,0,1.54,1.54,0,0,0-.39,1.1,1.52,1.52,0,0,0,.39,1.1,1.41,1.41,0,0,0,2,0Z"/><path class="cls-38" d="M98.09,92.16H94a1.32,1.32,0,0,0,.52.8,1.82,1.82,0,0,0,1,.29,2,2,0,0,0,.75-.13,1.79,1.79,0,0,0,.61-.4l.84.91a2.8,2.8,0,0,1-2.24.88,3.53,3.53,0,0,1-1.63-.36,2.58,2.58,0,0,1-1.1-1,2.94,2.94,0,0,1,0-2.89,2.63,2.63,0,0,1,1-1,3.06,3.06,0,0,1,1.48-.36,3,3,0,0,1,1.45.34,2.56,2.56,0,0,1,1,1,3,3,0,0,1,.37,1.49S98.11,91.89,98.09,92.16Zm-3.7-1.76a1.3,1.3,0,0,0-.44.83h2.68a1.3,1.3,0,0,0-.44-.82,1.33,1.33,0,0,0-.9-.31A1.4,1.4,0,0,0,94.39,90.4Z"/><path class="cls-38" d="M102.68,94.17a1.67,1.67,0,0,1-.57.26,3.22,3.22,0,0,1-.71.08A2.15,2.15,0,0,1,99.89,94a1.92,1.92,0,0,1-.53-1.46V90.32h-.84V89.11h.84V87.78h1.58v1.33h1.36v1.21h-1.36v2.22a.72.72,0,0,0,.18.53.63.63,0,0,0,.5.19,1.06,1.06,0,0,0,.64-.2Z"/><path class="cls-38" d="M108.88,92.16h-4.12a1.32,1.32,0,0,0,.52.8,1.82,1.82,0,0,0,1,.29,2,2,0,0,0,.75-.13,1.79,1.79,0,0,0,.61-.4l.84.91a2.8,2.8,0,0,1-2.24.88,3.53,3.53,0,0,1-1.63-.36,2.58,2.58,0,0,1-1.1-1,2.94,2.94,0,0,1,0-2.89,2.63,2.63,0,0,1,1-1,3.06,3.06,0,0,1,1.48-.36,3,3,0,0,1,1.45.34,2.56,2.56,0,0,1,1,1,3,3,0,0,1,.37,1.49S108.9,91.89,108.88,92.16Zm-3.7-1.76a1.3,1.3,0,0,0-.44.83h2.68a1.3,1.3,0,0,0-.44-.82,1.33,1.33,0,0,0-.9-.31A1.4,1.4,0,0,0,105.18,90.4Z"/><path class="cls-38" d="M110.47,94.35a3.4,3.4,0,0,1-1-.42l.53-1.14a3.24,3.24,0,0,0,.88.38,3.64,3.64,0,0,0,1,.15c.67,0,1-.17,1-.5,0-.15-.1-.26-.28-.33a3.46,3.46,0,0,0-.84-.17,8.14,8.14,0,0,1-1.1-.24,1.63,1.63,0,0,1-.75-.46,1.29,1.29,0,0,1-.32-1,1.55,1.55,0,0,1,.29-.92,1.89,1.89,0,0,1,.88-.62,3.67,3.67,0,0,1,1.35-.22,5.69,5.69,0,0,1,1.15.12,3.3,3.3,0,0,1,.94.35l-.53,1.13a3.11,3.11,0,0,0-1.56-.41,1.66,1.66,0,0,0-.76.14.43.43,0,0,0-.26.37.37.37,0,0,0,.28.35,4.52,4.52,0,0,0,.87.19c.44.08.81.16,1.09.24a1.74,1.74,0,0,1,.74.46,1.31,1.31,0,0,1,.31.93,1.44,1.44,0,0,1-.3.9,1.93,1.93,0,0,1-.89.62,4,4,0,0,1-1.38.21A5.3,5.3,0,0,1,110.47,94.35Z"/><path class="cls-38" d="M50.53,36a4.4,4.4,0,0,1-1.79-1.68,4.65,4.65,0,0,1,1.79-6.54,5.87,5.87,0,0,1,5.17,0,4.74,4.74,0,0,1,1.79,6.54A4.53,4.53,0,0,1,55.7,36a5.87,5.87,0,0,1-5.17,0ZM54.8,33.7a2.57,2.57,0,0,0,.65-1.84A2.61,2.61,0,0,0,54.8,30a2.42,2.42,0,0,0-3.36,0,2.57,2.57,0,0,0-.66,1.85,2.53,2.53,0,0,0,.66,1.84,2.39,2.39,0,0,0,3.36,0Z"/><path class="cls-38" d="M69,27.29l-3.86,9.14H62.39l-3.85-9.14h2.74l2.53,6.22,2.62-6.22Z"/><path class="cls-38" d="M79,32.61H72.06A2.14,2.14,0,0,0,72.94,34a3,3,0,0,0,1.74.49,3.54,3.54,0,0,0,1.26-.21,3,3,0,0,0,1-.67l1.41,1.53a4.73,4.73,0,0,1-3.77,1.48,6,6,0,0,1-2.74-.6A4.45,4.45,0,0,1,70,34.29a4.51,4.51,0,0,1-.65-2.43A4.63,4.63,0,0,1,70,29.44a4.51,4.51,0,0,1,1.75-1.69,5.15,5.15,0,0,1,2.49-.6,5.07,5.07,0,0,1,2.43.58,4.26,4.26,0,0,1,1.71,1.66,5,5,0,0,1,.62,2.5S79,32.17,79,32.61Zm-6.21-2.94A2.15,2.15,0,0,0,72,31.06h4.51a2.15,2.15,0,0,0-.75-1.38,2.22,2.22,0,0,0-1.49-.52A2.29,2.29,0,0,0,72.77,29.67Z"/><path class="cls-38" d="M84.61,27.49a4.71,4.71,0,0,1,1.86-.34V29.6l-.59,0a2.46,2.46,0,0,0-1.79.64,2.58,2.58,0,0,0-.64,1.91v4.32H80.8V27.29h2.53v1.2A3,3,0,0,1,84.61,27.49Z"/><path class="cls-29" d="M30.27,102.63a.87.87,0,0,1,0-1.26,1,1,0,0,1,.71-.25,1,1,0,0,1,.71.24A.79.79,0,0,1,32,102a.86.86,0,0,1-.27.65,1,1,0,0,1-.71.26A1,1,0,0,1,30.27,102.63Zm-.08,1h1.58v5.45H30.19Z"/><path class="cls-29" d="M33.74,109a3.44,3.44,0,0,1-1-.42l.53-1.13a3.58,3.58,0,0,0,.88.38,4,4,0,0,0,1,.14c.67,0,1-.16,1-.49a.35.35,0,0,0-.27-.34A4.82,4.82,0,0,0,35,107a8,8,0,0,1-1.1-.23,1.68,1.68,0,0,1-.76-.47,1.33,1.33,0,0,1-.32-1,1.51,1.51,0,0,1,.3-.92,2,2,0,0,1,.87-.62,3.67,3.67,0,0,1,1.35-.22,5,5,0,0,1,1.15.13,3.09,3.09,0,0,1,1,.35l-.53,1.12a3.14,3.14,0,0,0-1.57-.41,1.48,1.48,0,0,0-.75.15.41.41,0,0,0-.26.36.35.35,0,0,0,.27.35,4.7,4.7,0,0,0,.88.2,9.56,9.56,0,0,1,1.09.23,1.67,1.67,0,0,1,.74.47,1.29,1.29,0,0,1,.31.93,1.48,1.48,0,0,1-.3.9,2,2,0,0,1-.89.61,4.08,4.08,0,0,1-1.38.22A5.45,5.45,0,0,1,33.74,109Z"/><path class="cls-29" d="M46.08,103.91a2.47,2.47,0,0,1,1,1,2.91,2.91,0,0,1,.36,1.47,3,3,0,0,1-.36,1.48,2.47,2.47,0,0,1-1,1,2.83,2.83,0,0,1-1.38.35,2.08,2.08,0,0,1-1.64-.66v2.54H41.48v-7.41H43v.63a2.1,2.1,0,0,1,1.71-.71A2.83,2.83,0,0,1,46.08,103.91Zm-.66,3.55a1.52,1.52,0,0,0,.39-1.1,1.54,1.54,0,0,0-.39-1.1,1.41,1.41,0,0,0-2,0,1.54,1.54,0,0,0-.39,1.1,1.52,1.52,0,0,0,.39,1.1,1.41,1.41,0,0,0,2,0Z"/><path class="cls-29" d="M50.73,103.76a2.93,2.93,0,0,1,1.11-.2V105a2.83,2.83,0,0,0-.35,0,1.43,1.43,0,0,0-1.07.38,1.54,1.54,0,0,0-.38,1.13v2.58H48.46v-5.45H50v.72A1.82,1.82,0,0,1,50.73,103.76Z"/><path class="cls-29" d="M58.13,106.81H54a1.29,1.29,0,0,0,.52.8,1.8,1.8,0,0,0,1,.29,2.19,2.19,0,0,0,.75-.12,2,2,0,0,0,.61-.4l.84.91a2.83,2.83,0,0,1-2.24.88,3.53,3.53,0,0,1-1.63-.36,2.61,2.61,0,0,1-1.1-1,2.8,2.8,0,0,1-.38-1.45,2.72,2.72,0,0,1,.38-1.44,2.63,2.63,0,0,1,1-1,3.06,3.06,0,0,1,1.48-.36,3,3,0,0,1,1.45.34,2.56,2.56,0,0,1,1,1,3,3,0,0,1,.37,1.49S58.15,106.55,58.13,106.81Zm-3.7-1.75a1.28,1.28,0,0,0-.44.83h2.68a1.27,1.27,0,0,0-.45-.83,1.45,1.45,0,0,0-1.79,0Z"/><path class="cls-29" d="M64.62,103.64l-2.3,5.45H60.69l-2.29-5.45H60l1.51,3.7,1.56-3.7Z"/><path class="cls-29" d="M70.57,106.81H66.45a1.29,1.29,0,0,0,.52.8,1.82,1.82,0,0,0,1,.29,2.19,2.19,0,0,0,.75-.12,2,2,0,0,0,.61-.4l.84.91a2.83,2.83,0,0,1-2.24.88,3.53,3.53,0,0,1-1.63-.36,2.61,2.61,0,0,1-1.1-1,2.94,2.94,0,0,1,0-2.89,2.63,2.63,0,0,1,1-1,3.06,3.06,0,0,1,1.48-.36,3,3,0,0,1,1.45.34,2.56,2.56,0,0,1,1,1,3,3,0,0,1,.37,1.49S70.59,106.55,70.57,106.81Zm-3.7-1.75a1.28,1.28,0,0,0-.44.83h2.68a1.27,1.27,0,0,0-.45-.83,1.45,1.45,0,0,0-1.79,0Z"/><path class="cls-29" d="M76.6,104.17a2.41,2.41,0,0,1,.62,1.8v3.12H75.64v-2.88a1.45,1.45,0,0,0-.28-1,1,1,0,0,0-.83-.32,1.26,1.26,0,0,0-1,.37,1.53,1.53,0,0,0-.35,1.09v2.7H71.65v-5.45h1.51v.64a2,2,0,0,1,.78-.53,2.61,2.61,0,0,1,1-.19A2.25,2.25,0,0,1,76.6,104.17Z"/><path class="cls-29" d="M82.16,108.82a1.63,1.63,0,0,1-.58.26,2.71,2.71,0,0,1-.71.09,2.11,2.11,0,0,1-1.5-.5,1.88,1.88,0,0,1-.53-1.46V105H78v-1.22h.84v-1.32h1.58v1.32h1.35V105H80.42v2.21a.77.77,0,0,0,.17.53.65.65,0,0,0,.5.19,1,1,0,0,0,.64-.2Z"/><path class="cls-29" d="M87.19,104.16a2.32,2.32,0,0,1,.68,1.82v3.11H86.39v-.68a1.78,1.78,0,0,1-1.66.76,2.47,2.47,0,0,1-1.09-.22,1.56,1.56,0,0,1-.7-.58,1.49,1.49,0,0,1-.25-.85,1.41,1.41,0,0,1,.58-1.2,2.91,2.91,0,0,1,1.76-.43h1.26a1,1,0,0,0-.32-.8,1.41,1.41,0,0,0-.94-.28,2.75,2.75,0,0,0-.85.14,2.44,2.44,0,0,0-.72.37l-.56-1.1a3.46,3.46,0,0,1,1.06-.49,5.06,5.06,0,0,1,1.28-.17A2.84,2.84,0,0,1,87.19,104.16Zm-1.35,3.76a1.07,1.07,0,0,0,.45-.55v-.56H85.2c-.64,0-1,.21-1,.64a.57.57,0,0,0,.24.48,1.07,1.07,0,0,0,.65.17A1.43,1.43,0,0,0,85.84,107.92Z"/><path class="cls-29" d="M93.89,103.91a2.5,2.5,0,0,1,1,1,2.91,2.91,0,0,1,.35,1.47,3,3,0,0,1-.35,1.48,2.5,2.5,0,0,1-1,1,2.77,2.77,0,0,1-1.38.35,2.1,2.1,0,0,1-1.71-.71v.63H89.29v-7.51h1.58v2.64a2.11,2.11,0,0,1,1.64-.66A2.77,2.77,0,0,1,93.89,103.91Zm-.65,3.55a1.56,1.56,0,0,0,.38-1.1,1.58,1.58,0,0,0-.38-1.1,1.34,1.34,0,0,0-1-.41,1.33,1.33,0,0,0-1,.41,1.54,1.54,0,0,0-.39,1.1,1.52,1.52,0,0,0,.39,1.1,1.33,1.33,0,0,0,1,.41A1.34,1.34,0,0,0,93.24,107.46Z"/><path class="cls-29" d="M96.28,101.58h1.58v7.51H96.28Z"/><path class="cls-29" d="M104.63,106.81h-4.12a1.29,1.29,0,0,0,.52.8,1.8,1.8,0,0,0,1,.29,2.19,2.19,0,0,0,.75-.12,2,2,0,0,0,.61-.4l.84.91a2.83,2.83,0,0,1-2.24.88,3.53,3.53,0,0,1-1.63-.36,2.61,2.61,0,0,1-1.1-1,2.8,2.8,0,0,1-.38-1.45,2.72,2.72,0,0,1,.38-1.44,2.63,2.63,0,0,1,1-1,3.06,3.06,0,0,1,1.48-.36,3,3,0,0,1,1.45.34,2.56,2.56,0,0,1,1,1,3,3,0,0,1,.37,1.49S104.65,106.55,104.63,106.81Zm-3.7-1.75a1.28,1.28,0,0,0-.44.83h2.68a1.27,1.27,0,0,0-.45-.83,1.45,1.45,0,0,0-1.79,0Z"/></g></g></svg>