<svg xmlns="http://www.w3.org/2000/svg" viewBox="0 0 430.23 457.32"><defs><style>.cls-1{fill:#f28e90;}.cls-2{fill:#dd8084;}.cls-3{fill:#302e50;}.cls-4{fill:#4e3f69;}.cls-5{fill:#9b3860;}.cls-6{fill:#c74373;}.cls-7{fill:#756496;}.cls-8{fill:#00557f;}.cls-9{fill:#004266;}.cls-10{fill:#fca368;}.cls-11{fill:#d4e7ed;}.cls-12{fill:#c07e3b;}.cls-13{fill:#faafdd;}.cls-14{fill:#a16242;}.cls-15{fill:#dd7377;}.cls-16{fill:#f4c4b6;}.cls-17{fill:#b78f81;}.cls-18{fill:#052f3a;}.cls-19{fill:#84954f;}.cls-20{fill:#00594f;}.cls-21{fill:#7f645c;}.cls-22{fill:#66be56;}.cls-23{fill:#8e2e46;}.cls-24{fill:#d03d53;}.cls-25{fill:#033f36;}.cls-26{fill:#382827;}.cls-27{fill:#4c332f;}.cls-28{fill:#044156;}.cls-29{fill:#ad344b;}.cls-30{fill:#704940;}.cls-31{fill:#86979b;}.cls-32{fill:#e9530e;}.cls-33{fill:#fff;}.cls-34{fill:#312f4e;}</style></defs><title>Asset 3</title><g id="Layer_2" data-name="Layer 2"><g id="artwork"><g id="F_12yo_rollerblades"><path class="cls-1" d="M269.84,240.61c-.41,5.63,2.81,4.39,2.81,4.39-.33,2.6,2.67,2.19,2.67,2.19,0,3.09,1.65,2.95,3.5,2.89.14,2.67,3.64,4.86,6.31-3.09a4,4,0,0,0-.48-2.06c2.38-2.65,1.46-4.2-.74-4.85.28-1.91-.72-2.37-3.2-1.73,0,0,0-1.83-.81-2.37-1.28,2.55-3.29.44-4.2,3s-4.39,2.74-3.94,0c.39-2.39.43-3.51,1.41-4.35A7.75,7.75,0,0,0,269.84,240.61Z"/><path class="cls-2" d="M271.76,239c-.45,2.74,3,2.56,3.94,0s2.92-.46,4.2-3c.81.54.81,2.37.81,2.37,2.48-.64,3.48-.18,3.2,1.73,2.2.65,3.12,2.2.74,4.85a4,4,0,0,1,.48,2.06c.61-.54,1.42-1.27,2.28-2.06,1.78-1.68,3.73-3.71,4.4-5.36a11,11,0,0,0-.1-2.11c-.82-5.84-3.77-7.69-10.55-6.65a37.81,37.81,0,0,0-7.47,3.47,3,3,0,0,0-.52.36C272.19,235.48,272.15,236.6,271.76,239Z"/><path class="cls-3" d="M280.25,431c-1.07,2.6-1.17,5,3.5,6.31v0c.54.15,1.14.3,1.81.43,3.48.66,6.81,1.8,9.52,2,2.34.22,4.22-.26,5.34-2.31-.62.74-2.36.56-4.14.1a25.56,25.56,0,0,1-4.17-1.55c-1.95-.92-5.58-2-7.82-1.83S280,433.14,280.25,431Z"/><path class="cls-4" d="M281.11,427.29c-.78,1.81-1,2.74-.86,3.68-.28,2.17,1.82,3.39,4,3.18s5.87.91,7.82,1.83a25.56,25.56,0,0,0,4.17,1.55v0c2.48-2.06-.84-3.89-4.83-5.47s-.16-3.86,2.87-3.17a13.69,13.69,0,0,0-9.2,0C281.65,430.36,280.65,428.53,281.11,427.29Z"/><path class="cls-3" d="M281,446.88a4,4,0,0,0,.21,1.93v0c.43,1,1.32,1.05,1.8.33,0,0,.63,1.55,1.67,1.15h0a1.75,1.75,0,0,0,.71-.53c.77-4.39,1.71-6.71,2.69-7.8a2.15,2.15,0,0,1,2.24-.84c2.31.56,2.41,3.84.74,8.72-.1.28-.18.55-.28.79,0,0,2.89,1.08,4.29-10.88v0c-2.71-.21-6-1.35-9.52-2-.67-.13-1.27-.28-1.81-.43C282.92,438.32,281.26,444.19,281,446.88Z"/><path class="cls-5" d="M281.11,427.29c-.46,1.24.54,3.07,4,1.58a13.69,13.69,0,0,1,9.2,0h0a8,8,0,0,1,3,1.8c2.1,1.4,1.9-.59,1.54-3.46s3.22-3.17,3.12,1.15a8.63,8.63,0,0,1,.85-2.59c.65-1.22,1.42-2.52,2.16-3.89-.79,1.42-.84-2.81-1-5.66s-2.44-6.84-4.06-2.65-3.2,5.44-4.53,5.22-1.6-3.54-1.67-6.13-3.15-4.88-4.4-.91-4.47,7.8-4.26,5.48h0a37.46,37.46,0,0,1-2.84,7.44c-.46,1-.83,1.83-1.14,2.54A.26.26,0,0,0,281.11,427.29Z"/><path class="cls-4" d="M281.22,448.83c-.57,5.11,1.24,6.7,2.25,5.84a3.48,3.48,0,0,0,2.16,1.33,5,5,0,0,0,1,.1h0c-1.55-.25-2.44-2.81-1.91-5.78-1,.4-1.67-1.15-1.67-1.15C282.54,449.88,281.65,449.82,281.22,448.83Z"/><path class="cls-6" d="M284.69,450.31c-.53,3,.36,5.53,1.91,5.78h0c1.9-.06,2.87-1.75,4.17-5.41-.71,1.7-4,2.53-3.28-.61s2.33-8.1.6-8.11c-1,1.09-1.92,3.41-2.69,7.8a1.75,1.75,0,0,1-.71.53Z"/><path class="cls-3" d="M285.13,417.23c-.21,2.32,3-1.5,4.26-5.48s4.34-1.66,4.4.91.35,5.94,1.67,6.13,2.93-1,4.53-5.22,3.91-.22,4.06,2.65.18,7.08,1,5.66c1.65-3,3.14-6.35,2.66-10.13,2.66-2.44,3.28-8.1,1.95-13.39a2.5,2.5,0,0,0-.47-1.21c-.51-.44-1.12,1.09-1.69,2.12-1.67,3-4.66,3.24-7.89,2.37s-6.56-2.31-7.82-5.18a4.81,4.81,0,0,0-.36-.68c-.49-.8-1.09-1.18-1.6-1.12-.77,0-1.37,1.06-1.17,2.86.35,3.28-3.35.9-1.47,7.88-2.51,5-1.6,8.51-1.88,10.89a6.37,6.37,0,0,1-.16.94Zm12.14-8c-4.1-1-7.67-2.14-7.45-4.2s7.17.08,8.92.36,7.06-.13,7,1.91S301.4,410.22,297.27,409.24Z"/><path class="cls-7" d="M287.49,450.08c-.71,3.14,2.57,2.31,3.28.61,0,0,0,0,0-.05.1-.24.18-.51.28-.79,1.67-4.88,1.57-8.16-.74-8.72a2.15,2.15,0,0,0-2.24.84C289.82,442,288.18,446.92,287.49,450.08Z"/><path class="cls-5" d="M287.41,244.93a1.28,1.28,0,0,0,1.37.32c1.35-.37,2.9-2.45,3-5.68C291.14,241.22,289.19,243.25,287.41,244.93Z"/><path class="cls-4" d="M289.82,405c-.22,2.06,3.35,3.23,7.45,4.2s8.38,0,8.45-1.93-5.23-1.63-7-1.91S290,403,289.82,405Z"/><path class="cls-8" d="M289.8,394.66c.51-.06,1.11.32,1.6,1.12.18-4.51,2.87-5,6.15-2.67a10.58,10.58,0,0,0,6.07,2.25.56.56,0,0,0,.17,0c1.33-.35,4.12-6.07,6.51-16.4,2.49-10.73,4.36-15.9,9.24-19.8s4.88-3.5,7.06-13.27c2.14-9.59,3.94-8.29,3.31-4.93.53-2.42,1.11-5.18,1.75-8.33,4.57-22.18,9.93-37.4,12.32-41.73s3.5,0,3.5,0c-1.57,13.12-.4,21.22,0,33.35s-1.22,20-2.16,34.63-7.11,29.45-5.49,32.31h0c.8-.44,2-.11,3.16,1.36,2.38,2.9,4.74,2.82,8.17.66a3.11,3.11,0,0,1,2.59-.57c-.81-.46,2.5-8.09,6.3-19.13s-2.82-13.24,0-17.3,2.9-8.92.38-19.55,8.1-21.77,7.93-32.87,1.14-14.86,9.45-21.21a103,103,0,0,0,1.73-16.25,36.21,36.21,0,0,0,.17-5.39,74.76,74.76,0,0,1-16.13,3.55,101,101,0,0,1-24.89-.33c-2.72-.37-5.35-.83-7.77-1.39-1.81-.39-3.55-.86-5.15-1.33-3.89,9.22-6.71,15.86-6.71,15.86l-3.83-2.21c-2.44,16.25-5.32,55.39-8.52,68S291.62,377.56,289.8,394.66Z"/><path class="cls-7" d="M294.32,428.87c-3-.69-6.86,1.57-2.87,3.17s7.31,3.41,4.83,5.47v0c1.78.46,3.52.64,4.14-.1,1.69-3,1.24-5.54,1.47-8.11-.13,2.41-1.91,4-4.54,1.35a8,8,0,0,0-3-1.8Z"/><path class="cls-6" d="M291.4,395.78a4.81,4.81,0,0,1,.36.68c1.26,2.87,4.64,4.31,7.82,5.18s6.22.63,7.89-2.37c.9-2.66,2.3-6-.63-4.62a7.24,7.24,0,0,1-3,.69.56.56,0,0,1-.17,0,10.58,10.58,0,0,1-6.07-2.25C294.27,390.82,291.58,391.27,291.4,395.78Z"/><path class="cls-5" d="M300.44,240.28a170.75,170.75,0,0,1-10.85,18.36c1.79,3,7.4,6.23,16,11-2-9.55,19.19-17.5,18.65-28.29s9-43.33,10.59-51.84-1.45-6.12-3-.83c-3.85,11.53-4.26,24.83-11,29.08-1.8,9.73-8.64,12.06-8.64,12.06C312.68,234.33,305.6,238.42,300.44,240.28Z"/><path class="cls-6" d="M298.89,427.21c.36,2.87.56,4.86-1.54,3.46,2.63,2.62,4.41,1.06,4.54-1.35v-.05a5.38,5.38,0,0,1,.12-.86v-.05C302.11,424,298.51,424.35,298.89,427.21Z"/><path class="cls-9" d="M303.79,395.34a7.24,7.24,0,0,0,3-.69c2.93-1.34,1.53,2,.63,4.62.57-1,1.18-2.56,1.69-2.12,1.69-2.11,2.43-15.83,5.35-22.66s4.06-11.87,7.8-14.23c3.2-2,4.42-4.57,7.57-19.15a1,1,0,0,0,0-.17c.63-3.36-1.17-4.66-3.31,4.93-2.18,9.77-2.18,9.36-7.06,13.27s-6.75,9.07-9.24,19.8C307.91,389.27,305.12,395,303.79,395.34Z"/><path class="cls-10" d="M325.44,148.74c-1,10.77-9.25,15.22-12,13.57,1,2.17,3.57,3,5.48,3.4a33.41,33.41,0,0,1,3.5-5.39,15.49,15.49,0,0,1,4.94-4.17v0c2.58-7.69,5.91-7.74,4.08-14.22s.2-5.95,4.39-9.7,6.21-3.92,4.48-5.69C332.31,128,326.47,138,325.44,148.74Z"/><path class="cls-11" d="M325.77,261.43c1.6.47,3.34.94,5.15,1.33a5.33,5.33,0,0,1,1.24-3.44,5,5,0,0,1,1.15-1,5.73,5.73,0,0,1,1.4-.7,5.53,5.53,0,0,1,1.06-.21,5.24,5.24,0,0,1,.56,0,5.32,5.32,0,0,1,5.41,5.41,5.5,5.5,0,0,1-.3,1.72c-.94-.1-1.84-.22-2.75-.33a101,101,0,0,0,24.89.33c-1.72.2-3.43.34-5.15.44a5.48,5.48,0,0,1-.44-2.16,5.41,5.41,0,0,1,10.82,0,5.34,5.34,0,0,1-.1,1c-1.7.29-3.42.54-5.13.74a74.76,74.76,0,0,0,16.13-3.55c0-1.76-.08-4-.25-6.93a5.2,5.2,0,0,1-2.54.63,5.41,5.41,0,0,1,0-10.82,5.59,5.59,0,0,1,1.75.3c-.21-2.25-.46-4.72-.78-7.41-.36-3.15-.64-6.18-.89-9.14l-.08,0a5.42,5.42,0,0,1-.59-10.8c-.38-7.71-.51-14.65-.79-20.85.06,1.43.11,2.92.16,4.44a5.4,5.4,0,0,1-.49-10.39c.05.69.09,1.4.14,2.11A94,94,0,0,0,373.87,179l-.26,0s-2.1.6-5,1.11a5.22,5.22,0,0,1,.19,1.38,5.45,5.45,0,0,1-2,4.19,4,4,0,0,1-.42.3,5,5,0,0,1-1.93.82,5.67,5.67,0,0,1-1.08.12,5.43,5.43,0,0,1-1.09-.12,5.2,5.2,0,0,1-1.95-.82c-.13-.08-.28-.2-.41-.3a5.4,5.4,0,0,1-2-4.19,5.72,5.72,0,0,1,.08-.92,8.78,8.78,0,0,1-4.08-1.57,51.17,51.17,0,0,1-.92,11.68,5.4,5.4,0,0,1-2.64,9.73q.26-.69.45-1.38c-1.16,3.56-2.56,7.2-4.09,11.28-1.69,4.42-4.74,12-8.22,20.4a5.43,5.43,0,0,1,2.74,2.8,5.41,5.41,0,0,1-4.42,7.49c-.2,0-.38,0-.56,0a5.27,5.27,0,0,1-.56,0,4.86,4.86,0,0,1-1.06-.21,1.69,1.69,0,0,1-.28-.12C331.41,248,328.36,255.27,325.77,261.43Zm18.67-39.26a5.42,5.42,0,1,1,5.41,5.41A5.42,5.42,0,0,1,344.44,222.17Zm0,27.05a5.42,5.42,0,1,1,5.41,5.41A5.42,5.42,0,0,1,344.44,249.22ZM358,235.7a5.52,5.52,0,0,1,.41-2.12,5.43,5.43,0,0,1,10,0,5.35,5.35,0,0,1,.43,2.12,5.41,5.41,0,0,1-10.82,0Zm0-27.07A5.41,5.41,0,1,1,363.4,214,5.41,5.41,0,0,1,358,208.63Z"/><path class="cls-12" d="M335.84,132.21c-4.19,3.75-6.21,3.2-4.39,9.7s-1.5,6.53-4.08,14.22c4.56-2.46,9.8-2.46,14.19-2.28.82-1.2-3.09-3.67.34-5.52,5.48-2.81,7.2-9.73.68-18.92a3.09,3.09,0,0,0,2.59-1.19c-1.22-3.36.05-5.29,1.8-5.29l-3.09-1c-3.34-1.11-4.8,2.46-3.56,4.58C342.05,128.29,340,128.47,335.84,132.21Z"/><path class="cls-13" d="M332.16,259.32a5.33,5.33,0,0,0-1.24,3.44c2.44.55,5.05,1,7.77,1.39.91.11,1.81.23,2.75.33a5.5,5.5,0,0,0,.3-1.72,5.32,5.32,0,0,0-5.41-5.41,5.24,5.24,0,0,0-.56,0,5.53,5.53,0,0,0-1.06.21,5.73,5.73,0,0,0-1.4.7A5,5,0,0,0,332.16,259.32Z"/><path class="cls-3" d="M357.16,397.14a2.94,2.94,0,0,0-2.09.79c-2.44,1.9-3.35,2.84-9.22,2.8-3,0-5.23-2.45-7.26-6.35-2.1-.84-3.41.7-3.48,3.63s-.43,3.76-1.68,11.23-.63,12.08,1,11c-.23-4.52,1.68-11,4.68-11.67s2.86,4.19,3,7.08.54,5.21,2.16,5.43,2.65-1.62,2.8-4.41.61-7,2.71-7.25,3.74,2.6,3.84,7.62a51.61,51.61,0,0,0,.41-6.91c-.35-3.16,4.47-5.25,2.66-10.26C358.25,398.51,358.13,397.3,357.16,397.14Zm-13.69,9.94c-4.53-.56-7.73-1.12-7.67-2.72s5-1.75,8.18-1.55,7.38.84,7.74,2.87C352,407.26,348,407.63,343.47,407.08Z"/><path class="cls-5" d="M339.08,408.53c-3,.71-4.91,7.15-4.68,11.67a52.3,52.3,0,0,0,.76,8.67c.58,4.78,5,3.81,6.71,2.36s4.32-1.34,8.17.91a6.25,6.25,0,0,0,2.82.9c-.63-2.7-2.77-6.3-3.83-9.2-1.65-4.6,4.31-4.83,4.34-.94a48.66,48.66,0,0,1,.23-5.9c-.1-5-1.77-7.9-3.84-7.62s-2.54,4.47-2.71,7.25-1.2,4.61-2.8,4.41-2-2.54-2.16-5.43S342.09,407.84,339.08,408.53Z"/><path class="cls-13" d="M338.57,230.78c-1.33,3.22-2.73,6.58-4.14,10a1.69,1.69,0,0,0,.28.12,4.86,4.86,0,0,0,1.06.21,5.27,5.27,0,0,0,.56,0c.18,0,.36,0,.56,0a5.4,5.4,0,0,0,1.68-10.29Z"/><path class="cls-4" d="M335.16,428.87c.18,1.32.41,2.67.64,4a7.43,7.43,0,0,0,1,3.08v0c1.12,1.48,3,.85,6.91.67a73.37,73.37,0,0,1,8,0c1.32-.64,1.52-2,1.14-3.6a6.25,6.25,0,0,1-2.82-.9c-3.85-2.25-6.42-2.38-8.17-.91S335.74,433.65,335.16,428.87Z"/><path class="cls-4" d="M335.8,404.36c-.06,1.6,3.14,2.16,7.67,2.72s8.51.18,8.25-1.4c-.36-2-4.54-2.65-7.74-2.87S335.87,402.75,335.8,404.36Z"/><path class="cls-11" d="M338.69,264.15c-2.72-.38-5.33-.84-7.77-1.39C333.34,263.32,336,263.78,338.69,264.15Z"/><path class="cls-3" d="M338,437.73c-1.15,2-.39,6.12-.46,10.59a3.68,3.68,0,0,0,.71,2.5c1.29,1.6,4.11,1.19,5.72,1.41,1.85,0,2.43-6.22,0-6.42-.11-2.11.5-3.22,1.34-3.71a2.47,2.47,0,0,1,1.3-.35c2.64,0,3.55,3.43,3.55,8a22,22,0,0,1-.12,2.52h0c2.61.21,1.65-9.42.74-12.9a24.44,24.44,0,0,1-4.47.06C342.53,439.11,339.65,439.08,338,437.73Z"/><path class="cls-3" d="M336.84,436a3.88,3.88,0,0,0,1.17,1.73c1.64,1.35,4.52,1.38,8.33,1.66a24.44,24.44,0,0,0,4.47-.06c3-.3,5.25-1.14,5.58-2.24-1.65-.2-3.12-.37-4.67-.45a73.37,73.37,0,0,0-8,0C339.86,436.85,338,437.48,336.84,436Z"/><path class="cls-4" d="M338.26,450.82c-.18,2.74.89,4.47,1.45,3.91,0,0,1.11,2.44,2.44,1.6a1.83,1.83,0,0,0,2.87,0,9.68,9.68,0,0,1-1-4.1C342.37,452,339.55,452.42,338.26,450.82Z"/><path class="cls-6" d="M339.83,391.18c-.81.43-1.31,1.62-1.24,3.2,2,3.9,4.25,6.32,7.26,6.35,5.87,0,6.78-.9,9.22-2.8,1-2.31.33-4.8-1.32-5.3a3.11,3.11,0,0,0-2.59.57c-3.43,2.16-5.79,2.24-8.17-.66C341.79,391.07,340.63,390.74,339.83,391.18Z"/><path class="cls-14" d="M341.9,148.33c-3.43,1.85.48,4.32-.34,5.52l2.32.1s-.06-5.67,5.84-5.31h0c.77-3.79.68-9.17.73-13.06-1.37,0-2.33-1.11-4.8-6.24-.2-.39-.35-.76-.5-1.12a3.09,3.09,0,0,1-2.59,1.19C349.1,138.6,347.38,145.52,341.9,148.33Z"/><path class="cls-12" d="M343.88,121.94l3.09,1c1.15,0,2.51.82,3.5,2.64,4.94-2.82,7.68-5.91,7.62-10.71,7.81-.54,14.46-1.85,14.94-4.86,5.21.56,10.21,1.71,9.45,12.55,3.36-5.82-1.09-22.07-15.14-21.39,1.78,2.26-3.15,2.72-5.73,2.07s-9.59,1.29-10.4,7.33-4,8.52-6.55,7.37h0A25.29,25.29,0,0,0,343.88,121.94Z"/><path class="cls-6" d="M345.32,442.1c-.84.49-1.45,1.6-1.34,3.71,2.43.2,1.85,6.42,0,6.42a9.68,9.68,0,0,0,1,4.1,2.13,2.13,0,0,0,2,1c1.82,0,2.72-2,3-5.08-1.55,2.58-3.07,1.14-3,0C347.31,448.14,347.66,443,345.32,442.1Z"/><path class="cls-1" d="M345.17,128.22c.15.36.3.73.5,1.12,2.47,5.13,3.43,6.24,4.8,6.24-.05,3.89,0,9.27-.73,13.06h0a11.19,11.19,0,0,1-.44,1.73c-2.86.28-1,2.63,2.49,9.82,1.32,2.7,1.22,4.53.59,5.75A76,76,0,0,1,354,179.07a8.78,8.78,0,0,0,4.08,1.57l.41.07.79.08.81.06h.05a3.39,3.39,0,0,0,.45,0q1.23,0,2.49,0a4.9,4.9,0,0,0,.54,0h.2l.89-.07,1.07-.11c1-.12,2-.27,2.85-.43,2.89-.51,5-1.11,5-1.11l.26,0a34.12,34.12,0,0,0-3.81-10.67c-4.37-.82-6.56-2.19-4.85-7.95.66-1.93-2.39-1.86-.56-10a.49.49,0,0,1,.74-.3c.56.37,1.75.78,4.21.93,4.58.28,4.32-2.61,8.16-7.06.28-.33.53-.68.78-1,5.7-7.8,3.15-15.21,3.4-15.85a14.43,14.43,0,0,0,.54-4.6c.76-10.84-4.24-12-9.45-12.55-.48,3-7.13,4.32-14.94,4.86.06,4.8-2.68,7.89-7.62,10.71-1-1.82-2.35-2.64-3.5-2.64C345.22,122.93,344,124.86,345.17,128.22Zm19.74-1a1.69,1.69,0,1,1,1.69,1.68A1.69,1.69,0,0,1,364.91,127.2Zm11.76.35a1.68,1.68,0,1,1,1.67,1.68A1.67,1.67,0,0,1,376.67,127.55Z"/><path class="cls-10" d="M344.66,117.93c2.59,1.15,5.72-1.37,6.55-7.37s7.85-8,10.4-7.33,7.51.19,5.73-2.07C360,95.93,347.92,106.29,344.66,117.93Z"/><path class="cls-13" d="M349.85,216.74a5.42,5.42,0,1,0,5.43,5.43A5.42,5.42,0,0,0,349.85,216.74Z"/><path class="cls-13" d="M349.85,243.81a5.41,5.41,0,1,0,5.43,5.41A5.42,5.42,0,0,0,349.85,243.81Z"/><path class="cls-7" d="M346.62,441.75a2.47,2.47,0,0,0-1.3.35c2.34.87,2,6,1.73,10.13-.07,1.15,1.45,2.59,3,0a22,22,0,0,0,.12-2.52C350.17,445.18,349.26,441.75,346.62,441.75Z"/><path class="cls-6" d="M354,179.07a76,76,0,0,0-1.63-13.13c.63-1.22.73-3.05-.59-5.75-3.5-7.19-5.35-9.54-2.49-9.82a11.19,11.19,0,0,0,.44-1.73c-5.9-.36-5.84,5.31-5.84,5.31l-2.32-.1c-4.39-.18-9.63-.18-14.19,2.28v0a15.49,15.49,0,0,0-4.94,4.17,33.41,33.41,0,0,0-3.5,5.39c-2.77,5.3-3.4,10.23-4.32,15.39-11.45,18.38-18.79,24.41-17.49,29.69-3.56,2.46-2.8,7.82-2.8,7.82-4.8,3.21-14.53,6.36-13.16,12.2,6.78-1,9.73.81,10.55,6.65a11,11,0,0,1,.1,2.11c-.13,3.23-1.68,5.31-3,5.68h0c1.37.33,6.1-1.8,8.94-4.17a24.37,24.37,0,0,0,2.72-.81c5.16-1.86,12.24-5.95,11.78-10.44,0,0,6.84-2.33,8.64-12.06,6.71-4.25,7.12-17.55,11-29.08,1.55-5.29,4.65-7.66,3,.83s-11.15,41.05-10.59,51.84-20.65,18.74-18.65,28.29c2.88,1.61,6.11,3.39,9.64,5.42l3.83,2.21s2.82-6.64,6.71-15.86c2.59-6.16,5.64-13.45,8.66-20.69,1.41-3.38,2.81-6.74,4.14-10,3.48-8.44,6.53-16,8.22-20.4,1.53-4.08,2.93-7.72,4.09-11.28.16-.5.31-1,.48-1.49l.24-.86c.22-.72.42-1.46.6-2.19.16-.53.28-1.06.39-1.58.17-.7.32-1.39.45-2.08a.8.8,0,0,1,0-.15A51.17,51.17,0,0,0,354,179.07Z"/><path class="cls-6" d="M353.37,422.9c0-3.89-6-3.66-4.34.94,1.06,2.9,3.2,6.5,3.83,9.2,2.21.15,3.46-1.38,2.8-2.55-.31-.55-.68-1.12-1.09-1.78a12.06,12.06,0,0,1-1.2-5.69Z"/><path class="cls-13" d="M350.88,199.1q-.19.69-.45,1.38a5.4,5.4,0,0,0,2.64-9.73.8.8,0,0,0,0,.15c-.13.71-.28,1.38-.45,2.08-.11.52-.23,1.05-.39,1.58-.18.73-.38,1.47-.6,2.19l-.24.86C351.21,198.11,351,198.6,350.88,199.1Z"/><path class="cls-11" d="M351.36,197.61c-.17.5-.32,1-.48,1.49C351,198.6,351.21,198.11,351.36,197.61Z"/><path class="cls-11" d="M352.2,194.56c-.18.73-.38,1.47-.6,2.19C351.82,196,352,195.29,352.2,194.56Z"/><path class="cls-13" d="M353,190.9c-.13.69-.28,1.38-.45,2.08C352.76,192.28,352.91,191.61,353,190.9Z"/><path class="cls-7" d="M355.66,430.49c.66,1.17-.59,2.7-2.8,2.55.38,1.64.18,3-1.14,3.6,1.55.08,3,.25,4.67.45C357.92,434.84,357.41,433.41,355.66,430.49Z"/><path class="cls-9" d="M360.05,373.5c-3.8,11-7.11,18.67-6.3,19.13,1.65.5,2.29,3,1.32,5.3a2.94,2.94,0,0,1,2.09-.79c.18-.25,3.81-5.66,1.17-9.39,7.69-3.08,5-20.1,7-33.78s5.57-9.91,7.1-32.52c1-14.27,3.62-27.88,5.38-38.88-8.31,6.35-9.63,10.11-9.45,21.21s-10.44,22.27-7.93,32.87,2.44,15.51-.38,19.55S363.86,362.48,360.05,373.5Z"/><path class="cls-13" d="M358.07,180.64a5.72,5.72,0,0,0-.08.92,5.4,5.4,0,0,0,2,4.19c.13.1.28.22.41.3a5.2,5.2,0,0,0,1.95.82,5.43,5.43,0,0,0,1.09.12,5.67,5.67,0,0,0,1.08-.12,5,5,0,0,0,1.93-.82,4,4,0,0,0,.42-.3,5.45,5.45,0,0,0,2-4.19,5.22,5.22,0,0,0-.19-1.38c-.89.16-1.84.31-2.85.43l-1.07.11-.89.07h-.2a4.9,4.9,0,0,1-.54,0q-1.26.07-2.49,0a3.39,3.39,0,0,1-.45,0h-.05c-.28,0-.54,0-.81-.06l-.79-.08Z"/><path class="cls-13" d="M358.4,233.58a5.52,5.52,0,0,0-.41,2.12,5.41,5.41,0,0,0,10.82,0,5.4,5.4,0,0,0-5.41-5.41A5.41,5.41,0,0,0,358.4,233.58Z"/><path class="cls-13" d="M358,262.76a5.48,5.48,0,0,0,.44,2.16c1.72-.1,3.43-.24,5.15-.44s3.43-.45,5.13-.74a5.34,5.34,0,0,0,.1-1,5.41,5.41,0,0,0-10.82,0Z"/><path class="cls-11" d="M359.27,180.79l-.79-.08Z"/><path class="cls-13" d="M363.4,203.22a5.41,5.41,0,1,0,5.41,5.41A5.41,5.41,0,0,0,363.4,203.22Z"/><path class="cls-11" d="M360.08,180.85l-.81-.06C359.54,180.82,359.8,180.84,360.08,180.85Z"/><path class="cls-13" d="M360.58,180.87a3.39,3.39,0,0,1-.45,0A3.39,3.39,0,0,0,360.58,180.87Z"/><path class="cls-11" d="M363.61,180.8a4.9,4.9,0,0,1-.54,0A4.9,4.9,0,0,0,363.61,180.8Z"/><path class="cls-13" d="M363.81,180.79l.89-.07Z"/><path class="cls-15" d="M364.65,150.44c-1.83,8.1,1.22,8,.56,10-1.71,5.76.48,7.13,4.85,7.95a.42.42,0,0,1,0-.1H370a10.7,10.7,0,0,0-1-1.19c-2.15-2.2-1.39-6.14-.46-10.38.09-.46.19-.92.29-1.38.32-1.4.6-2.84.78-4.22-2.46-.15-3.65-.56-4.21-.93A.49.49,0,0,0,364.65,150.44Z"/><path class="cls-13" d="M365.77,180.61l-1.07.11Z"/><circle class="cls-1" cx="366.6" cy="127.2" r="1.68"/><path class="cls-14" d="M368.82,155.29h0a15.79,15.79,0,0,1,3.18,4.93,21.47,21.47,0,0,1,8.94,5.72c1.8-2.83-3.71-6.48-2.42-7.58s4.57-6.85,0-15.36c-.25.33-.5.68-.78,1-3.84,4.45-3.58,7.34-8.16,7.06C369.42,152.45,369.14,153.89,368.82,155.29Z"/><path class="cls-13" d="M375.21,190a5.4,5.4,0,0,0,.49,10.39c-.05-1.52-.1-3-.16-4.44s-.12-2.59-.19-3.84C375.3,191.38,375.26,190.67,375.21,190Z"/><path class="cls-5" d="M388.48,261c-1.25-3.51-1.79-10.14-1.94-18.6v0c-.09-5.11,0-10.89.15-17,.28-10.37.82-21.85,1.35-33a58.37,58.37,0,0,0-.22-9.12c-.13-.94-.26-1.92-.39-2.92,0-.09,0-.17,0-.25-1.12-6.27-3.43-10.8-6.43-14a21.47,21.47,0,0,0-8.94-5.72,15.79,15.79,0,0,0-3.18-4.93h0c-.1.46-.2.92-.29,1.38-.93,4.24-1.69,8.18.46,10.38a10.7,10.7,0,0,1,1,1.19h.09a.42.42,0,0,0,0,.1A34.12,34.12,0,0,1,373.87,179a94,94,0,0,1,1.48,13.07c.07,1.25.14,2.52.19,3.84.28,6.2.41,13.14.79,20.85q.19,4.31.54,8.94l.15,1.84h0c.25,3,.53,6,.89,9.14.32,2.69.57,5.16.78,7.41.25,2.64.44,5,.59,7.06.05.56.09,1.09.12,1.6s.05.84.08,1.23c.17,2.89.23,5.17.25,6.93a36.21,36.21,0,0,1-.17,5.39A104.09,104.09,0,0,1,390.23,280C393.66,275.36,391.75,270.17,388.48,261Z"/><path class="cls-13" d="M376.33,216.78a5.42,5.42,0,0,0,.59,10.8l.08,0c0-.61-.08-1.23-.13-1.84Q376.53,221.08,376.33,216.78Z"/><path class="cls-13" d="M376.92,243.81a5.41,5.41,0,0,0,0,10.82,5.2,5.2,0,0,0,2.54-.63c0-.39,0-.8-.08-1.23s-.07-1.06-.12-1.6c-.15-2.08-.34-4.42-.59-7.06A5.59,5.59,0,0,0,376.92,243.81Z"/><path class="cls-13" d="M376.87,225.72c.05.61.1,1.23.13,1.84h0Z"/><path class="cls-1" d="M378.34,125.88a1.68,1.68,0,1,0,1.68,1.67A1.67,1.67,0,0,0,378.34,125.88Z"/><path class="cls-13" d="M379.26,251.17c.05.54.09,1.09.12,1.6C379.35,252.26,379.31,251.73,379.26,251.17Z"/><path class="cls-5" d="M386.69,225.32c-.17,6.15-.24,11.93-.15,17v0c5,7.48,11,15.91,14.36,18.68a11.25,11.25,0,0,0,2.1,5,8.71,8.71,0,0,0,4-1h0c-5.08-13.06-8-9.17-10.57-19.71s-9.75-13.77-9.75-20Z"/><path class="cls-6" d="M386.7,225.32c0,6.24,7.23,9.6,9.75,20S401.94,252,407,265h0a48.48,48.48,0,0,0,9.37-6.23c.4-.31.78-.64,1.16-1a6.35,6.35,0,0,0-3.8-3.69s2-4.32-4.63-9.22c0,0-1.67-8.69-7.24-14.47.36-4-3-11.51-6.87-18.45.71-2.54-3.95-6.85-7.19-28.88a58.37,58.37,0,0,1,.22,9.12c-.53,11.2-1.07,22.68-1.35,33Z"/><path class="cls-5" d="M387.43,180.23c.13,1,.26,2,.39,2.92C387.72,182.12,387.59,181.17,387.43,180.23Z"/><path class="cls-2" d="M407,265.05c1.59,5,4.13,7.44,4.69,9.62a12.94,12.94,0,0,0,.61,1.85h0c.73.39,1.26-.58,1.24-1.42s.38-2,2.72-1.07c0-.48.76-2.08,2.51-.55.11-.8.58-2.82,3.61-1.65-.1-1.38,1.85-2.16,4.17-.36,0,0,1.27-2.46-1.94-4.11s-5.43-2.72-8.25-8.54A48.48,48.48,0,0,1,407,265.05Z"/><path class="cls-1" d="M413.57,275.1c0,.84-.51,1.81-1.24,1.42a3.08,3.08,0,0,0,2.35,2.06,2.64,2.64,0,0,0,2.67-1.2c1.63,1.5,3.11,1.13,3.89-.45,2.49.86,3.56-.16,3.84-1.37a2.06,2.06,0,0,0,3-1.7c2.23.43,2.51-.2,1.86-2.26s-.36-3.31-3.07-5.62-6.71-7.24-9.31-8.12c-.38.32-.76.65-1.16,1,2.82,5.82,5.05,6.89,8.25,8.54s1.94,4.11,1.94,4.11c-2.32-1.8-4.27-1-4.17.36-3-1.17-3.5.85-3.61,1.65-1.75-1.53-2.48.07-2.51.55C414,273.15,413.55,274.26,413.57,275.1Z"/></g><g id="M_14yo_skater"><path class="cls-16" d="M180.34,447a2.19,2.19,0,0,0-2.36,2.09,2.28,2.28,0,0,0,1.72,2.7,2.44,2.44,0,0,0,.64-4.79Zm-5.17,1.72c.37-2.95,3.1-5.48,5.64-5.09a5.22,5.22,0,0,1,4,4,5,5,0,0,1,.13,2.43c-.59,2.85-2.57,5.53-5.71,5.09S174.8,451.69,175.17,448.76Z"/><path class="cls-17" d="M171.71,450.21a5.49,5.49,0,0,1,0-1.94,6.51,6.51,0,0,1,.76-2.29,5.2,5.2,0,0,1,4.94-2.78c.74,0,2.06.3,2.56.35l.12,0c.4.05.32,0,.54.07s0,0,.18,0c-2.54-.39-5.27,2.14-5.64,5.09s.94,6,4.06,6.42c-1-.2-2.38-.23-3.37-.47C173.4,454.15,172.27,452.57,171.71,450.21Z"/><path class="cls-18" d="M76.38,380.75c-3-7-.9-9.33,4.75-9.76L82,371h0a4.69,4.69,0,0,0,.54.11v0c6.86,2.88,11.41,7.44,17,12.83s9.54,10.77,17.9,14.83S131,404.33,142.13,411s36.16,24.15,46.59,31.3c10.21,7,9.1,4.4,18.05,5.44.1.7-.12.9-1.73,1.44a3.74,3.74,0,0,0-.42.11c-5.2,1.62-14.11.46-19.81-1.6a5.22,5.22,0,0,0-4-4c-.16,0,0,0-.18,0s-.14,0-.54-.07c-.15-2.94-3.61-3.86-6-5.16s-6.07-2.83-8.8-2.24c-1.17.25-1.38.34-1.44,1.43l-.15-.05-.22-.08h0l0,0s-.05,0-.07,0l-.07,0h0l-.12,0-.05,0a.38.38,0,0,0-.1,0l-1.08-.39c-8.13-2.88-32.63-18-41.85-25.33a2.62,2.62,0,0,0,.08-.61c.15-2.87-1-6-4.11-6.42-.42-.05-.29-.05-.76-.09-.17-2.93-3.59-3.82-6-5.11s-6.11-2.79-8.84-2.2c-1.24.25-1.45.47-1.36,1.53h-.19C90,396.15,79.92,388.84,76.38,380.75Z"/><path class="cls-19" d="M162.78,444.34l9.69,1.64a6.51,6.51,0,0,0-.76,2.29,5.49,5.49,0,0,0,0,1.94c-2.54-.44-7.16-1.18-9.37-1.57a.93.93,0,0,0-.24,0c-2-.36-3-.46-4.48-.76a2,2,0,0,1-1.8-2.46,2,2,0,0,1,2.46-1.77C159.59,443.77,161.4,444.17,162.78,444.34Z"/><path class="cls-20" d="M164.28,437.75a.33.33,0,0,0,.12.05h0Zm8.19,8.23-9.69-1.64a17.8,17.8,0,0,1,3.72-3c-1-.79-2.68-2.48-2.63-3.66v-.06l.12,0s0,0,0,0l.15.05-.12-.05-.07,0-.12,0c.06-1.09.27-1.18,1.44-1.43,2.73-.59,6.4.94,8.8,2.24s5.83,2.22,6,5.16l-.12,0c-.5-.05-1.82-.32-2.56-.35A5.2,5.2,0,0,0,172.47,446Z"/><path class="cls-21" d="M153,445.05c.4-2.95,2.54-5.39,5.63-5.11,2.41.22,3.52,2.35,4.13,4.4-1.38-.17-3.19-.57-4.5-.72a2,2,0,0,0-2.46,1.77l-2.8-.31Z"/><path class="cls-20" d="M163.87,437.6v0s0,0-.05,0Z"/><path class="cls-22" d="M129.91,401.19a1,1,0,0,1,.07.15h0Z"/><path class="cls-11" d="M130,401.53c-7.23-3.36-15.34-6.76-21.12-11.77l-.14-.11a3.69,3.69,0,0,1,3.51-2.55,3.86,3.86,0,0,1,.47,0c7,0,15.61,9.78,17,13.56.09.21.14.4.19.55a.64.64,0,0,1,.05.15A1,1,0,0,1,130,401.53Z"/><path class="cls-22" d="M129.91,401.19l.05.15A.64.64,0,0,0,129.91,401.19Z"/><path class="cls-23" d="M222,81.84c2-2,1.46-7.18-1.23-9.35s-4.32-7.72.82-5.16l0,0a17.19,17.19,0,0,1,6.27,13.3c1.21,4.86,1.5,7.62-1.52,11.8-1.18-.64-2.44-1.26-3.77-1.89-.76-.35-1.55-.72-2.36-1.08C223.33,86.16,218.37,85.62,222,81.84Z"/><path class="cls-20" d="M163.87,437.6l.12,0-.12,0Z"/><path class="cls-24" d="M143.63,391.72c.39,5.39-.74,10.38-2.6,15.69-.59-.35-1-.62-1.43-.89a102,102,0,0,0-9.54-5h0v0a1.4,1.4,0,0,0-.13-.34c0-.15-.1-.34-.19-.55-1.36-3.78-10-13.56-17-13.56a19.38,19.38,0,0,1,6.44.71l.07,0a40.56,40.56,0,0,1,10,4.33c2.68-5.56,8.63-5.17,13.9-3.79a.23.23,0,0,1,.11,0A26,26,0,0,1,143.63,391.72Z"/><path class="cls-18" d="M148.27,390.57s-1.1,2.45-4.62,1.15h0a26,26,0,0,0-.4-3.34l.06,0C144.64,388.87,146.88,389.9,148.27,390.57Z"/><path class="cls-20" d="M153.14,153.43c-1.91-7.94-4.54-14.23,1.53-21.56l0,0a32.44,32.44,0,0,1,5-4.72c5.31-4.15,11.3-4,16.54-6.73l.35-.1a10.52,10.52,0,0,0,2.52,4.25c-4.51,8.88,6.82,12.67,13.88,15.15,1-.59,2.18-1.16,3.43-1.74A114.85,114.85,0,0,1,223,130.2c-.13,4.92,7.86,2,13.79,3.51,6.14,1.55-8,6.52,3.37,10.57,9.12,3.25,15.93,6.59,13.54,20.86s-12.74,58-3.37,70.7-1.13,13,1.55,16.53c2,2.6.67,6.36-.22,9.37-3.84-1-7.74-1.51-11.61-.54l-.06-.2c-3.64-4.89-4.9-14.9-4.85-20.19,0-3.95,0-8-.13-12-.56-18.71-2.6-38-3.88-54.85-.86-11.56,2.16-14.51-5-6.1s-8.92,21.83-4.25,32.7c-11,9.69-18.75,26.75-12.54,38.92S206,251.14,210.73,259c-18.89,5-59.63.59-70.15-17.34v0a17.79,17.79,0,0,1-2.49-8.36A89.47,89.47,0,0,1,139.74,211c2.64-13.21,7.87-23.86,12.28-35.16C155.65,166.56,154.6,159.51,153.14,153.43Z"/><path class="cls-22" d="M130,401.34l.05.19a1,1,0,0,0-.07-.19Z"/><path class="cls-25" d="M226.11,167.89c7.13-8.41,4.11-5.46,5,6.1,1.28,16.89,3.32,36.14,3.88,54.85-1.23,11.87-4,23-10.05,28.2.86,3,2.78,8.13.12,10.49h0c-6.78.65-13.49,1.63-20.25,2.41h-.05a120.47,120.47,0,0,1-17,.6h-.07a60.82,60.82,0,0,1-18.69-4c-1.69-.66-3.14-1.33-4.81-2,0,0,0,0,0,0-.17-.12-.31-.1-.47-.2h0c-7.74-3.09-17.41-5.31-24.31-9.75l-.08-.05c-1-.64-.69-.3-1.05-1.13-1.4-3.23,1.4-8.69,2.38-11.81,10.52,17.93,51.26,22.32,70.15,17.34-4.75-7.82,4.79-7.28-1.41-19.45s1.57-29.23,12.54-38.92C217.19,189.72,219,176.3,226.11,167.89Z"/><path class="cls-20" d="M164.06,437.67h0s0,0,0,0Z"/><path class="cls-25" d="M260.63,234.74c1.55,10.54.45,13.81-4.5,21.48.87,3.91-.05,5.15-4.5,5.52h0c.89-3,2.21-6.77.22-9.37-2.68-3.5,7.82-3.81-1.55-16.53s1-56.42,3.37-70.7-4.42-17.61-13.54-20.86c-11.36-4.05,2.77-9-3.37-10.57-5.93-1.5-13.92,1.41-13.79-3.51,5.26-.89,9.93-1.25,13-.81a.62.62,0,0,1,.19,0c10.84,1.65,7.74,3.05,11.56,9.07,18.58,6.76,12,47.72,12.22,61.79S259.08,224.21,260.63,234.74Z"/><path class="cls-1" d="M235.38,279.39a21.84,21.84,0,0,1,.79-4.9c1.09-4.28,2.22-9,3.76-13.24v0l.06,0c3.87-1,7.77-.42,11.61.54v0l0,.1a82.28,82.28,0,0,0-.86,8.63c.18,5-.51,8-2.72,11.67-1.85,3.11-5.46,5.54-7.48,7s-5.53,3.68-5.73,1v-.05c-.15-2.77,3.64-4.5,5.68-6.63s2-6,2.48-8.73-.43-3.28-1.32-1.48a28.47,28.47,0,0,0-1.53,4.38c-.73,2.09-1,5-3.46,4.89-1.35-.07-1.25-2.17-1.31-3.07h0a0,0,0,0,0,0,0Z"/><path class="cls-15" d="M241.68,273.24c.89-1.8,1.74-1.23,1.32,1.48s-.44,6.63-2.48,8.73-5.83,3.86-5.68,6.63v.05l-.2,0c-2.09.77-3.33.33-2.43-2-1.45-1.32-.61-2.3.4-3.61-1.33-1.8,1.81-3.64,2.75-5.12h0c.06.9,0,3,1.31,3.07,2.43.14,2.73-2.8,3.46-4.89A28.47,28.47,0,0,1,241.68,273.24Z"/><path class="cls-20" d="M223,130.2A114.85,114.85,0,0,0,196.41,138h0c-.86-.95-2-2-3.14-3.1,5.14-4.25,12-6.46,18.24-8.62a66.47,66.47,0,0,0,8.19-3.5c6.84-3.53,12.78-8.52.81-11.33l0,0a8.47,8.47,0,0,0,1.6-1.82c2.25.14,4.07-.27,5.2-1.43l.08.08c4.65,0,8.82,1.2,7.91,6.56,5.9,4.35,5.09,9.34.67,14.5l0,.13C232.88,129,228.21,129.31,223,130.2Z"/><path class="cls-26" d="M226.39,92.41A37.19,37.19,0,0,1,234,97.35c7.36,6.76-8.29,2.43-8.85,4a14.86,14.86,0,0,1,.93-2.83c.89-3.43-.93-6-3.49-8C224,91.15,225.21,91.77,226.39,92.41Z"/><path class="cls-27" d="M220.26,89.44c.81.36,1.6.73,2.36,1.08,2.56,2,4.38,4.55,3.49,8a14.86,14.86,0,0,0-.93,2.83h0c-.42,2.14.1,3.8,3.37,2.8a5.38,5.38,0,0,1-1.26,4c-1.13,1.16-2.95,1.57-5.2,1.43a8.47,8.47,0,0,1-1.6,1.82,3.41,3.41,0,0,1-4.72,0v0c.1-.93.39-2.33.56-3.34-2.34-.49-4.38-1.36-4.4-4,3.09.69,5.23.57,7.27-2.4s2.68-6.87-1.2-8.86c-2,1.21-3.49,2.86-2.56,5.27-3.53-.35-5.31-2.15-5.21-5.69a13.71,13.71,0,0,0,6.84-4.27v0C218.15,88.5,219.21,89,220.26,89.44Z"/><path class="cls-28" d="M197,421a8.84,8.84,0,0,0-2.79,1,.37.37,0,0,0-.14.07l0,0c-1-3.35-3.52-6.44-.08-9.72s16.13-2.94,10-11.18-1.28-21.81-.87-32,7.9-5.63,3.94-18.48,1.32-26.63-2.59-40.57-5.67-28.79-16.72-39.44v-.09a120.47,120.47,0,0,0,17-.6h.05c6.76-.78,13.47-1.76,20.25-2.41,0,.47.1,1.11.18,1.93.85,8.47,1.86,33.9-1.88,45.89s2.62,16.56,1.17,27.77,0,25.83-2.12,36.38-8.85,22.25-9.49,30.78,2.82,7.87-2,14.24c0,0-.06.05-.07.08-4.08-2.64-9-4.26-13.62-3.64Z"/><path class="cls-25" d="M225,266.9c0,.17.05.36.06.54C225,267.29,225,267.1,225,266.9Z"/><path class="cls-29" d="M201.45,77.32c.37-9.06-4.72-13.45-10.49-11.32,8.92-6.17,22.71-5.38,30.68,1.31l0,0c-5.14-2.56-3.54,3-.82,5.16S224,79.8,222,81.84c-3.66,3.78,1.3,4.32-1.77,7.6-1-.47-2.11-.94-3.19-1.4C211.76,85.8,206,83.68,200.82,82A27.9,27.9,0,0,0,201.45,77.32Z"/><path class="cls-25" d="M220.51,111.39c12,2.81,6,7.8-.81,11.33-1.48-1-3.49-2.18-4-4-.73-2.5-.2-4.77.08-7.35a3.41,3.41,0,0,0,4.72,0Z"/><path class="cls-1" d="M215.77,111.39c-.28,2.58-.81,4.85-.08,7.35.52,1.8,2.53,3,4,4a66.47,66.47,0,0,1-8.19,3.5c-6.22,2.16-13.1,4.37-18.24,8.62-2.39-2.31-5.06-4.94-6.47-7.66a0,0,0,0,1,0,0c-.76-3.3,4.15-3.64,7.57-4.72,2.38-.74,1.94-3.62-1.15-3.07a19,19,0,0,1-6.08.41,7.64,7.64,0,0,1-2.38-.68c-1.87-.89-3.25-3.44-2.37-7-8.06-8.43-1.81-13.77-2.6-18.61-1-6-.49-7.87.61-10.62.47-1.21,1.06-2.6,1.7-4.55h0c-2,9.1.49,14.34,10.43,14.07a21.86,21.86,0,0,1-3.4-3.4c7.31,2,13.35,4.55,21.07,3.39-.1,3.54,1.68,5.34,5.21,5.69-.93-2.41.52-4.06,2.56-5.27,3.88,2,3.25,5.9,1.2,8.86s-4.18,3.09-7.27,2.4c0,2.63,2.06,3.5,4.4,4-.17,1-.46,2.41-.56,3.34ZM192.7,95.83A1.67,1.67,0,0,0,191.16,94a1.68,1.68,0,1,0,1.54,1.84Zm-9.14-2a1.68,1.68,0,0,0-3.34-.32,1.66,1.66,0,0,0,1.54,1.83A1.62,1.62,0,0,0,183.56,93.83Z"/><path class="cls-30" d="M200.82,82C206,83.68,211.76,85.8,217.07,88v0a13.71,13.71,0,0,1-6.84,4.27c-7.72,1.16-13.76-1.35-21.07-3.39a21.86,21.86,0,0,0,3.4,3.4c-9.94.27-12.45-5-10.43-14.07a20.81,20.81,0,0,1,5.58.32A93.82,93.82,0,0,1,200.82,82Z"/><path class="cls-11" d="M216.25,443.52a6.1,6.1,0,0,1-.81,4.38,1.72,1.72,0,0,1-.95.81c-.23-2.19-2.54-3.74-5.51-4.42s-9.83-1.62-13.47-.71v0l-.21-.1a48.56,48.56,0,0,1-5.26-3.36C199.64,437.94,208.15,437.23,216.25,443.52Z"/><path class="cls-24" d="M185.28,436.57s0,0-.05,0v0a31.17,31.17,0,0,1,1.94-9.84l.74-2.18a.53.53,0,0,0,.12,0,56.35,56.35,0,0,0,6.05-2.44.37.37,0,0,1,.14-.07,8.84,8.84,0,0,1,2.79-1h0c1.4,1.72-4,10.76.19,10.42s11.74.22,15,4.64l.11-.09a11.66,11.66,0,0,0,1.09,1.57,14.73,14.73,0,0,1,2.82,5.9v.07c-8.1-6.29-16.61-5.58-26.22-3.36,0,0-.05,0-.06,0-1.28-1-3.37-2.46-4.71-3.54Z"/><path class="cls-31" d="M206.77,447.71s0-.08,0-.13c-.56-3.12-6.14-3-8.8-3.25a7.14,7.14,0,0,1-2.46-.71v0c3.64-.91,10.45,0,13.47.71s5.28,2.23,5.51,4.42l-.12.05c-3,1.09-6.2.86-9.33.4h0C206.65,448.61,206.87,448.41,206.77,447.71Z"/><path class="cls-23" d="M212.34,436l-.11.09c-3.27-4.42-10.85-5-15-4.64s1.21-8.7-.19-10.42h0l.19,0c4.6-.62,9.54,1,13.62,3.64,0,0,.05-.05.07-.08C210.83,428.46,210.48,432.41,212.34,436Z"/><path class="cls-18" d="M207,350.64c4,12.85-3.54,8.31-3.94,18.48s-5.24,23.73.87,32-6.55,7.87-10,11.18-.89,6.37.08,9.72l0,0a56.35,56.35,0,0,1-6.05,2.44.53.53,0,0,1-.12,0c-1.23.39-1.23.44-2.31.71a101.31,101.31,0,0,1,1.08-11.07,8.26,8.26,0,0,1,3.07-5.82c-.49-7.62,2.16-14.81,2.24-22.26s2.33-12.81,2.73-20.3-.32-12.3-2-20.8-4.18-17.28-6.05-27.73-5.14-25.94-7.92-37.08c-5.82,8.29-17.21,17.46-21.48,25.79s-7.2,10.1-8.06,19.47,2.77,21.76-.06,32.21,1.18,22.32-.91,32.95c-1.39-.67-3.63-1.7-5-2.17l-.06,0a.23.23,0,0,0-.11,0c-6.3-2.21-12.79-4.18-19.38-3a3.22,3.22,0,0,0-.69.2l-.3.14c-3.59-.76-3.43,0-3.09-5.5.39-6,2.46-6.08-.59-15.72S115.6,328.85,119,318c3.21-10.32.53-5.16,2.72-16h.12a3.4,3.4,0,0,1,1.55,3.34,14.67,14.67,0,0,0,1.06,5.9c4.16,8.39,6.94-8.53,14.29,1.62,5.4,7.45,9.66-2.6,12.56-8,1.06-2,4-7.45,5-9.17,5.19-8.58,18.57-23.32,7.9-31.2,1.67.64,3.12,1.31,4.81,2a60.82,60.82,0,0,0,18.69,4h.07v.09c11.05,10.65,12.81,25.48,16.72,39.44S203.06,337.8,207,350.64Z"/><path class="cls-22" d="M185.23,436.54s0,0,.05,0l0,0c1.34,1.08,3.43,2.58,4.71,3.54,0,0,.05,0,.06,0a48.56,48.56,0,0,0,5.26,3.36l.21.1a7.14,7.14,0,0,0,2.46.71c2.66.25,8.24.13,8.8,3.25,0,.05,0,.08,0,.13-9-1-7.84,1.57-18.05-5.44-10.43-7.15-35.45-24.66-46.59-31.3s-16.21-8.06-24.58-12.14S105.3,389.38,99.65,384s-10.18-9.95-17-12.83v0c.73.21,1.22.26,1.92.53,10.13,3.79,16,10.84,24.24,18l.14.11c5.78,5,13.89,8.41,21.12,11.77v0c0,.08.07.18.11.3,0-.07,0-.15-.07-.24a.1.1,0,0,1,0-.06,102,102,0,0,1,9.54,5c.44.27.84.54,1.43.89l.06,0c12.57,7.68,26.44,15.84,38,24.35,3.07,2.24,3.4,2.75,6.1,4.72Z"/><path class="cls-30" d="M191,66c5.77-2.13,10.86,2.26,10.49,11.32-5.33-2.84-14.08-6.25-18.68-3.65C185.3,69.5,188.21,67,191,66Z"/><path class="cls-27" d="M182.08,78.27c-1.67.23-2.36.93-2.36,2.09,0-3.54,1.16-5.61,3.05-6.69,4.6-2.6,13.35.81,18.68,3.65a27.9,27.9,0,0,1-.63,4.67,93.82,93.82,0,0,0-13.11-3.4,20.81,20.81,0,0,0-5.58-.32Z"/><path class="cls-25" d="M186.8,127.18c1.41,2.72,4.08,5.35,6.47,7.66,1.16,1.13,2.28,2.15,3.14,3.1h0c-1.25.58-2.4,1.15-3.43,1.74-7.06-2.48-18.39-6.27-13.88-15.15a10.52,10.52,0,0,1-2.52-4.25c-1-3.56,1-6.79,5.79-8.24-.88,3.6.5,6.15,2.37,7a7.64,7.64,0,0,0,2.38.68l0,.06c-1.85,2.38-1.6,4.88-.32,7.32A0,0,0,0,0,186.8,127.18Z"/><path class="cls-15" d="M193.2,119.36c3.09-.55,3.53,2.33,1.15,3.07-3.42,1.08-8.33,1.42-7.57,4.72-1.28-2.44-1.53-4.94.32-7.32l0-.06A19,19,0,0,0,193.2,119.36Z"/><path class="cls-1" d="M191.16,94a1.67,1.67,0,0,1,1.54,1.84,1.62,1.62,0,0,1-1.82,1.5,1.68,1.68,0,0,1,.28-3.34Z"/><path class="cls-18" d="M187.91,424.5l-.74,2.18a1.37,1.37,0,0,1-1.57-1.47C186.68,424.94,186.68,424.89,187.91,424.5Z"/><path class="cls-1" d="M182.05,92a1.67,1.67,0,0,1-.29,3.33,1.67,1.67,0,1,1,.29-3.33Z"/><path class="cls-19" d="M180.34,447a2.44,2.44,0,0,1-.64,4.79,2.28,2.28,0,0,1-1.72-2.7A2.19,2.19,0,0,1,180.34,447Z"/><path class="cls-26" d="M182.08,78.27c-.64,2-1.23,3.34-1.7,4.55a6.66,6.66,0,0,1-.66-2.46C179.72,79.2,180.41,78.5,182.08,78.27Z"/><path class="cls-28" d="M164.16,264.58c10.67,7.88-2.71,22.62-7.9,31.2-1,1.72-3.95,7.21-5,9.17-2.9,5.37-7.16,15.42-12.56,8-7.35-10.15-10.13,6.77-14.29-1.62a14.67,14.67,0,0,1-1.06-5.9,3.4,3.4,0,0,0-1.55-3.34h-.12c.1-.53.22-1.1.35-1.71,2.82-13.08,3.44-32.49,17-45.27l.28-.46c6.9,4.44,16.57,6.66,24.31,9.75h0c.16.1.3.08.47.2C164.14,264.56,164.14,264.58,164.16,264.58Z"/><path class="cls-20" d="M164.28,437.75l.13.05h0A.33.33,0,0,1,164.28,437.75Z"/><path class="cls-20" d="M164.18,437.72l-.15-.05h0Z"/><path class="cls-20" d="M163.87,437.6h-.05l-.1-.05Z"/><path class="cls-20" d="M163.72,437.55l.1.05-.35-.13h0Z"/><path class="cls-17" d="M158.65,439.94c-3.09-.28-5.23,2.16-5.63,5.11v0c-.37,2.95,1,5.85,4.08,6.43-1-.22-2.43-.26-3.39-.51-3.08-.77-4.52-3.34-4.1-6.39s2.48-5.16,5.65-5.1C156.27,439.52,157.62,439.88,158.65,439.94Z"/><path class="cls-21" d="M157.62,447.85c1.48.3,2.43.4,4.48.76-1.16,1.67-2.78,3.32-5,2.9-3-.58-4.45-3.48-4.08-6.43l2.8.31A2,2,0,0,0,157.62,447.85Z"/><path class="cls-25" d="M124.08,241.6a18.8,18.8,0,0,1-3.47.29v-.1c-.48-3.64-2.68-4.18.35-8.06s3.62-4.27,2.9-12.12,5.43-17.26,11.33-26.88,16.73-28.39,17.95-41.3c1.46,6.08,2.51,13.13-1.12,22.38-4.41,11.3-9.64,21.95-12.28,35.16C136,218,130.47,226,128.12,232.8c-1.43,4.15,2.58,5.18-1.33,7.77A7.47,7.47,0,0,1,124.08,241.6Z"/><path class="cls-20" d="M154.67,131.87c-6.07,7.33-3.44,13.62-1.53,21.56-1.22,12.91-12.09,31.69-17.95,41.3s-12,19-11.33,26.88.15,8.24-2.9,12.12-.83,4.42-.35,8.06v.1c-4.08,0-8.82-.88-11.85-1.2a16.38,16.38,0,0,1-.07-8.48c-3-7.25-1.69-8.58,2.54-15.3s4.25-8,6.07-19.32c.61-3.86,3.52-11.73,11.92-21.31C137.07,167.3,140.09,145.49,154.67,131.87Z"/><path class="cls-23" d="M122.75,385.67l.3-.14a3.22,3.22,0,0,1,.69-.2c6.59-1.16,13.08.81,19.38,3-5.27-1.38-11.22-1.77-13.9,3.79a40.56,40.56,0,0,0-10-4.33l-.07,0v0A19.59,19.59,0,0,1,122.75,385.67Z"/><path class="cls-22" d="M130.08,401.61c0,.09,0,.17.07.24,0-.12-.09-.22-.11-.3Z"/><path class="cls-22" d="M130.06,401.55a.1.1,0,0,0,0,.06l0-.06Z"/><path class="cls-22" d="M130,401.34a1,1,0,0,1,.06.19h0Z"/><path class="cls-22" d="M130,401.53v0Z"/><path class="cls-1" d="M124.08,241.6c.74,2.88,2,5.88,1.21,8.88A103,103,0,0,0,122.81,261c-.28,2.53-.23,5.33-2.27,5.23s-2.29-.93-2.36-3,.81-5.46.91-7.91c-1.3,1.77-1.4.83-2.16,3.81s-.81,8.21-.27,12.49-2.38,3.66-4.47.19a10.07,10.07,0,0,1-5-7.05c-.42-2.75-2.33-1.77-2.73-4.45-2.41-3.27-.58-7.25.49-11.11.65-2.41,2.56-6,3.72-8.48l.09,0c3,.32,7.77,1.2,11.85,1.2A18.8,18.8,0,0,0,124.08,241.6Z"/><path class="cls-16" d="M116,404.55c3.15.4,4.26,3.55,4.11,6.42a2.62,2.62,0,0,1-.08.61c-.86,2.56-2.62,4.95-5.63,4.51s-4.47-3.54-4-6.4S112.9,404.14,116,404.55Zm1.26,6a2.1,2.1,0,1,0-4.11-.52,2.19,2.19,0,0,0,1.72,2.64A2.24,2.24,0,0,0,117.3,410.58Z"/><path class="cls-19" d="M115.57,407.93a2.43,2.43,0,0,1-.66,4.77,2.19,2.19,0,0,1-1.72-2.64A2.24,2.24,0,0,1,115.57,407.93Z"/><path class="cls-17" d="M116,404.55c-3.14-.41-5.24,2.27-5.65,5.14s1,6,4,6.4c-1-.18-2.38-.23-3.34-.45-2.48-.56-3.61-2.14-4.16-4.52a5.22,5.22,0,0,1,0-1.94,6.62,6.62,0,0,1,.76-2.27,5.19,5.19,0,0,1,4.94-2.79c.74,0,2,.26,2.58.33h.1C115.75,404.5,115.62,404.5,116,404.55Z"/><path class="cls-20" d="M115.28,404.46h-.1c-.58-.07-1.84-.29-2.58-.33a5.19,5.19,0,0,0-4.94,2.79h0L98,405.3h0a18.67,18.67,0,0,1,3.73-3c-1-.83-2.5-2.24-2.58-3.46v-.15c-.09-1.06.12-1.28,1.36-1.53,2.73-.59,6.44.91,8.84,2.2S115.11,401.53,115.28,404.46Z"/><path class="cls-19" d="M107.64,406.91h0a6.62,6.62,0,0,0-.76,2.27,5.22,5.22,0,0,0,0,1.94h-.09c-2.56-.42-7.11-1.15-9.34-1.53l-.2,0c-2.07-.33-3-.44-4.52-.74a2,2,0,0,1-1.8-2.44,2,2,0,0,1,2.46-1.77c.51,0,2.29.33,4.5.7Z"/><path class="cls-21" d="M98,405.29h0c-2.21-.37-4-.65-4.5-.7A2,2,0,0,0,91,406.37l-2.8-.29v0c.39-2.93,2.55-5.39,5.61-5.12C96.22,401.14,97.33,403.25,98,405.29Z"/><path class="cls-21" d="M97.31,409.55l0,.05c-1.18,1.71-2.74,3.26-5,2.87-3-.54-4.48-3.44-4.08-6.39l2.8.29a2,2,0,0,0,1.8,2.44C94.28,409.11,95.24,409.22,97.31,409.55Z"/><path class="cls-17" d="M93.8,400.94c-3.06-.27-5.22,2.19-5.61,5.12v0c-.4,2.95,1,5.85,4.08,6.39-1-.22-2.39-.22-3.35-.46a5.41,5.41,0,0,1-4.12-6.4c.41-3.07,2.46-5.14,5.65-5.11C91.43,400.52,92.79,400.89,93.8,400.94Z"/><path class="cls-31" d="M82.61,371.15v0Z"/></g></g><g id="roundel_v3.0" data-name="roundel v3.0"><path class="cls-32" d="M67.25,134.49A67.25,67.25,0,1,0,0,67.25a67.23,67.23,0,0,0,67.25,67.24"/><path class="cls-33" d="M46.23,58.48a9.07,9.07,0,0,1,3.27,7.33,9.91,9.91,0,0,1-6,9.3A17.1,17.1,0,0,1,36,76.57a25.65,25.65,0,0,1-6.75-.9,17.47,17.47,0,0,1-5.64-2.58l3-5.75a14.18,14.18,0,0,0,4.27,2.16,16.32,16.32,0,0,0,5,.76,7.79,7.79,0,0,0,4.45-1.11A3.56,3.56,0,0,0,41.89,66a3.48,3.48,0,0,0-1.69-3.15q-1.7-1.06-5.87-1.07H26L27.7,43.54H47.5v6H34l-.51,6.17h2.64Q43,55.74,46.23,58.48Z"/><path class="cls-33" d="M58.87,74.58a13.42,13.42,0,0,1-4.94-5.78,21,21,0,0,1-1.78-9,20.94,20.94,0,0,1,1.78-9A13.36,13.36,0,0,1,58.87,45a13.92,13.92,0,0,1,14.38,0,13.29,13.29,0,0,1,4.94,5.78,20.94,20.94,0,0,1,1.79,9,21,21,0,0,1-1.79,9,13.35,13.35,0,0,1-4.94,5.78,14,14,0,0,1-14.38,0Zm11.86-6.91c1.12-1.7,1.69-4.33,1.69-7.89s-.57-6.19-1.69-7.89a5.34,5.34,0,0,0-4.67-2.55,5.25,5.25,0,0,0-4.61,2.55q-1.7,2.55-1.7,7.89t1.7,7.89a5.25,5.25,0,0,0,4.61,2.55A5.34,5.34,0,0,0,70.73,67.67Z"/><path class="cls-33" d="M86.66,53.28A6.15,6.15,0,0,1,85.17,49a6.15,6.15,0,0,1,1.49-4.32,5.41,5.41,0,0,1,7.7,0A6.18,6.18,0,0,1,95.83,49a6.18,6.18,0,0,1-1.47,4.32,5.41,5.41,0,0,1-7.7,0Zm5.5-1.77a4.45,4.45,0,0,0,.6-2.55,4.45,4.45,0,0,0-.6-2.55,2,2,0,0,0-3.27,0A4.41,4.41,0,0,0,88.27,49a4.41,4.41,0,0,0,.62,2.54,2,2,0,0,0,3.27,0Zm11.17-8.24H107L92.3,64.79H88.64Zm-1,21a4.87,4.87,0,0,1-1.89-2.07,7.57,7.57,0,0,1,0-6.27,4.9,4.9,0,0,1,1.89-2.08,5.25,5.25,0,0,1,2.75-.72A5,5,0,0,1,109,54.78a6.11,6.11,0,0,1,1.5,4.32,6.09,6.09,0,0,1-1.5,4.32A5,5,0,0,1,105.12,65,5.25,5.25,0,0,1,102.37,64.31Zm4.39-2.67a5.66,5.66,0,0,0,0-5.07,1.88,1.88,0,0,0-1.64-.88,1.91,1.91,0,0,0-1.63.86,5.55,5.55,0,0,0,0,5.1,2,2,0,0,0,3.27,0Z"/><path class="cls-34" d="M21.61,94.15a2.6,2.6,0,0,1-1.06-1,2.89,2.89,0,0,1,0-2.9,2.67,2.67,0,0,1,1.06-1,3.28,3.28,0,0,1,1.55-.36,3.2,3.2,0,0,1,1.53.36,2.69,2.69,0,0,1,1.07,1,3,3,0,0,1,0,2.9,2.62,2.62,0,0,1-1.07,1,3.2,3.2,0,0,1-1.53.36A3.28,3.28,0,0,1,21.61,94.15Zm2.54-1.34a1.52,1.52,0,0,0,.39-1.1,1.54,1.54,0,0,0-.39-1.1,1.32,1.32,0,0,0-1-.41,1.36,1.36,0,0,0-1,.41,1.54,1.54,0,0,0-.39,1.1,1.52,1.52,0,0,0,.39,1.1,1.36,1.36,0,0,0,1,.41A1.32,1.32,0,0,0,24.15,92.81Z"/><path class="cls-34" d="M28.93,89.11h1.39v1.21H29v4.11H27.39V90.32h-.84V89.11h.84v-.24a2,2,0,0,1,.55-1.48,2.08,2.08,0,0,1,1.55-.55,3,3,0,0,1,.68.08,1.51,1.51,0,0,1,.53.22l-.42,1.14a1,1,0,0,0-.63-.19c-.48,0-.72.26-.72.79Z"/><path class="cls-34" d="M37.49,94.17a1.87,1.87,0,0,1-.57.26,3.38,3.38,0,0,1-.72.08A2.12,2.12,0,0,1,34.7,94a1.92,1.92,0,0,1-.53-1.46V90.32h-.84V89.11h.84V87.78h1.58v1.33H37.1v1.21H35.75v2.22a.72.72,0,0,0,.18.53.62.62,0,0,0,.5.19,1,1,0,0,0,.63-.2Z"/><path class="cls-34" d="M43.78,89l-2.46,5.78a2.74,2.74,0,0,1-.92,1.32,2.25,2.25,0,0,1-1.33.39,3,3,0,0,1-.84-.13,1.84,1.84,0,0,1-.68-.37l.58-1.12a1.27,1.27,0,0,0,.42.25,1.31,1.31,0,0,0,.47.09.84.84,0,0,0,.52-.15,1.33,1.33,0,0,0,.37-.53l0,0L37.57,89H39.2l1.53,3.69L42.27,89Z"/><path class="cls-34" d="M49,89.26a2.5,2.5,0,0,1,1,1,3.26,3.26,0,0,1,0,2.94,2.5,2.5,0,0,1-1,1,2.67,2.67,0,0,1-1.38.35A2.14,2.14,0,0,1,46,93.86V96.4H44.43V89h1.51v.62a2.09,2.09,0,0,1,1.71-.7A2.67,2.67,0,0,1,49,89.26Zm-.66,3.55a1.52,1.52,0,0,0,.39-1.1,1.54,1.54,0,0,0-.39-1.1,1.41,1.41,0,0,0-2,0,1.54,1.54,0,0,0-.39,1.1,1.52,1.52,0,0,0,.39,1.1,1.41,1.41,0,0,0,2,0Z"/><path class="cls-34" d="M56.72,92.16H52.6a1.33,1.33,0,0,0,.53.8,1.76,1.76,0,0,0,1,.29,2,2,0,0,0,.75-.13,1.83,1.83,0,0,0,.62-.4l.84.91a2.84,2.84,0,0,1-2.25.88,3.56,3.56,0,0,1-1.63-.36,2.56,2.56,0,0,1-1.09-1A2.74,2.74,0,0,1,51,91.71a2.82,2.82,0,0,1,.38-1.44,2.63,2.63,0,0,1,1-1,3.1,3.1,0,0,1,1.49-.36,3,3,0,0,1,1.44.34,2.43,2.43,0,0,1,1,1,2.89,2.89,0,0,1,.37,1.49S56.74,91.89,56.72,92.16ZM53,90.4a1.27,1.27,0,0,0-.45.83h2.68a1.3,1.3,0,0,0-.44-.82,1.32,1.32,0,0,0-.89-.31A1.36,1.36,0,0,0,53,90.4Z"/><path class="cls-34" d="M65.63,93.1v1.33H60.27V93.37L63,90.79a3,3,0,0,0,.58-.71,1.33,1.33,0,0,0,.15-.6.78.78,0,0,0-.28-.65,1.39,1.39,0,0,0-.85-.23,1.92,1.92,0,0,0-.84.18,1.69,1.69,0,0,0-.63.53L60,88.54a2.83,2.83,0,0,1,1.14-1,3.76,3.76,0,0,1,1.67-.35,3.52,3.52,0,0,1,1.39.25,2.25,2.25,0,0,1,.92.73,2,2,0,0,1,.33,1.11,2.45,2.45,0,0,1-.25,1.08,4,4,0,0,1-.94,1.16L62.58,93.1Z"/><path class="cls-34" d="M75.05,86.92v7.51H73.54V93.8a2.06,2.06,0,0,1-1.7.71,2.81,2.81,0,0,1-1.39-.34,2.5,2.5,0,0,1-1-1,3.3,3.3,0,0,1,0-3,2.5,2.5,0,0,1,1-1,2.81,2.81,0,0,1,1.39-.34,2.09,2.09,0,0,1,1.63.65V86.92Zm-1.94,5.89a1.52,1.52,0,0,0,.39-1.1,1.54,1.54,0,0,0-.39-1.1,1.42,1.42,0,0,0-2,0,1.54,1.54,0,0,0-.39,1.1,1.52,1.52,0,0,0,.39,1.1,1.42,1.42,0,0,0,2,0Z"/><path class="cls-34" d="M76.59,88a.8.8,0,0,1-.27-.62.83.83,0,0,1,.27-.63,1,1,0,0,1,.71-.25,1.05,1.05,0,0,1,.71.24.78.78,0,0,1,.27.61A.86.86,0,0,1,78,88a1,1,0,0,1-.71.26A1,1,0,0,1,76.59,88Zm-.08,1h1.58v5.44H76.51Z"/><path class="cls-34" d="M83.69,89.51a2.28,2.28,0,0,1,.68,1.82v3.1H82.9v-.67a1.79,1.79,0,0,1-1.67.75,2.57,2.57,0,0,1-1.08-.21,1.66,1.66,0,0,1-.71-.59,1.51,1.51,0,0,1-.24-.85,1.42,1.42,0,0,1,.57-1.19,2.92,2.92,0,0,1,1.77-.44h1.25a1,1,0,0,0-.31-.79,1.35,1.35,0,0,0-.94-.28,2.82,2.82,0,0,0-.86.14,2.17,2.17,0,0,0-.71.37l-.57-1.11a3.39,3.39,0,0,1,1.07-.48,4.59,4.59,0,0,1,1.28-.17A2.83,2.83,0,0,1,83.69,89.51Zm-1.34,3.75a.94.94,0,0,0,.44-.55v-.55H81.71c-.65,0-1,.21-1,.63a.55.55,0,0,0,.24.48,1,1,0,0,0,.65.18A1.34,1.34,0,0,0,82.35,93.26Z"/><path class="cls-34" d="M90.4,89.26a2.5,2.5,0,0,1,1,1,3.26,3.26,0,0,1,0,2.94,2.5,2.5,0,0,1-1,1,2.7,2.7,0,0,1-1.38.35,2.07,2.07,0,0,1-1.71-.71v.63H85.8V86.92h1.58v2.64A2.12,2.12,0,0,1,89,88.91,2.7,2.7,0,0,1,90.4,89.26Zm-.66,3.55a1.52,1.52,0,0,0,.39-1.1,1.54,1.54,0,0,0-.39-1.1,1.41,1.41,0,0,0-2,0,1.54,1.54,0,0,0-.39,1.1,1.52,1.52,0,0,0,.39,1.1,1.41,1.41,0,0,0,2,0Z"/><path class="cls-34" d="M98.09,92.16H94a1.32,1.32,0,0,0,.52.8,1.82,1.82,0,0,0,1,.29,2,2,0,0,0,.75-.13,1.79,1.79,0,0,0,.61-.4l.84.91a2.8,2.8,0,0,1-2.24.88,3.53,3.53,0,0,1-1.63-.36,2.58,2.58,0,0,1-1.1-1,2.94,2.94,0,0,1,0-2.89,2.63,2.63,0,0,1,1-1,3.06,3.06,0,0,1,1.48-.36,3,3,0,0,1,1.45.34,2.56,2.56,0,0,1,1,1,3,3,0,0,1,.37,1.49S98.11,91.89,98.09,92.16Zm-3.7-1.76a1.3,1.3,0,0,0-.44.83h2.68a1.3,1.3,0,0,0-.44-.82,1.33,1.33,0,0,0-.9-.31A1.4,1.4,0,0,0,94.39,90.4Z"/><path class="cls-34" d="M102.68,94.17a1.67,1.67,0,0,1-.57.26,3.22,3.22,0,0,1-.71.08A2.15,2.15,0,0,1,99.89,94a1.92,1.92,0,0,1-.53-1.46V90.32h-.84V89.11h.84V87.78h1.58v1.33h1.36v1.21h-1.36v2.22a.72.72,0,0,0,.18.53.63.63,0,0,0,.5.19,1.06,1.06,0,0,0,.64-.2Z"/><path class="cls-34" d="M108.88,92.16h-4.12a1.32,1.32,0,0,0,.52.8,1.82,1.82,0,0,0,1,.29,2,2,0,0,0,.75-.13,1.79,1.79,0,0,0,.61-.4l.84.91a2.8,2.8,0,0,1-2.24.88,3.53,3.53,0,0,1-1.63-.36,2.58,2.58,0,0,1-1.1-1,2.94,2.94,0,0,1,0-2.89,2.63,2.63,0,0,1,1-1,3.06,3.06,0,0,1,1.48-.36,3,3,0,0,1,1.45.34,2.56,2.56,0,0,1,1,1,3,3,0,0,1,.37,1.49S108.9,91.89,108.88,92.16Zm-3.7-1.76a1.3,1.3,0,0,0-.44.83h2.68a1.3,1.3,0,0,0-.44-.82,1.33,1.33,0,0,0-.9-.31A1.4,1.4,0,0,0,105.18,90.4Z"/><path class="cls-34" d="M110.47,94.35a3.4,3.4,0,0,1-1-.42l.53-1.14a3.24,3.24,0,0,0,.88.38,3.64,3.64,0,0,0,1,.15c.67,0,1-.17,1-.5,0-.15-.1-.26-.28-.33a3.46,3.46,0,0,0-.84-.17,8.14,8.14,0,0,1-1.1-.24,1.63,1.63,0,0,1-.75-.46,1.29,1.29,0,0,1-.32-1,1.55,1.55,0,0,1,.29-.92,1.91,1.91,0,0,1,.87-.62,3.77,3.77,0,0,1,1.36-.22,5.52,5.52,0,0,1,1.14.12,3.26,3.26,0,0,1,1,.35l-.53,1.13a3.11,3.11,0,0,0-1.56-.41,1.66,1.66,0,0,0-.76.14.43.43,0,0,0-.26.37.37.37,0,0,0,.28.35,4.52,4.52,0,0,0,.87.19c.44.08.81.16,1.09.24a1.74,1.74,0,0,1,.74.46,1.31,1.31,0,0,1,.31.93,1.44,1.44,0,0,1-.3.9,1.93,1.93,0,0,1-.89.62,4,4,0,0,1-1.38.21A5.3,5.3,0,0,1,110.47,94.35Z"/><path class="cls-34" d="M50.53,36a4.49,4.49,0,0,1-1.8-1.68,4.64,4.64,0,0,1,1.8-6.54,5.87,5.87,0,0,1,5.17,0,4.74,4.74,0,0,1,1.79,6.54A4.53,4.53,0,0,1,55.7,36a5.87,5.87,0,0,1-5.17,0ZM54.8,33.7a2.57,2.57,0,0,0,.65-1.84A2.61,2.61,0,0,0,54.8,30a2.42,2.42,0,0,0-3.36,0,2.57,2.57,0,0,0-.66,1.85,2.53,2.53,0,0,0,.66,1.84,2.39,2.39,0,0,0,3.36,0Z"/><path class="cls-34" d="M69,27.29l-3.86,9.14H62.39l-3.85-9.14h2.74l2.53,6.22,2.62-6.22Z"/><path class="cls-34" d="M79,32.61H72.06A2.14,2.14,0,0,0,72.94,34a2.93,2.93,0,0,0,1.74.49,3.54,3.54,0,0,0,1.26-.21,3,3,0,0,0,1-.67l1.41,1.53a4.73,4.73,0,0,1-3.77,1.48,6,6,0,0,1-2.74-.6A4.45,4.45,0,0,1,70,34.29a4.51,4.51,0,0,1-.65-2.43A4.63,4.63,0,0,1,70,29.44a4.51,4.51,0,0,1,1.75-1.69,5.15,5.15,0,0,1,2.49-.6,5.07,5.07,0,0,1,2.43.58,4.26,4.26,0,0,1,1.71,1.66,5,5,0,0,1,.62,2.5S79,32.17,79,32.61Zm-6.21-2.94A2.15,2.15,0,0,0,72,31.06h4.51a2.15,2.15,0,0,0-.75-1.38,2.22,2.22,0,0,0-1.49-.52A2.29,2.29,0,0,0,72.77,29.67Z"/><path class="cls-34" d="M84.61,27.49a4.71,4.71,0,0,1,1.86-.34V29.6l-.59,0a2.46,2.46,0,0,0-1.79.64,2.58,2.58,0,0,0-.64,1.91v4.32H80.8V27.29h2.53v1.2A3,3,0,0,1,84.61,27.49Z"/><path class="cls-33" d="M30.27,102.63a.87.87,0,0,1,0-1.26,1,1,0,0,1,.71-.25,1,1,0,0,1,.71.24A.79.79,0,0,1,32,102a.86.86,0,0,1-.27.65,1,1,0,0,1-.71.26A1,1,0,0,1,30.27,102.63Zm-.08,1h1.58v5.45H30.19Z"/><path class="cls-33" d="M33.74,109a3.44,3.44,0,0,1-1-.42l.53-1.13a3.58,3.58,0,0,0,.88.38,4,4,0,0,0,1,.14c.67,0,1-.16,1-.49a.35.35,0,0,0-.27-.34A4.82,4.82,0,0,0,35,107a8,8,0,0,1-1.1-.23,1.68,1.68,0,0,1-.76-.47,1.33,1.33,0,0,1-.32-1,1.51,1.51,0,0,1,.3-.92,2,2,0,0,1,.87-.62,3.67,3.67,0,0,1,1.35-.22,5,5,0,0,1,1.15.13,3.09,3.09,0,0,1,1,.35l-.53,1.12a3.14,3.14,0,0,0-1.57-.41,1.48,1.48,0,0,0-.75.15.41.41,0,0,0-.26.36.35.35,0,0,0,.27.35,4.7,4.7,0,0,0,.88.2,9.56,9.56,0,0,1,1.09.23,1.67,1.67,0,0,1,.74.47,1.29,1.29,0,0,1,.31.93,1.48,1.48,0,0,1-.3.9,2,2,0,0,1-.89.61,4.08,4.08,0,0,1-1.38.22A5.45,5.45,0,0,1,33.74,109Z"/><path class="cls-33" d="M46.08,103.91a2.47,2.47,0,0,1,1,1,2.91,2.91,0,0,1,.36,1.47,3,3,0,0,1-.36,1.48,2.47,2.47,0,0,1-1,1,2.83,2.83,0,0,1-1.38.35,2.08,2.08,0,0,1-1.64-.66v2.54H41.48v-7.41H43v.63a2.1,2.1,0,0,1,1.71-.71A2.83,2.83,0,0,1,46.08,103.91Zm-.66,3.55a1.52,1.52,0,0,0,.39-1.1,1.54,1.54,0,0,0-.39-1.1,1.41,1.41,0,0,0-2,0,1.54,1.54,0,0,0-.39,1.1,1.52,1.52,0,0,0,.39,1.1,1.41,1.41,0,0,0,2,0Z"/><path class="cls-33" d="M50.73,103.76a2.93,2.93,0,0,1,1.11-.2V105a2.83,2.83,0,0,0-.35,0,1.43,1.43,0,0,0-1.07.38,1.54,1.54,0,0,0-.38,1.13v2.58H48.46v-5.45H50v.72A1.82,1.82,0,0,1,50.73,103.76Z"/><path class="cls-33" d="M58.13,106.81H54a1.29,1.29,0,0,0,.52.8,1.8,1.8,0,0,0,1,.29,2.19,2.19,0,0,0,.75-.12,2,2,0,0,0,.61-.4l.84.91a2.83,2.83,0,0,1-2.24.88,3.53,3.53,0,0,1-1.63-.36,2.61,2.61,0,0,1-1.1-1,2.8,2.8,0,0,1-.38-1.45,2.72,2.72,0,0,1,.38-1.44,2.63,2.63,0,0,1,1-1,3.06,3.06,0,0,1,1.48-.36,3,3,0,0,1,1.45.34,2.56,2.56,0,0,1,1,1,3,3,0,0,1,.37,1.49S58.15,106.55,58.13,106.81Zm-3.7-1.75a1.28,1.28,0,0,0-.44.83h2.68a1.27,1.27,0,0,0-.45-.83,1.45,1.45,0,0,0-1.79,0Z"/><path class="cls-33" d="M64.62,103.64l-2.3,5.45H60.69l-2.29-5.45H60l1.51,3.7,1.56-3.7Z"/><path class="cls-33" d="M70.57,106.81H66.45a1.29,1.29,0,0,0,.52.8,1.82,1.82,0,0,0,1,.29,2.19,2.19,0,0,0,.75-.12,2,2,0,0,0,.61-.4l.84.91a2.83,2.83,0,0,1-2.24.88,3.53,3.53,0,0,1-1.63-.36,2.61,2.61,0,0,1-1.1-1,2.8,2.8,0,0,1-.38-1.45,2.72,2.72,0,0,1,.38-1.44,2.63,2.63,0,0,1,1-1,3.06,3.06,0,0,1,1.48-.36,3,3,0,0,1,1.45.34,2.56,2.56,0,0,1,1,1,3,3,0,0,1,.37,1.49S70.59,106.55,70.57,106.81Zm-3.7-1.75a1.28,1.28,0,0,0-.44.83h2.68a1.27,1.27,0,0,0-.45-.83,1.45,1.45,0,0,0-1.79,0Z"/><path class="cls-33" d="M76.6,104.17a2.41,2.41,0,0,1,.62,1.8v3.12H75.64v-2.88a1.45,1.45,0,0,0-.28-1,1,1,0,0,0-.83-.32,1.26,1.26,0,0,0-1,.37,1.53,1.53,0,0,0-.35,1.09v2.7H71.65v-5.45h1.51v.64a2,2,0,0,1,.78-.53,2.61,2.61,0,0,1,1-.19A2.25,2.25,0,0,1,76.6,104.17Z"/><path class="cls-33" d="M82.16,108.82a1.63,1.63,0,0,1-.58.26,2.71,2.71,0,0,1-.71.09,2.11,2.11,0,0,1-1.5-.5,1.88,1.88,0,0,1-.53-1.46V105H78v-1.22h.84v-1.32h1.58v1.32h1.35V105H80.42v2.21a.77.77,0,0,0,.17.53.65.65,0,0,0,.5.19,1,1,0,0,0,.64-.2Z"/><path class="cls-33" d="M87.19,104.16a2.32,2.32,0,0,1,.68,1.82v3.11H86.39v-.68a1.78,1.78,0,0,1-1.66.76,2.47,2.47,0,0,1-1.09-.22,1.56,1.56,0,0,1-.7-.58,1.49,1.49,0,0,1-.25-.85,1.41,1.41,0,0,1,.58-1.2,2.89,2.89,0,0,1,1.76-.43h1.26a1,1,0,0,0-.32-.8,1.41,1.41,0,0,0-.94-.28,2.75,2.75,0,0,0-.85.14,2.44,2.44,0,0,0-.72.37l-.56-1.1a3.46,3.46,0,0,1,1.06-.49,5.06,5.06,0,0,1,1.28-.17A2.86,2.86,0,0,1,87.19,104.16Zm-1.35,3.76a1.07,1.07,0,0,0,.45-.55v-.56H85.2c-.64,0-1,.21-1,.64a.57.57,0,0,0,.24.48,1.07,1.07,0,0,0,.65.17A1.43,1.43,0,0,0,85.84,107.92Z"/><path class="cls-33" d="M93.89,103.91a2.5,2.5,0,0,1,1,1,2.91,2.91,0,0,1,.35,1.47,3,3,0,0,1-.35,1.48,2.5,2.5,0,0,1-1,1,2.77,2.77,0,0,1-1.38.35,2.1,2.1,0,0,1-1.71-.71v.63H89.29v-7.51h1.58v2.64a2.11,2.11,0,0,1,1.64-.66A2.77,2.77,0,0,1,93.89,103.91Zm-.66,3.55a1.52,1.52,0,0,0,.39-1.1,1.54,1.54,0,0,0-.39-1.1,1.3,1.3,0,0,0-1-.41,1.33,1.33,0,0,0-1,.41,1.54,1.54,0,0,0-.39,1.1,1.52,1.52,0,0,0,.39,1.1,1.33,1.33,0,0,0,1,.41A1.3,1.3,0,0,0,93.23,107.46Z"/><path class="cls-33" d="M96.28,101.58h1.58v7.51H96.28Z"/><path class="cls-33" d="M104.63,106.81h-4.12a1.29,1.29,0,0,0,.52.8,1.8,1.8,0,0,0,1,.29,2.19,2.19,0,0,0,.75-.12,2,2,0,0,0,.61-.4l.84.91a2.83,2.83,0,0,1-2.24.88,3.53,3.53,0,0,1-1.63-.36,2.61,2.61,0,0,1-1.1-1,2.8,2.8,0,0,1-.38-1.45,2.72,2.72,0,0,1,.38-1.44,2.63,2.63,0,0,1,1-1,3.06,3.06,0,0,1,1.48-.36,3,3,0,0,1,1.45.34,2.56,2.56,0,0,1,1,1,3,3,0,0,1,.37,1.49S104.65,106.55,104.63,106.81Zm-3.7-1.75a1.28,1.28,0,0,0-.44.83h2.68a1.27,1.27,0,0,0-.45-.83,1.45,1.45,0,0,0-1.79,0Z"/></g></g></svg>