<svg xmlns="http://www.w3.org/2000/svg" viewBox="0 0 295.92 240.56"><defs><style>.cls-1{fill:#bfdbe3;}.cls-2{fill:#f0faff;}.cls-3{fill:#97b9c4;}.cls-4{fill:#d0e9f2;}.cls-5{fill:#f28022;}.cls-6{fill:#e07424;}.cls-7{fill:#ff9d4d;}</style></defs><title>Asset 1</title><g id="Layer_2" data-name="Layer 2"><g id="artwork"><path class="cls-1" d="M260.65,231h-22a7.09,7.09,0,0,1-7.09-7.09c0,1.95,3.17,3.54,7.09,3.54h22c3.91,0,7.09-1.59,7.09-3.54a7.1,7.1,0,0,1-7.09,7.09Z"/><path class="cls-1" d="M253.65,207l-20.81,7a7.09,7.09,0,0,1-9-4.45c.63,1.86,4.14,2.34,7.85,1.1l20.82-7c3.71-1.25,6.2-3.76,5.58-5.62a6.92,6.92,0,0,1,.37,2.27A7.07,7.07,0,0,1,253.65,207Z"/><path class="cls-2" d="M223.86,209.55a7.09,7.09,0,0,1,4.47-9l20.8-7a7.09,7.09,0,0,1,9,4.45c.62,1.86-1.87,4.37-5.58,5.62l-20.82,7C228,211.89,224.49,211.41,223.86,209.55Z"/><path class="cls-2" d="M238.69,227.48c-3.92,0-7.09-1.59-7.09-3.54a7.08,7.08,0,0,1,7.09-7.09h22a7.08,7.08,0,0,1,7.09,7.09c0,1.95-3.18,3.54-7.09,3.54Z"/><path class="cls-2" d="M210.74,212.93l15.53,15.53a7.08,7.08,0,0,1,0,10c-1.39,1.39-4.74.26-7.51-2.51l-15.54-15.52c-2.76-2.77-3.88-6.14-2.5-7.52A7.1,7.1,0,0,1,210.74,212.93Z"/><path class="cls-1" d="M203.22,220.45,218.76,236c2.77,2.77,6.12,3.9,7.51,2.51a7.09,7.09,0,0,1-10,0L200.72,223a7.09,7.09,0,0,1,0-10C199.34,214.31,200.46,217.68,203.22,220.45Z"/><path class="cls-2" d="M143.34,160c-6.15,0-11.14-3.3-11.14-7.38s5-7.37,11.14-7.37,11.13,3.3,11.13,7.37S149.49,160,143.34,160Z"/><ellipse class="cls-2" cx="217.23" cy="32.67" rx="11.13" ry="7.37"/><path class="cls-3" d="M198.64,150.65v1.95h-10.1a4.66,4.66,0,0,1-4.66-4.65v-9.34a4.66,4.66,0,0,1,4.66-4.65h10.1v1.95c-6.14,0-11.13,3.3-11.13,7.37S192.5,150.65,198.64,150.65Z"/><path class="cls-3" d="M184.93,72.34v2H174.82a4.65,4.65,0,0,1-4.65-4.66V60.3a4.66,4.66,0,0,1,4.65-4.66h10.11v2c-6.15,0-11.13,3.3-11.13,7.37S178.78,72.34,184.93,72.34Z"/><path class="cls-3" d="M148.81,203.21v9.34a4.66,4.66,0,0,1-4.66,4.65H134v-1.95c6.15,0,11.14-3.3,11.14-7.37s-5-7.37-11.14-7.37v-1.95h10.11A4.66,4.66,0,0,1,148.81,203.21Z"/><ellipse class="cls-2" cx="152.63" cy="97.27" rx="11.13" ry="7.37"/><path class="cls-3" d="M88,152.54H98.14a4.66,4.66,0,0,1,4.65,4.66v9.33a4.65,4.65,0,0,1-4.65,4.66H88v-1.95c6.15,0,11.13-3.3,11.13-7.37s-5-7.37-11.13-7.37Z"/><path class="cls-3" d="M194.25,74.29h-9.32v-2c6.15,0,11.13-3.3,11.13-7.37s-5-7.37-11.13-7.37v-2H195a4.66,4.66,0,0,1,4.65,4.66v9.33A4.65,4.65,0,0,1,195,74.29Z"/><path class="cls-3" d="M229.1,55.67c0,4.08,5,7.38,11.14,7.38v2H230.13a4.66,4.66,0,0,1-4.65-4.66V51a4.66,4.66,0,0,1,4.65-4.66h10.11V48.3C234.09,48.3,229.1,51.6,229.1,55.67Z"/><path class="cls-4" d="M227.34,42A4.65,4.65,0,0,0,232,37.33V28a4.66,4.66,0,0,0-4.65-4.66H207.12A4.66,4.66,0,0,0,202.47,28v9.33A4.65,4.65,0,0,0,207.12,42h20.22ZM230,2.69,293.23,66a9.2,9.2,0,0,1,0,13l-47.16,47.16-5.8-5.81h.78a4.66,4.66,0,0,0,4.66-4.65v-9.34a4.66,4.66,0,0,0-4.66-4.65H221.62l-4.36-4.36H218a4.66,4.66,0,0,0,4.66-4.66V83.31A4.66,4.66,0,0,0,218,78.65H198.61l-4.36-4.36H195a4.65,4.65,0,0,0,4.65-4.66V60.3A4.66,4.66,0,0,0,195,55.64H175.61l-5.8-5.8L217,2.69A9.18,9.18,0,0,1,230,2.69Zm20.39,43.66H230.13A4.66,4.66,0,0,0,225.48,51v9.33A4.66,4.66,0,0,0,230.13,65h20.21A4.66,4.66,0,0,0,255,60.34V51A4.66,4.66,0,0,0,250.34,46.35Zm27.67,37V74a4.66,4.66,0,0,0-4.66-4.65H253.14A4.66,4.66,0,0,0,248.48,74v9.34A4.66,4.66,0,0,0,253.14,88h20.21A4.66,4.66,0,0,0,278,83.35Z"/><path class="cls-3" d="M132.2,152.57c0,4.08,5,7.38,11.14,7.38v2H133.23a4.66,4.66,0,0,1-4.66-4.66v-9.33a4.66,4.66,0,0,1,4.66-4.66h10.11v1.95C137.19,145.2,132.2,148.5,132.2,152.57Z"/><path class="cls-3" d="M175.67,184.9h-9.33v-2c6.15,0,11.14-3.3,11.14-7.37s-5-7.37-11.14-7.37v-2h10.11a4.66,4.66,0,0,1,4.66,4.65v9.34a4.66,4.66,0,0,1-4.66,4.65Z"/><path class="cls-3" d="M109.2,129.57c0,4.07,5,7.37,11.13,7.37v1.95H110.22a4.65,4.65,0,0,1-4.65-4.66V124.9a4.66,4.66,0,0,1,4.65-4.66h10.11v2C114.18,122.2,109.2,125.5,109.2,129.57Z"/><path class="cls-3" d="M263.24,86.05v2h-10.1a4.66,4.66,0,0,1-4.66-4.65V74a4.66,4.66,0,0,1,4.66-4.65h10.1v2c-6.14,0-11.13,3.3-11.13,7.37S257.1,86.05,263.24,86.05Z"/><path class="cls-3" d="M134,215.25v1.95h-10.1a4.66,4.66,0,0,1-4.66-4.65v-9.34a4.66,4.66,0,0,1,4.66-4.65H134v1.95c-6.14,0-11.13,3.3-11.13,7.37S127.9,215.25,134,215.25Z"/><path class="cls-3" d="M230.94,118.35v2h-10.1a4.66,4.66,0,0,1-4.66-4.65v-9.34a4.66,4.66,0,0,1,4.66-4.65h10.1v2c-6.14,0-11.13,3.3-11.13,7.37S224.8,118.35,230.94,118.35Z"/><path class="cls-3" d="M88,169.24v1.95H77.92a4.65,4.65,0,0,1-4.65-4.66V157.2a4.66,4.66,0,0,1,4.65-4.66H88v2c-6.15,0-11.13,3.3-11.13,7.37S81.88,169.24,88,169.24Z"/><path class="cls-3" d="M240.27,120.3h-9.33v-2c6.15,0,11.14-3.3,11.14-7.37s-5-7.37-11.14-7.37v-2h10.11a4.66,4.66,0,0,1,4.66,4.65v9.34a4.66,4.66,0,0,1-4.66,4.65Z"/><path class="cls-3" d="M232,37.33A4.65,4.65,0,0,1,227.34,42H217.23V40c6.15,0,11.13-3.3,11.13-7.37s-5-7.37-11.13-7.37v-2h10.11A4.66,4.66,0,0,1,232,28Z"/><path class="cls-2" d="M111,177.5c6.15,0,11.13,3.3,11.13,7.37s-5,7.38-11.13,7.38S99.9,189,99.9,184.87,104.89,177.5,111,177.5Z"/><path class="cls-3" d="M278,74v9.34A4.66,4.66,0,0,1,273.35,88H263.24v-2c6.15,0,11.14-3.3,11.14-7.37s-5-7.37-11.14-7.37v-2h10.11A4.66,4.66,0,0,1,278,74Z"/><path class="cls-3" d="M121.14,175.55a4.66,4.66,0,0,1,4.66,4.66v9.33a4.66,4.66,0,0,1-4.66,4.66H111v-1.95c6.15,0,11.13-3.3,11.13-7.38s-5-7.37-11.13-7.37v-1.95Z"/><path class="cls-2" d="M263.24,71.31c6.15,0,11.14,3.3,11.14,7.37s-5,7.37-11.14,7.37-11.13-3.3-11.13-7.37S257.1,71.31,263.24,71.31Z"/><path class="cls-2" d="M240.24,48.3c6.15,0,11.13,3.3,11.13,7.37s-5,7.38-11.13,7.38-11.14-3.3-11.14-7.38S234.09,48.3,240.24,48.3Z"/><path class="cls-3" d="M217.26,97.3h-9.32v-2c6.15,0,11.13-3.3,11.13-7.38s-5-7.37-11.13-7.37V78.65H218a4.66,4.66,0,0,1,4.66,4.66v9.33A4.66,4.66,0,0,1,218,97.3Z"/><path class="cls-3" d="M166.34,183v2h-10.1a4.66,4.66,0,0,1-4.66-4.65v-9.34a4.66,4.66,0,0,1,4.66-4.65h10.1v2c-6.14,0-11.13,3.3-11.13,7.37S160.2,183,166.34,183Z"/><path class="cls-3" d="M141.5,97.27c0,4.07,5,7.37,11.13,7.37v2H142.52a4.65,4.65,0,0,1-4.65-4.66V92.6a4.66,4.66,0,0,1,4.65-4.66h10.11v2C146.48,89.9,141.5,93.2,141.5,97.27Z"/><path class="cls-3" d="M196.8,88c0,4.08,5,7.38,11.14,7.38v2H197.83a4.66,4.66,0,0,1-4.66-4.66V83.31a4.66,4.66,0,0,1,4.66-4.66h10.11V80.6C201.79,80.6,196.8,83.9,196.8,88Z"/><path class="cls-4" d="M102.79,166.53V157.2a4.66,4.66,0,0,0-4.65-4.66H77.92a4.66,4.66,0,0,0-4.65,4.66v9.33a4.65,4.65,0,0,0,4.65,4.66H98.14A4.65,4.65,0,0,0,102.79,166.53Zm23,13.68a4.66,4.66,0,0,0-4.66-4.66H100.93a4.66,4.66,0,0,0-4.66,4.66v9.33a4.66,4.66,0,0,0,4.66,4.66h20.21a4.66,4.66,0,0,0,4.66-4.66ZM58.05,161.6l47.16-47.16,5.8,5.8h-.79a4.66,4.66,0,0,0-4.65,4.66v9.33a4.65,4.65,0,0,0,4.65,4.66h19.43l4.36,4.36h-.78a4.66,4.66,0,0,0-4.66,4.66v9.33a4.66,4.66,0,0,0,4.66,4.66h19.43l4.36,4.36h-.78a4.66,4.66,0,0,0-4.66,4.65v9.34a4.66,4.66,0,0,0,4.66,4.65h19.43l5.8,5.81-47.16,47.15a9.18,9.18,0,0,1-13,0L58.05,174.59A9.18,9.18,0,0,1,58.05,161.6Zm90.76,51v-9.34a4.66,4.66,0,0,0-4.66-4.65H123.94a4.66,4.66,0,0,0-4.66,4.65v9.34a4.66,4.66,0,0,0,4.66,4.65h20.21A4.66,4.66,0,0,0,148.81,212.55Z"/><path class="cls-3" d="M131.46,129.57c0-4.07-5-7.37-11.13-7.37v-2h10.11a4.66,4.66,0,0,1,4.65,4.66v9.33a4.65,4.65,0,0,1-4.65,4.66H120.33v-1.95C126.48,136.94,131.46,133.64,131.46,129.57Z"/><path class="cls-2" d="M230.94,103.61c6.15,0,11.14,3.3,11.14,7.37s-5,7.37-11.14,7.37-11.13-3.3-11.13-7.37S224.8,103.61,230.94,103.61Z"/><ellipse class="cls-2" cx="88.03" cy="161.87" rx="11.13" ry="7.37"/><path class="cls-2" d="M166.34,168.21c6.15,0,11.14,3.3,11.14,7.37s-5,7.37-11.14,7.37-11.13-3.3-11.13-7.37S160.2,168.21,166.34,168.21Z"/><path class="cls-3" d="M111,192.25v1.95H100.93a4.66,4.66,0,0,1-4.66-4.66v-9.33a4.66,4.66,0,0,1,4.66-4.66H111v1.95c-6.15,0-11.14,3.3-11.14,7.37S104.89,192.25,111,192.25Z"/><path class="cls-3" d="M143.34,143.25h10.1a4.66,4.66,0,0,1,4.66,4.66v9.33a4.66,4.66,0,0,1-4.66,4.66h-10.1v-2c6.15,0,11.13-3.3,11.13-7.38s-5-7.37-11.13-7.37Z"/><path class="cls-3" d="M213.41,138.61V148a4.66,4.66,0,0,1-4.66,4.65H198.64v-1.95c6.15,0,11.14-3.3,11.14-7.37s-5-7.37-11.14-7.37V134h10.11A4.66,4.66,0,0,1,213.41,138.61Z"/><path class="cls-1" d="M162.74,87.94H142.52a4.66,4.66,0,0,0-4.65,4.66v9.33a4.65,4.65,0,0,0,4.65,4.66h20.22a4.65,4.65,0,0,0,4.65-4.66V92.6A4.66,4.66,0,0,0,162.74,87.94Zm-32.3,32.3H111l-5.8-5.8,64.6-64.6,5.8,5.8h-.79a4.66,4.66,0,0,0-4.65,4.66v9.33a4.65,4.65,0,0,0,4.65,4.66h19.43l4.36,4.36h-.78a4.66,4.66,0,0,0-4.66,4.66v9.33a4.66,4.66,0,0,0,4.66,4.66h19.43l4.36,4.36h-.78a4.66,4.66,0,0,0-4.66,4.65v9.34a4.66,4.66,0,0,0,4.66,4.65h19.43l5.8,5.81-64.6,64.6-5.8-5.81h.78a4.66,4.66,0,0,0,4.66-4.65v-9.34a4.66,4.66,0,0,0-4.66-4.65H157l-4.36-4.36h.78a4.66,4.66,0,0,0,4.66-4.66v-9.33a4.66,4.66,0,0,0-4.66-4.66H134l-4.36-4.36h.79a4.65,4.65,0,0,0,4.65-4.66V124.9A4.66,4.66,0,0,0,130.44,120.24Zm83,27.71v-9.34a4.66,4.66,0,0,0-4.66-4.65H188.54a4.66,4.66,0,0,0-4.66,4.65V148a4.66,4.66,0,0,0,4.66,4.65h20.21A4.66,4.66,0,0,0,213.41,148Z"/><path class="cls-2" d="M198.64,135.91c6.15,0,11.14,3.3,11.14,7.37s-5,7.37-11.14,7.37-11.13-3.3-11.13-7.37S192.5,135.91,198.64,135.91Z"/><path class="cls-2" d="M207.94,95.35c-6.15,0-11.14-3.3-11.14-7.38s5-7.37,11.14-7.37,11.13,3.3,11.13,7.37S214.09,95.35,207.94,95.35Z"/><path class="cls-3" d="M163.76,97.27c0-4.07-5-7.37-11.13-7.37v-2h10.11a4.66,4.66,0,0,1,4.65,4.66v9.33a4.65,4.65,0,0,1-4.65,4.66H152.63v-2C158.78,104.64,163.76,101.34,163.76,97.27Z"/><path class="cls-3" d="M206.1,32.67c0,4.07,5,7.37,11.13,7.37v2H207.12a4.65,4.65,0,0,1-4.65-4.66V28a4.66,4.66,0,0,1,4.65-4.66h10.11v2C211.08,25.3,206.1,28.6,206.1,32.67Z"/><path class="cls-2" d="M134,200.51c6.15,0,11.14,3.3,11.14,7.37s-5,7.37-11.14,7.37-11.13-3.3-11.13-7.37S127.9,200.51,134,200.51Z"/><ellipse class="cls-2" cx="184.93" cy="64.97" rx="11.13" ry="7.37"/><ellipse class="cls-2" cx="120.33" cy="129.57" rx="11.13" ry="7.37"/><path class="cls-3" d="M251.37,55.67c0-4.07-5-7.37-11.13-7.37V46.35h10.1A4.66,4.66,0,0,1,255,51v9.33A4.66,4.66,0,0,1,250.34,65h-10.1v-2C246.39,63.05,251.37,59.75,251.37,55.67Z"/><path class="cls-2" d="M82.69,73.13V94.26a1.81,1.81,0,0,1-1.8,1.8H1.8A1.8,1.8,0,0,1,0,94.26V73.13C8.13,80.7,23.59,85.82,41.34,85.82S74.55,80.7,82.69,73.13Z"/><path class="cls-4" d="M0,73.13H82.69C74.55,80.7,59.1,85.82,41.34,85.82S8.13,80.7,0,73.13Z"/><path class="cls-5" d="M73.27,96.06V234.82a5.73,5.73,0,0,1-5.73,5.73H64.89s10.64-50.21-2.66-86.44S74.3,156,65.09,96.06Z"/><path class="cls-6" d="M65.09,96.06c9.21,60-16.17,21.83-2.86,58.05s2.66,86.44,2.66,86.44H58.45s10.64-50.21-2.66-86.44S67.86,156,58.65,96.06Z"/><path class="cls-7" d="M58.65,96.06c9.21,60-16.17,21.83-2.86,58.05s2.66,86.44,2.66,86.44H43.19s12.69-17.6,1-69.38c-21.49-89.44,7.57-36,0-75.11Z"/><path class="cls-5" d="M44.21,171.17c11.67,51.78-1,69.38-1,69.38h-28a5.73,5.73,0,0,1-5.74-5.73V217H19.77a10.11,10.11,0,0,0,10.11-10.11V128.47a10.1,10.1,0,0,0-10.11-10.1H9.41V96.06h34.8C51.78,135.15,22.72,81.73,44.21,171.17Z"/><path class="cls-2" d="M29.88,128.47v78.44A10.11,10.11,0,0,1,19.77,217H9.41V118.37H19.77A10.1,10.1,0,0,1,29.88,128.47Z"/></g></g></svg>