<svg xmlns="http://www.w3.org/2000/svg" xmlns:xlink="http://www.w3.org/1999/xlink" viewBox="0 0 462.8 335"><defs><style>.cls-1{fill:#ebffff;}.cls-2{fill:#e8927b;}.cls-3{fill:#ceeae9;}.cls-4{fill:#ffad91;}.cls-5{fill:#32496b;}.cls-6{fill:#b76962;}.cls-7{fill:#fff3e6;}.cls-8{fill:#37577c;}.cls-9{fill:#c68366;}.cls-10{fill:#855547;}.cls-11{fill:#e8e0d9;}.cls-12{fill:#25374c;}.cls-13,.cls-22{fill:#fff;}.cls-14,.cls-17{fill:#312f4e;}.cls-15,.cls-16{fill:none;stroke:#000;stroke-miterlimit:10;}.cls-16{stroke-dasharray:3.96 3.96;}.cls-17{font-size:16px;font-family:Montserrat-Bold, Montserrat;font-weight:700;}.cls-18{letter-spacing:-0.01em;}.cls-19{letter-spacing:-0.01em;}.cls-20{letter-spacing:-0.01em;}.cls-21{fill:url(#linear-gradient);}.cls-22{font-size:10px;font-family:Montserrat-Regular, Montserrat;}.cls-23{letter-spacing:-0.03em;}.cls-24{letter-spacing:-0.01em;}.cls-25{letter-spacing:-0.01em;}</style><linearGradient id="linear-gradient" y1="325" x2="432.5" y2="325" gradientUnits="userSpaceOnUse"><stop offset="0" stop-color="#bab0cd"/><stop offset="1" stop-color="#312f4e"/></linearGradient></defs><title>Asset 2</title><g id="Layer_2" data-name="Layer 2"><g id="artwork"><path class="cls-1" d="M70.21,72c.86,1.86.5,2.65,0,2.94a16,16,0,0,0-1.27-1.84c-1.42-1.69-3.14-1.89-8.61,0C54.53,75.12,53,74.91,53,76.34v.71c-2.13-1.86.29-6.22-1.21-8.16s-2.94-3.57-2.58-7.23c-6.44,7-13.24,11.17-10.31,18.26s5.23,12.6,2.44,24.49-3.58,21.33.35,23.54c3.37,1.94-3,5.37-.64,6.52-6.44.29-13.48.71-18.38,1.16l-2.35.24c-1.19.08-2,.15-2.56.2a1.29,1.29,0,0,0-1.14,1.09c-.08.45-.15.9-.23,1.33a8.49,8.49,0,0,1-.73-4.38c.33-5.22,3.67-11.46,3.12-15-.08-.54-.15-1.41-.22-2.53h0c-.27-4.37-.42-12.53-.49-20h0c-.07-7-.06-13.36,0-15.41.14-4.8-2.29-12.18-2.44-17.76s6.59-8.59,14.08-13.7a4.43,4.43,0,0,0-.64,2c0,1.76,2.11,2.28,8-2,4.39-3.19,6.8-5.44,8.8-6.52-1.26.79,1.08,1.61,4.88,2.11s5.22,1.43,4.5,2.58.72,2.5,5.31,3.57,5.07,6.09,5.15,11,1.88,8.25,4,7.31A7.5,7.5,0,0,0,70.21,72Z"/><path class="cls-2" d="M70.21,75c-1.07,8.09-.36,14.74-.79,18.61-.17,1.57-.32,2.69-.5,3.69l-1.15-.18s-2.29-.86-.92-7.94-2.51-12.67,2.09-16A16,16,0,0,1,70.21,75Z"/><path class="cls-3" d="M48.21,42.42a5.86,5.86,0,0,1,2.5.49c5.39,1.93,15.28,4.94,16,12,2.74,5.54,2.64,11.43,3,14.9-2.14.94-4-2.37-4-7.31s-.57-10-5.15-11-6-2.43-5.31-3.57-.71-2.08-4.5-2.58S44.6,44,45.86,43.16A5.32,5.32,0,0,1,48.21,42.42Z"/><path class="cls-2" d="M67.67,102a105.61,105.61,0,0,1-5.23,13.89c-1.09,2.44-2.2,4.76-3.22,6.84-1.93,3.93-3.56,7-4.19,8.2-.23.45-.44.89-.63,1.33h0c-.16,0-2.82.33,1.42-6.41,4.36-6.94,5.73-16.75,11.95-28.78l1.15.18A36.25,36.25,0,0,1,67.67,102Z"/><path class="cls-4" d="M53,77.05v-.71c.07-1.43,1.58-1.22,7.38-3.15,5.47-1.94,7.19-1.74,8.61,0-4.6,3.35-.74,8.93-2.09,16s.92,7.94.92,7.94c-6.22,12-7.59,21.84-11.95,28.78-4.24,6.74-1.58,6.43-1.42,6.41a16.15,16.15,0,0,0-.68,1.81,11.13,11.13,0,0,0-.4,5.7c.56,2.9-.26,6.84-.69,8.88a20,20,0,0,0-.25,5.37c.08,1.68-.29,3-1.14,3s-1.22-2.54-1.36-4.18-.36-2.51-.72-2.48-.36.72-.32,2.19.21,2.39.36,4.08.14,2.5-.94,2.76-1.35-1.83-1.64-2.87a21.68,21.68,0,0,1-.29-4.83c.07-1.07-.57-1.33-.61-.11s0,4.55.07,6.2.58,3.61-1,3.93-1.79-2.39-2.08-4.15a27.82,27.82,0,0,1,.08-5.8c.11-1-.4-1.47-.58-.36a18.71,18.71,0,0,0-.46,5.73c.29,2.54-.11,3-.9,3.19s-.93,0-1.68-1.86c-.63-1.54-.63-4.61-.32-7.05.06-.48.13-.92.21-1.33.47-2.37-.15-5.61.58-7.69a3.38,3.38,0,0,1,.18-.44c1-2,3.22-5.55,4.08-7.48a1.19,1.19,0,0,0,.08-.2c.82-1.88,1.45-4.08,4.35-11.75,3-8,4.8-16.83,6.59-21.55s1.58-5.87.14-8C53.81,91.08,53,80.18,53,77.05Z"/><path class="cls-1" d="M64.05,135.87c-.86,0-2.63-.84-5.52-1.36a36.43,36.43,0,0,0,.69-11.75c1-2.08,2.13-4.4,3.22-6.84.4,9.82,2.54,17.91,2.26,19.48C64.63,135.75,64.43,135.88,64.05,135.87Z"/><path class="cls-5" d="M64.05,135.87a20.8,20.8,0,0,1,0,7.91c-.57,3.93-1,18.18-.64,28.7s.64,13.82-.43,14.18-3.16-.26-6.12.08c-.1-.22-2-5.09.54-19.33,2.64-14.6-3.53-13.25,1.13-32.89h0C61.42,135,63.19,135.84,64.05,135.87Z"/><path class="cls-4" d="M58.35,200.69c1.91,4.77,6.49,13.84,3.91,27.87-1.9,10.37-3.34,18.19-4,22-5.68.55-11.38-2.45-11.38-2.45a79.63,79.63,0,0,0-1.25-28c-3.36-15.65-7.75-31.85-7.95-32.68,6.24.05,15.52,0,18-.54.43-.08.84-.15,1.25-.2h0C58.44,192.76,56.44,195.91,58.35,200.69Z"/><path class="cls-6" d="M59.32,264c.37,2.72,1.3,4.44.44,7.3-.79.34-2.13,0-5.61,1.68s-4.53,2.57-9.59,2.77l-3,.09c.27-.4.17-2.63-.32-4.49.25.72,2.29.48,5.14-1.72s5.28-5.34,2-7a2.59,2.59,0,0,0,2.11,0c.26-.1.54-.23.87-.38a3.08,3.08,0,0,1,4,.78c1.09,1.09,2.17,1.27,2.08-.14l1.82-.06C59.24,263.16,59.27,263.57,59.32,264Z"/><path class="cls-7" d="M59.76,271.27c.21,1.51.72,3.23-.72,3.8s-3.08.43-8,2.58c-6.94,2.5-21.5.93-21.83,0,0,0-.57-2.22.36-2.58,2.95.75,7.64.83,12,.74l3-.09c5.06-.2,6.1-1.1,9.59-2.77S59,271.61,59.76,271.27Z"/><path class="cls-3" d="M59.22,122.76a36.43,36.43,0,0,1-.69,11.75,28.3,28.3,0,0,0-4.81-.41,16.15,16.15,0,0,1,.68-1.81h0c.19-.44.4-.88.63-1.33C55.66,129.73,57.29,126.69,59.22,122.76Z"/><path class="cls-6" d="M59.22,262.77l-1.82.06a4.56,4.56,0,0,0-.08-.57,15.37,15.37,0,0,1-.15-3.44C59.28,258.59,59.1,260.52,59.22,262.77Z"/><path class="cls-8" d="M58.53,134.51h0c-4.66,19.64,1.51,18.29-1.13,32.89-2.59,14.24-.64,19.11-.54,19.33-.41,0-.82.12-1.25.2-2.46.5-11.74.59-18,.54-2.88,0-5.11-.06-5.72-.1-1.19-.09-1.32-1.13-1-4.44.2-2.06.58-5,1-9.17,1.07-10.81,1-18.18-2.94-19a6.9,6.9,0,0,1-4.69-3h0c-1.72-2.6-2.66-7.34-1.66-16.13h0c4.9-.45,11.94-.87,18.38-1.16l3-.13a1.19,1.19,0,0,1-.08.2c-.86,1.93-3.08,5.44-4.08,7.48a3.38,3.38,0,0,0-.18.44c-1.12,2.86-1.36,6.36-2.4,7.08s-2.18,2-1.33,2.43a3.63,3.63,0,0,0,2.94-.49c-.31,2.44-.31,5.51.32,7.05.75,1.82.89,2,1.68,1.86s1.19-.65.9-3.19a18.71,18.71,0,0,1,.46-5.73c.18-1.11.69-.64.58.36a27.82,27.82,0,0,0-.08,5.8c.29,1.76.54,4.47,2.08,4.15s1.07-2.29,1-3.93-.1-5-.07-6.2.68-1,.61.11a21.68,21.68,0,0,0,.29,4.83c.29,1,.57,3.11,1.64,2.87s1.08-1.08.94-2.76-.33-2.62-.36-4.08,0-2.15.32-2.19.57.83.72,2.48.5,4.22,1.36,4.18,1.22-1.36,1.14-3a20,20,0,0,1,.25-5.37c.43-2,1.25-6,.69-8.88a11.13,11.13,0,0,1,.4-5.7A28.3,28.3,0,0,1,58.53,134.51Z"/><path class="cls-7" d="M57.17,258.82a15.37,15.37,0,0,0,.15,3.44,4.56,4.56,0,0,1,.08.57c.09,1.41-1,1.23-2.08.14a3.08,3.08,0,0,0-4-.78c-.33.15-.61.28-.87.38,3-2.83,3.42-4.76,1.94-5.66s-3.44-1.24-6.8-2.1c.45-1.9.9-4.13,1.25-6.68,0,0,5.7,3,11.38,2.45-.24,1.36-.41,2.22-.46,2.51A46,46,0,0,0,57.17,258.82Z"/><path class="cls-3" d="M55.1,93c1.44,2.15,1.65,3.29-.14,8s-3.58,13.6-6.59,21.55c-2.9,7.67-3.53,9.87-4.35,11.75l-3,.13c-2.4-1.15,4-4.58.64-6.52-3.93-2.21-3.15-11.66-.35-23.54s.5-17.4-2.44-24.49,3.87-11.24,10.31-18.26c-.36,3.66,1.08,5.3,2.58,7.23s-.92,6.3,1.21,8.16C53,80.18,53.81,91.08,55.1,93Z"/><path class="cls-9" d="M52.38,256.91c1.48.9,1,2.83-1.94,5.66a2.59,2.59,0,0,1-2.11,0A20.3,20.3,0,0,1,45,260.89a3.25,3.25,0,0,0-2.39-.57c.06-.55.08-1.13.1-1.69.06-1.58.11-3.07,1-3.65h0a2.21,2.21,0,0,1,1.91-.16C48.94,255.67,50.9,256,52.38,256.91Z"/><path class="cls-10" d="M42.62,260.32a3.25,3.25,0,0,1,2.39.57,20.3,20.3,0,0,0,3.32,1.68c3.32,1.69,1,4.79-2,7s-4.89,2.44-5.14,1.72a.06.06,0,0,1,0,0c0-.17-.1-.34-.15-.5-.62-1.94-4.2-2.32-5.51-1.77a19.55,19.55,0,0,0-3,1.63,2,2,0,0,1,0-.5c.31-1.63,2.42-1.62,5.12-3.73C40,264.59,40.55,260.84,42.62,260.32Z"/><path class="cls-4" d="M45.36,23.16c1.19.14,1.9,1.13,1.49,3-.55,2.46-1.5,4.23-3.24,4.57a4.06,4.06,0,0,1-1.92-.14c-.47,4.39,1.81,4.14,1.81,4.14h0c.13,3.69,1.17,6.2,4.71,7.69a5.32,5.32,0,0,0-2.35.74c-2,1.08-4.41,3.33-8.8,6.52-5.93,4.33-8,3.81-8,2a4.43,4.43,0,0,1,.64-2,38.88,38.88,0,0,1-2-7.58c1.58,2.33,4.39,2.33,6.4,1.62s3.22-4,1.85-3.41a19.5,19.5,0,0,1-8.25,1.79c-4.34-.2-3.63-4.87-5.1-7.4a9.67,9.67,0,0,1-1.48-7c.38-2.43-1.29-3.15-.67-5.91a14.22,14.22,0,0,0,.23-2.49c.08-2.31.16-4.6,3.2-5.15,4.16-.77,10.6-1.2,13.08-2.34s-1.38,6.44,2.81,7.44a4.94,4.94,0,0,0,2.44,5,6.2,6.2,0,0,1,2-1A3.27,3.27,0,0,1,45.36,23.16Zm-12.92.12a.92.92,0,1,0-.91.92A.91.91,0,0,0,32.44,23.28Zm-8.35,1.25a.92.92,0,1,0-.91.92A.92.92,0,0,0,24.09,24.53Z"/><path class="cls-6" d="M42.36,10.21c1.77.2,4.67,2.76,3,13a3.27,3.27,0,0,0-1.21.12c-.4-.29-.74-3-.17-5.62s-.38-4.72-1.81-5.53S40.45,9.93,42.36,10.21Z"/><path class="cls-10" d="M42.17,12.13c1.43.81,2.39,2.91,1.81,5.53s-.23,5.33.17,5.62a6.2,6.2,0,0,0-2,1,4.94,4.94,0,0,1-2.44-5c-4.19-1-.33-8.59-2.81-7.44S28,13.41,23.84,14.18c-3,.55-3.12,2.84-3.2,5.15h0c-1.05-2.43.2-4.29-.37-6.82s.85-5.59,3.24-4.87a3.26,3.26,0,0,1,3.72-2.2c.95-1.67,10.17-2.77,12,1.86,1.91-.86,3.29,1.24,3.15,2.91C40.45,9.93,40.74,11.31,42.17,12.13Z"/><path class="cls-11" d="M43.67,255h0c-.84.58-.89,2.07-1,3.65-2.93,2.24-5.47.57-6.94-.24s-1.63-3-5.11-1.86a5,5,0,0,1-.55.14c3.95-4.68,1.92-7.17.42-7.92.06-1.31.06-2.74,0-4.25h0c3.23.1,9.82.48,12.25,1.43H43C43.09,249,43.33,252,43.67,255Z"/><path class="cls-2" d="M43.5,34.73h0s-2.28.25-1.81-4.14a4.06,4.06,0,0,0,1.92.14C43.51,32.19,43.46,33.52,43.5,34.73Z"/><path class="cls-2" d="M43,245.93h-.14c-2.43-1-9-1.33-12.25-1.43h0c-.34-10.27-2.85-24.27-2.91-31-.06-7.73.64-9.73-.6-13.56a124.71,124.71,0,0,1-4.83-16.07h0c1.47-.28,2.84-.61,4.54-.8a25.73,25.73,0,0,1,4.14-.1h0c-.32,3.31-.19,4.35,1,4.44.61,0,2.84.09,5.72.1.2.83,4.59,17,7.95,32.68C43.34,227.72,42.62,236.83,43,245.93Z"/><path class="cls-6" d="M42.72,258.63c0,.56,0,1.14-.1,1.69-2.07.52-2.61,4.27-4.91,6.09-1.37-.19-14.77,1.71-17.92,2.1a36.44,36.44,0,0,1-6-.1,17,17,0,0,1,.73-4.36c1.56,0,10.55-2.75,14.17-3.8s2.48-1.62,1.4-3.57h0a5,5,0,0,0,.55-.14c3.48-1.1,3.62,1.05,5.11,1.86S39.79,260.87,42.72,258.63Z"/><path class="cls-9" d="M41.22,271.28a.06.06,0,0,0,0,0c.49,1.86.59,4.09.32,4.49-4.36.09-9,0-12-.74,0-1.75,1.16-3.19,3-4.43a19.55,19.55,0,0,1,3-1.63c1.31-.55,4.89-.17,5.51,1.77C41.12,270.94,41.18,271.11,41.22,271.28Z"/><path class="cls-2" d="M39.68,142.46c-.73,2.08-.11,5.32-.58,7.69-.08.41-.15.85-.21,1.33A3.63,3.63,0,0,1,36,152c-.85-.39.29-1.72,1.33-2.43S38.56,145.32,39.68,142.46Z"/><path class="cls-11" d="M13.81,268.41a36.44,36.44,0,0,0,6,.1c3.15-.39,16.55-2.29,17.92-2.1-2.7,2.11-4.81,2.1-5.12,3.73h0a36.51,36.51,0,0,0-6.13-.05c-3.77.24-10.64.53-15.23.29s-5.77-.57-5.77-1.47c0,0,0-1.34,0-1.77C6.47,267.61,10.26,268.14,13.81,268.41Z"/><path class="cls-2" d="M35.91,40.31c1.37-.58.15,2.69-1.85,3.41s-4.82.71-6.4-1.62A19.5,19.5,0,0,0,35.91,40.31Z"/><path class="cls-12" d="M29,154.8c3.94.79,4,8.16,2.94,19-.42,4.16-.8,7.11-1,9.17h0a25.73,25.73,0,0,0-4.14.1s-1.93-3,.89-12.35-4.9-3.58-3.36-18.91A6.9,6.9,0,0,0,29,154.8Z"/><path class="cls-4" d="M31.53,22.37a.92.92,0,1,1-.92.91A.91.91,0,0,1,31.53,22.37Z"/><path class="cls-9" d="M30.54,248.75c1.5.75,3.53,3.24-.42,7.92h0c-2.87.57-2.41-2.5-2.55-4.16.53-1.67,1-4.15,2.25-4A2.37,2.37,0,0,1,30.54,248.75Z"/><path class="cls-10" d="M15.29,262c-.09,0-.83.25-2.2.6-.13-1,2.07-.79,4.88-2.7s9.45-9.12,9.59-7.35-.32,4.73,2.55,4.16c1.08,1.95,2.23,2.52-1.4,3.57s-12.61,3.83-14.17,3.8A16.3,16.3,0,0,1,15.29,262Z"/><path class="cls-5" d="M13.84,154.76c.53-4.22,1.3-9.18,2.5-16.26h0c.08-.43.15-.88.23-1.33a1.29,1.29,0,0,1,1.14-1.09c.55,0,1.37-.12,2.56-.2l2.35-.24h0c-1,8.79-.06,13.53,1.66,16.13h0c-1.54,15.33,6.19,9.53,3.36,18.91S26.75,183,26.75,183c-1.7.19-3.07.52-4.54.8a25.26,25.26,0,0,1-3.62.46c-4.51.21-7.66.64-7.3-.51s1.14-9.66,1.58-17.89c.11-2.17.25-4.19.44-6.26,0-.4.08-.8.11-1.21s.09-.79.13-1.19C13.64,156.44,13.73,155.61,13.84,154.76Z"/><path class="cls-4" d="M23.18,23.61a.92.92,0,1,1-.92.92A.92.92,0,0,1,23.18,23.61Z"/><path class="cls-2" d="M18.73,119.08c.55,3.57-2.79,9.81-3.12,15,0,0-3.07,3.12-3.25,6.55-.86-2.72-1.32-5.72.72-8.95s5.51-13.34,5.43-15.16C18.58,117.67,18.65,118.54,18.73,119.08Z"/><path class="cls-4" d="M18.51,116.55c.08,1.82-3.4,12-5.43,15.16s-1.58,6.23-.72,8.95a7.35,7.35,0,0,1-1.1,6.63c-1.1,1.44-.51,3.71-.84,5.43a4,4,0,0,1-.23.8,2,2,0,0,1-2.31,1.35c-.57-.08-.65-.76-.55-1.66s.42-2.24.53-3.28a3.44,3.44,0,0,0-.15-1.5c-.43-2.22-2.51-.14-2.14,1.36A10.07,10.07,0,0,1,5.66,153c-.11,1.17-.29,2.09-.09,2.28.35.36,3.43,1.36,4.81,4.24a3.6,3.6,0,0,1,0,.49c0,1.39-1.46.14-2.85-.58a20.75,20.75,0,0,1-3.44-2.32c-1.25-1-.48-2.88-.81-5s-.9-2.69,0-4.55,2.91-10.5,5.73-17.85S14.2,108,18,96.56c.07,7.45.22,15.61.49,20Z"/><path class="cls-9" d="M14.54,264.05a17,17,0,0,0-.73,4.36c-3.55-.27-7.34-.8-8.39-1.28-.24-2.06,1.43-3,4.77-3.82,1.16-.29,2.13-.53,2.9-.74,1.37-.35,2.11-.58,2.2-.6A16.3,16.3,0,0,0,14.54,264.05Z"/><path class="cls-2" d="M13.84,154.76c-.11.85-.2,1.68-.29,2.48-2.43-.29-3.08.32-2.29.46a6.68,6.68,0,0,1,2.16.73c0,.41-.07.81-.11,1.21a6.9,6.9,0,0,1-2.93-.1c-1.38-2.88-4.46-3.88-4.81-4.24-.2-.19,0-1.11.09-2.28l1.67.19c-.1.9,0,1.58.55,1.66a2,2,0,0,0,2.31-1.35,5.65,5.65,0,0,1,1.42,1.24A9.38,9.38,0,0,1,13.84,154.76Z"/><path class="cls-2" d="M7.71,148.43a3.44,3.44,0,0,1,.15,1.5c-.11,1-.43,2.3-.53,3.28L5.66,153a10.07,10.07,0,0,0-.09-3.23C5.2,148.29,7.28,146.21,7.71,148.43Z"/><path class="cls-2" d="M127.16,219.51c.34,1.59.64,3.13.91,4.65a89,89,0,0,0-1.58,21.77h-.14c-2.44-1-9.15-1.35-12.38-1.44-.72-10.22-4.66-24-4.72-30.74-.06-7.73.64-9.73-.6-13.55a124.64,124.64,0,0,1-4.83-16c2.3-.28,4.05-.84,6.44-1.11a25.76,25.76,0,0,1,4.14-.1h0c-.32,3.31-.19,4.35,1,4.44.48,0,2,.07,4,.09C120.22,190.72,124.11,205.34,127.16,219.51Z"/><path class="cls-7" d="M143.27,271.27c.21,1.51.71,3.23-.72,3.8s-3.08.43-8,2.58c-6.94,2.5-21.5.93-21.83,0,0,0-.58-2.22.36-2.58,3,.75,7.64.83,12,.74l3-.09c5.05-.2,6.1-1.1,9.59-2.77S142.48,271.61,143.27,271.27Z"/><path class="cls-9" d="M98.8,262a16.3,16.3,0,0,0-.75,2.08,17.4,17.4,0,0,0-.73,4.36c-3.55-.27-7.33-.8-8.39-1.28-.24-2.06,1.43-3,4.78-3.82,1.15-.29,2.12-.53,2.89-.74C98,262.22,98.71,262,98.8,262Z"/><path class="cls-2" d="M119.41,40.31c1.38-.58.16,2.69-1.85,3.41s-4.81.71-6.39-1.62A19.43,19.43,0,0,0,119.41,40.31Z"/><path class="cls-2" d="M106.69,23.61a.92.92,0,0,1,0,1.84.92.92,0,0,1,0-1.84Z"/><path class="cls-4" d="M95.87,119.11c.47,3,.24,8,.8,12.59h-.08c-2,3.23-1.58,6.23-.72,8.95a7.35,7.35,0,0,1-1.1,6.63c-1.1,1.44-.51,3.71-.84,5.43a4,4,0,0,1-.23.8,2,2,0,0,1-2.31,1.35c-1.19-.17-.24-2.93,0-4.94a3.31,3.31,0,0,0-.14-1.5c-.43-2.22-2.51-.14-2.15,1.36.55,2.3-.36,5.15,0,5.51s3.44,1.36,4.82,4.24a2.49,2.49,0,0,1,0,.49c0,1.39-1.45.14-2.85-.58a20.34,20.34,0,0,1-3.44-2.32c-1.25-1-.47-2.88-.81-5s-.91-2.69,0-4.55,1.75-10.5,4.56-17.85c1.58-4.12,3-10.45,4.63-17.23A39.15,39.15,0,0,0,95.87,119.11Z"/><path class="cls-5" d="M103.82,184.15c-.54.06-1.11.12-1.72.15-4.51.21-7.66.64-7.3-.51s1.14-9.66,1.58-17.89c.11-2.15.15-4.14.18-6.18,0-.48,0-1,0-1.45s0-.71,0-1.08c0-.81,0-1.63.09-2.49a129.84,129.84,0,0,1,1.75-16.16c.05-.33.11-.67.17-1a1.74,1.74,0,0,1,1.55-1.45c.53-.05,1.25-.1,2.2-.16s2.32-.24,3.74-.35v.07c-1,8.79-.06,13.53,1.66,16.13h0c-1.54,15.33,6.18,9.53,3.36,18.91s-.89,12.35-.89,12.35C107.87,183.31,106.12,183.87,103.82,184.15Z"/><path class="cls-10" d="M116.06,270.64a2.47,2.47,0,0,1,0-.5c.31-1.62,2.43-1.62,5.12-3.73,2.31-1.82,2.84-5.57,4.91-6.09a3.27,3.27,0,0,1,2.39.57,20.3,20.3,0,0,0,3.32,1.68c3.32,1.69.95,4.79-2,7s-4.89,2.44-5.14,1.72a.06.06,0,0,1,0,0l-.15-.5c-.62-1.94-4.2-2.32-5.51-1.77A20,20,0,0,0,116.06,270.64Z"/><path class="cls-3" d="M131.72,42.42a5.86,5.86,0,0,1,2.5.49c5.39,1.93,15.27,4.94,16,12,2.74,5.54,2.64,11.43,3,14.9-2.15.94-3.95-2.37-4-7.31s-.58-10-5.16-11-6-2.43-5.29-3.57-.72-2.08-4.52-2.58-6.13-1.32-4.87-2.11A5.32,5.32,0,0,1,131.72,42.42Z"/><path class="cls-3" d="M137.26,91.28a18.46,18.46,0,0,1-.74,9.5c0,.06,0,.1-.05.15-1.79,4.72-2.43,13.89-5.43,21.83-2.91,7.67-2.75,9.71-3.51,11.58l-3,.13h0c-2.38-1.16,4-4.58.66-6.52-3.94-2.21-6.78-9.56-4-21.44s5-16.39,2-23.48,3-14.35,9.49-21.37c-.36,3.66,1.08,5.3,2.58,7.23s-.92,6.28,1.2,8.15A115.75,115.75,0,0,0,137.26,91.28Z"/><path class="cls-6" d="M127.49,17.66c.58-2.62-.38-4.72-1.81-5.53s-1.72-2.2.19-1.92c1.76.2,4.67,2.76,3,12.94a3.48,3.48,0,0,0-1.21.13C127.26,23,126.92,20.28,127.49,17.66Z"/><path class="cls-2" d="M152.93,93.59a40.34,40.34,0,0,1-.73,4.82l-1.55-.25a3,3,0,0,0-.19-2c-.48-1-.87-3-.11-7,1.36-7.09-2.51-12.67,2.1-16A16,16,0,0,1,153.72,75C152.64,83.07,153.36,89.72,152.93,93.59Z"/><path class="cls-6" d="M138.83,263c1.09,1.09,2.18,1.27,2.08-.15l1.83-.05c0,.39,0,.8.1,1.2.35,2.72,1.29,4.44.43,7.3-.79.34-2.13,0-5.61,1.68s-4.54,2.57-9.59,2.77l-3,.09c.26-.4.17-2.63-.32-4.49.25.72,2.29.48,5.14-1.72s5.28-5.34,2-7a2.58,2.58,0,0,0,2.12,0h0l.85-.38A3.08,3.08,0,0,1,138.83,263Z"/><path class="cls-4" d="M128.07,224.16c-.27-1.52-.57-3.06-.91-4.65-3-14.17-6.94-28.79-7.79-32,6.08.07,17,0,19.74-.53.44-.09.86-.15,1.26-.2h0c1.58,6-.42,9.16,1.49,13.94s6.49,13.84,3.91,27.87c-1.9,10.37-3.35,18.19-4.05,22-4.44.44-9.67-1.48-11.73-2.32A101.85,101.85,0,0,0,128.07,224.16Z"/><path class="cls-2" d="M97.51,136.06a9.15,9.15,0,0,0-1.64,4.6c-.86-2.72-1.32-5.72.72-8.95h.08A25.89,25.89,0,0,0,97.51,136.06Z"/><path class="cls-9" d="M124.73,271.28a.06.06,0,0,0,0,0c.49,1.86.58,4.09.32,4.49-4.36.09-9,0-12-.74,0-1.75,1.16-3.19,3-4.43a20,20,0,0,1,3-1.63c1.31-.55,4.89-.17,5.51,1.77Z"/><path class="cls-2" d="M96.71,154.7c0,.86-.07,1.68-.09,2.49-2.07-.16-2.59.38-1.85.51a6.15,6.15,0,0,1,1.83.57c0,.49,0,1,0,1.45a8.16,8.16,0,0,1-2.67-.18c-1.38-2.88-4.46-3.88-4.82-4.24s.55-3.21,0-5.51c-.36-1.5,1.72-3.58,2.15-1.36a3.31,3.31,0,0,1,.14,1.5c-.21,2-1.16,4.77,0,4.94a2,2,0,0,0,2.31-1.35,5.65,5.65,0,0,1,1.42,1.24,9.58,9.58,0,0,1,1.59-.06Z"/><path class="cls-4" d="M125.3,157.2c.28,2.54-.11,3-.9,3.19s-.93,0-1.68-1.86c-.63-1.54-.64-4.61-.32-7.05.06-.48.13-.92.21-1.33.47-2.37-.15-5.61.57-7.69.06-.15.12-.3.19-.44,1-2,3.22-5.55,4.08-7.48,0-.06,0-.13.08-.2.76-1.87.6-3.91,3.51-11.58,3-7.94,3.64-17.11,5.43-21.83,0-.05,0-.09.05-.15a18.46,18.46,0,0,0,.74-9.5A115.75,115.75,0,0,1,136.45,77c0-.32,0-.56,0-.7.08-1.43,1.58-1.22,7.38-3.15,5.47-1.94,7.19-1.74,8.61,0-4.61,3.35-.74,8.93-2.1,16-.76,4-.37,6,.11,7a3,3,0,0,1,.19,2,3.28,3.28,0,0,1-.27.74c-5.47,11.21-6.91,20.39-11,27-4.25,6.74-1.58,6.43-1.43,6.41a18.24,18.24,0,0,0-.67,1.81,11.24,11.24,0,0,0-.41,5.7c.57,2.9-.25,6.84-.67,8.88a19.62,19.62,0,0,0-.26,5.37c.07,1.68-.28,3-1.14,3s-1.22-2.54-1.37-4.18-.35-2.51-.71-2.48-.36.72-.32,2.19.21,2.39.35,4.08.15,2.5-.93,2.76-1.36-1.83-1.64-2.87a21.67,21.67,0,0,1-.28-4.83c.07-1.07-.58-1.33-.62-.11s0,4.55.08,6.2.57,3.61-1,3.93-1.79-2.39-2.08-4.15a28.62,28.62,0,0,1,.07-5.8c.11-1-.39-1.47-.57-.36A18.39,18.39,0,0,0,125.3,157.2Z"/><path class="cls-1" d="M152.45,73.14c-1.42-1.69-3.14-1.89-8.61,0-5.8,1.93-7.3,1.72-7.38,3.15,0,.14,0,.38,0,.7-2.12-1.87.3-6.22-1.2-8.15s-2.94-3.57-2.58-7.23c-6.44,7-12.42,14.28-9.49,21.37s.78,11.6-2,23.48,0,19.23,4,21.44c3.35,1.94-3,5.36-.66,6.52-6.13.27-13.26.68-18.38,1.1-1.42.11-2.69.23-3.74.35s-1.67.11-2.2.16a1.74,1.74,0,0,0-1.55,1.45c-.06.34-.12.68-.17,1a14.33,14.33,0,0,1-.95-2.48,25.89,25.89,0,0,1-.84-4.36c-.56-4.62-.33-9.57-.8-12.59a39.15,39.15,0,0,1,.15-6.62v0c.74-9.91,3-26.79,3.09-30.44.14-4.8.12-13.07,0-18.65s6.59-8.59,14.08-13.7a4.43,4.43,0,0,0-.64,2c0,1.76,2.1,2.28,8-2,4.39-3.19,6.8-5.44,8.8-6.52-1.26.79,1.08,1.61,4.87,2.11s5.23,1.43,4.52,2.58.71,2.5,5.29,3.57,5.09,6.09,5.16,11,1.87,8.25,4,7.31a7.5,7.5,0,0,0,.49,2.28c.86,1.86.5,2.65,0,2.94A16,16,0,0,0,152.45,73.14Z"/><path class="cls-2" d="M127.12,30.73c-.1,1.46-.15,2.79-.11,4,0,0-2.29.25-1.81-4.14A4.06,4.06,0,0,0,127.12,30.73Z"/><path class="cls-11" d="M119.28,258.39c-1.48-.81-1.62-3-5.11-1.86a5,5,0,0,1-.55.14c4-4.68,1.93-7.17.43-7.92a36.35,36.35,0,0,0-.08-4.26c3.23.09,9.94.49,12.38,1.44h.14c.11,3,.35,6.06.68,9h0c-.84.58-.88,2.07-.94,3.65C123.3,260.87,120.77,259.2,119.28,258.39Z"/><path class="cls-2" d="M152.2,98.41c-.24,1-.55,2.11-1,3.62A105.61,105.61,0,0,1,146,115.92c-1.09,2.44-2.2,4.76-3.22,6.84-1.93,3.93-3.56,7-4.19,8.2-.23.45-.44.89-.63,1.33h0c-.15,0-2.82.33,1.43-6.41,4.14-6.59,5.58-15.77,11-27a3.28,3.28,0,0,0,.27-.74Z"/><path class="cls-11" d="M103.3,268.51c3.15-.39,16.55-2.29,17.92-2.1-2.69,2.11-4.81,2.11-5.12,3.73h0a36.51,36.51,0,0,0-6.13-.05c-3.77.24-10.64.53-15.23.29s-5.77-.57-5.77-1.47c0,0-.05-1.34,0-1.77,1.06.48,4.84,1,8.39,1.28A36.45,36.45,0,0,0,103.3,268.51Z"/><path class="cls-6" d="M142.74,262.77l-1.83.05a2.36,2.36,0,0,0-.08-.56,16,16,0,0,1-.15-3.44C142.79,258.59,142.61,260.52,142.74,262.77Z"/><path class="cls-9" d="M114.05,248.75c1.5.75,3.53,3.24-.43,7.92h0c-2.87.57-2.41-2.5-2.54-4.16.52-1.67,1-4.15,2.23-4A2.42,2.42,0,0,1,114.05,248.75Z"/><path class="cls-8" d="M132.67,150.43c.36,0,.57.83.71,2.48s.51,4.22,1.37,4.18,1.21-1.36,1.14-3a19.62,19.62,0,0,1,.26-5.37c.42-2,1.24-6,.67-8.88a11.24,11.24,0,0,1,.41-5.7,27.31,27.31,0,0,1,4.81.42c-4.67,19.64,1.51,18.29-1.13,32.89-2.59,14.24-.63,19.11-.54,19.33-.4,0-.82.11-1.26.2-2.69.55-13.66.6-19.74.53-2,0-3.47-.06-4-.09-1.19-.09-1.32-1.13-1-4.44.2-2.06.58-5,1-9.17,1.07-10.81,1-18.18-2.94-19a6.92,6.92,0,0,1-4.69-3h0c-1.72-2.6-2.65-7.34-1.66-16.13v-.07c5.12-.42,12.25-.83,18.38-1.1h0l3-.13c0,.07,0,.14-.08.2-.86,1.93-3.08,5.44-4.08,7.48-.07.14-.13.29-.19.44-1.1,2.86-1.35,6.36-2.4,7.08s-2.17,2-1.31,2.43a3.62,3.62,0,0,0,2.93-.49c-.32,2.44-.31,5.51.32,7.05.75,1.82.9,2,1.68,1.86s1.18-.65.9-3.19a18.39,18.39,0,0,1,.46-5.73c.18-1.11.68-.64.57.36a28.62,28.62,0,0,0-.07,5.8c.29,1.76.54,4.47,2.08,4.15s1.07-2.29,1-3.93-.11-5-.08-6.2.69-1,.62.11a21.67,21.67,0,0,0,.28,4.83c.28,1,.57,3.11,1.64,2.87s1.08-1.08.93-2.76-.32-2.62-.35-4.08S132.31,150.47,132.67,150.43Z"/><path class="cls-9" d="M127.17,255a2.23,2.23,0,0,1,1.92-.16c3.37.86,5.32,1.19,6.8,2.1s1,2.83-1.92,5.66h0a2.58,2.58,0,0,1-2.12,0,20.3,20.3,0,0,1-3.32-1.68,3.27,3.27,0,0,0-2.39-.57c.06-.55.08-1.13.1-1.69.06-1.58.1-3.07.94-3.65Z"/><path class="cls-2" d="M123.18,142.46c-.72,2.08-.1,5.32-.57,7.69-.08.41-.15.85-.21,1.33a3.62,3.62,0,0,1-2.93.49c-.86-.39.28-1.72,1.31-2.43S122.08,145.32,123.18,142.46Z"/><path class="cls-6" d="M126.13,260.32c-2.07.52-2.6,4.27-4.91,6.09-1.37-.19-14.77,1.71-17.92,2.1a36.45,36.45,0,0,1-6-.1,17.4,17.4,0,0,1,.73-4.36c1.53,0,10.54-2.75,14.17-3.8s2.48-1.62,1.4-3.57h0a5,5,0,0,0,.55-.14c3.49-1.1,3.63,1.05,5.11,1.86s4,2.48,7,.24C126.21,259.19,126.19,259.77,126.13,260.32Z"/><path class="cls-7" d="M140.68,258.82a16,16,0,0,0,.15,3.44,2.36,2.36,0,0,1,.08.56c.1,1.42-1,1.24-2.08.15a3.08,3.08,0,0,0-4-.78l-.85.38c3-2.83,3.4-4.76,1.92-5.66s-3.43-1.24-6.8-2.1a39.4,39.4,0,0,0,.9-6.55c2.06.84,7.29,2.76,11.73,2.32-.25,1.36-.41,2.22-.46,2.51A46,46,0,0,0,140.68,258.82Z"/><path class="cls-12" d="M112.48,154.8c3.94.79,4,8.16,2.94,19-.42,4.16-.8,7.11-1,9.17h0a25.76,25.76,0,0,0-4.14.1s-1.93-3,.89-12.35-4.9-3.58-3.36-18.91A6.92,6.92,0,0,0,112.48,154.8Z"/><path class="cls-1" d="M147.56,135.87c-.87,0-2.63-.84-5.52-1.35a36.49,36.49,0,0,0,.69-11.76c1-2.08,2.13-4.4,3.22-6.84.39,9.82,2.54,17.91,2.26,19.48C148.14,135.75,147.94,135.88,147.56,135.87Z"/><path class="cls-10" d="M96.6,262.57c-.13-1,2.07-.79,4.88-2.7s9.45-9.12,9.6-7.35-.33,4.73,2.54,4.16c1.08,1.95,2.23,2.52-1.4,3.57s-12.64,3.83-14.17,3.8A16.3,16.3,0,0,1,98.8,262C98.71,262,98,262.22,96.6,262.57Z"/><path class="cls-2" d="M115,22.37a.92.92,0,1,1-.92.91A.91.91,0,0,1,115,22.37Z"/><path class="cls-4" d="M104.25,27.8c.39-2.43-1-3.22-.33-6a14.22,14.22,0,0,0,.23-2.49c.08-2.31.16-4.6,3.2-5.15,4.15-.77,10.6-1.2,13.08-2.34s-1.39,6.44,2.81,7.44a4.94,4.94,0,0,0,2.44,5,6.2,6.2,0,0,1,2-1,3.48,3.48,0,0,1,1.21-.13c1.19.14,1.9,1.14,1.49,3-.55,2.46-1.5,4.23-3.24,4.57a4.06,4.06,0,0,1-1.92-.14C124.72,35,127,34.73,127,34.73c.13,3.69,1.17,6.2,4.71,7.69a5.32,5.32,0,0,0-2.35.74c-2,1.08-4.41,3.33-8.8,6.52-5.94,4.33-8,3.81-8,2a4.43,4.43,0,0,1,.64-2,38.88,38.88,0,0,1-2-7.58c1.58,2.33,4.39,2.33,6.39,1.62s3.23-4,1.85-3.41a19.43,19.43,0,0,1-8.24,1.79c-4.34-.2-4-4.56-5.48-7.1A10.28,10.28,0,0,1,104.25,27.8Z"/><path class="cls-5" d="M147.56,135.87a20.8,20.8,0,0,1,0,7.91c-.57,3.93-1,18.18-.64,28.7s.64,13.82-.43,14.18-3.17-.26-6.12.08c-.09-.22-2.05-5.09.54-19.33,2.64-14.6-3.54-13.25,1.13-32.89C144.93,135,146.69,135.84,147.56,135.87Z"/><path class="cls-10" d="M122.72,7.3c1.91-.86,3.29,1.24,3.15,2.91-1.91-.28-1.63,1.1-.19,1.92s2.39,2.91,1.81,5.53-.23,5.33.17,5.62a6.2,6.2,0,0,0-2,1,4.94,4.94,0,0,1-2.44-5c-4.2-1-.33-8.59-2.81-7.44s-8.93,1.57-13.08,2.34c-3,.55-3.12,2.84-3.2,5.15-1.05-2.43.2-4.29-.37-6.82s.85-5.59,3.24-4.87a3.26,3.26,0,0,1,3.72-2.2C111.7,3.77,120.91,2.67,122.72,7.3Z"/><path class="cls-3" d="M137.91,132.29c.19-.44.4-.88.63-1.33.63-1.23,2.26-4.27,4.19-8.2a36.49,36.49,0,0,1-.69,11.76,27.31,27.31,0,0,0-4.81-.42,18.24,18.24,0,0,1,.67-1.81Z"/><path class="cls-2" d="M212.38,228.89h0a114.92,114.92,0,0,0-2,17.09h0c-2.43-1-9.62-1.41-12.85-1.5-.72-10.22-4.65-24-4.72-30.74-.06-7.73.64-9.73-.6-13.55s-3.79-7.22-5.76-15.95c2.78-.24,4.66-.91,7.37-1.21a25.76,25.76,0,0,1,4.14-.1h0c-.32,3.31-.19,4.35,1,4.44.48,0,2,.07,4,.09.85,3.25,4.74,17.87,7.78,32Q211.73,224.43,212.38,228.89Z"/><path class="cls-2" d="M198.54,22.37a.92.92,0,1,1-.91.91A.92.92,0,0,1,198.54,22.37Z"/><path class="cls-4" d="M223.88,186.74a19.26,19.26,0,0,1,2.55-.11h0c1.59,6-.7,8.92,1.21,13.7s5.13,14.34,2.55,28.37c-1.9,10.38-3.85,18.12-4.81,21.91-4.44.42-9.82-1.52-11.88-2.36h0a94.35,94.35,0,0,0-1.12-19.36h0q-.66-4.45-1.72-9.38c-3-14.17-6.93-28.79-7.78-32,6.09.07,17.05,0,19.74-.53C223.06,186.85,223.48,186.79,223.88,186.74Z"/><path class="cls-6" d="M202.79,258.39c1.48.81,4,2.48,7,.24,0,.56,0,1.14-.1,1.69-2.07.52-2.6,4.27-4.91,6.09-1.36-.19-14.78,1.71-17.93,2.1a36.33,36.33,0,0,1-6-.1,17.4,17.4,0,0,1,.73-4.36c1.53,0,10.54-2.75,14.17-3.8s2.48-1.62,1.4-3.57h0a5,5,0,0,0,.55-.14C201.17,255.43,201.31,257.58,202.79,258.39Z"/><path class="cls-13" d="M193.88,42h0Z"/><path class="cls-6" d="M222.34,263c1.08,1.09,2.18,1.27,2.08-.15l1.82-.05c0,.39.06.8.11,1.2.35,2.72,1.28,4.44.42,7.3-.78.34-2.12,0-5.6,1.68s-4.54,2.57-9.59,2.77l-3,.09c.27-.4.17-2.67-.33-4.53.19.76,2.24.56,5.15-1.68s5.28-5.34,2-7a2.58,2.58,0,0,0,2.12,0h0l.86-.38A3.08,3.08,0,0,1,222.34,263Z"/><path class="cls-9" d="M199.57,270.64a20,20,0,0,1,3-1.63c1.31-.55,4.89-.17,5.51,1.77l.15.49h0c.5,1.86.6,4.13.33,4.53-4.35.09-9,0-12-.74C196.61,273.32,197.73,271.88,199.57,270.64Z"/><path class="cls-10" d="M182.31,262c-.09,0-.83.25-2.2.6-.13-1,2.06-.79,4.88-2.7s9.45-9.12,9.6-7.35-.33,4.73,2.54,4.16c1.08,1.95,2.23,2.52-1.4,3.57s-12.64,3.83-14.17,3.8A16.3,16.3,0,0,1,182.31,262Z"/><path class="cls-10" d="M206.23,7.3c1.91-.86,3.3,1.24,3.15,2.91-1.91-.28-1.63,1.1-.19,1.92S211.58,15,211,17.66s-.23,5.33.17,5.62a6.2,6.2,0,0,0-2,1,4.93,4.93,0,0,1-2.43-5c-4.21-1-.34-8.59-2.82-7.44s-8.93,1.57-13.08,2.34c-2.77.51-3.21,2.54-3.38,4.69-.71-2.22.35-4-.2-6.36-.57-2.53.86-5.59,3.25-4.87a3.26,3.26,0,0,1,3.72-2.2C195.21,3.77,204.42,2.67,206.23,7.3Z"/><path class="cls-4" d="M208.81,157.2c.28,2.54-.11,3-.9,3.19s-.93,0-1.68-1.86c-.63-1.54-.64-4.61-.32-7.05.06-.48.13-.92.21-1.33.47-2.37-.15-5.61.57-7.69.05-.15.12-.3.18-.44,1-2,3.22-5.55,4.08-7.48a1.21,1.21,0,0,0,.09-.2c.7-1.83-.24-3.36,2.66-11,3-8,3.7-17.47,5.49-22.2a.69.69,0,0,1,.05-.13,17.68,17.68,0,0,0,.74-9.26c-.66-3.91-.2-12.11,0-14.7,0-.31,0-.55,0-.68.07-1.43,1.57-1.22,7.37-3.15,5.48-1.94,7.19-1.74,8.61,0-4.6,3.35-.74,8.93-2.1,16-.75,3.94-.38,6,.1,7s-1.79,4.54-2.22,5.42c-5.46,11.19-4.76,17.74-8.9,24.33-4.37,6.94-1.42,6.41-1.42,6.41a18.5,18.5,0,0,0-.69,1.81,11.35,11.35,0,0,0-.4,5.7c.57,2.9-.25,6.84-.68,8.88a20,20,0,0,0-.25,5.37c.07,1.68-.28,3-1.14,3s-1.22-2.54-1.36-4.18-.36-2.51-.72-2.48-.36.72-.32,2.19.21,2.39.35,4.08.15,2.5-.92,2.76-1.37-1.83-1.65-2.87a21.68,21.68,0,0,1-.29-4.83c.08-1.07-.57-1.33-.6-.11s0,4.55.07,6.2.57,3.61-1,3.93-1.79-2.39-2.08-4.15a28.62,28.62,0,0,1,.07-5.8c.11-1-.39-1.47-.57-.36A18.39,18.39,0,0,0,208.81,157.2Z"/><path class="cls-7" d="M222.34,263a3.08,3.08,0,0,0-4-.78l-.86.38c3-2.83,3.41-4.76,1.93-5.66s-3.43-1.24-6.8-2.1a39.4,39.4,0,0,0,.9-6.55h0c2.06.84,7.44,2.78,11.88,2.36-.34,1.34-.56,2.18-.61,2.47a46,46,0,0,0-.58,5.73,16,16,0,0,0,.15,3.44,3,3,0,0,1,.08.56C224.52,264.24,223.42,264.06,222.34,263Z"/><path class="cls-2" d="M179.79,159.76a9.26,9.26,0,0,1-2.39-.22c-1.38-2.88-4.46-3.88-4.82-4.24s.55-3.21,0-5.51c-.35-1.5,1.72-3.58,2.15-1.36a3.31,3.31,0,0,1,.14,1.5c-.21,2-1.16,4.77,0,4.94a2,2,0,0,0,2.31-1.35,5.65,5.65,0,0,1,1.42,1.24s.35,0,.86-.07c0,.85.09,1.67.15,2.47h0c-1.65,0-2,.41-1.35.54a5.75,5.75,0,0,1,1.42.39C179.73,158.65,179.77,159.21,179.79,159.76Z"/><path class="cls-8" d="M216.21,156.7c-.14-1.69-.31-2.62-.35-4.08s0-2.15.32-2.19.57.83.72,2.48.5,4.22,1.36,4.18,1.21-1.36,1.14-3a20,20,0,0,1,.25-5.37c.43-2,1.25-6,.68-8.88a11.35,11.35,0,0,1,.4-5.7,27.34,27.34,0,0,1,4.82.42c-4.67,19.64,1.51,18.29-1.14,32.89-2.58,14.24-.62,19.11-.53,19.33-.4,0-.82.11-1.26.2-2.69.55-13.65.6-19.74.53-2,0-3.48-.06-4-.09-1.18-.09-1.31-1.13-1-4.44.2-2.06.58-5,1-9.17,1.08-10.81,1-18.18-2.93-19a6.92,6.92,0,0,1-4.69-3h0c-1.72-2.6-2.65-7.34-1.66-16.13h0c4.9-.45,11.94-.87,18.38-1.16l3-.13a1.21,1.21,0,0,1-.09.2c-.86,1.93-3.07,5.44-4.08,7.48-.06.14-.13.29-.18.44-1.1,2.86-1.36,6.36-2.4,7.08s-2.18,2-1.32,2.43a3.63,3.63,0,0,0,2.94-.49c-.32,2.44-.31,5.51.32,7.05.75,1.82.9,2,1.68,1.86s1.18-.65.9-3.19a18.39,18.39,0,0,1,.46-5.73c.18-1.11.68-.64.57.36a28.62,28.62,0,0,0-.07,5.8c.29,1.76.54,4.47,2.08,4.15s1.07-2.29,1-3.93-.11-5-.07-6.2.68-1,.6.11a21.68,21.68,0,0,0,.29,4.83c.28,1,.57,3.11,1.65,2.87S216.36,158.38,216.21,156.7Z"/><path class="cls-2" d="M210.52,34.73s-2.29.25-1.81-4.14a4,4,0,0,0,1.91.14C210.53,32.19,210.48,33.52,210.52,34.73Z"/><path class="cls-2" d="M226.09,122.69c-1.91,4-3.51,7.24-4,8.27-.22.45-.44.89-.63,1.33,0,0-2.95.53,1.42-6.41,4.14-6.59,3.44-13.14,8.9-24.33.43-.88,2.64-4.54,2.22-5.42s-.85-3-.1-7c1.36-7.09-2.5-12.67,2.1-16A16,16,0,0,1,237.23,75c-1.08,8.09.48,15.24.05,19.11a41.86,41.86,0,0,1-1.32,6.23,32.29,32.29,0,0,1-1.66,4.79c-1,2.38-2.93,6.49-5,10.76C228.26,118.18,227.13,120.54,226.09,122.69Z"/><path class="cls-11" d="M180.83,268.41a36.33,36.33,0,0,0,6,.1c3.15-.39,16.57-2.29,17.93-2.1-2.69,2.11-4.81,2.11-5.13,3.73h0a36.51,36.51,0,0,0-6.13-.05c-3.77.24-10.64.53-15.22.29s-5.78-.57-5.78-1.47c0,0-.05-1.34,0-1.77C173.49,267.61,177.28,268.14,180.83,268.41Z"/><path class="cls-3" d="M215.23,42.42a5.86,5.86,0,0,1,2.5.49c5.4,1.93,15.27,4.94,16,12,2.74,5.54,2.64,11.43,3,14.9-2.14.94-3.94-2.37-4-7.31s-.58-10-5.16-11-6-2.43-5.29-3.57-.72-2.08-4.52-2.58-6.14-1.32-4.87-2.11A5.32,5.32,0,0,1,215.23,42.42Z"/><path class="cls-9" d="M210.68,255a2.23,2.23,0,0,1,1.92-.16c3.37.86,5.32,1.19,6.8,2.1s1,2.83-1.93,5.66h0a2.58,2.58,0,0,1-2.12,0,19.88,19.88,0,0,1-3.32-1.68,3.27,3.27,0,0,0-2.39-.57c.06-.55.08-1.13.1-1.69.06-1.58.11-3.06.94-3.65Z"/><path class="cls-1" d="M231.07,135.87c-.87,0-2.63-.84-5.52-1.35a36.49,36.49,0,0,0,.69-11.76l-.15-.07c1-2.15,2.17-4.51,3.26-6.82l.11,0c.39,9.82,2.54,17.91,2.26,19.48C231.65,135.75,231.44,135.88,231.07,135.87Z"/><circle class="cls-2" cx="190.19" cy="24.53" r="0.92"/><path class="cls-3" d="M220,91.72a17.68,17.68,0,0,1-.74,9.26.69.69,0,0,0-.05.13c-1.79,4.73-2.48,14.25-5.49,22.2-2.9,7.67-2,9.2-2.66,11l-3,.13c-2.4-1.15,4-4.58.65-6.52-3.94-2.21-10.26-5.83-7.47-17.72s4.41-16.38,1.47-23.47c-2.74-6.59,5.76-16.59,12.14-23.6a.79.79,0,0,1,1.36.46c.22,2.36,1.38,3.73,2.58,5.27,1.5,1.92-.89,6.26,1.19,8.13C219.78,79.61,219.32,87.81,220,91.72Z"/><path class="cls-5" d="M231.07,135.87c.36,1.11.57,4,0,7.91s-1,18.18-.64,28.7.64,13.82-.44,14.18a16.73,16.73,0,0,1-3.56,0,19.26,19.26,0,0,0-2.55.11c-.09-.22-2-5.09.53-19.33,2.65-14.6-3.53-13.25,1.14-32.89C228.44,135,230.2,135.84,231.07,135.87Z"/><path class="cls-10" d="M202.58,269a20,20,0,0,0-3,1.63,3.63,3.63,0,0,1,0-.5c.32-1.62,2.44-1.62,5.13-3.73,2.31-1.82,2.84-5.57,4.91-6.09a3.27,3.27,0,0,1,2.39.57,19.88,19.88,0,0,0,3.32,1.68c3.32,1.69,1,4.79-2,7s-5,2.44-5.15,1.68h0l-.15-.49C207.47,268.84,203.89,268.46,202.58,269Z"/><path class="cls-9" d="M180.11,262.57c1.37-.35,2.11-.58,2.2-.6a16.3,16.3,0,0,0-.75,2.08,17.4,17.4,0,0,0-.73,4.36c-3.55-.27-7.34-.8-8.39-1.28-.24-2.06,1.43-3,4.77-3.82C178.37,263,179.34,262.78,180.11,262.57Z"/><path class="cls-4" d="M212.38,23.15c1.19.14,1.9,1.14,1.48,3-.54,2.46-1.5,4.23-3.24,4.57a4,4,0,0,1-1.91-.14c-.48,4.39,1.81,4.14,1.81,4.14.13,3.69,1.17,6.2,4.71,7.69a5.32,5.32,0,0,0-2.35.74c-2,1.08-4.42,3.33-8.8,6.52-7.92,5.77-9,2.91-7.41,0-.27-.73-.83-1.78-1.4-3.09a19.14,19.14,0,0,1-1.4-4.58h0c1.58,2.33,5.19,2.42,7.19,1.71s3.23-4,1.85-3.41a19.43,19.43,0,0,1-8.24,1.79,6.52,6.52,0,0,1-.8-.09h0c-3.63-.59-4.33-4-5.2-6.44a16.58,16.58,0,0,1-1.17-7.71c.39-2.44-1-3.1-.34-5.87a23.34,23.34,0,0,0,.32-3.12c.17-2.15.61-4.18,3.38-4.69,4.15-.77,10.59-1.2,13.08-2.34s-1.39,6.44,2.82,7.44a4.93,4.93,0,0,0,2.43,5,6.2,6.2,0,0,1,2-1A3.48,3.48,0,0,1,212.38,23.15Z"/><path class="cls-12" d="M196,154.8c3.94.79,4,8.16,2.93,19-.41,4.16-.79,7.11-1,9.17h0a25.76,25.76,0,0,0-4.14.1s-1.93-3,.89-12.35-4.9-3.58-3.36-18.91A6.92,6.92,0,0,0,196,154.8Z"/><path class="cls-9" d="M194.59,252.52c.52-1.67.95-4.15,2.24-4a2.37,2.37,0,0,1,.73.24c1.5.75,3.53,3.24-.43,7.92h0C194.26,257.25,194.72,254.18,194.59,252.52Z"/><path class="cls-2" d="M204.29,149.54c1-.72,1.3-4.22,2.4-7.08-.72,2.08-.1,5.32-.57,7.69-.08.41-.15.85-.21,1.33A3.63,3.63,0,0,1,203,152C202.11,151.58,203.26,150.25,204.29,149.54Z"/><path class="cls-6" d="M211,17.66c.58-2.62-.38-4.72-1.81-5.53s-1.72-2.2.19-1.92c1.76.2,4.67,2.76,3,12.94a3.48,3.48,0,0,0-1.21.13C210.77,23,210.43,20.28,211,17.66Z"/><path class="cls-5" d="M193.77,183c-2.71.3-4.59,1-7.37,1.21l-.79.05c-4.51.21-7.66.64-7.3-.51s1.15-9.66,1.57-17.89a54.63,54.63,0,0,0-.08-6.14h0c0-.55-.06-1.11-.09-1.67,0-.31,0-.62-.06-.93-.06-.8-.11-1.62-.15-2.47a75.38,75.38,0,0,1,.1-10.33c0-.52.09-1.05.15-1.6.18-1.83.44-3.79.8-5.93h0c.14-.84,3.79-.73,4.64-.8.52-.05,1.2-.1,2.1-.16l2.36-.24h0c-1,8.79-.06,13.53,1.66,16.13h0c-1.54,15.33,6.18,9.53,3.36,18.91S193.77,183,193.77,183Z"/><path class="cls-6" d="M226.24,262.77l-1.82.05a3,3,0,0,0-.08-.56,16,16,0,0,1-.15-3.44C226.3,258.59,226.12,260.52,226.24,262.77Z"/><path class="cls-2" d="M180.54,136.83c-.36,2.14-.62,4.1-.8,5.93h0a7.32,7.32,0,0,0-.35-2.1,11.19,11.19,0,0,1-.46-6.26c.23.48.47,1,.71,1.43a2.48,2.48,0,0,0,.9,1Z"/><path class="cls-3" d="M226.24,122.76a36.49,36.49,0,0,1-.69,11.76,27.34,27.34,0,0,0-4.82-.42,18.5,18.5,0,0,1,.69-1.81c.19-.44.41-.88.63-1.33.53-1,2.13-4.31,4-8.27Z"/><path class="cls-11" d="M197.13,256.67c4-4.68,1.93-7.17.43-7.92a36.35,36.35,0,0,0-.08-4.26c3.23.09,10.42.54,12.85,1.5h0a62,62,0,0,0,.31,9h0c-.83.59-.88,2.07-.94,3.65-2.93,2.24-5.47.57-7-.24s-1.62-3-5.11-1.86A5,5,0,0,1,197.13,256.67Z"/><path class="cls-2" d="M194.68,42.1a19.43,19.43,0,0,0,8.24-1.79c1.38-.58.16,2.69-1.85,3.41s-5.61.62-7.19-1.71A6.52,6.52,0,0,0,194.68,42.1Z"/><path class="cls-1" d="M236,73.14c-1.42-1.69-3.13-1.89-8.61,0-5.8,1.93-7.3,1.72-7.37,3.15,0,.13,0,.37,0,.68-2.08-1.87.31-6.21-1.19-8.13-1.2-1.54-2.36-2.91-2.58-5.27a.79.79,0,0,0-1.36-.46c-6.38,7-14.88,17-12.14,23.6,2.94,7.09,1.32,11.59-1.47,23.47s3.53,15.51,7.47,17.72c3.36,1.94-3,5.37-.65,6.52-6.44.29-13.48.71-18.38,1.16l-2.36.24c-.9.06-1.58.11-2.1.16-.85.07-4.5,0-4.64.8h0a2.48,2.48,0,0,1-.9-1c-.24-.47-.48-1-.71-1.43a57.82,57.82,0,0,1-3.48-8.43h0a25.89,25.89,0,0,1-1.16-6.15c-1-17.79,6.47-32.42,6.62-37.22s1.85-13.64,1.71-19.22,6.58-8.59,14.06-13.7c-1.61,2.91-.51,5.77,7.41,0,4.38-3.19,6.8-5.44,8.8-6.52-1.27.79,1.08,1.61,4.87,2.11s5.23,1.43,4.52,2.58.71,2.5,5.29,3.57,5.09,6.09,5.16,11,1.87,8.25,4,7.31a7.78,7.78,0,0,0,.5,2.28c.86,1.86.5,2.65,0,2.94A16,16,0,0,0,236,73.14Z"/><path class="cls-7" d="M226.77,271.27c.22,1.51.72,3.23-.71,3.8s-3.08.43-8,2.58c-6.94,2.5-21.5.93-21.83,0,0,0-.58-2.22.35-2.58,3,.75,7.66.83,12,.74l3-.09c5-.2,6.1-1.1,9.59-2.77S226,271.61,226.77,271.27Z"/><path class="cls-4" d="M177.4,159.54a2.49,2.49,0,0,1,0,.49c0,1.39-1.46.14-2.85-.58a20.34,20.34,0,0,1-3.44-2.32c-1.25-1-.48-2.88-.81-5s-.91-2.69,0-4.55,1-10.5,3.85-17.85c.42-1.1.83-2.36,1.25-3.75a57.82,57.82,0,0,0,3.48,8.43,11.19,11.19,0,0,0,.46,6.26,7.32,7.32,0,0,1,.35,2.1h0c-.06.55-.11,1.08-.15,1.6h0a7.2,7.2,0,0,1-1.31,2.93c-1.1,1.44-.51,3.71-.84,5.43a4.79,4.79,0,0,1-.23.8,2,2,0,0,1-2.31,1.35c-1.19-.17-.24-2.93,0-4.94a3.31,3.31,0,0,0-.14-1.5c-.43-2.22-2.5-.14-2.15,1.36.55,2.3-.35,5.15,0,5.51S176,156.66,177.4,159.54Z"/><path class="cls-2" d="M273.84,23.61a.92.92,0,1,1,0,1.84.92.92,0,0,1,0-1.84Z"/><path class="cls-4" d="M306.48,125.88c-4.37,6.94-1.42,6.41-1.42,6.41l.05,0a10.22,10.22,0,0,0-.5,1.79,14.92,14.92,0,0,0,.21,5.77c.57,2.9-.72,7.41-1.15,9.45a16.54,16.54,0,0,0-.62,4.73c.07,1.68-.29,3-1.15,3s-1.22-2.54-1.36-4.18-.24-2.59-.72-2.48-.14.76-.11,2.23.21,2.35.36,4-.06,2.5-1.14,2.76-1.36-1.83-1.65-2.87a22.29,22.29,0,0,1-.28-4.83c.07-1.07-.58-1.33-.61-.11s0,4.55.07,6.2.57,3.61-1,3.93-1.78-2.39-2.07-4.15a27.23,27.23,0,0,1,.07-5.8c.11-1-.39-1.47-.57-.36a19.48,19.48,0,0,0-.27,5.68c.28,2.54-.31,3.06-1.09,3.24s-1.08-.51-1.69-1.86c-.68-1.52-.65-4.6-.32-7.05.06-.48.14-.92.22-1.33.46-2.37-.16-5.61.57-7.69a3.38,3.38,0,0,1,.18-.44c1-2,3.22-5.55,4.08-7.48a1.19,1.19,0,0,0,.08-.2c.71-1.83-.24-3.36,2.67-11,3-8,1.81-15.79,3.6-20.52a.58.58,0,0,1,.05-.14c1.13-3,.41-6-.12-9.19-.65-3.92-.11-12.73.05-15.42h0c0-.32,0-.55,0-.68.07-1.42,4.22-2.24,10-4.17,5.48-1.94,7.2-1.74,8.61,0-4.6,3.35-2.9,11.7-3.35,19-.25,4,1.14,5.88-.86,9.36C309.16,112.33,310.63,119.29,306.48,125.88Z"/><path class="cls-11" d="M264.47,268.41a36.45,36.45,0,0,0,6,.1c3.15-.39,16.56-2.29,17.92-2.1-2.69,2.11-4.8,2.11-5.12,3.73h0a36.45,36.45,0,0,0-6.13-.05c-3.77.24-10.64.53-15.22.29s-5.78-.57-5.78-1.47c0,0-.05-1.34,0-1.77C257.14,267.61,260.92,268.14,264.47,268.41Z"/><path class="cls-8" d="M297.28,156.59c.29,1,.58,3.11,1.65,2.87s1.28-1.08,1.14-2.76-.32-2.57-.36-4-.23-2.15.11-2.23.58.83.72,2.48.5,4.22,1.36,4.18,1.22-1.36,1.15-3a16.54,16.54,0,0,1,.62-4.73c.43-2,1.72-6.55,1.15-9.45a14.92,14.92,0,0,1-.21-5.77,31.31,31.31,0,0,1,4.59.41h0c-4.67,19.64,1.51,18.29-1.14,32.89-2.59,14.24-.63,19.11-.53,19.33-.41,0-.83.11-1.26.2-2.69.55-13.66.6-19.74.53-2,0-3.48-.06-4-.09-1.18-.09-1.32-1.13-1-4.44.21-2.06.59-5,1-9.17,1.07-10.81,1-18.18-2.93-19a6.94,6.94,0,0,1-4.7-3h0c-1.72-2.6-2.65-7.34-1.66-16.13h0c4.9-.45,11.94-.87,18.38-1.16l3-.13a1.19,1.19,0,0,1-.08.2c-.86,1.93-3.08,5.44-4.08,7.48a3.38,3.38,0,0,0-.18.44c-1.11,2.86-1.8,6.14-2.34,6.74-.86.93-2.24,2.38-1.38,2.77a3.61,3.61,0,0,0,2.93-.49c-.33,2.45-.36,5.53.32,7.05.61,1.35.9,2,1.69,1.86s1.37-.7,1.09-3.24a19.48,19.48,0,0,1,.27-5.68c.18-1.11.68-.64.57.36a27.23,27.23,0,0,0-.07,5.8c.29,1.76.53,4.47,2.07,4.15s1.07-2.29,1-3.93-.11-5-.07-6.2.68-1,.61.11A22.29,22.29,0,0,0,297.28,156.59Z"/><path class="cls-2" d="M305.7,131a9.88,9.88,0,0,0-.59,1.35l-.05,0s-2.95.53,1.42-6.41c4.15-6.59,2.68-13.55,8.91-24.33,2-3.48.61-5.35.86-9.36.45-7.35-1.25-15.7,3.35-19A16,16,0,0,1,320.87,75c-1.07,8.09.48,15.24.05,19.11a39.46,39.46,0,0,1-1.32,6.23,33.44,33.44,0,0,1-1.65,4.79c-.73,1.71-1.93,4.33-3.3,7.24h0c-1.56,3.33-3.35,7.06-4.92,10.33C307.82,126.65,306.22,129.93,305.7,131Z"/><path class="cls-2" d="M278.33,42.1a19.49,19.49,0,0,0,8.24-1.79c1.37-.58-.9,3.35-2.91,4.06a6.87,6.87,0,0,1-7.16-2.49v-.06A9.41,9.41,0,0,0,278.33,42.1Z"/><path class="cls-5" d="M274.94,151.78c-1.53,15.33,6.19,9.53,3.37,18.91s-.9,12.35-.9,12.35c-3,.33-4.92,1.1-8.15,1.26l-.84,0c-4.06.22-6.8.53-6.46-.55s1.14-9.66,1.57-17.89c.1-2.05.06-4.06,0-6.15,0-.53-.05-1.08-.07-1.63,0-.31,0-.63-.05-1,0-.8-.07-1.63-.1-2.48a88.57,88.57,0,0,1,.25-10.9c.2-2.28.5-4.76,1-7.51,0,0,3.53-.18,4.45-.26.5-.05,1.15-.1,2-.15l2.35-.24h0c-1,8.79-.06,13.53,1.66,16.13Z"/><path class="cls-2" d="M264.51,136.28c-.47,2.75-.77,5.23-1,7.51h-.11a6.94,6.94,0,0,0-.4-3.12,11.11,11.11,0,0,1-.57-5.75A16.25,16.25,0,0,0,264.51,136.28Z"/><path class="cls-10" d="M283.25,270.14c.32-1.62,2.43-1.62,5.12-3.73,2.31-1.82,2.85-5.57,4.91-6.09a3.25,3.25,0,0,1,2.39.57,19.5,19.5,0,0,0,3.33,1.68c3.31,1.69.94,4.79-2,7s-5,2.44-5.15,1.68h0a4.58,4.58,0,0,0-.15-.49c-.62-1.94-4.19-2.32-5.51-1.77a20.54,20.54,0,0,0-3,1.63A2.47,2.47,0,0,1,283.25,270.14Z"/><path class="cls-1" d="M320.87,72c.86,1.86.5,2.65,0,2.94a16,16,0,0,0-1.27-1.84c-1.41-1.69-3.13-1.89-8.61,0-5.8,1.93-9.95,2.75-10,4.17,0,.13,0,.36,0,.68-2.07-1.88.32-6.2-1.18-8.12-1-1.31-.79-3-.42-5a.89.89,0,0,0-1.58-.7c-6.24,8.39-13.86,24.88-11.22,31.24,2.93,7.08-2.62,10.45-5.4,22.33s8.13,15.55,10.53,16.7c-6.44.29-13.48.71-18.38,1.16l-2.35.24c-.82,0-1.47.1-2,.15-.92.08-4.45.26-4.45.26a16.25,16.25,0,0,1-2.05-1.37,25.19,25.19,0,0,1-4.74-4.89,19.73,19.73,0,0,1-4.22-11.63c0-15.17,5.95-27.66,10.68-51.54,1.33-6.73,8.66-12.06,16.14-17.17-1.61,2.91-.52,5.77,7.4,0,4.39-3.19,6.8-5.44,8.8-6.52-1.26.79,1.09,1.61,4.88,2.11s5.23,1.43,4.51,2.58.72,2.5,5.3,3.57,5.08,6.09,5.15,11,1.87,8.24,4,7.31A7.78,7.78,0,0,0,320.87,72Z"/><path class="cls-9" d="M283.21,270.64a20.54,20.54,0,0,1,3-1.63c1.32-.55,4.89-.17,5.51,1.77a4.58,4.58,0,0,1,.15.49h0c.5,1.86.6,4.13.34,4.53-4.36.09-9.06,0-12-.74C280.25,273.32,281.37,271.88,283.21,270.64Z"/><path class="cls-9" d="M294.33,255a2.22,2.22,0,0,1,1.92-.16c3.36.86,5.31,1.19,6.8,2.1s1,2.83-1.93,5.66h0a2.55,2.55,0,0,1-2.11,0,19.5,19.5,0,0,1-3.33-1.68,3.25,3.25,0,0,0-2.39-.57c.06-.55.08-1.12.1-1.68.06-1.58.11-3.07.95-3.66Z"/><path class="cls-4" d="M260.86,153.52a2,2,0,0,1-2.32,1.35c-.44-.06-.59-.48-.59-1.09,0-1,.43-2.59.57-3.85a3.16,3.16,0,0,0-.15-1.5c-.43-2.22-2.5-.14-2.14,1.36a15.9,15.9,0,0,1,.24,4c0,.76,0,1.31.13,1.46.36.35,3.06,1.43,4.45,4.31,0,.15,0,.31,0,.49,0,1.39-1.77.23-3.16-.49a19.13,19.13,0,0,1-3.44-2.2c-1.25-1-.76-2.94-1-5.08s-.6-3.11.31-5,1.2-10,3.9-17.26h0a25.19,25.19,0,0,0,4.74,4.89,11.11,11.11,0,0,0,.57,5.75,6.94,6.94,0,0,1,.4,3.12c-.21,1.53-1.08,2.41-1.51,3.51-.62,1.62-.51,3.71-.83,5.43A4.79,4.79,0,0,1,260.86,153.52Z"/><path class="cls-3" d="M300.88,93.46c.53,3.18,1.25,6.16.12,9.19a.58.58,0,0,0-.05.14c-1.79,4.73-.6,12.57-3.6,20.52-2.91,7.67-2,9.2-2.67,11l-3,.13c-2.4-1.15-13.33-4.81-10.53-16.7s8.33-15.25,5.4-22.33c-2.64-6.36,5-22.85,11.22-31.24a.89.89,0,0,1,1.58.7c-.37,2.07-.59,3.71.42,5,1.5,1.92-.89,6.24,1.18,8.12h0C300.77,80.73,300.23,89.54,300.88,93.46Z"/><path class="cls-9" d="M263.76,262.57c1.36-.35,2.1-.58,2.19-.6a18.31,18.31,0,0,0-.75,2.08,17,17,0,0,0-.73,4.36c-3.55-.27-7.33-.8-8.39-1.28-.23-2.06,1.43-3,4.78-3.82C262,263,263,262.78,263.76,262.57Z"/><path class="cls-6" d="M293,10.21c1.77.2,4.67,2.76,3,12.94a3.53,3.53,0,0,0-1.21.13c-.4-.29-.73-3-.17-5.62s-.38-4.72-1.81-5.53S291.11,9.93,293,10.21Z"/><path class="cls-9" d="M278.23,252.52c.52-1.67.95-4.15,2.24-4a2.51,2.51,0,0,1,.74.24c1.5.75,3.53,3.26-.44,7.93C277.91,257.25,278.37,254.18,278.23,252.52Z"/><path class="cls-12" d="M279.64,154.8c3.93.79,4,8.16,2.93,19-.41,4.16-.79,7.11-1,9.17h0a25.76,25.76,0,0,0-4.14.1s-1.92-3,.9-12.35-4.9-3.58-3.37-18.91A6.94,6.94,0,0,0,279.64,154.8Z"/><path class="cls-10" d="M266,262c-.09,0-.83.25-2.19.6-.13-1,2.06-.79,4.88-2.7s9.45-9.12,9.59-7.35-.32,4.73,2.54,4.16c1.09,1.95,2.23,2.52-1.4,3.57s-12.63,3.83-14.17,3.8A18.31,18.31,0,0,1,266,262Z"/><path class="cls-2" d="M258.52,149.93c-.14,1.26-.57,2.83-.57,3.85h-1.48a15.9,15.9,0,0,0-.24-4c-.36-1.5,1.71-3.58,2.14-1.36A3.16,3.16,0,0,1,258.52,149.93Z"/><path class="cls-4" d="M307.53,186.74a22.66,22.66,0,0,1,4.28,0c1.58,6-.58,8.8,1.34,13.57s3.26,14.39.69,28.42c-1.91,10.38-3.85,18.12-4.81,21.91-4.45.42-9.83-1.52-11.88-2.36A95.26,95.26,0,0,0,296,228.89q-.66-4.45-1.71-9.38c-3.05-14.17-6.94-28.79-7.78-32,6.08.07,17.05,0,19.74-.53C306.7,186.85,307.12,186.79,307.53,186.74Z"/><path class="cls-4" d="M294.81,23.28a3.53,3.53,0,0,1,1.21-.13c1.19.14,1.9,1.14,1.49,3-.54,2.46-1.5,4.23-3.24,4.57a4.06,4.06,0,0,1-1.92-.14c-.47,4.39,1.82,4.14,1.82,4.14.12,3.69,1.16,6.2,4.7,7.69a5.32,5.32,0,0,0-2.35.74c-2,1.08-4.41,3.33-8.8,6.52-7.92,5.77-9,2.91-7.4,0a11.24,11.24,0,0,1-2.17-3,15.51,15.51,0,0,1-1.65-4.79,6.87,6.87,0,0,0,7.16,2.49c2-.71,4.28-4.64,2.91-4.06a19.49,19.49,0,0,1-8.24,1.79,9.41,9.41,0,0,1-1.82-.28c-3.09-.82-4.25-3.17-5.22-5.47-1.24-2.91-.8-11.54-.49-14.36.11-1,.1-2.17.2-3.28.18-2.09.8-4,3.5-4.53,4.16-.77,10.6-1.2,13.08-2.34s-1.38,6.44,2.82,7.44a4.94,4.94,0,0,0,2.43,5A6.2,6.2,0,0,1,294.81,23.28Zm-11.7,0a.92.92,0,1,0-.92.92A.92.92,0,0,0,283.11,23.28Z"/><path class="cls-2" d="M288,149.2c.54-.6,1.23-3.88,2.34-6.74-.73,2.08-.11,5.32-.57,7.69-.08.41-.16.85-.22,1.33a3.61,3.61,0,0,1-2.93.49C285.76,151.58,287.14,150.13,288,149.2Z"/><path class="cls-5" d="M316.2,136.1c.36,1.1.57,4,0,7.91s-2.49,18-2.13,28.47.64,13.82-.43,14.18a6,6,0,0,1-1.83.06,22.66,22.66,0,0,0-4.28,0c-.1-.22-2.06-5.09.53-19.33,2.65-14.6-3.53-13.25,1.14-32.89,3.49.58,5.91,1.6,7,1.56Z"/><path class="cls-3" d="M298.87,42.42a5.91,5.91,0,0,1,2.51.49c5.39,1.93,15.27,4.94,16,12,2.74,5.54,2.64,11.43,3,14.9-2.14.93-3.94-2.37-4-7.31s-.57-10-5.15-11-6-2.43-5.3-3.57-.72-2.08-4.51-2.58-6.14-1.32-4.88-2.11A5.32,5.32,0,0,1,298.87,42.42Z"/><path class="cls-6" d="M306,263c1.09,1.09,2.18,1.27,2.08-.15l1.83-.05c0,.39.05.8.1,1.2.36,2.72,1.29,4.44.43,7.3-.79.34-2.12,0-5.61,1.68s-4.53,2.57-9.58,2.77l-3,.09c.26-.4.16-2.67-.34-4.53.19.76,2.25.56,5.15-1.68s5.28-5.34,2-7a2.55,2.55,0,0,0,2.11,0h0l.85-.38A3.07,3.07,0,0,1,306,263Z"/><path class="cls-10" d="M274.5,14.18c-2.7.5-3.32,2.44-3.5,4.53h0c-.72-2.22.48-3.83-.06-6.2-.58-2.53.86-5.59,3.24-4.87a3.27,3.27,0,0,1,3.72-2.2c1-1.67,10.17-2.77,12,1.86,1.92-.86,3.3,1.24,3.15,2.91-1.91-.28-1.62,1.1-.19,1.92s2.39,2.91,1.81,5.53-.23,5.33.17,5.62a6.2,6.2,0,0,0-2,1,4.94,4.94,0,0,1-2.43-5c-4.2-1-.33-8.59-2.82-7.44S278.66,13.41,274.5,14.18Z"/><path class="cls-2" d="M294.31,219.51q1.05,4.92,1.71,9.38a114.9,114.9,0,0,0-2,17.1h0c-2.43-1-9.62-1.41-12.84-1.5-.73-10.22-4.66-24-4.72-30.74-.07-7.73-.83-9.45-2.07-13.27s-4-7.41-5.92-16.14l.84,0c3.23-.16,5.19-.93,8.15-1.26a25.76,25.76,0,0,1,4.14-.1h0c-.32,3.31-.18,4.35,1,4.44.48,0,1.95.07,4,.09C287.37,190.72,291.26,205.34,294.31,219.51Z"/><path class="cls-1" d="M314.65,112.36c.4,9.81,3.6,15.63,2.19,23.28-.06.3-.27.43-.64.44-1.09,0-3.51-1-7-1.56h0a36.58,36.58,0,0,0,.68-11.75l-.15-.07C311.3,119.42,313.09,115.69,314.65,112.36Z"/><path class="cls-7" d="M310.42,271.27c.21,1.51.72,3.23-.71,3.8s-3.08.43-8,2.58c-6.95,2.5-21.51.93-21.84,0,0,0-.57-2.22.36-2.58,3,.75,7.65.83,12,.74l3-.09c5-.2,6.1-1.1,9.58-2.77S309.63,271.61,310.42,271.27Z"/><path class="cls-3" d="M309.88,122.76a36.58,36.58,0,0,1-.68,11.75,31.31,31.31,0,0,0-4.59-.41,10.22,10.22,0,0,1,.5-1.79,9.88,9.88,0,0,1,.59-1.35c.52-1,2.12-4.31,4-8.27Z"/><path class="cls-2" d="M294.17,34.73s-2.29.25-1.82-4.14a4.06,4.06,0,0,0,1.92.14A37.08,37.08,0,0,0,294.17,34.73Z"/><path class="cls-6" d="M286.44,258.39c1.48.81,4,2.48,6.94.25,0,.56,0,1.13-.1,1.68-2.06.52-2.6,4.27-4.91,6.09-1.36-.19-14.77,1.71-17.92,2.1a36.45,36.45,0,0,1-6-.1,17,17,0,0,1,.73-4.36c1.54,0,10.55-2.75,14.17-3.8s2.49-1.62,1.4-3.57l.56-.15C284.81,255.43,285,257.58,286.44,258.39Z"/><path class="cls-4" d="M282.19,22.37a.92.92,0,1,1-.91.91A.92.92,0,0,1,282.19,22.37Z"/><path class="cls-6" d="M309.89,262.77l-1.83.05a3,3,0,0,0-.07-.56,15.28,15.28,0,0,1-.16-3.44C309.94,258.59,309.77,260.52,309.89,262.77Z"/><path class="cls-7" d="M306,263a3.07,3.07,0,0,0-4-.78l-.85.38c3-2.83,3.41-4.76,1.93-5.66s-3.44-1.24-6.8-2.1a39.4,39.4,0,0,0,.9-6.55c2.05.84,7.43,2.78,11.88,2.36-.35,1.34-.56,2.18-.62,2.47a46,46,0,0,0-.58,5.73,15.28,15.28,0,0,0,.16,3.44,3,3,0,0,1,.07.56C308.16,264.24,307.07,264.06,306,263Z"/><path class="cls-11" d="M286.44,258.39c-1.48-.81-1.63-3-5.11-1.86l-.56.15c4-4.67,1.94-7.18.44-7.93a38.68,38.68,0,0,0-.08-4.26c3.22.09,10.41.54,12.84,1.5h0a61.94,61.94,0,0,0,.32,9h0c-.84.59-.89,2.08-.95,3.66C290.45,260.87,287.92,259.2,286.44,258.39Z"/><path class="cls-2" d="M263.5,159.75a8.68,8.68,0,0,1-2.45-.21c-1.39-2.88-4.09-4-4.45-4.31-.15-.15-.15-.7-.13-1.46H258c0,.61.15,1,.59,1.09a2,2,0,0,0,2.32-1.35,5.69,5.69,0,0,1,1.41,1.24,9,9,0,0,1,1-.07c0,.85.06,1.68.1,2.48-1.74-.07-2.16.4-1.47.53a6.37,6.37,0,0,1,1.52.42c0,.55,0,1.1.07,1.63Z"/><circle class="cls-2" cx="367.35" cy="23.28" r="0.92"/><path class="cls-9" d="M377.05,271.28a.06.06,0,0,0,0,0c.48,1.86.58,4.09.32,4.49-4.36.09-9.06,0-12-.74.05-1.76,1.17-3.19,3-4.43a20,20,0,0,1,3-1.63c1.31-.55,4.9-.17,5.52,1.77Z"/><path class="cls-3" d="M385.25,77.7c-1.39,13.69,2,22,.91,25a1.21,1.21,0,0,1-.05.14c-1.79,4.73-.6,12.57-3.6,20.52-2.9,7.67-2,9.2-2.67,11-2.82.11-5.85.26-8.83.42h0c-2.41-1.16-9.93-5.44-8.31-15.08,2-12,11.92-17.16,9-24.24-2.52-6.12,4.41-21.59,10.5-30.23a1.29,1.29,0,0,1,2.34.87C384.1,70.53,383.8,76.23,385.25,77.7Z"/><path class="cls-5" d="M401.36,136.1c.36,1.1.57,4,0,7.91s-2.49,18-2.13,28.47.65,13.82-.43,14.18a2.14,2.14,0,0,1-.62.09,42.1,42.1,0,0,0-5.5,0c-.09-.22-2.05-5.09.54-19.33,2.65-14.6-3.53-13.25,1.13-32.89h0c3.51.59,5.91,1.61,7,1.55Z"/><path class="cls-11" d="M379.65,246.05a79.42,79.42,0,0,0,.51,8.65c-1.48.22-1.54,2-1.61,3.93-2.93,2.24-5.47.57-6.95-.24s-1.62-3-5.11-1.86a5,5,0,0,1-.55.14c3.95-4.67,1.94-7.17.43-7.92a36.46,36.46,0,0,0-.09-4.26C369.52,244.58,377.21,245.09,379.65,246.05Z"/><path class="cls-9" d="M381.41,254.81c3.36.86,5.32,1.19,6.8,2.1s1,2.83-1.94,5.66a2.62,2.62,0,0,1-2.12,0,20.72,20.72,0,0,1-3.31-1.68,3.29,3.29,0,0,0-2.4-.57c.07-.55.09-1.13.11-1.69.07-1.92.13-3.71,1.61-3.93A3.19,3.19,0,0,1,381.41,254.81Z"/><path class="cls-1" d="M404.77,73.14c-1.43-1.69-3.14-1.89-8.62,0-5.79,1.93-10.67,2.45-10.83,3.87,0,.21-.05.43-.07.64-1.45-1.47-1.15-7.17-.73-11.62a1.29,1.29,0,0,0-2.34-.87c-6.09,8.64-13,24.11-10.5,30.23,2.94,7.08-6.95,12.21-9,24.24-1.62,9.64,5.9,13.92,8.31,15.08-4.62.25-9.12.55-12.56.87l-2.36.24c-.83,0-1.47.1-2,.15-.91.08-10.26.7-10.26.7a17.22,17.22,0,0,1-2.48-1.68c-3.59-2.92-6.83-8.14-6.21-18.32.93-15.15,3-23.54,10.17-46.8,2.29-7.41,11.64-14.67,19.12-19.78-1.61,2.91.52,5.31,8.44-.46,4.38-3.19,6.8-5.44,8.79-6.52-1.26.79,1.08,1.61,4.88,2.11s5.23,1.43,4.51,2.58.72,2.5,5.3,3.57,5.08,6.09,5.15,11,1.88,8.24,4,7.31A7.5,7.5,0,0,0,406,72c.86,1.86.5,2.65,0,2.94A16.09,16.09,0,0,0,404.77,73.14Z"/><path class="cls-4" d="M385.25,77.7c0-.21,0-.43.07-.64.16-1.42,5-1.94,10.83-3.87,5.48-1.94,7.19-1.74,8.62,0-4.61,3.35-2.91,11.7-3.36,19-.25,4,1.14,5.88-.86,9.36-6.22,10.78-4.76,17.74-8.91,24.33-4.36,6.94-.57,7-.57,7-.2.43-.36.85-.51,1.27a10.48,10.48,0,0,0-.58,5.75c.57,2.9-.72,7.41-1.15,9.45a16.91,16.91,0,0,0-.62,4.73c.07,1.68-.29,3-1.15,3s-1.22-2.54-1.36-4.18-.23-2.59-.71-2.48-.16.76-.12,2.23.22,2.35.36,4-.07,2.5-1.14,2.76-1.36-1.83-1.64-2.87a21.1,21.1,0,0,1-.29-4.83c.07-1.07-.57-1.33-.61-.11s0,4.55.07,6.2.57,3.61-1,3.93-1.8-2.39-2.08-4.15a27.23,27.23,0,0,1,.07-5.8c.11-1-.39-1.47-.58-.36a19.93,19.93,0,0,0-.26,5.68c.28,2.54-.3,3.06-1.09,3.24s-1.08-.51-1.68-1.86c-.68-1.52-.65-4.6-.33-7.05.06-.47.14-.92.22-1.33.47-2.37-.15-5.61.57-7.69a3.38,3.38,0,0,1,.18-.44c1-2,3.22-5.55,4.08-7.48,0-.06.05-.13.08-.2.71-1.83-.23-3.36,2.67-11,3-8,1.81-15.79,3.6-20.52a1.21,1.21,0,0,0,.05-.14C387.27,99.66,383.86,91.39,385.25,77.7Z"/><path class="cls-3" d="M394.35,134.51a31.63,31.63,0,0,0-3.79-.39h0c.15-.42.31-.84.51-1.27s.52-1.13.81-1.71c.47-.91,1.73-3.5,3.3-6.76A36.15,36.15,0,0,1,394.35,134.51Z"/><path class="cls-10" d="M378.18,10.21c-1.9-.28-1.62,1.1-.19,1.92s2.39,2.91,1.82,5.53-.23,5.33.17,5.62a6.34,6.34,0,0,0-2,1,4.93,4.93,0,0,1-2.43-5c-4.2-1-.34-8.59-2.81-7.44s-8.93,1.57-13.08,2.34c-2.61.48-3.42,2.27-3.73,4.25-.72-2.21.69-3.55.15-5.92-.57-2.53.86-5.59,3.24-4.87a3.27,3.27,0,0,1,3.73-2.2c.95-1.67,10.16-2.77,12,1.86C376.94,6.44,378.33,8.54,378.18,10.21Z"/><path class="cls-8" d="M384.09,159.46c1.07-.26,1.28-1.08,1.14-2.76s-.33-2.57-.36-4-.24-2.15.12-2.23.57.83.71,2.48.5,4.22,1.36,4.18,1.22-1.36,1.15-3a16.91,16.91,0,0,1,.62-4.73c.43-2,1.72-6.55,1.15-9.45a10.48,10.48,0,0,1,.58-5.75h0a31.63,31.63,0,0,1,3.79.39h0c-4.66,19.64,1.52,18.29-1.13,32.89-2.59,14.24-.63,19.11-.54,19.33-.4,0-.82.12-1.25.2-2.7.55-13.67.6-19.75.53-2,0-3.47-.06-3.95-.09-1.19-.09-1.32-1.13-1-4.44.2-2.06.58-5,1-9.17,1.08-10.81,1-18.18-2.93-19a6.9,6.9,0,0,1-4.69-3h0c-1.73-2.6-2.66-7.34-1.66-16.13h0c3.44-.32,7.94-.62,12.56-.87h0c3-.16,6-.31,8.83-.42,0,.07,0,.14-.08.2-.86,1.93-3.08,5.44-4.08,7.48a3.38,3.38,0,0,0-.18.44h0c-1.1,2.86-1.79,6.14-2.34,6.74-.85.93-2.23,2.38-1.37,2.77a3.62,3.62,0,0,0,2.93-.49c-.32,2.45-.35,5.53.33,7.05.6,1.35.89,2,1.68,1.86s1.37-.7,1.09-3.24a19.93,19.93,0,0,1,.26-5.68c.19-1.11.69-.64.58.36a27.23,27.23,0,0,0-.07,5.8c.28,1.76.54,4.47,2.08,4.15s1.07-2.29,1-3.93-.1-5-.07-6.2.68-1,.61.11a21.1,21.1,0,0,0,.29,4.83C382.73,157.63,383,159.7,384.09,159.46Z"/><path class="cls-4" d="M392.68,186.74a42.1,42.1,0,0,1,5.5,0c1.58,6-.3,8.76.89,13.76,1.3,5.45,2.51,14.17-.07,28.2-1.94,10.59-3.26,18.21-3.86,21.8-4.45.42-10.77-1.41-12.84-2.25a94.29,94.29,0,0,0-1.11-19.36c-.44-3-1-6.11-1.72-9.39-3-14.17-6.93-28.79-7.79-32,6.08.07,17.05,0,19.75-.53C391.86,186.86,392.28,186.79,392.68,186.74Z"/><path class="cls-7" d="M395.58,271.27c.22,1.51.71,3.23-.72,3.8s-3.07.43-8,2.58c-6.93,2.5-21.49.93-21.83,0,0,0-.57-2.22.36-2.58,2.95.75,7.65.83,12,.74l3-.09c5.06-.2,6.11-1.1,9.6-2.77S394.79,271.61,395.58,271.27Z"/><path class="cls-12" d="M364.8,154.8c3.94.79,4,8.16,2.93,19-.41,4.16-.79,7.11-1,9.17h0a25.76,25.76,0,0,0-4.14.1s-1.92-3,.89-12.35-4.89-3.58-3.35-18.91A6.9,6.9,0,0,0,364.8,154.8Z"/><path class="cls-5" d="M343.16,159.58c-.4-6-1-13,.69-22.86,0,0,9.35-.62,10.26-.7.51-.05,1.15-.1,2-.15l2.36-.24h0c-1,8.79-.07,13.53,1.66,16.13h0c-1.54,15.33,6.17,9.53,3.35,18.91s-.89,12.35-.89,12.35c-2.95.33-4.93,1.1-8.15,1.26-.71,0-1.5.09-2.32.16-4.37.37-9.67,1.06-9.37.1.36-1.15.21-8.91.64-17.15A65.37,65.37,0,0,0,343.16,159.58Z"/><path class="cls-7" d="M386.27,262.57c3-2.83,3.41-4.76,1.94-5.66s-3.44-1.24-6.8-2.1a39.48,39.48,0,0,0,.89-6.55c2.07.84,8.39,2.67,12.84,2.25-.2,1.16-.32,1.9-.37,2.18a23.63,23.63,0,0,0,.21,8.66,1.64,1.64,0,0,1,0,.62c-.24,1.54-2.77,2.09-3.86,1a3.07,3.07,0,0,0-4-.78C386.81,262.34,386.53,262.47,386.27,262.57Z"/><path class="cls-6" d="M380,23.28c-.4-.29-.75-3-.17-5.62s-.38-4.72-1.82-5.53-1.71-2.2.19-1.92,4.67,2.76,3,13A3.26,3.26,0,0,0,380,23.28Z"/><path class="cls-2" d="M406,75c-1.07,8.09,1.35,17.76-.44,25.8a27.12,27.12,0,0,1-1.65,4.79c-.76,1.76-2,4.44-3.37,7.42-1.74,3.73-3.73,7.93-5.39,11.38h0c-1.57,3.26-2.83,5.85-3.3,6.76-.29.58-.57,1.15-.81,1.71,0,0-3.79,0,.57-7,4.15-6.59,2.69-13.55,8.91-24.33,2-3.48.61-5.35.86-9.36.45-7.35-1.25-15.7,3.36-19A16.09,16.09,0,0,1,406,75Z"/><path class="cls-4" d="M380,23.28a3.26,3.26,0,0,1,1.21-.12c1.19.14,1.89,1.13,1.48,3-.54,2.46-1.5,4.23-3.24,4.57a4,4,0,0,1-1.91-.14c-.48,4.39,1.8,4.14,1.8,4.14h0c.13,3.69,1.16,6.2,4.71,7.69a5.4,5.4,0,0,0-2.36.74c-2,1.08-4.41,3.33-8.79,6.52-7.92,5.77-10.05,3.37-8.44.46a7.89,7.89,0,0,1-1.66-3.24,37.77,37.77,0,0,1-1.14-5,6.9,6.9,0,0,0,7.18,2.49c2-.71,4.28-4.64,2.9-4.06a19.5,19.5,0,0,1-8.25,1.79,11,11,0,0,1-1.82-.25,6.91,6.91,0,0,1-5.51-5.27c-.89-3-.83-11.87-.52-14.69.11-1.06.13-2.29.31-3.45h0c.31-2,1.12-3.77,3.73-4.25,4.15-.77,10.59-1.2,13.08-2.34s-1.39,6.44,2.81,7.44a4.93,4.93,0,0,0,2.43,5A6.34,6.34,0,0,1,380,23.28Zm-20.07,1.25a.92.92,0,1,0-.91.92A.92.92,0,0,0,359.91,24.53Z"/><path class="cls-11" d="M362.24,270.08c-3.77.24-10.64.53-15.22.29s-5.78-.57-5.78-1.47c0,0,0-1.34,0-1.77,1.06.48,4.84,1,8.39,1.28a36.45,36.45,0,0,0,6,.1c3.15-.39,16.56-2.29,17.92-2.1-2.69,2.11-4.81,2.11-5.12,3.73h0A36.51,36.51,0,0,0,362.24,270.08Z"/><path class="cls-6" d="M395.15,264c.36,2.72,1.29,4.44.43,7.3-.79.34-2.13,0-5.6,1.68s-4.54,2.57-9.6,2.77l-3,.09c.26-.4.16-2.63-.32-4.49.25.72,2.28.48,5.13-1.72s5.29-5.34,2-7a2.62,2.62,0,0,0,2.12,0c.26-.1.54-.23.87-.38a3.07,3.07,0,0,1,4,.78c1.09,1.09,3.62.54,3.86-1C395,262.61,395.06,263.29,395.15,264Z"/><path class="cls-10" d="M368.37,270.64a2.53,2.53,0,0,1,0-.5c.31-1.62,2.43-1.62,5.12-3.73,2.31-1.82,2.84-5.57,4.91-6.09a3.29,3.29,0,0,1,2.4.57,20.72,20.72,0,0,0,3.31,1.68c3.33,1.69,1,4.79-2,7s-4.88,2.44-5.13,1.72a.06.06,0,0,1,0,0l-.15-.5c-.62-1.94-4.21-2.32-5.52-1.77A20,20,0,0,0,368.37,270.64Z"/><path class="cls-9" d="M351.12,262a16.3,16.3,0,0,0-.75,2.08,16.92,16.92,0,0,0-.74,4.36c-3.55-.27-7.33-.8-8.39-1.28-.24-2.06,1.44-3,4.78-3.82,1.16-.29,2.13-.53,2.9-.74C350.28,262.22,351,262,351.12,262Z"/><path class="cls-4" d="M359,23.61a.92.92,0,1,1-.92.92A.92.92,0,0,1,359,23.61Z"/><path class="cls-4" d="M343.09,159.54a19.48,19.48,0,0,1-3.44-2.2c-1.25-1-.76-2.94-1-5.08s-.6-3.11.31-5c.69-1.41,1-6.6,2.4-12.25a17.22,17.22,0,0,0,2.48,1.68c-1.68,9.87-1.09,16.87-.69,22.86Z"/><path class="cls-2" d="M368.83,44.37a6.9,6.9,0,0,1-7.18-2.49v0a11,11,0,0,0,1.82.25,19.5,19.5,0,0,0,8.25-1.79C373.11,39.73,370.83,43.66,368.83,44.37Z"/><path class="cls-6" d="M378.44,260.32c-2.07.52-2.6,4.27-4.91,6.09-1.36-.19-14.77,1.71-17.92,2.1a36.45,36.45,0,0,1-6-.1,16.92,16.92,0,0,1,.74-4.36c1.55,0,10.55-2.75,14.16-3.8s2.49-1.62,1.41-3.57h0a5,5,0,0,0,.55-.14c3.49-1.1,3.63,1.05,5.11,1.86s4,2.48,6.95.24C378.53,259.19,378.51,259.77,378.44,260.32Z"/><path class="cls-10" d="M353.8,259.87c2.82-1.91,9.44-9.12,9.59-7.35s-.33,4.73,2.55,4.16c1.08,1.95,2.22,2.52-1.41,3.57s-12.61,3.83-14.16,3.8a16.3,16.3,0,0,1,.75-2.08c-.09,0-.84.25-2.2.6C348.78,261.54,351,261.78,353.8,259.87Z"/><path class="cls-3" d="M384,42.42a5.85,5.85,0,0,1,2.49.49c5.4,1.93,15.28,4.94,16,12,2.74,5.54,2.65,11.43,3,14.9-2.14.93-3.94-2.37-4-7.31s-.57-10-5.15-11-6-2.43-5.3-3.57-.71-2.08-4.51-2.58-6.14-1.32-4.88-2.11A5.4,5.4,0,0,1,384,42.42Z"/><path class="cls-2" d="M373.15,149.2c.55-.6,1.24-3.88,2.34-6.74h0c-.72,2.08-.1,5.32-.57,7.69-.08.41-.16.86-.22,1.33a3.62,3.62,0,0,1-2.93.49C370.92,151.58,372.3,150.13,373.15,149.2Z"/><path class="cls-2" d="M379.32,34.73s-2.28.25-1.8-4.14a4,4,0,0,0,1.91.14,39.85,39.85,0,0,0-.1,4Z"/><path class="cls-9" d="M363.39,252.52c.53-1.67.95-4.15,2.24-4a2.51,2.51,0,0,1,.74.24c1.51.75,3.52,3.25-.43,7.92h0C363.06,257.25,363.53,254.18,363.39,252.52Z"/><path class="cls-2" d="M379.47,219.51c.71,3.28,1.28,6.42,1.72,9.39a91.41,91.41,0,0,0-1.54,17.15c-2.44-1-10.13-1.47-13.37-1.56-.72-10.2-4.73-23.9-5.49-30.6-.89-7.82-6.08-12.88-8.69-29.43.82-.07,1.61-.13,2.32-.16,3.22-.16,5.2-.93,8.15-1.26a25.76,25.76,0,0,1,4.14-.1h0c-.33,3.31-.2,4.35,1,4.44.48,0,2,.07,3.95.09C372.54,190.72,376.43,205.34,379.47,219.51Z"/><path class="cls-1" d="M400.57,113c.23,11.12,3.07,16.54,1.43,22.65-.07.28-.29.41-.64.42-1.1.06-3.5-1-7-1.55a36.15,36.15,0,0,0,.83-10.13h0C396.84,120.92,398.83,116.72,400.57,113Z"/><line class="cls-14" x1="433.5" x2="433.5" y2="324.5"/><line class="cls-15" x1="433.5" x2="433.5" y2="2"/><line class="cls-16" x1="433.5" y1="5.96" x2="433.5" y2="320.52"/><line class="cls-15" x1="433.5" y1="322.5" x2="433.5" y2="324.5"/><text class="cls-17" transform="translate(449.2 106.93) rotate(90)">RISK OF <tspan class="cls-18" x="71.84" y="0">T</tspan><tspan class="cls-19" x="81.52" y="0">Y</tspan><tspan class="cls-20" x="92.22" y="0">P</tspan><tspan x="103.77" y="0">E 2 DIABETES</tspan></text><polygon class="cls-21" points="419 335 0 335 0 315 419 315 432.5 324.63 419 335"/><text class="cls-22" transform="translate(162.11 328.37)">BO<tspan class="cls-23" x="15.93" y="0">D</tspan><tspan x="23.89" y="0">Y MASS IND</tspan><tspan class="cls-24" x="83.91" y="0">E</tspan><tspan class="cls-25" x="90.51" y="0">X</tspan><tspan x="96.97" y="0">*</tspan></text></g></g></svg>