<svg xmlns="http://www.w3.org/2000/svg" viewBox="0 0 461.99 221.27"><defs><style>.cls-1{fill:#576017;}.cls-2{fill:#9688b2;}.cls-3{fill:#7a395d;}.cls-4{fill:#af331b;}.cls-5{fill:#82c410;}.cls-6{fill:#6d820a;}.cls-7{fill:#682c4b;}.cls-8{fill:#ffe5e5;}.cls-9{fill:#6b820b;}.cls-10{fill:#a0a507;}.cls-11{fill:#bdd800;}.cls-12{fill:#d33726;}.cls-13{fill:#766e89;}.cls-14{fill:#75a500;}.cls-15{fill:#c9332a;}.cls-16{fill:#c98bb5;}.cls-17{fill:#874b6f;}.cls-18{fill:#d9e077;}.cls-19{fill:#ab9fc9;}.cls-20{fill:#828717;}.cls-21{fill:#8c4e1f;}.cls-22{fill:#9ea508;}.cls-23{fill:#a06e1d;}.cls-24{fill:#f75d19;}.cls-25{fill:#ff8224;}.cls-26{fill:#ffb024;}.cls-27{fill:#efa118;}.cls-28{fill:#ffc627;}.cls-29{fill:#d8901d;}.cls-30{fill:#ef4d41;}.cls-31{fill:#992d1f;}.cls-32{fill:#dd453a;}.cls-33{fill:#a57329;}</style></defs><title>Asset 1</title><g id="Layer_2" data-name="Layer 2"><g id="artwork"><path class="cls-1" d="M360,77v3.58a5,5,0,0,1-5,5H292.84a69.22,69.22,0,0,1-11.17-20.73H315.3c-12.76,0-11.7,12.1,0,12.1Z"/><path class="cls-2" d="M360,75.09V77H315.3c-11.7,0-12.76-12.1,0-12.1h34.43A10.23,10.23,0,0,1,360,75.09Z"/><path class="cls-3" d="M251,176.28c0-3.71,4.89-7.48,14.06-7.48,2.95,0,6.94,0,11.42-.1A138,138,0,0,0,295.82,167a52.4,52.4,0,0,0,14.09-4.19.94.94,0,0,1,.15-.06,4.64,4.64,0,0,0,.8-.41h0c9.58-5.12,13.45-14.31,2.05-30.74-13.42-19.32-12.75-30.85-8.79-37.54A19.9,19.9,0,0,1,315,85.59h39c-13.64,0-18.71,10.47-18.71,23.39v28.07c0,25.6-21.92,46.36-48.94,46.36H265.06C255.51,183.41,251,179.87,251,176.28Z"/><path class="cls-4" d="M331,48.5c13.76,1,9.57,14,5.38,16.36H319.92s-4.89-9.57,1.1-13c-.59-1-2.88-7.47-3.32-14.54C328,28.57,334.57,43.13,331,48.5Z"/><path class="cls-5" d="M321.53,13.71l5.46,5.1c-8.12,2.77-9.78,11-9.29,18.54.44,7.07,2.73,13.58,3.32,14.54-6,3.4-1.1,13-1.1,13H308.46a32.08,32.08,0,0,1-5.16-20.55C304.29,30.72,312.41,17.72,321.53,13.71Z"/><path class="cls-6" d="M315.24,7.84l6.29,5.87c-9.12,4-17.24,17-18.23,30.6l-3.48-.41c.44-4.48-.44-8.72-4-11.56h0C295.8,31.85,294.29,18.61,315.24,7.84Z"/><path class="cls-7" d="M292.84,85.59H315A19.9,19.9,0,0,0,304.13,94C300.48,93.31,296.52,90.11,292.84,85.59Z"/><path class="cls-7" d="M312.92,131.58c11.4,16.43,7.53,25.62-2.05,30.74,5.53-3.46,3-16.12-4.74-16.12,3.31-5.06-2.53-19.13-16.68-13a78.8,78.8,0,0,0,2.19-37.54l-8.22.72-10.11.87s.14,23.62-15.95,36.53v0c-27.78-4-22.06-48.2,5.36-38.1A40.34,40.34,0,0,0,267,85.59h25.85c3.68,4.52,7.64,7.72,11.29,8.45C300.17,100.73,299.5,112.26,312.92,131.58Z"/><path class="cls-1" d="M306.13,146.2c7.71,0,10.27,12.66,4.74,16.12h0c-.27.15-.53.28-.8.41a.94.94,0,0,0-.15.06A52.4,52.4,0,0,1,295.82,167c9.22-13-11.59-21-11.59-21a77.79,77.79,0,0,0,5.21-12.74h0C303.6,127.07,309.44,141.14,306.13,146.2Z"/><path class="cls-8" d="M310.06,162.74c.27-.13.53-.26.8-.41A4.64,4.64,0,0,1,310.06,162.74Z"/><path class="cls-6" d="M308.46,64.86H291.31s7.52-11.08,8.51-21l3.48.41A32.08,32.08,0,0,0,308.46,64.86Z"/><path class="cls-9" d="M295.86,32.34c3.52,2.84,4.4,7.08,4,11.56-1,9.88-8.51,21-8.51,21h-9.64c-3-8.87-3.71-17.56-.32-22.53a32.37,32.37,0,0,0-8.67,2.38l-.33-.73a13.57,13.57,0,0,0-21.29-9.76,16.51,16.51,0,0,1,2.17-10.43c-12.95,6.77-23.93,17.33-23.93,17.33h0a25.26,25.26,0,0,0-3.78-12.38h0C225.14,5.84,254,8.44,254,8.44c-2.79-7.58,10.79-11.95,8.79-.1,21.12-9.27,28.9,3.82,20.52,20.4,5.93.16,9.93,1.51,12.52,3.59Z"/><path class="cls-6" d="M284.23,146S305,154,295.82,167a138,138,0,0,1-19.34,1.71c.93-4.61.46-7.67-1-9.65A62.14,62.14,0,0,0,284.23,146Z"/><path class="cls-1" d="M292.84,85.59H267a32.47,32.47,0,0,0-1.56-20.73h16.24A69.22,69.22,0,0,0,292.84,85.59Z"/><path class="cls-10" d="M291.64,95.69a78.8,78.8,0,0,1-2.19,37.54h0A77.79,77.79,0,0,1,284.23,146a62.14,62.14,0,0,1-8.7,13.08c-3-4.22-10.36-3.49-17.55-2.39,21.62-10,28.88-28.28,25.44-60.25Z"/><path class="cls-6" d="M283.42,96.41c3.44,32-3.82,50.23-25.44,60.25-7.51,1.15-14.84,2.69-16.84-.62-1.83-3.06-4.55-9-8.44-14.08,10.87-.22,18.83-3.49,24.66-8.15,16.09-12.91,15.95-36.53,15.95-36.53Z"/><path class="cls-10" d="M281.67,64.86H265.43a70.87,70.87,0,0,0-4.26-8.81c2.08-6,7-9.41,11.51-11.34a32.37,32.37,0,0,1,8.67-2.38C278,47.3,278.69,56,281.67,64.86Z"/><path class="cls-11" d="M232.7,142c3.89,5.06,6.61,11,8.44,14.08,2,3.31,9.33,1.77,16.84.62,7.19-1.1,14.54-1.83,17.55,2.39,1.41,2,1.88,5,1,9.65-4.48.12-8.47.1-11.42.1-9.17,0-14,3.77-14.06,7.48H221.2c-33.5-7.14-36.43-53-36.43-53,5.64-1.13,12.2,1.14,16.07,8.42a28,28,0,0,1,2.82,8.94,29.35,29.35,0,0,1,9.25-6.24c7.44-2.91,13.23.25,17.71,5.1h0C231.35,140.27,232,141.1,232.7,142Z"/><path class="cls-12" d="M272.35,44l.33.73c-4.47,1.93-9.43,5.35-11.51,11.34-4.34-7.75-9.27-14.74-10.11-21.83A13.57,13.57,0,0,1,272.35,44Z"/><path class="cls-9" d="M265.43,64.86A32.47,32.47,0,0,1,267,85.59H213.62Q216.25,81,218.35,77h20.22a3.6,3.6,0,0,0,0-7.2H221.88c.78-1.7,1.5-3.32,2.13-4.9Z"/><path class="cls-1" d="M213.62,85.59H267a40.34,40.34,0,0,1-4.28,10.1c-27.42-10.1-33.14,34.08-5.36,38.1v0c-5.83,4.66-13.79,7.93-24.66,8.15-.66-.86-1.35-1.69-2.07-2.48a13.56,13.56,0,1,0-17.7-19.13l-3-1.26c5.5-9.15,9.29-20.36-2.87-22.68Q210.7,90.7,213.62,85.59Z"/><path class="cls-5" d="M251.06,34.22c.84,7.09,5.77,14.08,10.11,21.83a70.87,70.87,0,0,1,4.26,8.81H224c4.11-10,5.59-17.6,5.28-23.74h0s11-10.56,23.93-17.33A16.51,16.51,0,0,0,251.06,34.22Z"/><path class="cls-13" d="M265.06,183.41H160.32c-27,0-48.93-20.76-48.93-46.36V109c0-12.92-5.08-23.39-18.72-23.39h22.66c-1.24,10.88,2.14,21.28,9.46,26.93-10,17.4-1.07,37.66,13,35.81-7.71,22.06,14,26.95,30.14,22.19h0c3.62,3.48,9.77,5.76,15.07,5.76h68C251,179.87,255.51,183.41,265.06,183.41Z"/><path class="cls-14" d="M238.57,69.76a3.6,3.6,0,0,1,0,7.2H218.35c.75-1.43,2-4,3.53-7.2Z"/><path class="cls-15" d="M238.08,127.38a13.55,13.55,0,0,1-7.45,12.1h0c-4.48-4.85-10.27-8-17.71-5.1a13.56,13.56,0,1,1,25.17-7Z"/><path class="cls-9" d="M229.29,41.12c.31,6.14-1.17,13.76-5.28,23.74H205.23c9.91-20.46,4.87-45-15.66-61.68L198.87,0c8.17,12.75,20.46,18.66,26.64,28.73h0A25.26,25.26,0,0,1,229.29,41.12Z"/><path class="cls-2" d="M205.23,64.86H224c-.63,1.58-1.35,3.2-2.13,4.9H202.51A49.25,49.25,0,0,0,205.23,64.86Z"/><path class="cls-16" d="M202.51,69.76h19.37c-1.5,3.21-2.78,5.77-3.53,7.2H197.13A59.72,59.72,0,0,0,202.51,69.76Z"/><path class="cls-5" d="M166.9,158.79c2.38-3,6.93-6,14.42-8.87-6.71-7-8.06-13.38-6.48-18.22a12.93,12.93,0,0,1,9.93-8.44s2.93,45.88,36.43,53H183c-5.3,0-11.45-2.28-15.07-5.76h0C164.58,167.34,163.39,163.16,166.9,158.79Z"/><path class="cls-17" d="M197.13,77h21.22q-2.11,4.1-4.73,8.63h-26A61.1,61.1,0,0,0,197.13,77Z"/><path class="cls-7" d="M187.66,85.59h26q-2.93,5.11-6.51,10.82c12.16,2.32,8.37,13.53,2.87,22.68a95.75,95.75,0,0,1-9.14,12.59c-3.87-7.28-10.43-9.55-16.07-8.42a12.93,12.93,0,0,0-9.93,8.44A106.55,106.55,0,0,1,161.31,129h0s11.25-18.65-12.14-28.48C165.08,98.15,177.94,92.8,187.66,85.59Z"/><path class="cls-1" d="M210,119.09l3,1.26a13.53,13.53,0,0,0,0,14,29.35,29.35,0,0,0-9.25,6.24,28,28,0,0,0-2.82-8.94A95.75,95.75,0,0,0,210,119.09Z"/><path class="cls-10" d="M129.82,58.66A45.44,45.44,0,0,1,142,51.29c-6.38-12.48,1.86-27.9,23.65-21.26,20.74,5.32,13.83-24.45,13.83-24.45l10.1-2.4c20.53,16.64,25.57,41.22,15.66,61.68H190.57v-.71a13.56,13.56,0,1,0-24.66.71H123.84A41.54,41.54,0,0,1,129.82,58.66Z"/><path class="cls-2" d="M165.91,64.86h39.32a49.25,49.25,0,0,1-2.72,4.9h-82a41.63,41.63,0,0,1,3.3-4.9Z"/><path class="cls-18" d="M120.54,69.76h82a59.72,59.72,0,0,1-5.38,7.2H117.27A44,44,0,0,1,120.54,69.76Z"/><path class="cls-5" d="M117.27,77h79.86a61.1,61.1,0,0,1-9.47,8.63H115.33A39.88,39.88,0,0,1,117.27,77Z"/><path class="cls-12" d="M191.63,58.87a13.6,13.6,0,0,1-1.06,5.28v.71H165.91a13.56,13.56,0,1,1,25.72-6Z"/><path class="cls-9" d="M143,121.69c-6.6-3.86-11.88-9.12-12.93-16.16a35.93,35.93,0,0,0-5.24,7c-7.32-5.65-10.7-16-9.46-26.93h72.33c-9.72,7.21-22.58,12.56-38.49,14.89,23.39,9.83,12.14,28.48,12.14,28.48h0A75.67,75.67,0,0,1,143,121.69Z"/><path class="cls-3" d="M174.84,131.7c-1.58,4.84-.23,11.26,6.48,18.22-7.49,2.87-12,5.91-14.42,8.87-.67,0-20.21-1.44-8.89-17.65-16.89,9.46-31.69-10.35-15-19.45A75.67,75.67,0,0,0,161.31,129,106.55,106.55,0,0,0,174.84,131.7Z"/><path class="cls-9" d="M149.57,16.61c12-13.16,25,3.72,16.07,13.42-21.79-6.64-30,8.78-23.65,21.26a45.44,45.44,0,0,0-12.17,7.37c-20.51-6.18-13.35-20.92-7.37-22.32-12-8.16-1.78-20,10.77-12.55C134.41,6.25,147.57,9.43,149.57,16.61Z"/><path class="cls-7" d="M166.9,158.79c-3.51,4.37-2.32,8.55,1,11.73-16.16,4.76-37.85-.13-30.14-22.19-14,1.85-22.9-18.41-13-35.81a35.93,35.93,0,0,1,5.24-7c1.05,7,6.33,12.3,12.93,16.16-16.64,9.1-1.84,28.91,15,19.45C146.69,157.35,166.23,158.74,166.9,158.79Z"/><path class="cls-2" d="M96.94,64.86h26.9a41.63,41.63,0,0,0-3.3,4.9H106.19a3.6,3.6,0,1,0,0,7.2h11.08a39.88,39.88,0,0,0-1.94,8.63H91.76a5.05,5.05,0,0,1-5.06-5V75.09A10.23,10.23,0,0,1,96.94,64.86Z"/><path class="cls-19" d="M106.19,69.76h14.35a44,44,0,0,0-3.27,7.2H106.19a3.6,3.6,0,1,1,0-7.2Z"/><path class="cls-20" d="M435,139.94c21.11-4.45,32.15,9.95,24.64,37.75-5.79-.35-8.05-3.63-4.8-14.7s-2.21-13.92-15.89-12.32-16.79-5.61-7.25-9.9C432.82,140.45,433.92,140.17,435,139.94Z"/><path class="cls-4" d="M412.68,142.1c4.65-4.07,11.15-5.18,19-1.33-9.54,4.29-6.45,11.5,7.25,9.9s19.15,1.24,15.89,12.32-1,14.35,4.8,14.7c-7.89,29.19-34.82,25.65-46,11.82a41.06,41.06,0,0,1-5.85-10.35C402.16,165,404.66,149.14,412.68,142.1Z"/><path class="cls-21" d="M434.06,130.07l.93,9.87c-1.07.23-2.17.51-3.3.83.49-6.64-6-9.73-6-9.73C429.35,127.52,434.06,130.07,434.06,130.07Z"/><path class="cls-9" d="M376.7,96.61a22.15,22.15,0,0,1,2.83-.44c-9.17,24,11.07,7.9,8.23,28.79-2.82,20.72,22.65,15.2,15.79,4.49a33.82,33.82,0,0,0,3.19,4,38.25,38.25,0,0,1,5.94,8.61c-8,7-10.52,22.86-4.94,37.06-4.15,3.79-9.89,6.86-17.45,8.75-13.72,3.42-23.92,0-30.08-6.55h0a33.77,33.77,0,0,0,2.05-9.93c.6-10.32-1.5-17.82-5.05-23.21a31.4,31.4,0,0,1,2.09-3.33C373.18,125.56,358.52,100.72,376.7,96.61Z"/><path class="cls-22" d="M403.55,129.45c6.86,10.71-18.61,16.23-15.79-4.49,2.84-20.89-17.4-4.76-8.23-28.79C397.53,94.42,393.16,114,403.55,129.45Z"/><path class="cls-23" d="M380.8,63l7,4.43c-7,5.7-8.23,28.79-8.23,28.79a22.15,22.15,0,0,0-2.83.44C366,84.13,380.8,63,380.8,63Z"/><path class="cls-24" d="M357.19,148.22c3.55,5.39,5.65,12.89,5.05,23.21a33.77,33.77,0,0,1-2.05,9.93c-8.91,24.27-44,30.89-60,9.43-.62-.82-1.21-1.66-1.73-2.5,6.81-12.77,8.35-27.13-.59-37.21l.18-.16c5-8.39,13.08-13.91,21-13.45,0,0,4,3.72,7.7-2.39C335.69,134.72,349.7,136.81,357.19,148.22ZM340,154.72a9.82,9.82,0,1,0-9.81,9.81A9.81,9.81,0,0,0,340,154.72Z"/><circle class="cls-25" cx="330.14" cy="154.72" r="9.82" transform="translate(-34.03 137.22) rotate(-22.36)"/><path class="cls-21" d="M326.69,135.08c-3.71,6.11-7.7,2.39-7.7,2.39,1.07-3.71-4.51-19.1-9.81-20.16.8-5,8-3.45,8-3.45A51.84,51.84,0,0,0,326.69,135.08Z"/><path class="cls-26" d="M298.43,188.29a57.65,57.65,0,0,1-3.95,6.42c6.59-12.2.09-19.37-10.11-4.24s-31,24.3-37.49,24-4,6.79-.9,6.79c-10.06-.14-16.5-4.34-16.19-9.81,30.68-6.41,43-19.41,46.74-31.22v0c2.74-8.64.88-16.65-1.73-21-6.2-10.17-14.64-13.52-14.82-24.82a26.17,26.17,0,0,0,4.49-3.7c-2.6,3.45,1.74,8,15.56,10.15,8.16,2.29,14,5.84,17.81,10.19C306.78,161.16,305.24,175.52,298.43,188.29Z"/><path class="cls-27" d="M284.37,190.47c10.2-15.13,16.7-8,10.11,4.24a61.44,61.44,0,0,1-17.72,16.95c-11.54,7.05-22.36,9.73-30.72,9.61H246c-3.1,0-5.54-7.09.9-6.79S274.15,205.63,284.37,190.47Z"/><path class="cls-28" d="M274.8,159.26c2.61,4.3,4.47,12.31,1.73,21,1.32-7.47-4.08-17.64-11-3.58s-33.44,31.88-48.28,30.31-10.27,7.72-7.14,7.5c-19.86,1.06-27.55-6.09-28.5-13.95a2.34,2.34,0,0,1,1.77-2.47,31.89,31.89,0,0,0,11.3-5.25c31.07-1.56,46.38-6.06,55.34-20.75a51.13,51.13,0,0,0,4.74-9.8.43.43,0,0,1,0-.05c3.34-9.68,1.75-17.34-1.45-24.86a20.13,20.13,0,0,0,6.66-2.87C260.16,145.74,268.6,149.09,274.8,159.26Z"/><path class="cls-27" d="M265.53,176.63c6.92-14.06,12.32-3.89,11,3.58v0c-3.73,11.81-16.06,24.81-46.74,31.22a116.29,116.29,0,0,1-19.68,3c-3.13.22-7.7-9.05,7.14-7.5S258.59,190.7,265.53,176.63Z"/><path class="cls-21" d="M260,134.44a20.13,20.13,0,0,1-6.66,2.87,14.37,14.37,0,0,1-4.7.22s-9.88-7.77,1.1-12.53,13.47-1.25,14.82,5.65l-.07.09A26.17,26.17,0,0,1,260,134.44Z"/><path class="cls-27" d="M253.32,137.31c3.2,7.52,4.79,15.18,1.45,24.86,1-3.62-5.42-4.41-9.68,3s-22.83,25.17-41.54,21-10.6,6.61-8.9,6.61c-.56.1-10.19,1.4-29.84-8.81a2.91,2.91,0,0,1-1.41-3.58c1.66-4.32,7-12.62,23.56-10,22,3.5,58.76-9.45,61.66-32.85A14.37,14.37,0,0,0,253.32,137.31Z"/><path class="cls-29" d="M245.09,165.12c4.26-7.36,10.66-6.57,9.68-3a.43.43,0,0,0,0,.05A51.13,51.13,0,0,1,250,172c-9,14.69-24.27,19.19-55.34,20.75h0c-1.7,0-9.75-10.71,8.9-6.61S240.79,172.5,245.09,165.12Z"/><path class="cls-4" d="M30.74,172.51c5.94,4.6,8.79,15.24,5.51,23.8a13.25,13.25,0,0,1-3,4.65c-1.21-.6-2.89-2-.89-4.26,2.85-3.32.43-8.47-4.73-14.42C24,178.16,27,174,30.74,172.51Z"/><path class="cls-12" d="M30.74,172.51c-3.74,1.5-6.7,5.65-3.13,9.77,5.16,5.95,7.58,11.1,4.73,14.42-2,2.31-.32,3.66.89,4.26A13.77,13.77,0,0,1,28.56,204a37.81,37.81,0,0,1-3.78,1.31,18.28,18.28,0,0,1-10.21,0c-18.8-5.51-18-23.91-5.5-28.69a13.84,13.84,0,0,0,3.46-.58c-2.79,5.7,3,6.33,4.15.18,7.65,3.5,11.36-3.37,2.69-4.86A10.43,10.43,0,0,1,30.74,172.51ZM19.2,192.05a2.4,2.4,0,1,0-3,1.64A2.4,2.4,0,0,0,19.2,192.05Zm-5.28,6.35a2.77,2.77,0,1,0-3.43,1.88A2.77,2.77,0,0,0,13.92,198.4ZM9.5,191.75a2.4,2.4,0,1,0-4.61-1.33,2.4,2.4,0,0,0,4.61,1.33Z"/><path class="cls-9" d="M9.07,176.61a10.62,10.62,0,0,1-7.32-2.24s6.91-2.93,10.55-1c0,0,.14-3,3.56-1.87A4.9,4.9,0,0,1,17.43,165s4,2.73,1.94,6.33c8.67,1.49,5,8.36-2.69,4.86-1.2,6.15-6.94,5.52-4.15-.18A13.84,13.84,0,0,1,9.07,176.61Z"/><path class="cls-30" d="M17.55,189.08a2.4,2.4,0,1,1-3,1.64A2.4,2.4,0,0,1,17.55,189.08Z"/><path class="cls-30" d="M12,195a2.76,2.76,0,1,1-3.43,1.89A2.77,2.77,0,0,1,12,195Z"/><path class="cls-30" d="M7.86,188.77a2.4,2.4,0,0,1-1.33,4.62,2.4,2.4,0,0,1,1.33-4.62Z"/><path class="cls-30" d="M43,188.47a4.53,4.53,0,1,1,5.13-3.84A4.52,4.52,0,0,1,43,188.47Z"/><path class="cls-4" d="M56.89,204.76s-7.21-3.17-.86-6.6S63.35,188,62.81,179s8-10.16,12.24-4.14C75.18,187,66.29,200.6,56.89,204.76Z"/><path class="cls-30" d="M45.78,169.09a2.87,2.87,0,1,1-3.25,2.43A2.87,2.87,0,0,1,45.78,169.09Z"/><path class="cls-12" d="M48.12,184.63A4.53,4.53,0,1,0,43,188.47,4.52,4.52,0,0,0,48.12,184.63Zm2.73-7.34a1.66,1.66,0,1,0,1.4,1.87A1.65,1.65,0,0,0,50.85,177.29Zm-2.63-4.95A2.87,2.87,0,1,0,45,174.77,2.87,2.87,0,0,0,48.22,172.34Zm-5.94,28.8c-16.14-20-10.44-35.94,4.26-34.57a25.42,25.42,0,0,1,6.52,1.57s8.63-3.08,15.09-1.63c3.7.81,6.68,3.12,6.9,8.36-4.26-6-12.79-4.86-12.24,4.14s-.43,15.72-6.78,19.15.86,6.6.86,6.6C51.7,207.07,46.34,206.49,42.28,201.14Z"/><path class="cls-9" d="M46.54,166.57c-8-5.17-5.47-15.77-5.47-15.77a26,26,0,0,1,12.54,12c2-10.55,12-10.44,12-10.44-.35,2.39-5.88,11.32-5.88,11.32a15.29,15.29,0,0,1,10.92,1.57,21.38,21.38,0,0,1-2.49,1.29c-6.46-1.45-15.09,1.63-15.09,1.63A25.42,25.42,0,0,0,46.54,166.57Z"/><path class="cls-30" d="M50.85,177.29a1.66,1.66,0,1,1-1.87,1.4A1.66,1.66,0,0,1,50.85,177.29Z"/><path class="cls-31" d="M90.29,167.58a57.78,57.78,0,0,1-1.88,9.62l-.68.05a10.75,10.75,0,0,0-3.6.88C83.47,175.34,85.51,169.75,90.29,167.58Z"/><path class="cls-32" d="M111.05,180.44a3.64,3.64,0,1,1-3.82,3.46A3.63,3.63,0,0,1,111.05,180.44Z"/><path class="cls-4" d="M88.15,205.76c-19-3.33-14.59-23.14-4-27.63a10.75,10.75,0,0,1,3.6-.88l.68-.05c-.41,1.36-.82,2.18-1.17,2.29,0,0,1.39,2.06,4.33.66a9.36,9.36,0,0,1-.36-2.85A13.79,13.79,0,0,1,103,186.71a17,17,0,0,1,.76,8.24C102.71,201.69,97.45,207.4,88.15,205.76Zm-4.9-23.82a3.86,3.86,0,1,0,3.67,4A3.84,3.84,0,0,0,83.25,181.94Z"/><path class="cls-31" d="M99.69,167.73c8.34,3.39,6.67,12,6.52,13.14a14.42,14.42,0,0,0-3.17,5.84,13.79,13.79,0,0,0-11.83-9.41c0-2.58.33-6.24.67-10.29a12.18,12.18,0,0,1,6.55.28C98.84,167.42,99.26,167.56,99.69,167.73ZM100,170a3,3,0,1,0,2.84,3.13A3,3,0,0,0,100,170Z"/><path class="cls-4" d="M111.05,180.44a3.64,3.64,0,1,0,3.45,3.82A3.65,3.65,0,0,0,111.05,180.44Zm1.63-3.22s1.29,3.44,4.65.11c16.14,2.56,10.75,26.68-4.76,23.43-4.55-.95-7.34-3.13-8.77-5.81a17,17,0,0,0-.76-8.24,14.42,14.42,0,0,1,3.17-5.84A11,11,0,0,1,112.68,177.22Z"/><path class="cls-32" d="M79.21,185.6a3.86,3.86,0,1,1,3.66,4.06A3.84,3.84,0,0,1,79.21,185.6Z"/><path class="cls-12" d="M102.8,173.13A3,3,0,1,1,100,170,3,3,0,0,1,102.8,173.13Z"/><path class="cls-33" d="M112.68,177.22c3.28-12.09-5-22.8-7.6-25.75a52.3,52.3,0,0,0-8.79-6.8c3.17,3.81,5.43,10.64,3.4,23.06-.43-.17-.85-.31-1.26-.44.74-11.5,2.06-23.39-10.24-25.54l.07.05c5.07,4.07,4.42,15.67,3.62,25.21-.34,4.05-.7,7.71-.67,10.29a9.36,9.36,0,0,0,.36,2.85c-2.94,1.4-4.33-.66-4.33-.66.35-.11.76-.93,1.17-2.29a57.78,57.78,0,0,0,1.88-9.62c1.16-9.35,1.14-21.37-3.17-25-.77-.47-6.33.68-7.62,1.07-2.86.85-3.92-2.35-1.23-2.95,3.08-.69,7.08-1.35,10.83-.57,5.82,1,10.42,4.49,16.7,10.16,9.62,8.71,8.73,21,11.53,27C114,180.66,112.68,177.22,112.68,177.22Z"/></g></g></svg>