<svg xmlns="http://www.w3.org/2000/svg" viewBox="0 0 483.77 332.09"><defs><style>.cls-1{fill:#d3c0be;}.cls-2{fill:#c6b4b0;}.cls-3{fill:#e5d2cf;}.cls-4{fill:#7f572f;}.cls-5{fill:#664a30;}.cls-6{fill:#2e3452;}.cls-7{fill:#a66642;}.cls-8{fill:#998b87;}.cls-9{fill:#918786;}.cls-10{fill:#3a2320;}.cls-11{fill:#262c42;}.cls-12{fill:#8a5134;}.cls-13{fill:#6d615b;}.cls-14{fill:#ffe4e1;}.cls-15{fill:#a87752;}.cls-16{fill:#726e6e;}.cls-17{fill:#6d3c30;}.cls-18{fill:#845b40;}.cls-19{fill:#96694a;}.cls-20{fill:#d37359;}.cls-21{fill:#e08265;}.cls-22{fill:#873952;}.cls-23{fill:#7c5139;}.cls-24{fill:#6b3b36;}.cls-25{fill:#446389;}.cls-26{fill:#b55640;}.cls-27{fill:#9b475e;}.cls-28{fill:#5b5857;}.cls-29{fill:#7c2929;}.cls-30{fill:#5b283d;}.cls-31{fill:#494543;}.cls-32{fill:#9b312f;}.cls-33{fill:#723148;}.cls-34{fill:#315272;}.cls-35{fill:#542f29;}.cls-36{fill:#916243;}.cls-37{fill:#662b55;}.cls-38{fill:#59254d;}.cls-39{fill:#3c2f4f;}.cls-40{fill:#d8bf9a;}.cls-41{fill:#756654;}.cls-42{fill:#5d9e33;}.cls-43{fill:#8c8a87;}.cls-44{fill:#afadaa;}.cls-45{fill:#322644;}.cls-46{fill:#513e6b;}.cls-47{fill:#9e3256;}.cls-48{fill:#8c2d51;}.cls-49{fill:#772848;}</style></defs><title>Asset 3</title><g id="Layer_2" data-name="Layer 2"><g id="artwork"><g id="Grandfather"><path class="cls-1" d="M316.73,86.73c.65,11.59-2.41,18.82-8.54,29.49.93,8.72-4.45,22-6.49,24.31s-5.56-.47-4.36,10c.88,7.57-1.49,9.14-3,11.85l-2.11-.16a3.11,3.11,0,0,0,.32-1.51c0-3.8.83-13.07-1.4-10.18s-2.69,6.75-11.22,4.54c-8.13-2.76-17.46-6.67-28.19-8.29-2.17-1.62-3.42-4.41-4.52-8.05s-2.09-8.2-3.72-13.25c7.36-1.22,14.43-11.53,15.29-13a12.19,12.19,0,0,1,4.25,5.94c3.08.46,2.89,2.31,2.89,2.31a75.36,75.36,0,0,1,10.94,4.84c9,4.82,14.48,16.13,14.38,11.11s-2.42-12.88-15.76-16.68c6-2.5,21.79-10.39,12.42-15.12,10.94-7.42,27.07-14.09,23.27-22.53a2.06,2.06,0,0,0-2.08-1.25l-.18-4.22c2.66-.69.22-4.55.22-4.55C313.29,73.66,316.08,75.15,316.73,86.73Z"/><path class="cls-2" d="M311.16,82.38c3.8,8.44-12.33,15.11-23.27,22.53,9.37,4.73-6.41,12.62-12.42,15.12,13.34,3.8,15.66,11.68,15.76,16.68s-5.39-6.29-14.38-11.11a75.36,75.36,0,0,0-10.94-4.84s.19-1.85-2.89-2.31c10.14-7.06,37.67-37.17,46.06-37.32A2.06,2.06,0,0,1,311.16,82.38Z"/><path class="cls-1" d="M309.12,72.36s2.44,3.86-.22,4.55a1.83,1.83,0,0,1-.43.08c-3.34.37-14.93-.83-8.53-4.73S290.11,69,287.8,64a10.15,10.15,0,0,0-.28-7.42,1.88,1.88,0,0,0,.23-1C292.32,59.68,305.68,71.29,309.12,72.36Z"/><path class="cls-3" d="M308.9,76.91l.18,4.22c-8.39.15-35.92,30.26-46.06,37.32a12.19,12.19,0,0,0-4.25-5.94c.92-1.57-1.49-2.59-3.85-6.33.93-.35,1-1.2.58-2.44,2.7,1.24,6.48,1.32,4.51-1.3,3.35-.14,3.37-.94,2.63-2.77-1.24-3-2.7-4.09-5.39-7.41-.79-1-1.65-2.26-2.63-3.56,0,0,0,0,0,0-1.7-2.26-3.7-4.51-6.15-4.92-.24,0-.52-.09-.79-.13l4-1.24a52.44,52.44,0,0,0,7.63-3.46s1.46,3.45,3.77,2.2c1.24-.66,4.09-2.23,6.51-3.58a11.34,11.34,0,0,0,.18,8.64C279,78.29,287,66.89,287.8,64c2.31,5,18.53,4.35,12.14,8.24s5.19,5.1,8.53,4.73A1.83,1.83,0,0,0,308.9,76.91Z"/><path class="cls-4" d="M299.15,195.8v1.49a6.11,6.11,0,0,1-6.09,6.11H268.54c0-.94-1-2.34-3.19-4.36l-.93-.83a59,59,0,0,0,17.08-8.52h11.56A6.11,6.11,0,0,1,299.15,195.8Z"/><polygon class="cls-5" points="289.71 203.4 296.39 306.96 286.5 306.96 284.27 272.39 283.96 267.74 280.65 216.2 279.81 203.4 289.71 203.4"/><path class="cls-6" d="M294.55,38.4a5.15,5.15,0,0,1-3,5,7,7,0,0,1-2.31.69l-.72,0a6.21,6.21,0,0,1-3.88-1.32,4.75,4.75,0,0,1-1.78-3.19,4.27,4.27,0,0,1,.13-1.47,2.91,2.91,0,0,0-2.58-.66,3.5,3.5,0,0,0-2.27,1.25,5.52,5.52,0,0,1,.18.9c.29,2.8-2.1,5.35-5.32,5.71l-.71,0a6.17,6.17,0,0,1-3.88-1.32,4.65,4.65,0,0,1-1.78-3.19,4.75,4.75,0,0,1,.24-2,5.52,5.52,0,0,1,.8-1.42A6.29,6.29,0,0,1,272,35.19a6.22,6.22,0,0,1,4.59,1.27,5.66,5.66,0,0,1,.77.78,5.59,5.59,0,0,1,2.82-1.33,4.66,4.66,0,0,1,3.5.69,6.22,6.22,0,0,1,4.55-2.66,6.37,6.37,0,0,1,4,.83,3.86,3.86,0,0,1,.62.44A4.68,4.68,0,0,1,294.55,38.4Zm-2.29,2.42a3.18,3.18,0,0,0,.7-2.26,2.77,2.77,0,0,0-.61-1.49,2.58,2.58,0,0,0-.58-.61,4.52,4.52,0,0,0-2.87-1,5.09,5.09,0,0,0-.54,0c-2.36.25-4.11,2-3.9,3.94a3.07,3.07,0,0,0,1.19,2.1,4.89,4.89,0,0,0,6.61-.74Zm-19.42,2.93c2.34-.24,4.09-2,3.89-3.94a3.09,3.09,0,0,0-1.2-2.1,4.46,4.46,0,0,0-2.87-1,5.48,5.48,0,0,0-.55,0c-2.34.25-4.08,2-3.89,3.94a3.08,3.08,0,0,0,1.2,2.1A4.62,4.62,0,0,0,272.84,43.75Z"/><path class="cls-1" d="M292.21,162.24l2.11.16a9.34,9.34,0,0,0-1.15,4.09c-.37,6.49,2.23,9.93-3,13.53-.46,4.36,1.67,4-1,6.4s-3,3.27-7.69,3.27a41.77,41.77,0,0,0,3.51-2.8c-.84-3-.64-7.4-1.08-11.39h0c3.21,1.86,6.62,1,4.68-13.1C288.63,162.4,291.28,163.84,292.21,162.24Z"/><path class="cls-3" d="M291.13,150.55c2.23-2.89,1.4,6.38,1.4,10.18a3.11,3.11,0,0,1-.32,1.51c-.93,1.6-3.58.16-3.58.16,1.94,14.1-1.47,15-4.68,13.1h0c-.45-4.44-1.63-8.37-5.79-9.28a64,64,0,0,1-13.26-4.37c-10.12-4.31-9-2.59-14.73-2.59s-9.19,5-12.43,7-2.94,3.24-8.15,5.18c0,0-1.62-2.75-3.64-6.43a155.71,155.71,0,0,1-7.23-14.34,63.41,63.41,0,0,1,14.51-4,54.66,54.66,0,0,1,6-.58,64.18,64.18,0,0,1,12.53.71c10.73,1.62,20.06,5.53,28.19,8.29C288.44,157.3,288.9,153.45,291.13,150.55Z"/><path class="cls-7" d="M292.35,37.07a19.25,19.25,0,0,1-.09,3.75h0a4.89,4.89,0,0,1-6.61.74,3.07,3.07,0,0,1-1.19-2.1c-.21-1.92,1.54-3.69,3.9-3.94a5.09,5.09,0,0,1,.54,0,4.52,4.52,0,0,1,2.87,1A2.58,2.58,0,0,1,292.35,37.07Z"/><path class="cls-7" d="M290.76,24.41c.36,3.68,1,7.19,1.4,10.36a6.37,6.37,0,0,0-4-.83,6.22,6.22,0,0,0-4.55,2.66,4.66,4.66,0,0,0-3.5-.69,5.59,5.59,0,0,0-2.82,1.33,5.66,5.66,0,0,0-.77-.78A6.22,6.22,0,0,0,272,35.19a6.29,6.29,0,0,0-4.28,2.28L257.35,34c.64-3.28,1.92-6.06,3.56-7.36C271.73,25.15,289.19,23.53,290.76,24.41Z"/><path class="cls-8" d="M289.1,10.69c.46,3.72,2.13,12,1.66,13.72-1.57-.88-19,.74-29.85,2.18l-1.77.24a36.84,36.84,0,0,1-9.15.42s.2-3.72,0-7.2c3.8,1.36,4.52-4.44,2.45-8.48s8.18-4.86,19.74-4S284.54,4,281.06,2.32C287.43,4.64,288.76,8,289.1,10.69Z"/><path class="cls-7" d="M253,47.34c-5.47,0-8.1-5.82-8.88-9.1-.5-2.07.33-5.68,2.56-6.59,1.56-.68,3.82,0,6.8,3.43.66,6.4,3.66,6.76,3.66,6.76a24.93,24.93,0,0,1-.05-6.28l9.78,3.33a4.75,4.75,0,0,0-.24,2,4.65,4.65,0,0,0,1.78,3.19,6.17,6.17,0,0,0,3.88,1.32l.71,0c3.22-.36,5.61-2.91,5.32-5.71a5.52,5.52,0,0,0-.18-.9,3.5,3.5,0,0,1,2.27-1.25,2.91,2.91,0,0,1,2.58.66,4.27,4.27,0,0,0-.13,1.47,4.75,4.75,0,0,0,1.78,3.19,6.21,6.21,0,0,0,3.88,1.32l.72,0a7,7,0,0,0,2.31-.69,7.48,7.48,0,0,1-1.15,1.86c-1.35,1.58-2.51,4.5-3.74,7.68a19.09,19.09,0,0,0-1.62-2.1c-1.67,2-5.15,2-7.31.25C272.16,53,267,54.9,267.43,57.75c.21,1.81,3.63,1.4,4.88.42,1.87.77,6.54,1.6,8.69-.48a17,17,0,0,0,3.69.17c-1.83,4.12-4,7.67-7.28,8.1-.58.08-1.16.11-1.7.13-6,.18-10.07-2.87-11.31,2.47-1.36,5.84-3.67,4.39-5.15,4.38-2.61,0-3.94,5.14,2.89,4.26-.95.61-1.91,1.19-2.89,1.72a52.44,52.44,0,0,1-7.63,3.46c-.4-1.28-.8-2.5-1.15-3.67q-.84-2.59-1.49-4.86h0c-1.64-7.54,1.84-15.85,7.29-17.74V56a49.85,49.85,0,0,0-1.77-7.86c-.09-.28-.17-.57-.27-.88A7.47,7.47,0,0,1,253,47.34Z"/><path class="cls-2" d="M287.52,56.6A10.15,10.15,0,0,1,287.8,64C287,66.89,279,78.29,269.71,86.18a11.34,11.34,0,0,1-.18-8.64c.53-1.59,1-2.82.18-4.15,0,0-5,3.89-6.69,7.73-2.31,1.25-3.77-2.2-3.77-2.2,1-.53,1.94-1.11,2.89-1.72h0a84.44,84.44,0,0,0,13.55-11.11c.54,0,1.12,0,1.7-.13,3.24-.43,5.45-4,7.28-8.1C286,57.77,287.09,57.4,287.52,56.6Z"/><path class="cls-9" d="M287.75,55.65a1.88,1.88,0,0,1-.23,1c-.43.8-1.52,1.17-2.83,1.26a17,17,0,0,1-3.69-.17c-2.15,2.08-6.82,1.25-8.69.48-1.25,1-4.67,1.39-4.88-.42-.48-2.85,4.73-4.79,10.3-6.64,2.16,1.77,5.64,1.78,7.31-.25a19.09,19.09,0,0,1,1.62,2.1A5.49,5.49,0,0,1,287.75,55.65Z"/><path class="cls-10" d="M284,267.74l.31,4.65H239.55a15.92,15.92,0,0,0,1.3-4.65Z"/><path class="cls-11" d="M283.93,175.5c.44,4,.24,8.4,1.08,11.39a41.77,41.77,0,0,1-3.51,2.8,59,59,0,0,1-17.08,8.52c-8-7.09-20.93-16.65-10.94-15.59,10.39,1.12,27.65,5.42,19.85-3.53-3.16-3.61,7.32-9.46,4.81-12.87C282.3,167.13,283.48,171.06,283.93,175.5Z"/><path class="cls-2" d="M281.06,2.32c3.48,1.65,2.7,6.06-8.88,5.22s-21.79,0-19.74,4,1.35,9.84-2.45,8.48c.2,3.48,0,7.2,0,7.2a6.58,6.58,0,0,1-3-1,2.1,2.1,0,0,1-.89-1.49,44.51,44.51,0,0,1,1.58-14.09c3.34-9,18.17-11.5,24-10.47A41.45,41.45,0,0,1,281.06,2.32Z"/><path class="cls-10" d="M280.65,216.2H257c1.19-4.46,1.39-8.21.54-10.86,5.25.07,11,.47,11-1.94h11.27Z"/><path class="cls-6" d="M268.54,203.4c0,2.41-5.74,2-11,1.94.85,2.65.65,6.4-.54,10.86a60.17,60.17,0,0,1-4.27,11.13c-.09,4.34-3.89,7.87-6.59,14.46s-1.39,16.5-5.37,21.23a23,23,0,0,1,.07,4.72,15.92,15.92,0,0,1-1.3,4.65c-.56,1.36-1.24,2.85-1.93,4.92-1.1,3.43-2.21,4.38-4.05,4.59-1.34.16-3.07-.1-5.51,0-.4,0-.83,0-1.28,0a50.86,50.86,0,0,1-11.59-2.15,20.1,20.1,0,0,1-4.83-2c-.45-.32-.86-.66-1.25-1a5.69,5.69,0,0,1-1.84-2.29,2.21,2.21,0,0,1,0-1.73c0-.08.06-.18.09-.28.81-2.14,2.51-9.18,6.5-22.64-3.72-9.83.54-26.7,3.24-41,0,0-.23-2.32-.51-5.37-.33-3.64-.73-8.34-.89-11.32-.27-5.47,4.19-10.2,9.66-15.3,0,0-1-3.43,4.18-5.38s4.89-3.24,8.15-5.18,6.67-7,12.43-7,4.61-1.72,14.73,2.59a64,64,0,0,0,13.26,4.37c2.51,3.41-8,9.26-4.81,12.87,7.8,8.95-9.46,4.65-19.85,3.53-10-1.06,2.94,8.5,10.94,15.59l.93.83C267.59,201.06,268.52,202.46,268.54,203.4Z"/><path class="cls-7" d="M276.73,39.81c.2,1.92-1.55,3.7-3.89,3.94a4.62,4.62,0,0,1-3.42-.93,3.08,3.08,0,0,1-1.2-2.1c-.19-1.92,1.55-3.69,3.89-3.94a5.48,5.48,0,0,1,.55,0,4.46,4.46,0,0,1,2.87,1A3.09,3.09,0,0,1,276.73,39.81Z"/><path class="cls-12" d="M264.4,68.56c1.24-5.34,5.28-2.29,11.31-2.47A84.44,84.44,0,0,1,262.16,77.2h0c-6.83.88-5.5-4.28-2.89-4.26C260.73,73,263,74.4,264.4,68.56Z"/><path class="cls-8" d="M269.71,73.39c.82,1.33.35,2.56-.18,4.15-2.42,1.35-5.27,2.92-6.51,3.58C264.71,77.28,269.71,73.39,269.71,73.39Z"/><path class="cls-6" d="M257.35,34l10.32,3.52a5.52,5.52,0,0,0-.8,1.42l-9.78-3.33C257.17,35,257.25,34.48,257.35,34Z"/><path class="cls-12" d="M262.64,99.67c.74,1.83.72,2.63-2.63,2.77,2,2.62-1.81,2.54-4.51,1.3-.8-2.84-1.89-5.37-4.79-10.39,0,0,3.27.21,2.18-2.18,1.22-.53,2.37-1,1.73-2.47,1,1.3,1.84,2.6,2.63,3.56C259.94,95.58,261.4,96.7,262.64,99.67Z"/><path class="cls-13" d="M259.14,26.83l1.77-.24c-1.64,1.3-2.92,4.08-3.56,7.36-.1.53-.18,1.06-.26,1.61a24.93,24.93,0,0,0,.05,6.28s-3-.36-3.66-6.76c-3-3.43-5.24-4.11-6.8-3.43-1.62-1.4-.33-3.61.27-5.38a6.58,6.58,0,0,0,3,1A36.84,36.84,0,0,0,259.14,26.83Z"/><path class="cls-2" d="M243.48,125.5a9.61,9.61,0,0,1-1.77.1c-3.25.27-4.09-6.78-6.75-13.95a18.27,18.27,0,0,1,2.66-.71c3.71-.66,7.27-2.61,8.53-6.7.82,1.31,1.67,2.36,2.52,2.42,2,.14,2.18-.88,1.67-2.41,2,.87,2.11,2.25,3.78,2.11a2.63,2.63,0,0,0,.8-.18c2.36,3.74,4.77,4.76,3.85,6.33S250.84,124.28,243.48,125.5Z"/><path class="cls-8" d="M256.26,56v.13C250.82,58,247.34,66.3,249,73.84c-2.89-10-2.92-15.8,5.51-25.73A49.85,49.85,0,0,1,256.26,56Z"/><path class="cls-7" d="M232.57,84.56a9.56,9.56,0,0,1,2.07-.3c2-1.7,9-1.24,13-.64.27,0,.55.08.79.13,2.45.41,4.45,2.66,6.15,4.92,0,0,0,0,0,0,.64,1.51-.51,1.94-1.73,2.47,1.09,2.39-2.18,2.18-2.18,2.18,2.9,5,4,7.55,4.79,10.39.42,1.24.35,2.09-.58,2.44a2.63,2.63,0,0,1-.8.18c-1.67.14-1.81-1.24-3.78-2.11.51,1.53.29,2.55-1.67,2.41-.85-.06-1.7-1.11-2.52-2.42-1-1.69-2-3.85-2.64-5a4.89,4.89,0,0,0-4.59-2.55,17.16,17.16,0,0,1-4.59-.2l-6.23,3.34C224.86,95.82,225.71,86.36,232.57,84.56Z"/><path class="cls-2" d="M254.22,47.23c.1.31.18.6.27.88-8.43,9.93-8.4,15.77-5.51,25.73h0q.65,2.27,1.49,4.86c-3.76,1.73-3.19-2.36-4.32-10.71a44.65,44.65,0,0,0-7,10.29c-.16-6.06.95-12.92,7.49-22.67.77-1.14,1.61-2.33,2.54-3.56l.75-1h0c1.18-1.49,2.22-2.77,3-3.77A7.47,7.47,0,0,0,254.22,47.23Z"/><path class="cls-3" d="M251.62,82.38l-4,1.24c-4-.6-11-1.06-13,.64a9.56,9.56,0,0,0-2.07.3c-2.92-.8-3.58-.13-7.84,4.22s-8.08,11.77-8.08,11.77c-.92,2.23-4.72,2.69-5.55,4.92a15,15,0,0,1-7.23,8.07c-1.94-13.45,5.83-26.52,6.76-32.83,0,0,7.24.92,6.87-5.75,2.13.37,3.25.09,7.39-14.66.72.93,5.13,3,21.79-4.68-6.54,9.75-7.65,16.61-7.49,22.67a44.65,44.65,0,0,1,7-10.29c1.13,8.35.56,12.44,4.32,10.71C250.82,79.88,251.22,81.1,251.62,82.38Z"/><path class="cls-14" d="M250,51.11l-.75,1c-.93,1.23-1.77,2.42-2.54,3.56-16.66,7.65-21.07,5.61-21.79,4.68-4.14,14.75-5.26,15-7.39,14.66.37,6.67-6.87,5.75-6.87,5.75.93-6.31,6.13-10.48,7.8-20.12S240.3,52.06,250,51.11Z"/><path class="cls-2" d="M247.2,138.75c1.1,3.64,2.35,6.43,4.52,8.05a64.18,64.18,0,0,0-12.53-.71Z"/><path class="cls-8" d="M247.2,138.75l-8,7.34a54.66,54.66,0,0,0-6,.58l-6.14-2.18c1-.6,2-1.3,3.18-2.12,7.45-5.1-3.47-7.41.83-22.46a2.52,2.52,0,0,0,5,.56,15.64,15.64,0,0,0-1.46-8.58l0-.11a2.72,2.72,0,0,1,.37-.13c2.66,7.17,3.5,14.22,6.75,13.95a9.61,9.61,0,0,0,1.77-.1C245.11,130.55,246.07,135.08,247.2,138.75Z"/><path class="cls-7" d="M243.51,99.24c.69,1.15,1.63,3.31,2.64,5-1.26,4.09-4.82,6-8.53,6.7a18.27,18.27,0,0,0-2.66.71,2.72,2.72,0,0,0-.37.13,29.08,29.08,0,0,0-4.39,2,2.36,2.36,0,0,1,0,.59,3.11,3.11,0,0,1-1.68,2.25c.22,1.89-1,3.86-1.3,5.23-.3,1.52-2.34,0-2.34,0-.64,1-2.53.22-3-1.09-1.52-5.23-1.66-8.58.29-11.13s1-4.65-1.46-4a1.76,1.76,0,0,1-.21-2.83c2.41-2.33,3-2.68,4.94-2.39.72-.13,1.64-.34,2.7-.58C232.38,98.9,238.9,97.55,243.51,99.24Z"/><path class="cls-12" d="M238.92,96.69a4.89,4.89,0,0,1,4.59,2.55c-4.61-1.69-11.13-.34-15.41.59l6.23-3.34A17.16,17.16,0,0,0,238.92,96.69Z"/><path class="cls-15" d="M232.72,294.28c1.26,3.27,4.21,7.07,3.6,9.92s-4.63,4.67-17.15,4.16c-9.8-.4-14.58-.4-15.53-2.7a3.5,3.5,0,0,1,0-2.29,17.16,17.16,0,0,1,1.14-2.89,17,17,0,0,0,1.09-3l2.92.38c-.21,1.08,1.23,1.41,2.95.67,2.5-1.07,5.56-1.52,11.85-.4s2.61-.09.85-3.16-.66-7.79,2.32-13.18h0c.45,0,.88,0,1.28,0,2.44-.05,4.17.21,5.51,0C235.2,287.32,230.2,287.78,232.72,294.28Z"/><path class="cls-16" d="M236.32,304.2c.1,4.36-2,9.54-10.66,9.54s-23.64,1.82-22-8.08c1,2.3,5.73,2.3,15.53,2.7C231.69,308.87,235.73,307,236.32,304.2Z"/><path class="cls-17" d="M234.62,111.89a15.64,15.64,0,0,1,1.46,8.58,2.52,2.52,0,0,1-5-.56,10.76,10.76,0,0,0-.83-5.54h0a2.36,2.36,0,0,0,0-.59,29.08,29.08,0,0,1,4.39-2Z"/><path class="cls-2" d="M216.57,147c4.7.46,6.92-.24,10.5-2.52l6.14,2.18a63.41,63.41,0,0,0-14.51,4,74.4,74.4,0,0,1-9.14.21h0l.53-4.81C212.72,146.51,214.82,146.83,216.57,147Z"/><path class="cls-2" d="M224.73,88.78c4.26-4.35,4.92-5,7.84-4.22-6.86,1.8-7.71,11.26-4.47,15.27-1.06.24-2,.45-2.7.58-1.89-.29-2.53.06-4.94,2.39a6.63,6.63,0,0,0-2.47,1.87c-1.89-.93-1.34-4.12-1.34-4.12S220.46,93.13,224.73,88.78Z"/><path class="cls-2" d="M230.25,114.37a10.76,10.76,0,0,1,.83,5.54c-4.3,15.05,6.62,17.36-.83,22.46-1.21.82-2.23,1.52-3.18,2.12-3.58,2.28-5.8,3-10.5,2.52,0-.71.13-4.13,5.75-7.51,6.31-3.8-4-6.4,2.57-17.65,0,0,2,1.52,2.34,0,.26-1.37,1.52-3.34,1.3-5.23a3.11,3.11,0,0,0,1.68-2.25Z"/><path class="cls-18" d="M224.46,295c1.76,3.07,5.45,4.27-.85,3.16s-9.35-.67-11.85.4c-1.72.74-3.16.41-2.95-.67a4.12,4.12,0,0,1,1.55-2c3.06-2.55,6.88-11.36,4.83-16.23a50.86,50.86,0,0,0,11.59,2.15h0C223.8,287.22,222.69,292,224.46,295Z"/><path class="cls-11" d="M225.93,165c2,3.68,3.64,6.43,3.64,6.43-5.21,1.95-4.18,5.38-4.18,5.38-5.47,5.1-9.93,9.83-9.66,15.3,0,0-4.18,5.41-9.19,11-1,1.17-2.14,2.35-3.23,3.49l2.45-21.87c8.59,2.52,5.8-.34.48-4.35l1.14-10.19c6.7.59,13.74,0,18.54-5.18Z"/><path class="cls-6" d="M225.93,165h0c-4.8,5.16-11.84,5.77-18.54,5.18l2.16-19.31h0a74.4,74.4,0,0,0,9.14-.21A155.71,155.71,0,0,0,225.93,165Z"/><path class="cls-14" d="M221.84,120.76c.52,1.31,2.41,2.11,3,1.09-6.56,11.25,3.74,13.85-2.57,17.65-5.62,3.38-5.78,6.8-5.75,7.51-1.75-.18-3.85-.5-6.5-1l3.15-28.11a1.86,1.86,0,0,1,0-.26c.7,1.06,2.93.16,3.43-1.64a29,29,0,0,0,1.38,4.22C218.94,122.28,220.83,122.21,221.84,120.76Z"/><path class="cls-12" d="M220.67,105.63c2.49-.65,3.43,1.46,1.46,4s-1.81,5.9-.29,11.13c-1,1.45-2.9,1.52-3.78-.52a29,29,0,0,1-1.38-4.22c-.5,1.8-2.73,2.7-3.43,1.64v0a1.43,1.43,0,0,1-.21-.73c-.06-2.12-.29-4.08,1.17-6.55a38.64,38.64,0,0,1,3.78-5.69,6.63,6.63,0,0,1,2.47-1.87A1.76,1.76,0,0,0,220.67,105.63Z"/><path class="cls-17" d="M186.76,313.66a2.38,2.38,0,0,1-.31-1.49l.34-3,1.76-15.71L189.93,281l4.25-38,1.94-17.4L197.66,212l1.06-9.49,2.15-19.2.7-6.33.84-7.43,2.07-18.65.7-6.25,3-27.24a15.39,15.39,0,0,1,5.18-10,14.21,14.21,0,0,1,4.58-2.68,38.64,38.64,0,0,0-3.78,5.69c-1.46,2.47-1.23,4.43-1.17,6.55a1.43,1.43,0,0,0,.21.73v0a1.86,1.86,0,0,0,0,.26L210.07,146l-.53,4.81-2.16,19.31-1.14,10.19-.48,4.35-2.45,21.87-5,44.66L195,280.68l-1.87,16.77-1.22,10.78-.5,4.5c0,.15-.05.29-.08.44A2.52,2.52,0,0,1,189,315h-.28A2.48,2.48,0,0,1,186.76,313.66Z"/><path class="cls-10" d="M216.62,203.4c.28,3,.51,5.37.51,5.37-2.7,14.29-7,31.16-3.24,41-4,13.46-5.69,20.5-6.5,22.64l4.46-69Z"/><path class="cls-4" d="M216.62,203.4H208.5a6.29,6.29,0,0,1-2-.33c5-5.58,9.19-11,9.19-11C215.89,195.06,216.29,199.76,216.62,203.4Z"/><path class="cls-14" d="M216.65,100.55s-.55,3.19,1.34,4.12a14.21,14.21,0,0,0-4.58,2.68,15.39,15.39,0,0,0-5.18,10l-3,27.24s-.74-.11-1.89-.21l0-.08c-3.44-.86-2.14-5.92-3.05-8.88-1.48-4.72-.75-19.66,3.61-21.89a15,15,0,0,0,7.23-8.07C211.93,103.24,215.73,102.78,216.65,100.55Z"/><path class="cls-15" d="M215.19,279.67c2.05,4.87-1.77,13.68-4.83,16.23a4.12,4.12,0,0,0-1.55,2l-2.92-.38c.05-.2.09-.39.13-.58.94-4.48-.31-8.2.52-11.48a7.33,7.33,0,0,1,1.22-2.58c1.86-2.23,1.35-6.18,1.35-6.18.39.32.8.66,1.25,1A20.1,20.1,0,0,0,215.19,279.67Z"/><path class="cls-6" d="M206.24,180.34c5.32,4,8.11,6.87-.48,4.35Z"/><path class="cls-10" d="M209.11,276.7s.51,3.95-1.35,6.18a7.33,7.33,0,0,0-1.22,2.58l.73-11A5.69,5.69,0,0,0,209.11,276.7Z"/><path class="cls-19" d="M204.43,284.25c-.1,3.87,1.95,8,1.59,12.69,0,.19-.08.38-.13.58a17,17,0,0,1-1.09,3,17.16,17.16,0,0,0-1.14,2.89,31.69,31.69,0,0,1-11.58,4.87h-.14l1.22-10.78c4,.48,11-5.31,4.87-9.11-4.63-2.88.47-7.58.47-7.58C201.64,281.05,203.64,282,204.43,284.25Z"/><path class="cls-3" d="M205.18,144.6l-.7,6.25c-7.73.12-16.38.69-20.08,3.31-.8.56-1.64,1.12-2.49,1.67-1-2.6,2.2-4.37,9-6.69.7-5,8.69-5,12.41-4.75C204.44,144.49,205.18,144.6,205.18,144.6Z"/><path class="cls-6" d="M199.2,253.05c6.48,13.29,5.57,12,5.5,17.88s-.27,13.32-.27,13.32c-.79-2.22-2.79-3.2-5.93-3.49a29.7,29.7,0,0,0-3.47-.08l3.29-29.46C198.61,251.81,198.9,252.42,199.2,253.05Z"/><path class="cls-6" d="M204.48,150.85l-2.07,18.65c-4-.64-7.55-1.41-10.14-1.54-3.51-.16,3,4.43,9.3,9l-.7,6.33c-18.65-5.5-36.07-10.39-21,2.38,12.12,10.29,16.06,13.56,15.61,16.45a6.67,6.67,0,0,1-1.89,3.16c-4.07,4.63-1.34,5.69.29,9.35a17.14,17.14,0,0,1,2.18,11c-.42,3.21-1.73,5.82-3.78,6.45a90.27,90.27,0,0,0,.9,9s.35.65,1,1.94l-4.25,38h0c-2.71.25-5.78.59-9.14.93l-1.22.12v0c-2.34.24-4.27.53-5.84.8-6.67,1.16-7.14,2.13-7.68.48-.71-2.08-4.19-35.47-6.13-49.1s-5.42-27-8.77-44.58,8-21.34,17.11-24.77c.34-1.24,7.31-4.93,13.66-9.09.85-.55,1.69-1.11,2.49-1.67C188.1,151.54,196.75,151,204.48,150.85Z"/><path class="cls-16" d="M203.66,303.37a3.5,3.5,0,0,0,0,2.29c-1.46,3.47-4.28,6.26-12.28,7.51,0-.15.06-.29.08-.44l.5-4.5h.14A31.69,31.69,0,0,0,203.66,303.37Z"/><path class="cls-11" d="M202.41,169.5l-.84,7.43c-6.33-4.54-12.81-9.13-9.3-9C194.86,168.09,198.45,168.86,202.41,169.5Z"/><path class="cls-11" d="M200.87,183.26l-2.15,19.2-3.26-.37c.45-2.89-3.49-6.16-15.61-16.45C164.8,172.87,182.22,177.76,200.87,183.26Z"/><path class="cls-11" d="M198.72,202.46,197.66,212a22.73,22.73,0,0,1-3.8,2.65c-1.63-3.66-4.36-4.72-.29-9.35a6.67,6.67,0,0,0,1.89-3.16Z"/><path class="cls-18" d="M198,288.34c6.13,3.8-.88,9.59-4.87,9.11L195,280.68a29.7,29.7,0,0,1,3.47.08S193.4,285.46,198,288.34Z"/><path class="cls-18" d="M189.93,281l-1.38,12.41c-2.37-1.78-5.87-2.14-13.24,1.87-1.09.6-2,1.11-2.89,1.59-.51-3.19-.61-6.45,1.73-8.85a8.14,8.14,0,0,1,2.09-1.56c4.42-2.39,3.51-3.25,3.32-4.39v0l1.22-.12c3.36-.34,6.43-.68,9.14-.93Z"/><path class="cls-15" d="M172.42,296.89c.85-.48,1.8-1,2.89-1.59,7.37-4,10.87-3.65,13.24-1.87l-1.76,15.71h0A45.9,45.9,0,0,1,167.05,307C166.22,301.32,164.85,301.12,172.42,296.89Z"/><path class="cls-16" d="M186.79,309.14l-.34,3a2.38,2.38,0,0,0,.31,1.49c-2,.15-4.17.21-6.63.21-13.35,0-15.58-4.42-13.08-6.91a45.9,45.9,0,0,0,19.69,2.18Z"/><path class="cls-19" d="M179.56,282.09c.19,1.14,1.1,2-3.32,4.39a8.14,8.14,0,0,0-2.09,1.56c-2-1.33-.43-5.15-.43-5.15C175.29,282.62,177.22,282.33,179.56,282.09Z"/></g><g id="Grandmother"><path class="cls-7" d="M430,72.47c-.26,0-.51,0-.79,0-6.71-.29-7.18-4.17-6.52-6.45s-2.65-6.33-1.8-10.12c.76-2.93-6,.48-2.74-6,.54-1.13,2.21-4.94,2.6-5.79a7.3,7.3,0,0,0,.43-4.91,9.4,9.4,0,0,1-.05-2.79A14.15,14.15,0,0,1,422.73,31c4.84,8.85,16.66,19.9,17,28.07a2.89,2.89,0,0,1,0,.4c0,7.91-3.48,12.83-9.69,13C430.07,72.47,430.06,72.48,430,72.47Z"/><path class="cls-20" d="M444,64.05c.29-.15,3.66-1.83,2.79,0s-4.39,8.39-16.76,8.41c6.21-.15,9.67-5.07,9.69-13a2.89,2.89,0,0,0,0-.4c.16-3.32.51-10.48.59-14.78.1-5.73,2.41-20.59.5-27.1.76-.68,1.35-.9,1.81-.76,1.32.42,1.75,3.76,2.18,9.21.6,7.42-2.59,21.26,2.14,9.62S452.92,47.08,444,64.05Z"/><path class="cls-21" d="M429.25,72.47c.28,0,.53,0,.79,0,0,0,0,0,0,0,12.37,0,15.86-6.48,16.76-8.41s-2.5-.16-2.79,0c8.88-17,7.66-40.41,2.92-28.77s-1.54-2.2-2.14-9.62c-.43-5.45-.86-8.79-2.18-9.21,9.66.61,21.68,6.45,22.2,18.45,2.53,13.61,7.05,19.43.75,22.06,6.3,4.14-.19,10.25,4.14,12.12s10.71,5.63,3.19,11.47c8.64,6.57,12.3,20.38,8.35,24.33,3.48,29.87,4,46-2.71,56.54-.3.48-.59,1-.85,1.44-4-7.78-13.34-7.26-6.47-13.09,5.11-4.34,4.84-6.65-.08-11.22-1.67-1.54-3.89-3.35-6.6-5.6-.78-.64-1.53-1.25-2.27-1.81-9.3-7.07-14.92-7.34-23.19-4.2,4-12.4,12.12-17.66,18-23.2s10.71-13-1.68-2.71-17.11,15.68-27,15.87,2.52,12-2.14,14.83a12.2,12.2,0,0,1-7.08,1.72c-3.24-5.08-5-11.82-2.88-18.15,1-3,1.86-5.61,2.5-7.88,1.6-5.61,2-9.26,1.06-12.89-1.32-5.07-7.11-7.23.21-11.64,5.18-3.13-2.84-7.89-2.91-12.11,0-1.73,1.32-3.38,5.49-4.76C422.07,68.3,422.54,72.18,429.25,72.47Z"/><path class="cls-22" d="M440.83,17.21c1.91,6.51-.4,21.37-.5,27.1-.08,4.3-.43,11.46-.59,14.78-.35-8.17-12.17-19.22-17-28.07a14.15,14.15,0,0,0-1.56,5.35c-4.39-4.14-3.64-8,4.94-12.84A13.2,13.2,0,0,1,432,19.21,28.49,28.49,0,0,1,440.83,17.21Z"/><path class="cls-23" d="M389.73,300l.49,3.95-3.17-.82C388,302,388.83,300.94,389.73,300Z"/><path class="cls-24" d="M341.31,154.52c-.81.77-1,1.36-.72,1.8-6.12.3-22.75,1.81-12.42,9.89s-19.36,6.67,1.21,14S344.44,190,344.44,190a119.57,119.57,0,0,1-18.25-6.81c-3.2-1.57-5.4-3.16-6.76-5-2.51-3.29-2.28-7.28-.47-13.15C321.78,156,328.36,151.49,341.31,154.52Z"/><path class="cls-12" d="M365.18,155.28c1.7-1.32,6.54,0,1.86,4.71a75.69,75.69,0,0,0-13.23-.88v0a7.76,7.76,0,0,0,3.36-3.21c3.4-3.15,5.42-5.5,7.35-4.13S365.18,155.28,365.18,155.28Z"/><path class="cls-12" d="M344.84,156.86a21.55,21.55,0,0,0,5.87-1.78l1.17-.69h0c1.55-.86,3.38-1.6,4.83-.72a1.57,1.57,0,0,1,.44,2.21,7.76,7.76,0,0,1-3.36,3.21v0a28.59,28.59,0,0,0-7.46.8A2.33,2.33,0,0,1,344.84,156.86Z"/><path class="cls-25" d="M344.44,190a177.55,177.55,0,0,0,31,6.16,27.78,27.78,0,0,0,7.68-.16s0,0,0,0c11.53-1.89,17.49-11.4,22.16-20.41,13.17.83,38.71,17.75,38.42,22.16a42,42,0,0,1-1.33,4.87c-2.44,6.8-8,12.48-30.23,15.9-7,5.46-16.87,8.25-25,9.68a98.91,98.91,0,0,1-14.36,1.48c6.11,11.19,21.6,33.17,18.36,21.52s2-8.73,2-8.73h0c2.81,6.11,5,12.43,2.66,17.75a11,11,0,0,0-.73,5.78,23.2,23.2,0,0,0,.7,3.59c1.3,4.94,3.66,9.93,2.55,14.08a7.64,7.64,0,0,1-2.36,3.77,12.56,12.56,0,0,1-2.83,1.91c-.47.24-.95.48-1.45.7-1.95,1-4.18,1.94-6.65,2.9a109.92,109.92,0,0,1-15.56,4.8c2.23-5.13-9.36-3.53-27.24-3.34s10.74-13.34,4.06-19-10-37.2-11.55-46.79-3.94-6.57-3.19,7.15,0,41.82-1.93,56.21c-.16-.53-1-1.29-3.19-2.49-1-.53-2.19-1.15-3.72-1.87-1.28-.61-2.47-1.16-3.59-1.66l-5-2.19c-5.82-2.6-8.35-4.16-8.14-8.36.11-2.55,1.22-6.06,3.21-11.35,6.57-17.59,23.47-69.44,14.65-58.35s-18.66-20.48-17.88.38-7.86,47-11.62,35.5-3.76,4.7-5.63,14.27-1.25,14.31-2.87,15.33c-4.06-.48-6.1-.89-5.21-2.93a25,25,0,0,0,1.18-3c2.79-8.36,5-25.16,7.83-53.56a93.79,93.79,0,0,1,2.26-13.86c0-.09,0-.19.08-.28.19-.73.4-1.45.61-2.17a.54.54,0,0,1,0-.1c4.83-15.45,13.86-15,26.8-17.12,1.36,1.81,3.56,3.4,6.76,5A119.57,119.57,0,0,0,344.44,190Z"/><path class="cls-10" d="M410.11,166.28c-1.57,2.77-3.11,6-4.83,9.33-4.67,9-10.63,18.52-22.16,20.41,0,0,0,0,0,0-8.17-.7-14.83-6.33-7.68-9.23s11.84-5.26,17.71-22.63C398.23,164.83,403.93,165.55,410.11,166.28Z"/><path class="cls-22" d="M393.13,164.16c-12.83-1.7-21.68-3-23.54-2.45,0-.39-.08-.76-.12-1.13s-.09-1-.12-1.47l.12,0a10.34,10.34,0,0,1,10.36-.5c6,2.83,29.68,4.33,39.05-2.27s13-.92,23.33-1.38,14.08-8.64,20.08-23.78v0c.74.56,1.49,1.17,2.27,1.81,2.71,2.25,4.93,4.06,6.6,5.6-4.82,5.4-9.77,11.08-15.43,16-9.62,8.31-21.23,14.29-37.43,12.64-2.8-.29-5.55-.6-8.19-.88C403.93,165.55,398.23,164.83,393.13,164.16Z"/><path class="cls-23" d="M344.89,314.22c7.51,2.26,22.08,6,27.89.88s-16.87-1.63-1.59-8.27,20-11.56,13.84-13.86c2.47-1,4.7-1.94,6.65-2.9l7.94,1.54a50.1,50.1,0,0,1-1,6.16,51.51,51.51,0,0,1-8.39,6.19l-.49-3.95c-.9.93-1.78,2-2.68,3.13-5.36,6.78-11,16.4-21.62,17.59s-19.32-2.15-20.56-5.08A1.57,1.57,0,0,1,344.89,314.22Z"/><path class="cls-26" d="M477.71,162.86a28.84,28.84,0,0,0-2.43,20.35,19.72,19.72,0,0,1-13.09.11.29.29,0,0,1-.11,0c-1.76-.51-3.45-1.14-5.16-1.64a19.21,19.21,0,0,0-7.57-.88c8.26-13.9,7.33-17.65,6.38-26.25,5.66-4.89,10.61-10.57,15.43-16,4.92,4.57,5.19,6.88.08,11.22C464.37,155.6,473.67,155.08,477.71,162.86Z"/><path class="cls-20" d="M455.46,101c12.39-10.25,7.6-2.83,1.68,2.71s-14,10.8-18,23.2c-3.59,2.44-1.6,12.08-12.35,13.87a20.91,20.91,0,0,1-7.49-7.36,12.2,12.2,0,0,0,7.08-1.72c4.66-2.85-7.72-14.65,2.14-14.83S443,111.26,455.46,101Z"/><path class="cls-27" d="M426.75,140.81c10.75-1.79,8.76-11.43,12.35-13.87,8.27-3.14,13.89-2.87,23.19,4.2v0c-6,15.14-9.75,23.31-20.08,23.78s-14-5.21-23.33,1.38-33,5.1-39.05,2.27a10.34,10.34,0,0,0-10.36.5l-.12,0a65.91,65.91,0,0,1,.24-13.38c3.17-.11,6.88-.56,11-1.12,11.93-1.68,26.87-4.49,40.06-3.57A25.36,25.36,0,0,0,426.75,140.81Z"/><path class="cls-28" d="M462.19,183.32v0l-3.14,116.75a2.72,2.72,0,0,1-2.71,2.63h-.08a2.69,2.69,0,0,1-2.63-2.79l.51-19.13.1-3.43,1.6-59.72.42-14.91,5.82-19.43v0A.29.29,0,0,0,462.19,183.32Z"/><path class="cls-16" d="M442.77,228.78l4.94-16.47h0l2.5-8.35,4-13.33,2.7-9c1.71.5,3.4,1.13,5.16,1.64v0l-5.82,19.43-6.78,22.58L435,273.67l-1,3.27-16,53.22a2.71,2.71,0,0,1-2.6,1.92,2.61,2.61,0,0,1-.77-.11,2.72,2.72,0,0,1-1.83-3.38L422.6,296l1-3.27,5.05-16.84,1-3.27Z"/><path class="cls-29" d="M456.26,202.74l-.42,14.91a17.87,17.87,0,0,1-6.35,7.67h0Z"/><path class="cls-30" d="M455.73,154.52c.95,8.6,1.88,12.35-6.38,26.25,1.41,2.21,1.54,5.5.72,8.61-1,3.76-3.29,7.25-6.37,8.39.29-4.41-25.25-21.33-38.42-22.16,1.72-3.3,3.26-6.56,4.83-9.33,2.64.28,5.39.59,8.19.88C434.5,168.81,446.11,162.83,455.73,154.52Z"/><polygon class="cls-31" points="454.24 277.37 454.14 280.8 434 276.94 434.98 273.67 454.24 277.37"/><path class="cls-29" d="M450.23,204l-2.5,8.35h0c-6.36,2.35-16.16,5.34-35.57,6.23,22.2-3.42,27.79-9.1,30.23-15.9l.43.2A25.33,25.33,0,0,1,450.23,204Z"/><path class="cls-32" d="M447.71,212.31l-4.94,16.47c-13.36,5.07-34.06,4.65-54.09,4.12h0a27.61,27.61,0,0,1-1.53-4.68c8.13-1.43,18-4.22,25-9.68C431.55,217.65,441.35,214.66,447.71,212.31Z"/><path class="cls-31" d="M429.62,272.64l-1,3.27-32.87-6.3a23.2,23.2,0,0,1-.7-3.59Z"/><path class="cls-22" d="M426.75,140.81a25.36,25.36,0,0,1-6.15.23c-13.19-.92-28.13,1.89-40.06,3.57h0c-5.92-9.35-2.71-13.41,3.62-14.79,8.81-1.94,23.65,1.28,28.45,2.58a26.59,26.59,0,0,0,6.65,1.06A20.91,20.91,0,0,0,426.75,140.81Z"/><path class="cls-31" d="M423.59,292.75l-1,3.27-23-4.41-7.94-1.54c.5-.22,1-.46,1.45-.7a12.56,12.56,0,0,0,2.83-1.91l3.79.72Z"/><path class="cls-20" d="M417.24,70.78c.07,4.22,8.09,9,2.91,12.11-7.32,4.41-1.53,6.57-.21,11.64.93,3.63.54,7.28-1.06,12.89-18.62,7.91-15.09-2-18.1-5.83-.81-1-1-2.92-.73-5.2a32.37,32.37,0,0,1,5.6-14.11,9.18,9.18,0,0,1,3.58-3.14,4.75,4.75,0,0,1,.86-2.46h0A18.74,18.74,0,0,1,417.24,70.78Z"/><path class="cls-27" d="M418.88,107.42c-.64,2.27-1.48,4.85-2.5,7.88-2.15,6.33-.36,13.07,2.88,18.15a26.59,26.59,0,0,1-6.65-1.06c-4.8-1.3-19.64-4.52-28.45-2.58v0c-6.11-10.35,3.06-29.74,15.89-33.4-.25,2.28-.08,4.17.73,5.2C403.79,105.44,400.26,115.33,418.88,107.42Z"/><path class="cls-22" d="M410.09,76.68a4.75,4.75,0,0,0-.86,2.46,9.18,9.18,0,0,0-3.58,3.14h0c-3.81.51-12.46,1.73-13,7.28s-2.16,6.9-4.33,6.35c-1.78,3.88-4.79,1.64-4.79,1.64C386.41,79.52,405.89,77,410.09,76.68Z"/><path class="cls-33" d="M405.63,82.28h0a32.37,32.37,0,0,0-5.6,14.11c-12.83,3.66-22,23-15.89,33.4v0c-6.33,1.38-9.54,5.44-3.62,14.79h0c-4.07.56-7.78,1-11,1.12a28.63,28.63,0,0,1-9.82-4.5c-.93-.63-1.87-1.2-2.79-1.72,1.62-.86,3.79-6.22,6.69-8.34,3.38-17.75,17.19-22.91,19.82-33.62,0,0,3,2.24,4.79-1.64,2.17.55,3.76-.8,4.33-6.35S401.82,82.79,405.63,82.28Z"/><path class="cls-23" d="M399.75,288.18l-3.79-.72a7.64,7.64,0,0,0,2.36-3.77C399.25,284.59,399.65,286.22,399.75,288.18Z"/><path class="cls-34" d="M393.14,242.49h0s-5.22-2.92-2,8.73-12.25-10.33-18.36-21.52a98.91,98.91,0,0,0,14.36-1.48,27.61,27.61,0,0,0,1.53,4.68C389.92,235.92,391.62,239.17,393.14,242.49Z"/><path class="cls-15" d="M385,293c6.2,2.3,1.44,7.22-13.84,13.86s7.39,3.12,1.59,8.27-20.38,1.38-27.89-.88c-2.13-6,1-10.5,7.14-14.21h0a88.42,88.42,0,0,0,17.44-2.23A109.92,109.92,0,0,0,385,293Z"/><path class="cls-35" d="M393.13,164.16c-5.87,17.37-10.57,19.71-17.71,22.63s-.49,8.53,7.68,9.23a27.78,27.78,0,0,1-7.68.16,177.55,177.55,0,0,1-31-6.16s5.52-2.48-15.06-9.81,9.11-5.92-1.21-14,6.3-9.59,12.42-9.89c.45.8,2.38,1,4.25.54a2.33,2.33,0,0,0,1.51,3,28.59,28.59,0,0,1,7.46-.8A75.69,75.69,0,0,1,367,160a20.22,20.22,0,0,1,2.43.59c0,.37.07.74.12,1.13C371.45,161.16,380.3,162.46,393.13,164.16Z"/><path class="cls-34" d="M326.43,293.87c.42-.74,3.55-.69,3.19-1.84,1.93-14.39,2.68-42.51,1.93-56.21s1.68-16.72,3.19-7.15,4.86,41.18,11.55,46.79-21.94,19.16-4.06,19,29.47-1.79,27.24,3.34A88.42,88.42,0,0,1,352,300c-2.38,0-4.77,0-7.14-.21a54.14,54.14,0,0,1-11.54-2.17c-1.13-.33-2.22-.7-3.31-1.12C326.91,295,326.18,294.3,326.43,293.87Z"/><path class="cls-7" d="M341.75,151.94a6.76,6.76,0,0,1,.25-3.59,4.94,4.94,0,0,1,1.53-1.86c1.92-1.56,2.9-1.27,8-1.72a6.67,6.67,0,0,0,3.05.11c2.85-.36,4.14-1.87,2.21-2.72s-3.38-2.58-4.94-3.29a4,4,0,0,0-2-.24c-.34-3.59.86-3.14,2.5-1.91a53,53,0,0,0,4.68,2.79c.92.52,1.86,1.09,2.79,1.72a28.63,28.63,0,0,0,9.82,4.5,65.91,65.91,0,0,0-.24,13.38c0,.48.08,1,.12,1.47A20.22,20.22,0,0,0,367,160c4.68-4.67-.16-6-1.86-4.71,0,0,1.26-2.17-.66-3.53s-3.95,1-7.35,4.13a1.57,1.57,0,0,0-.44-2.21c-1.45-.88-3.28-.14-4.83.72h0c-.62,0-1-1.57-.75-2.32-1,.06-2.25.13-3.19.14-3.34.08-4.27.1-6.63,2.31A3.93,3.93,0,0,1,341.75,151.94Z"/><path class="cls-12" d="M356.77,142.16c1.93.85.64,2.36-2.21,2.72a6.67,6.67,0,0,1-3.05-.11c-1-.33-1.6-1.14-2.16-2.4l-2.34.08a2.94,2.94,0,0,1,2.79-3.82,4,4,0,0,1,2,.24C353.39,139.58,354.85,141.32,356.77,142.16Z"/><path class="cls-23" d="M352,300h0c-6.14,3.71-9.27,8.2-7.14,14.21a1.57,1.57,0,0,0,0,1.43c-9.52,1.7-24.9,1.33-22.89-3.8,20,4,6.88-1.14,13-1.35,8.88-.35,10-8.05,9.89-10.71C347.26,300,349.65,300,352,300Z"/><path class="cls-7" d="M351.88,154.39l-1.17.69a21.55,21.55,0,0,1-5.87,1.78c-1.87.47-3.8.26-4.25-.54-.25-.44-.09-1,.72-1.8,2.36-2.21,3.29-2.23,6.63-2.31.94,0,2.16-.08,3.19-.14C350.86,152.82,351.26,154.39,351.88,154.39Z"/><path class="cls-7" d="M349.35,142.37c.56,1.26,1.12,2.07,2.16,2.4-5.08.45-6.06.16-8,1.72a4.94,4.94,0,0,0-1.53,1.86c-.72-4.33,1.38-5.63,5-5.9Z"/><path class="cls-36" d="M344.89,299.79c.13,2.66-1,10.36-9.89,10.71-6.14.21,7,5.36-13,1.35-3.39-5.26,2.47-11,11.37-14.23A54.14,54.14,0,0,0,344.89,299.79Z"/><path class="cls-25" d="M329.62,292c.36,1.15-2.77,1.1-3.19,1.84v-4.33C328.6,290.74,329.46,291.5,329.62,292Z"/><path class="cls-34" d="M323.85,205.76c8.82-11.09-8.08,40.76-14.65,58.35-2,5.29-3.1,8.8-3.21,11.35a81.3,81.3,0,0,0-20.14-4.22c1.62-1,1-5.74,2.87-15.33s1.87-25.73,5.63-14.27S306.76,227,306,206.14,315,216.84,323.85,205.76Z"/><path class="cls-31" d="M319.12,286l-5.69,19a2.72,2.72,0,0,1-2.6,1.94,2.6,2.6,0,0,1-.78-.13,2.71,2.71,0,0,1-1.82-3.36l5.9-19.66Z"/><path class="cls-34" d="M291.91,197.91a93.79,93.79,0,0,0-2.26,13.86c-2.81,28.4-5,45.2-7.83,53.56-13.64.77-9.63-3-6.25-9.22C278.84,250.13,285.24,221.41,291.91,197.91Z"/></g><g id="Mother"><path class="cls-37" d="M157,294.68c2.23,3.41,4.75,12.48,3,20.18.49-3.72-1.77-17.62-12.84-7.18s-23.5,2-17.59-11.4a17.85,17.85,0,0,0,6.44-4.62C142.13,285.11,152.23,290.09,157,294.68Z"/><path class="cls-38" d="M147.11,307.68c11.07-10.44,13.33,3.46,12.84,7.18-1.32,5.92-5.14,11-13.5,12.23-19.27,2.76-33.25,0-33.25,0a17.84,17.84,0,0,0,2.56-5.25c6-16.63-6.65-28.42-14-30.79a29.72,29.72,0,0,1,3.38.83,35.81,35.81,0,0,1,3.9,1.49c9.18,4.19,15.45,4.92,20.45,2.91C123.61,309.69,136,318.17,147.11,307.68Z"/><path class="cls-39" d="M146.59,284.32c3.66,2.89,12.86,3.95,10.36,10.36-4.72-4.59-14.82-9.57-21-3a17.85,17.85,0,0,1-6.44,4.62c-5,2-11.27,1.28-20.45-2.91a35.81,35.81,0,0,0-3.9-1.49l.75-2.31c2.17-.72,4.37-2.61,2.55-3.3a25.83,25.83,0,0,0,5.33.55c8.74,0,16.35-4.32,20.21-10.71C138.09,275.78,142.91,281.44,146.59,284.32Z"/><path class="cls-40" d="M136.75,266.48a18.35,18.35,0,0,1-2.74,9.63c-3.86,6.39-11.47,10.71-20.21,10.71a25.83,25.83,0,0,1-5.33-.55.06.06,0,0,1,0,0,5.29,5.29,0,0,0-.53-.12s3.28-.36,4.86-2.33-6.17-1.45-10.51-3.28c-3.83-1.64-4-4.39-9.92-6.83a17.55,17.55,0,0,1-1-2.95,3.21,3.21,0,0,1,1.32.33c2.17,1,4.54,1.27,6.32.22h0a68.55,68.55,0,0,0,14.79,1.48c8.17,0,15.36-1.18,19.41-2.95C135.45,268.87,136.75,267.7,136.75,266.48Z"/><path class="cls-41" d="M136.75,266.48c0,1.22-1.3,2.39-3.54,3.35-.53-3.6-4.34-6.5-8.53-4-2.88-3.16-15.88-4.46-15.61.65-3.41-2.24-4.72-2.24-4.72,0C101,265,97,264.65,95.23,266.3l-.06.18c-1.23-.46-2.5-1-3.69-1.45l0,0c1-1.14,3.14-2.16,6.08-3a64.31,64.31,0,0,1,16.26-1.85,77.51,77.51,0,0,1,10.69.72C131.78,262,136.75,264.06,136.75,266.48Z"/><path class="cls-42" d="M133.21,269.83c-4.05,1.77-11.24,2.95-19.41,2.95A68.55,68.55,0,0,1,99,271.3h0a4.59,4.59,0,0,0,1.56-1.46c.66-1-2.14-2.11-5.38-3.35l.06-.18c1.81-1.65,5.77-1.35,9.12.18,0-2.24,1.31-2.24,4.72,0-.27-5.11,12.73-3.81,15.61-.65C128.87,263.33,132.68,266.23,133.21,269.83Z"/><path class="cls-43" d="M126.89,247.2c.84,4.92-.36,12.23-2.21,12.23a.58.58,0,0,1-.19,0c-2.69-.72-2.31-5.75-1.84-10.37.16-1.56,0-3.67.85-5.32,1.35,1,3,2.08,3.38,3.41A.25.25,0,0,1,126.89,247.2Z"/><path class="cls-44" d="M126.88,247.12c-.35-1.33-2-2.43-3.38-3.41s-3.54-4.84-3.74-10.48c0-1-.11-1.9-.22-2.83-.55-4.51-1.89-8.33-2.6-9.37a11,11,0,0,1-1.11-2,2.32,2.32,0,0,0,.66-1.65c0-.35-.51-.49-1.21-.49v-.17a1.5,1.5,0,0,1,1.12-1.43,1.58,1.58,0,0,1,1.71.71,6.61,6.61,0,0,1,1,1.58c-.76,1.23,0,3.09,1.14,3.18a42.91,42.91,0,0,1,.93,4.31c.22,1.33.38,2.69.49,4,.53,6.49-.25,11.67,3.35,14.1C126,243.78,126.56,245.29,126.88,247.12Z"/><path class="cls-7" d="M119.1,217.55a6.61,6.61,0,0,0-1-1.58c-.19-1.43.39-3.19,1.57-3.19h.15a10.75,10.75,0,0,1,5.43,2.66,1.86,1.86,0,0,1-.2,3c-1.21,1.07-3.4,1.76-4.26,2.19a1,1,0,0,1-.57.09C119.14,220.64,118.34,218.78,119.1,217.55Z"/><path class="cls-7" d="M125.07,218.45c1.18,1.59,1.51,2.83-.91,4.87s-3,1.72-3,1.72a42.91,42.91,0,0,0-.93-4.31,1,1,0,0,0,.57-.09C121.67,220.21,123.86,219.52,125.07,218.45Z"/><path class="cls-7" d="M124.16,223.32c1,1.25.85,3-2.5,5.71-.11-1.3-.27-2.66-.49-4C121.17,225,121.72,225.35,124.16,223.32Z"/><path class="cls-12" d="M105.18,228.81a9.56,9.56,0,0,0-1.1.33c-2,.76-4.71,1.4-6.54,2.22-.94-4.2-1.18-8.3-.8-9.61.46-1.57,2.33-2.14,4.4-2.61a17.75,17.75,0,0,0,5.1-1.57v0c-1.55,3.39-.3,7.27,1,7.43a3.93,3.93,0,0,0,3.88-4.78c2,.13,3.76-.28,4.66-1.24a11,11,0,0,0,1.11,2c.71,1,2,4.86,2.6,9.37-2.33,1-3.05-1.37-2.47-2.75C110.78,229.36,108.53,228,105.18,228.81Z"/><path class="cls-12" d="M119.69,212.78c-1.18,0-1.76,1.76-1.57,3.19a1.58,1.58,0,0,0-1.71-.71,1.5,1.5,0,0,0-1.12,1.43v.17a17.36,17.36,0,0,0-2.68.22c-1.69.27-2.48.33-2.48.33-1.78,0-2.83.65-3,1.34l-.91-1.16a6.82,6.82,0,0,1,1.45-2.14C110.09,213,115.24,211.9,119.69,212.78Z"/><path class="cls-37" d="M101.79,291.05c7.32,2.37,20,14.16,14,30.79,1.42-5.86-3.94-4.85-8.39-1.84s-34.63,5.26-34.24-10.5c6-15.4,17.29-20.54,28.61-18.47Z"/><path class="cls-7" d="M115.83,219c-.9,1-2.64,1.37-4.66,1.24a3.93,3.93,0,0,1-3.88,4.78c-1.34-.16-2.59-4-1-7.43l.91,1.16c.13-.69,1.18-1.34,3-1.34,0,0,.79-.06,2.48-.33a17.36,17.36,0,0,1,2.68-.22c.7,0,1.21.14,1.21.49A2.32,2.32,0,0,1,115.83,219Z"/><path class="cls-38" d="M107.37,320c4.45-3,9.81-4,8.39,1.84a17.84,17.84,0,0,1-2.56,5.25c-3.06,4-8.14,4.78-19.22,5-14.81.25-46.84-3.16-52.34-6.43-3-.54-2.75-4.47.79-3.55s23.34,6.17,30.7-12.6C72.74,325.26,102.9,323,107.37,320Z"/><path class="cls-7" d="M108.42,286.25a.06.06,0,0,0,0,0c1.82.69-.38,2.58-2.55,3.3-6-2.48-23-10.17-38.95-9.61l.78-7.18,3.38.24c4.48.26,5.9,0,9.34-2.47,4.2-3,6.67-7.36,11-5.54l0,0c1.19.5,2.46,1,3.69,1.45,3.24,1.24,6,2.35,5.38,3.35A4.59,4.59,0,0,1,99,271.29c-1.78,1-4.15.77-6.32-.22a3.21,3.21,0,0,0-1.32-.33c-1.57,0-1.57,2-1.57,2,1,.3,1.79.6,2.54.91,5.87,2.44,6.09,5.19,9.92,6.83,4.34,1.83,12.08,1.32,10.51,3.28s-4.86,2.33-4.86,2.33A5.29,5.29,0,0,1,108.42,286.25Z"/><path class="cls-39" d="M52.25,283.34c.73-.25,1.48-.55,2.25-.86a23.39,23.39,0,0,1,2.22-.8A37.36,37.36,0,0,1,67,280c16-.56,33,7.13,39,9.61l-.75,2.31a29.72,29.72,0,0,0-3.38-.83l-.05,0C90.42,289,79.17,294.1,73.13,309.5,65.77,328.27,46,323,42.43,322.1s-3.81,3-.79,3.55c-1.51-.11-3-.22-4.4-.36-6-1.51-5.55-7.2-2.15-9.61,1.46-1.52,6.94-1.84,1.43-3.55s15.61-5.38-2.49-8.52-12.2-17.06-4.73-21.13C29.3,282.48,35.45,289.48,52.25,283.34Z"/><path class="cls-45" d="M105.18,228.81c.19,1.73,2.11,13.33-.7,13.47-3.49-.26-5.76-5.67-6.94-10.92,1.83-.82,4.52-1.46,6.54-2.22A9.56,9.56,0,0,1,105.18,228.81Z"/><path class="cls-39" d="M101.14,219.14c-2.07.47-3.94,1-4.4,2.61-.38,1.31-.14,5.41.8,9.61,1.18,5.25,3.45,10.66,6.94,10.92-1.58,1.51-5.47,1.28-5.47,1.28-1.26-7-4.94-14.32-12.77-21.81a4.43,4.43,0,0,0,.66-1s6.12-.82,8-1.87S99.76,217.19,101.14,219.14Z"/><path class="cls-46" d="M83,212.76a12.82,12.82,0,0,1,4,4.79h0a3.84,3.84,0,0,1-.1,3.18,4.43,4.43,0,0,1-.66,1c7.83,7.49,11.51,14.81,12.77,21.81A39.78,39.78,0,0,1,97.54,262c-2.94.81-5.07,1.83-6.08,3-4.32-1.82-6.79,2.52-11,5.54C77,273,75.61,273.28,71.13,273l-3.38-.24L67,280a37.36,37.36,0,0,0-10.25,1.72c2.76-3.26,2.62-5.88-12.72-6s-31.88-3.19-27.54-12.61c3.9-8.52-9.31,1-10.94-5.14a6.85,6.85,0,0,1-.08-2.58c1.3-11,13-43.58,8.39-54.19-4.42-10.22-9-3.42-9.3-2.91,1.68-6.52-1.26-6.74-1.26-6.74a19.2,19.2,0,0,1,2.42-6c3.94-7.34,18-6.55,30.58,8.66S56.73,225.81,63,222.54c0,0,6.32,13.77,13.78,2.51a18,18,0,0,0,1.35-2.76v0a21.13,21.13,0,0,0,.48-12.71A49.8,49.8,0,0,1,83,212.76ZM44.5,259.09c-9.62-11.68,13.26-27.5,3-29.62s-8.4-9.82-9.7-19.92-6.7-9.44-5.91-6.57.14,5.52-1.18,16.54-2.49,22.95-2,31.49c0,0,3.15-1.72,12.25,5.5Q42.72,257.86,44.5,259.09Z"/><path class="cls-47" d="M93.72,123c3.27,1.7,7.85,10.62,2.74,14a16.36,16.36,0,0,0-.65-3.93c-1.43-5-5.1-7-13,1.18C80.58,136.58,70.11,146.7,66,153.79a9.82,9.82,0,0,0,.06,10.27c-11.47,11.58-18.56-10-23.55-12.58s-2-5.3,2.5-4c10,2.94,9.45-7.61,4.2-21.51s10-15.21,14.26-15.61,3.85-3.44.06-3.08c6.78-.91,12.85-.75,17,2.82C87.81,116.41,90.44,121.25,93.72,123Z"/><path class="cls-7" d="M96.46,137A13.1,13.1,0,0,1,94,145.4c-2.22,3-3.67,5.77-3.27,11.93s-5.13,3.16-5.52,4.2a7.71,7.71,0,0,1-4.59,4.19c-1,.38-1.29,2.06-3.38,2.85a7.16,7.16,0,0,1-2.79.39,10,10,0,0,1-1.17-.08,7.94,7.94,0,0,1-2-.5,10.4,10.4,0,0,1-5.13-4.32A9.82,9.82,0,0,1,66,153.79c4.07-7.09,14.54-17.21,16.79-19.54,7.88-8.17,11.55-6.18,13-1.18A16.36,16.36,0,0,1,96.46,137ZM83.54,150a1.5,1.5,0,1,0-1.5,1.49A1.5,1.5,0,0,0,83.54,150Z"/><path class="cls-12" d="M91.35,270.74a17.55,17.55,0,0,0,1,2.95c-.75-.31-1.58-.61-2.54-.91C89.78,272.78,89.78,270.77,91.35,270.74Z"/><path class="cls-39" d="M89.07,200.36c7.55,9.82,3.47,14.68-2.07,17.19h0a12.82,12.82,0,0,0-4-4.79c4.24-7.14-5-14.76-1.89-13s7.22-3.94-6-22.64h0c1.45-1.82-.24-4.7-.68-8.1a7.16,7.16,0,0,0,2.79-.39S94.64,190.78,89.07,200.36Z"/><path class="cls-48" d="M81.13,199.71c-3.16-1.71,6.13,5.91,1.89,13a49.8,49.8,0,0,0-4.4-3.21C75.52,196.82,64,185.28,64,185.28s12.06.25,5.89-6.3c3-.32,4.55-1,5.27-1.91C88.35,195.77,84.28,201.41,81.13,199.71Z"/><path class="cls-7" d="M82,148.49a1.5,1.5,0,1,1-1.49,1.5A1.5,1.5,0,0,1,82,148.49Z"/><path class="cls-47" d="M78.62,209.55a21.13,21.13,0,0,1-.48,12.71c1.17-6.86-16.83-17.58-27.19-23.33s3.55-2,3-4.47-2.88-21.65-31.35-28c.91-7.34,12.59-4.84,9.18-8.25s-.12-5.13,3.81-5.13c0,0,5.64-1.3,10.62,10.38s22.31,10,25,4.87a7.94,7.94,0,0,0,2,.5,10,10,0,0,0,1.17.08c.44,3.4,2.13,6.28.68,8.1h0c-.72,1-2.29,1.59-5.27,1.91,6.17,6.55-5.89,6.3-5.89,6.3S75.52,196.82,78.62,209.55Z"/><path class="cls-48" d="M51,198.93c10.36,5.75,28.36,16.47,27.19,23.33v0a18,18,0,0,1-1.35,2.76C69.33,236.31,63,222.54,63,222.54c-6.28,3.27-14.15-13.13-26.74-28.35s-26.64-16-30.58-8.66c-4.84-7.86-5-14.68,8.27-19.27.27-9.45,5.52-14.86,9.45-14.78,2.89-4,11.8-2,13.25-1.49-3.29,1.57-1,3.14-1,3.14-3.93,0-7.22,1.72-3.81,5.13s-8.27.91-9.18,8.25c28.47,6.3,30.83,25.45,31.35,28S40.59,193.14,51,198.93Z"/><path class="cls-49" d="M66.1,164.06a10.4,10.4,0,0,0,5.13,4.32c-2.69,5.09-20,6.79-25-4.87s-10.62-10.38-10.62-10.38-2.24-1.57,1-3.14c-7.75-5.5-11.16-9.31-8.54-18.63s7-19.29,19.42-21.25c5.36-.84,10.86-2.13,16-2.82h.06c3.79-.36,4.18,2.69-.06,3.08S44,112.07,49.25,126s5.77,24.45-4.2,21.51c-4.46-1.31-7.48,1.41-2.5,4S54.63,175.64,66.1,164.06Z"/><path class="cls-39" d="M44,275.66c15.34.14,15.48,2.76,12.72,6a23.39,23.39,0,0,0-2.22.8c-.77.31-1.52.61-2.25.86-13.33.05-52.85-6.91-48.53-23.15a9,9,0,0,1-.8-1.84.14.14,0,0,1,0-.11l2.64-.33c1.63,6.18,14.84-3.38,10.94,5.14C12.12,272.47,28.66,275.53,44,275.66Z"/><path class="cls-45" d="M9.71,303A21.36,21.36,0,0,1,9.49,298C3.06,285.5-2.74,266.49,2.92,258.35a9,9,0,0,0,.8,1.84c-4.32,16.24,35.2,23.2,48.53,23.15-16.8,6.14-22.95-.86-22.95-.86-7.47,4.07-13.38,18,4.73,21.13s-3,6.82,2.49,8.52,0,2-1.43,3.55C18.8,312.35,11.21,310.9,9.71,303Z"/><path class="cls-39" d="M47.54,229.47c10.22,2.12-12.66,17.94-3,29.62q-1.77-1.23-3.47-2.58c-9.1-7.22-12.25-5.5-12.25-5.5-.52-8.54.66-20.47,2-31.49s2-13.65,1.18-16.54,4.59-3.52,5.91,6.57S37.3,227.36,47.54,229.47Z"/><path class="cls-45" d="M35.09,315.68c-3.4,2.41-3.87,8.1,2.15,9.61C-10.82,320.92-2,304.13,9.71,303,11.21,310.9,18.8,312.35,35.09,315.68Z"/><path class="cls-39" d="M4.53,198.23c.33-.51,4.88-7.31,9.3,2.91,4.59,10.61-7.09,43.17-8.39,54.19a6.85,6.85,0,0,0,.08,2.58l-2.64.33c-3.79-11.23-4-50.2.39-66.75C3.27,191.49,6.21,191.71,4.53,198.23Z"/></g></g></g></svg>