<svg xmlns="http://www.w3.org/2000/svg" viewBox="0 0 421.25 352.41"><defs><style>.cls-1{fill:#004e60;}.cls-2{fill:#006280;}.cls-3{fill:#a66947;}.cls-4{fill:#875032;}.cls-5{fill:#e8dfd9;}.cls-6{fill:#82736f;}.cls-7{fill:#a08f8a;}.cls-8{fill:#514745;}.cls-9{fill:#402644;}.cls-10{fill:#5f3663;}.cls-11{fill:#3a261e;}.cls-12{fill:#5c3a2d;}.cls-13{fill:#ba7652;}.cls-14{fill:#fff;}.cls-15{fill:#935f42;}.cls-16{fill:#7c1f32;}.cls-17{fill:#962438;}.cls-18{fill:#442e21;}.cls-19{fill:#664530;}.cls-20,.cls-23{fill:#312f4e;}.cls-21,.cls-22{fill:none;stroke:#000;stroke-miterlimit:10;}.cls-22{stroke-dasharray:3.97 3.97;}.cls-23{font-size:10px;font-family:Montserrat-Regular, Montserrat;}.cls-24{letter-spacing:-0.04em;}.cls-25{letter-spacing:-0.01em;}.cls-26{letter-spacing:0em;}</style></defs><title>Asset 1</title><g id="Layer_2" data-name="Layer 2"><g id="artwork"><path class="cls-1" d="M153.22,118c1.4,11.44,2.84,17.75,2.64,25l-2.22-.05a30.08,30.08,0,0,0-3.19-13.9c-4-8.87-8.68-28.76-7.33-43.24s-1.73-19.1-5-19.1S123.44,68.6,117.55,61a13.18,13.18,0,0,0,2.68-1.47c1.57-1.19,1.85-2.35,1-2.94,0,0,.65-1.68,3.61.51s9.78,4,15.57,6.05,7.72,6,8.11,17.5S151.17,101,153.22,118Z"/><path class="cls-1" d="M153.64,142.91l2.22.05a59.51,59.51,0,0,1-1.61,11.92c-3.21,14.29.65,15.06-1.41,19.18s-1.8,8.62-4.37,15.83a33.69,33.69,0,0,0-4.25-2c2.26-1.81.56-4.2,2.76-7.88a4.84,4.84,0,0,0,.36-4c-1.09-3.29-.43-8.9,3.11-18.78A46.71,46.71,0,0,0,153.64,142.91Z"/><path class="cls-2" d="M68.93,178.39c3-4.89-1.08-7.78-1.08-12.3a9.21,9.21,0,0,1,1.75-5.16c3.46-5.25.58-11.74-.81-18.16h0c-.72-3.32-1-6.64.14-9.75,2.53-6.72,7.34-38,3.36-43,3.49,12.22-5.78,43-5.9,47.61-.14,5.2,1.17,11.17,1,14.29,0,.25-.06.51-.08.76a65.39,65.39,0,0,0-.58,13.43c0,2.2.11,4.28,0,6.14C66.62,174.81,67.81,176.63,68.93,178.39Zm1.49,6.54s-8.43,1.61-14.36,5c-2.57-7.21-2.31-11.71-4.37-15.83s1.8-4.89-1.41-19.18-1-19.94,1-36.93,4.38-25.87,4.76-37.32,2.32-15.44,8.12-17.5,12.6-3.86,15.56-6.05,3.61-.51,3.61-.51c-1,.67-.53,2.06,1.66,3.41,2.82,1.74,8.43,3.41,17.26,3.41,7.1,0,12.12-1.08,15.28-2.41,5.89,7.62,17.37,5.69,20.61,5.69s6.31,4.63,5,19.1,3.28,34.37,7.33,43.24a30.08,30.08,0,0,1,3.19,13.9,46.71,46.71,0,0,1-3.19,14.29c-3.54,9.88-4.2,15.49-3.11,18.78a4.84,4.84,0,0,1-.36,4c-2.2,3.68-.5,6.07-2.76,7.88a63.47,63.47,0,0,0-10.1-3c-.92-2.68.23-4.56,1.48-6.54,1.11-1.75,2.31-3.58,2.18-6.13-.09-1.86,0-3.94,0-6.14a66.8,66.8,0,0,0-.57-13.43,90.38,90.38,0,0,0-1.49-9.92h0c.72-3.32,1-6.64-.15-9.75-2.26-6-6.34-31.61-4.34-40.56,1.25-2.94-1.24-3.07-2.63,1s-5.51,15.44-1.52,28.44,9.52,15.44,2.51,28.95,4.91,25.59-4.2,37.76c-5.8.57-14.54,1.24-23.14,1.24a265.52,265.52,0,0,1-30-2A31.06,31.06,0,0,1,70.42,184.93Z"/><path class="cls-3" d="M148.47,194.32c0,1.38-.14,2.34-.73,2.87h0a2.11,2.11,0,0,1-1.39.47c-.78,1.93-1.61,1.93-3.15,2.19-.55,1.7-1.69,4.1-2.49,5.9-.23.52-.44,1-.6,1.37-.71,1.74-2.13,1.67-3.8,1-.75.2-1.94.69-3,1-1.28.36-2.45.5-2.69-.3-.45-1.48,1.74-2.58,3.42-3.93-.33-1.09.77-5-.14-7.75-1.09,9.17-4.62,6.38-4.21,4.5.26-1.19-.15-2.86.23-4.14a12.52,12.52,0,0,0,.32-5.09c-.17-1.26.9-2.87,2.05-4.56a33.33,33.33,0,0,0,1.88-3,63.47,63.47,0,0,1,10.1,3,33.69,33.69,0,0,1,4.25,2S148.4,192.2,148.47,194.32Z"/><path class="cls-4" d="M147.73,197.2a17,17,0,0,0-.94,5c-.06,1.15-1.67,1.29-2.63,1-.53,2.38-.42,3.24-3.46,2.62.8-1.8,1.94-4.2,2.49-5.9,1.54-.26,2.37-.26,3.15-2.19A2.11,2.11,0,0,0,147.73,197.2Z"/><path class="cls-5" d="M140.9,346.25c1.93,1.92,1.54,4.44,0,5.49s-6.37.32-11.58.66-8.43-7.14-12.36-8.06-5-2.45-4.37-4.4c.2,1.27,2,2.21,4.24,2.61a19.63,19.63,0,0,1,7.86,3.17,11.55,11.55,0,0,0,4.51,1.36l.25,0a33.32,33.32,0,0,0,10.09-.48h0A11.15,11.15,0,0,0,140.9,346.25Z"/><path class="cls-6" d="M135.51,340.73c3.08,2.74,6.62,4.13,5.39,5.52a11.15,11.15,0,0,1-1.35.38c1.33-.39-2.07-3.88-6.12-3.62s-6.36,3.67-4.23,4.07a11.55,11.55,0,0,1-4.51-1.36,19.63,19.63,0,0,0-7.86-3.17c-2.25-.4-4-1.34-4.24-2.61-.52-3.21-1.1-6.18.19-8,3-.14,3.79.13,5.86-.53s6.11-2,9.39,0a7.78,7.78,0,0,1,2.12,1.91c-2.36-.45-5.92.37-7.18,2.2a1.21,1.21,0,0,0,.27,1.66,1.07,1.07,0,0,0,.74.2,0,0,0,0,0,0,0,1.19,1.19,0,0,0,.27,1.65,1.1,1.1,0,0,0,.87.21.87.87,0,0,0,.25-.1l0,.05a1.22,1.22,0,0,0,.27,1.67,1.11,1.11,0,0,0,.87.2,1.66,1.66,0,0,0,.37-.14l-.16.2a1.21,1.21,0,0,0,.27,1.66,1.15,1.15,0,0,0,.87.2,1.16,1.16,0,0,0,.75-.48c.66-.95,3.93-1.75,5.38-1.08a1.16,1.16,0,0,0,1.54-.6.29.29,0,0,0,0-.09Z"/><path class="cls-7" d="M133.43,343c4-.26,7.45,3.23,6.12,3.62h0a33.32,33.32,0,0,1-10.09.48l-.25,0C127.07,346.68,129.52,343.27,133.43,343Z"/><path class="cls-1" d="M135.59,133c1.18,3.11.87,6.43.15,9.75h0c-1.39,6.42-4.27,12.91-.82,18.16a9.26,9.26,0,0,1,1.76,5.16c0,4.52-4.08,7.41-1.08,12.3-1.25,2-2.4,3.86-1.48,6.54a33.33,33.33,0,0,1-1.88,3s-2.65.35-6.83.75c9.11-12.17-2.81-24.25,4.2-37.76s1.48-15.95-2.51-28.95.13-24.32,1.52-28.44,3.88-4,2.63-1C129.25,101.4,133.33,127,135.59,133Z"/><path class="cls-8" d="M134.9,339.24a1.19,1.19,0,0,1,.6,1.49.29.29,0,0,1,0,.09,1.16,1.16,0,0,1-1.54.6c-1.45-.67-4.72.13-5.38,1.08a1.16,1.16,0,0,1-.75.48,1.15,1.15,0,0,1-.87-.2,1.21,1.21,0,0,1-.27-1.66l.16-.2a1.66,1.66,0,0,1-.37.14,1.11,1.11,0,0,1-.87-.2,1.22,1.22,0,0,1-.27-1.67l0-.05a.87.87,0,0,1-.25.1,1.1,1.1,0,0,1-.87-.21,1.19,1.19,0,0,1-.27-1.65,0,0,0,0,1,0,0,1.07,1.07,0,0,1-.74-.2,1.21,1.21,0,0,1-.27-1.66c1.26-1.83,4.82-2.65,7.18-2.2a4.71,4.71,0,0,1,1,.32,1.21,1.21,0,0,1,.59,1.58.54.54,0,0,1-.09.12c.18.06.35.12.51.19a1.2,1.2,0,0,1,.58,1.56,4.09,4.09,0,0,1,.77.26,1.2,1.2,0,0,1,.58,1.57s0,.05,0,.08A4.64,4.64,0,0,1,134.9,339.24Z"/><path class="cls-9" d="M133.85,197.19c.91,2.77-.19,6.66.14,7.75-1.68,1.35-3.87,2.45-3.42,3.93.24.8,1.41.66,2.69.3-.19,9.13-.15,38.82-2.47,48.73s1.17,16.27.78,31.55-3.67,16.86-3.16,22.22,3.36,13.09-.52,17.49a3.91,3.91,0,0,0-3.09-2c3.88-6.29-3.88-13.2-.4-21.31s4.44-20.66,3.75-25.29-3.75-20.46-.26-33-6.78-21.81-3.87-36.1,3.66-19.49-7.34-17.95-20.27,2.71-42.34-1c.16-1.26-.9-2.87-2-4.56a265.52,265.52,0,0,0,30,2c8.6,0,17.34-.67,23.14-1.24,4.18-.4,6.83-.75,6.83-.75-1.15,1.69-2.22,3.3-2.05,4.56a12.52,12.52,0,0,1-.32,5.09c-.38,1.28,0,2.95-.23,4.14C129.23,203.57,132.76,206.36,133.85,197.19Z"/><path class="cls-10" d="M128.15,280.55c.69,4.63-.28,17.18-3.75,25.29s4.28,15,.4,21.31a11,11,0,0,0-2-.21c-4.38-.06-5.22,2.18-4.12,4.44-2.07.66-2.84.39-5.86.53a3.84,3.84,0,0,1-.78-5c-2.82-2.28-1-5.25.59-8.33s-3.53-2.08-2.07-15.27,2-21.82,1.48-25.79,2.12-3.48.9-7.45-5.72-20.67-5.16-33.47c.48-10.86-2.78-25.38-4.64-33.26a.86.86,0,0,0-.88-.66c-2-.21-2.46.47-3.49,2.36-3.67,6.76-5.41,25.1-5.21,33.4.16,7.15-.24,17.59-2.09,25.33a35.89,35.89,0,0,1-1,3.51c-3.77,10.88-1.35,21.73-1,30s2.75,14.67-1,19.11c-2.94,3.42,2.07,5.63,1.87,10.39a9.67,9.67,0,0,1-1.87,5h0a8.84,8.84,0,0,1-2.54-.46c1.09-2.26.26-4.5-4.12-4.44-2.91,0-4.53.91-5.12,2.22h0c-3.87-4.4-1-12.14-.52-17.49s-2.78-6.95-3.16-22.22,3.09-21.63.78-31.55-2.28-39.6-2.47-48.73c1.28.36,2.45.5,2.69-.3.45-1.48-1.75-2.58-3.42-3.93.32-1.09-.77-5,.13-7.75,1.1,9.17,4.63,6.38,4.21,4.5-.25-1.19.17-2.86-.22-4.14a12.52,12.52,0,0,1-.32-5.09c22.07,3.74,31.33,2.58,42.34,1s10.23,3.67,7.34,17.95,7.36,23.55,3.87,36.1S127.46,275.92,128.15,280.55Z"/><path class="cls-7" d="M127.89,329.16a3.45,3.45,0,0,1,.14,2.22c-3.28-2-7.34-.67-9.39,0-1.1-2.26-.26-4.5,4.12-4.44a11,11,0,0,1,2,.21A3.91,3.91,0,0,1,127.89,329.16Z"/><path class="cls-4" d="M121.18,56.57c.9.59.62,1.75-1,2.94h0a12.93,12.93,0,0,1-8.56-8.08c-5.22,6-9.65,2.89-9.39-.8,5.11,0,10-3.19,12.26-12.84C113.71,50.65,112.3,51.93,121.18,56.57Z"/><path class="cls-3" d="M120.22,59.5h0A13.18,13.18,0,0,1,117.55,61c-3.16,1.33-8.18,2.41-15.28,2.41C93.44,63.39,87.83,61.72,85,60c5-1.61,8.19-6.16,4.58-8,1.65-2.63.92-6.16.42-14.16,2.21,9.65,7.14,12.84,12.26,12.84-.26,3.69,4.17,6.78,9.39.8A12.93,12.93,0,0,0,120.22,59.5Z"/><path class="cls-11" d="M118.9,19.54c.57,1-.35,4.44-1.56,7.77a54.45,54.45,0,0,1-2.12,5.06c.4-6.46.8-8.68-.49-11.57s-4.37-2.72-3.68-5.42c-7.66,1.93-16.2,4.83-17.79.39-1,2.31-3.88,2.8-3.88,2.8.6,5.31-.9,10.71-.1,13.8-.76-1.65-1.44-3.4-2-5.08-.65-1.84-1.19-3.59-1.62-5.05-.81-2.8.39-4.73-.91-8s.3-9.85,5.86-9.56C91.67,1.29,95.94,2,95.94,2c1-1.25,3.37-2,6-2-3.12,4,6.5,3.06,2,6.63s-.29,7.14,3.58,6.66,8-2.22,7.24,0,2.6,4.06,4,2.09C122,16.25,118.9,19.54,118.9,19.54Z"/><path class="cls-3" d="M117.36,27.32c1.19.34,1.82,1.23,1.51,2.93-.39,2.12-1.64,6.86-4.34,7.53-2.23,9.65-7.15,12.84-12.26,12.84S92.22,47.43,90,37.78c-2.7-.67-4-5.41-4.34-7.53-.32-1.7.3-2.59,1.5-2.93l.07,0c.6,1.68,1.28,3.43,2,5.08-.8-3.09.7-8.49.1-13.8,0,0,2.88-.49,3.88-2.8,1.59,4.44,10.13,1.54,17.79-.39-.69,2.7,2.39,2.51,3.68,5.42s.89,5.11.49,11.57a54.45,54.45,0,0,0,2.12-5.06Zm-8,1A1.3,1.3,0,1,0,108,29.6,1.3,1.3,0,0,0,109.33,28.29Zm-11.52,0A1.31,1.31,0,1,0,96.5,29.6,1.31,1.31,0,0,0,97.81,28.29Z"/><path class="cls-12" d="M117.91,9.69c1.39,0,2.48,4,.79,5.69-1.35,2-4.72.14-4-2.09s-3.38-.48-7.24,0-8.11-3.09-3.58-6.66S98.86,4,102,0c3.69,0,8,1.45,10.07,4.87C115.62,10.75,116.51,9.69,117.91,9.69Z"/><path class="cls-3" d="M108,27a1.31,1.31,0,1,1-1.3,1.3A1.3,1.3,0,0,1,108,27Z"/><path class="cls-9" d="M98.73,205.07c1-1.89,1.54-2.57,3.49-2.36a.85.85,0,0,0-.79.66c-1.86,7.88-5.11,22.4-4.64,33.26.41,9.27-1.84,20.58-3.58,27.62l-1.78-.45c1.85-7.74,2.25-18.18,2.09-25.33C93.32,230.17,95.06,211.83,98.73,205.07Z"/><path class="cls-3" d="M96.5,27a1.31,1.31,0,1,1-1.3,1.3A1.31,1.31,0,0,1,96.5,27Z"/><path class="cls-9" d="M94,303.34c1.46,13.19-3.67,12.2-2.06,15.27s3.42,6.05.59,8.33l-2.23-.09c.2-4.76-4.81-7-1.87-10.39,3.78-4.44,1.41-10.82,1-19.11s-2.81-19.16,1-30a35.89,35.89,0,0,0,1-3.51l1.78.45c-.66,2.69-1.25,4.76-1.58,5.85-1.22,4,1.4,3.48.9,7.45S92.55,290.14,94,303.34Z"/><path class="cls-9" d="M92.53,326.94a3.84,3.84,0,0,1-.78,5c-1.53-.07-2.49,0-3.32-.07h0a9.67,9.67,0,0,0,1.87-5Z"/><path class="cls-6" d="M91.75,331.91c1.28,1.85.7,4.82.19,8-.21,1.27-2,2.21-4.24,2.61a19.49,19.49,0,0,0-7.85,3.17,11.6,11.6,0,0,1-4.53,1.36c2.14-.4-.31-3.81-4.22-4.07s-7.46,3.23-6.12,3.62a10.66,10.66,0,0,1-1.35-.38c-1.24-1.39,2.32-2.78,5.39-5.52h0a.32.32,0,0,0,0,.09,1.15,1.15,0,0,0,1.53.6c1.45-.67,4.73.13,5.39,1.08a1.16,1.16,0,0,0,.75.48,1.15,1.15,0,0,0,.87-.2,1.21,1.21,0,0,0,.27-1.66l-.16-.2a1.66,1.66,0,0,0,.37.14,1.11,1.11,0,0,0,.87-.2,1.22,1.22,0,0,0,.27-1.67l0-.05a.64.64,0,0,0,.24.1,1.1,1.1,0,0,0,.87-.21,1.2,1.2,0,0,0,.27-1.65l0,0a1.09,1.09,0,0,0,.75-.2,1.21,1.21,0,0,0,.27-1.66c-1.26-1.83-4.81-2.65-7.18-2.2a7.78,7.78,0,0,1,2.12-1.91c3.28-2,7.33-.67,9.39,0a8.84,8.84,0,0,0,2.54.46C89.26,331.87,90.22,331.84,91.75,331.91Z"/><path class="cls-5" d="M91.94,339.94c.65,1.95-.45,3.47-4.38,4.4s-7.14,8.4-12.34,8.06-10,.4-11.59-.66-1.93-3.57,0-5.49a10.66,10.66,0,0,0,1.35.38h0a33.27,33.27,0,0,0,10.08.48l.25,0a11.6,11.6,0,0,0,4.53-1.36,19.49,19.49,0,0,1,7.85-3.17C89.94,342.15,91.73,341.21,91.94,339.94Z"/><path class="cls-13" d="M89.59,51.94c3.61,1.88.45,6.43-4.58,8-2.19-1.35-2.68-2.74-1.66-3.41C86.69,54.82,88.58,53.54,89.59,51.94Z"/><path class="cls-7" d="M81.77,326.94c4.38-.06,5.21,2.18,4.12,4.44-2.06-.67-6.11-2-9.39,0a3.32,3.32,0,0,1,.15-2.22C77.24,327.85,78.86,327,81.77,326.94Z"/><path class="cls-8" d="M81.56,335.49a1.21,1.21,0,0,1-.27,1.66,1.09,1.09,0,0,1-.75.2l0,0a1.2,1.2,0,0,1-.27,1.65,1.1,1.1,0,0,1-.87.21.64.64,0,0,1-.24-.1l0,.05a1.22,1.22,0,0,1-.27,1.67,1.11,1.11,0,0,1-.87.2,1.66,1.66,0,0,1-.37-.14l.16.2a1.21,1.21,0,0,1-.27,1.66,1.15,1.15,0,0,1-.87.2,1.16,1.16,0,0,1-.75-.48c-.66-.95-3.94-1.75-5.39-1.08a1.15,1.15,0,0,1-1.53-.6.32.32,0,0,1,0-.09,1.2,1.2,0,0,1,.62-1.49,4.53,4.53,0,0,1,.81-.27s0,0,0-.08a1.2,1.2,0,0,1,.59-1.57,4,4,0,0,1,.76-.26,1.2,1.2,0,0,1,.59-1.56,4.77,4.77,0,0,1,.5-.19.54.54,0,0,1-.09-.12,1.22,1.22,0,0,1,.58-1.58,5,5,0,0,1,1-.32C76.75,332.84,80.3,333.66,81.56,335.49Z"/><path class="cls-7" d="M71.1,343c3.91.26,6.36,3.67,4.22,4.07l-.25,0A33.27,33.27,0,0,1,65,346.64h0C63.64,346.24,67.05,342.75,71.1,343Z"/><path class="cls-3" d="M74.88,201.69c.42,1.88-3.11,4.67-4.21-4.5-.9,2.77.19,6.66-.13,7.75,1.67,1.35,3.87,2.45,3.42,3.93-.24.8-1.41.66-2.69.3-1.1-.31-2.3-.8-3-1-1.68.63-3.09.7-3.8-1-.16-.39-.36-.85-.59-1.37-.82-1.8-2-4.2-2.5-5.9-1.54-.26-2.38-.26-3.15-2.19a2.15,2.15,0,0,1-1.4-.47h0c-.6-.53-.76-1.5-.73-2.87.07-2.12,0-4.43,0-4.43,5.93-3.35,14.36-5,14.36-5a31.06,31.06,0,0,0,1.87,3c1.15,1.69,2.21,3.3,2,4.56a12.52,12.52,0,0,0,.32,5.09C75.05,198.83,74.63,200.5,74.88,201.69Z"/><path class="cls-1" d="M72.29,90c4,5-.83,36.26-3.36,43-1.17,3.11-.86,6.43-.14,9.75h0a82.9,82.9,0,0,0-1.4,9.16c.17-3.12-1.14-9.09-1-14.29C66.51,133,75.78,102.25,72.29,90Z"/><path class="cls-14" d="M67.31,152.69c0-.25.06-.51.08-.76C67.37,152.21,67.35,152.46,67.31,152.69Z"/><path class="cls-15" d="M61.34,199.86c.55,1.7,1.68,4.1,2.5,5.9-3.05.62-3-.24-3.46-2.62-1,.33-2.58.19-2.64-1a17,17,0,0,0-1-5,2.15,2.15,0,0,0,1.4.47C59,199.6,59.8,199.6,61.34,199.86Z"/><path class="cls-3" d="M275,132.74c1.15,9.81,2.52,14.14,1.15,24.94s-3.35,28.31-2.85,32.46,1.53,8.67,1.78,12.06-.35,4.56-1.72,4.61c-.3.81-.25,1.73-1.93,2.13a3.84,3.84,0,0,1-1.95,1.61c-1.42.67-3.19,1.12-4,1.59-1.37.75-4.25,2.63-4.1.5a3.18,3.18,0,0,1,.52-1.47c.93-1.5,2.87-2.79,4.14-3.75.95-.73,1.37-2.34,1.47-4a15.44,15.44,0,0,0-.2-3.45c-.41-2.18-1.53-2.64-1.83.26-.18,1.74-.08,3.07-.34,4.46h0a7.8,7.8,0,0,1-1.22,2.92,3.06,3.06,0,0,1-1.56,1.41c-1.06.28-1.77-1-1.41-2.88a22.47,22.47,0,0,0,.48-7.45c-.19-3.95-.09-7.19,2-10.43s2.68-5.48,2.48-13.18c-.08-3.08-.5-7.67-1.05-12.52-.82-7.29-1.93-15.17-2.6-19.31-1.11-6.9-.41-18.75-1.3-31.52a27.5,27.5,0,0,0,.39-9.94c-.79-4-2.28-12.12-1.19-17.2a2.74,2.74,0,0,0,.18-.74c.68-2.4,2.06-4,4.55-3.75a7.27,7.27,0,0,1,3.43,1.13c4.66,3,5.52,11.41,5.7,19.55C274.06,103.35,273.9,122.94,275,132.74Z"/><path class="cls-16" d="M265.48,212.14c.84-.47,2.61-.92,4-1.59-5,49.91,2.26,43.9-6,46.94a22.2,22.2,0,0,1-6,1.25c6.69-5.88-1.09-37.84-3.85-63.18s-6.76-27-.48-42.78-14.39-34-1.62-37.7,1.62-25.14,3.85-30.48c2-4.87,5.13-3.19,4.84-.74a7.29,7.29,0,0,0-.18.74c-1.09,5.08.4,13.16,1.19,17.2a27.5,27.5,0,0,1-.39,9.94c-.72,4-1.85,8.11-2.66,12.06-1.51,7.5-2.52,17.23,1.63,27.87,1.69,4.32,3.71,8.27,4.93,10.9.55,4.85,1,9.44,1.05,12.52.2,7.7-.39,9.93-2.48,13.18s-2.18,6.48-2,10.43a22.47,22.47,0,0,1-.48,7.45c-.36,1.86.35,3.16,1.41,2.88a2.8,2.8,0,0,0-.45,2.14,3.18,3.18,0,0,0-.52,1.47C261.23,214.77,264.11,212.89,265.48,212.14Z"/><path class="cls-17" d="M258.59,76.87c5.27,1.22,10.33,2.68,9.71,4.36h0a7.27,7.27,0,0,0-3.43-1.13c-2.49-.2-3.87,1.35-4.55,3.75.29-2.45-2.81-4.13-4.84.74-2.23,5.34,8.92,26.83-3.85,30.48s7.91,21.9,1.62,37.7-2.28,17.44.48,42.78,10.54,57.3,3.85,63.18c-5.4.42-11.41-.62-18.33-1.07-1.76-.11-3.59-.18-5.49-.18s-3.73.07-5.5.18c-6.92.45-12.92,1.49-18.32,1.07a22.34,22.34,0,0,1-6-1.25c-8.2-3-.94,3-5.94-46.94,1.42.67,3.18,1.12,4,1.59,1.37.75,4.25,2.63,4.09.5a3.07,3.07,0,0,0-.52-1.47,2.74,2.74,0,0,0-.45-2.14c1.07.28,1.78-1,1.41-2.88a23,23,0,0,1-.49-7.45c.21-3.95.11-7.19-2-10.43s-2.67-5.48-2.47-13.18c.08-3.08.5-7.67,1.05-12.52,1.22-2.63,3.24-6.58,4.93-10.9,4.15-10.64,3.14-20.37,1.62-27.87-.8-4-1.94-8.1-2.66-12.06a27.71,27.71,0,0,1-.38-9.94c1.21-6.28,4.16-22.29-3.54-21.69a7.27,7.27,0,0,0-3.43,1.13h0c-.62-1.68,4.44-3.14,9.71-4.36a9.4,9.4,0,0,0,1.81-.58c3.53-1.46,3.87-3.89,6-2,2.43,2.23,8.72,7.09,17,6.89,8.31.2,14.59-4.66,17-6.89,1.72-1.57,2.27-.28,4.3,1A10.18,10.18,0,0,0,258.59,76.87Z"/><path class="cls-4" d="M267.31,200a15.44,15.44,0,0,1,.2,3.45h0s-2.1.3-2.36,1.27c.26-1.39.16-2.72.34-4.46C265.78,197.33,266.9,197.79,267.31,200Z"/><path class="cls-16" d="M267.5,203.42h0c-.1,1.66-.52,3.27-1.47,4-1.27,1-3.21,2.25-4.14,3.75a2.8,2.8,0,0,1,.45-2.14,3.06,3.06,0,0,0,1.56-1.41,7.8,7.8,0,0,0,1.22-2.92h0C265.4,203.72,267.5,203.42,267.5,203.42Z"/><path class="cls-14" d="M260.32,83.86a2.74,2.74,0,0,1-.18.74A7.29,7.29,0,0,1,260.32,83.86Z"/><path class="cls-11" d="M255.4,58.59c2.32,4.18,6.51,7.48,3.75,11.67.79,2.31,2,3.77-.56,6.61a10.18,10.18,0,0,1-3.51-1.48c4.76-4.83-3.55-7.54,0-11.22,0,0-9,1.25-5.18-12.24a24,24,0,0,0,.56-11.21l2.43-.41c.14.82.26,1.66.36,2.51C254.41,52.52,253.09,54.4,255.4,58.59Z"/><path class="cls-15" d="M257.58,258.74c.31,9,2.68,19-.69,32.3-4,16-6.48,24.93-6.18,31.73a69.76,69.76,0,0,1-.38,9.11s0,.09,0,.14a16.65,16.65,0,0,0,.36,4.73c.74,3.24,1,6.27-.85,7.71-1-4.45-3-9.83-2.45-13.89,1-7.5.8-14.8,2.42-24.12s4.06-20.88,4.07-38.48c-4.16-.09-9.93,2.29-13.63-1.08-.23-3.43-.84-5.92-1-9.21h0C246.17,258.12,252.18,259.16,257.58,258.74Z"/><path class="cls-12" d="M255.08,64.17c-3.55,3.68,4.76,6.39,0,11.22-2-1.33-2.58-2.62-4.3-1-1.61-.71-2.9-1.24-3.91-1.74-3.36-1.63-3.82-2.83-4.19-8.43-.53-8,3.48-16.36,1.5-25.62-1.12-5.24-9.89-1.52-16.65-6.59A43.56,43.56,0,0,1,222,43.35c-2.1,3.21-4.43-.33-2-5.1-1.72.31-1.57-2.91-1.57-2.91,2.33-5.59,6.32-10.47,9.62-9.89-1.36,2.87,2.9,4.39,12.22,2.67,3.47-.43,8.69,4.8,10.18,12.6a24,24,0,0,1-.56,11.21C246.06,65.42,255.08,64.17,255.08,64.17Z"/><path class="cls-3" d="M240.24,266.89c3.7,3.37,9.47,1,13.63,1.08,0,17.6-2.44,29.15-4.07,38.48s-1.4,16.62-2.42,24.12c-.56,4.06,1.41,9.44,2.45,13.89a5.3,5.3,0,0,1-3.47.91c-5.48-.1-5.79-4.16-5.48-10.24a37.51,37.51,0,0,1,.77-5.44,39.33,39.33,0,0,0,.45-15.24c-1.63-10.74-3.76-26.15-2.23-38.11A47.65,47.65,0,0,0,240.24,266.89Z"/><path class="cls-18" d="M253.24,344.46c1.53,5-.61,7.73-4.91,7.93,2.58-1.06,2.38-4.16,1.5-7.93,1.86-1.44,1.59-4.47.85-7.71a16.65,16.65,0,0,1-.36-4.73C250.32,333.8,252.08,340.66,253.24,344.46Z"/><path class="cls-11" d="M252.89,40.31l-2.43.41c-1.49-7.8-6.71-13-10.18-12.6-9.32,1.72-13.58.2-12.22-2.67,0,0,1.25-2.67,10.69-1.78C247.37,24.49,251.37,31.68,252.89,40.31Z"/><path class="cls-19" d="M249.83,344.46c.88,3.77,1.08,6.87-1.5,7.93-6,.27-9.23-2.36-9.23-7.43,0-4,.36-4.36.12-7.91s.24-6.13,2.43-7.36a37.51,37.51,0,0,0-.77,5.44c-.31,6.08,0,10.14,5.48,10.24A5.3,5.3,0,0,0,249.83,344.46Z"/><path class="cls-3" d="M246.87,72.6c1,.5,2.3,1,3.91,1.74-2.43,2.23-8.71,7.09-17,6.89-8.31.2-14.6-4.66-17-6.89,7-3,7.47-5.08,8-12.38,2.43,5.59,5.44,6,9,6-.68,4.27,3.56,4.53,6.92,3.56C241.7,76,246.87,72.6,246.87,72.6Z"/><path class="cls-4" d="M242.68,64.17c.37,5.6.83,6.8,4.19,8.43,0,0-5.17,3.36-6.19-1.1-3.36,1-7.6.71-6.92-3.56C236.7,67.94,240.12,67.41,242.68,64.17Z"/><path class="cls-3" d="M244.18,38.55c2,9.26-2,17.64-1.5,25.62-2.56,3.24-6,3.77-8.92,3.77-3.61,0-6.62-.39-9-6q-.21-.49-.42-1.05c-2.5-6.6-4.52-14.36-2.29-17.56A43.56,43.56,0,0,0,227.53,32C234.29,37,243.06,33.31,244.18,38.55Zm-5.43,8.24A1.25,1.25,0,1,0,237.51,48,1.25,1.25,0,0,0,238.75,46.79Zm-11.23,0A1.25,1.25,0,1,0,226.27,48,1.25,1.25,0,0,0,227.52,46.79Z"/><circle class="cls-3" cx="237.51" cy="46.79" r="1.24"/><path class="cls-18" d="M225.87,329.69c2.19,1.23,2.67,3.82,2.43,7.36s.11,3.86.11,7.91c0,5.07-3.25,7.7-9.22,7.43,3.26-.48,4.66-3.76,5.1-7.76,2.46-1.44,2.57-4.88,2.35-9.5A37.51,37.51,0,0,0,225.87,329.69Z"/><path class="cls-15" d="M228.26,257.67h0c-.24,5.64-1.84,8.92-.61,18.66,1.52,12-.6,27.37-2.23,38.11a39.33,39.33,0,0,0,.45,15.24,37.51,37.51,0,0,1,.77,5.44c.22,4.62.11,8.06-2.35,9.5a44,44,0,0,0-.42-10.62c-1-6.89-3.66-10.74-1-24.37s-.6-25.49-.8-42.29c-4.66.45-8.21,3.52-12.78.47.26-3.17.58-6.18.68-9.08C215.34,259.16,221.34,258.12,228.26,257.67Z"/><path class="cls-3" d="M226.27,45.54A1.25,1.25,0,1,1,225,46.79,1.25,1.25,0,0,1,226.27,45.54Z"/><path class="cls-11" d="M224.29,60.91q.21.56.42,1.05c-.51,7.3-1,9.33-8,12.38-2.12-1.94-2.46.49-6,2-1.4-3.12,0-7.17,4.4-9.45,1.6-4.46,1.5-15,1.32-22.61a22.9,22.9,0,0,1,2-8.89s-.15,3.22,1.57,2.91c-2.44,4.77-.11,8.31,2,5.1C219.77,46.55,221.79,54.31,224.29,60.91Z"/><path class="cls-3" d="M223.87,334a44,44,0,0,1,.42,10.62,6.37,6.37,0,0,1-3.13.74c-5.47.1-5.37-4.06-4.33-8.62a16.59,16.59,0,0,0,.36-4.72s0-.1,0-.15a71.49,71.49,0,0,1-.38-9.11c.31-6.8-2.12-15.72-6.18-31.73-2.28-9-1.92-16.52-1.36-23.22,4.57,3.05,8.12,0,12.78-.47.2,16.8,3.44,28.65.8,42.29S222.87,327.12,223.87,334Z"/><path class="cls-19" d="M221.16,345.37a6.37,6.37,0,0,0,3.13-.74c-.44,4-1.84,7.28-5.1,7.76-4.3-.2-6.44-3-4.92-7.93,1.16-3.79,2.92-10.64,2.92-12.43a16.59,16.59,0,0,1-.36,4.72C215.79,341.31,215.69,345.47,221.16,345.37Z"/><path class="cls-3" d="M206.57,206.15c.37,1.86-.34,3.16-1.41,2.88a3,3,0,0,1-1.55-1.41,7.8,7.8,0,0,1-1.22-2.92c-.28-1.39-.17-2.73-.35-4.47-.31-2.9-1.43-2.44-1.83-.26a14.87,14.87,0,0,0-.2,3.45c.1,1.66.51,3.27,1.47,4,1.26,1,3.21,2.25,4.13,3.75a3.07,3.07,0,0,1,.52,1.47c.16,2.13-2.72.25-4.09-.5-.85-.47-2.61-.92-4-1.59a3.79,3.79,0,0,1-1.95-1.61c-1.68-.4-1.63-1.32-1.93-2.13-1.37-.05-2-1.21-1.73-4.61s1.27-7.91,1.77-12.06-1.46-21.67-2.83-32.46,0-15.13,1.14-24.94,1-29.39,1-31.95c.18-8.14,1-16.56,5.7-19.55a7.27,7.27,0,0,1,3.43-1.13c7.7-.6,4.75,15.41,3.54,21.69a27.71,27.71,0,0,0,.38,9.94c-.89,12.77-.18,24.62-1.3,31.52-.67,4.14-1.77,12-2.59,19.31-.55,4.85-1,9.44-1.05,12.52-.2,7.7.38,9.93,2.47,13.18s2.19,6.48,2,10.43A23,23,0,0,0,206.57,206.15Z"/><path class="cls-17" d="M205.16,209a2.74,2.74,0,0,1,.45,2.14c-.92-1.5-2.87-2.79-4.13-3.75-1-.73-1.37-2.34-1.47-4,0,0,2.11.3,2.37,1.28h0a7.8,7.8,0,0,0,1.22,2.92A3,3,0,0,0,205.16,209Z"/><path class="cls-4" d="M202.39,204.7h0c-.26-1-2.37-1.28-2.37-1.28a14.87,14.87,0,0,1,.2-3.45c.4-2.18,1.52-2.64,1.83.26C202.22,202,202.11,203.31,202.39,204.7Z"/><line class="cls-20" x1="421.25" y1="156.81" y2="156.81"/><line class="cls-21" x1="421.25" y1="156.81" x2="419.25" y2="156.81"/><line class="cls-22" x1="415.28" y1="156.81" x2="3.99" y2="156.81"/><line class="cls-21" x1="2" y1="156.81" y2="156.81"/><text class="cls-23" transform="translate(291.86 175.93)"><tspan class="cls-24">W</tspan><tspan x="10.75" y="0">AI</tspan><tspan class="cls-25" x="20.94" y="0">S</tspan><tspan x="26.99" y="0">T CIR</tspan><tspan class="cls-26" x="52.79" y="0">C</tspan><tspan x="59.96" y="0">UMFERENCE</tspan></text></g></g></svg>